%TF.GenerationSoftware,KiCad,Pcbnew,5.1.6-c6e7f7d~87~ubuntu18.04.1*%
%TF.CreationDate,2020-09-13T15:34:11-06:00*%
%TF.ProjectId,twinkle-led-controller,7477696e-6b6c-4652-9d6c-65642d636f6e,rev?*%
%TF.SameCoordinates,Original*%
%TF.FileFunction,Paste,Top*%
%TF.FilePolarity,Positive*%
%FSLAX46Y46*%
G04 Gerber Fmt 4.6, Leading zero omitted, Abs format (unit mm)*
G04 Created by KiCad (PCBNEW 5.1.6-c6e7f7d~87~ubuntu18.04.1) date 2020-09-13 15:34:11*
%MOMM*%
%LPD*%
G01*
G04 APERTURE LIST*
%ADD10C,0.010000*%
%ADD11R,0.254000X0.900000*%
%ADD12R,0.900000X0.254000*%
%ADD13R,2.300000X2.500000*%
%ADD14R,0.650000X1.060000*%
%ADD15R,1.060000X0.650000*%
%ADD16R,2.000000X0.900000*%
%ADD17R,0.900000X2.000000*%
%ADD18R,5.000000X5.000000*%
%ADD19R,1.500000X2.000000*%
%ADD20R,3.800000X2.000000*%
%ADD21R,0.900000X0.800000*%
%ADD22R,1.500000X1.550000*%
%ADD23R,0.320000X1.080000*%
G04 APERTURE END LIST*
D10*
%TO.C,U2*%
G36*
X203297520Y-83100000D02*
G01*
X204550000Y-83100000D01*
X204550000Y-84349587D01*
X203297520Y-84349587D01*
X203297520Y-83100000D01*
G37*
X203297520Y-83100000D02*
X204550000Y-83100000D01*
X204550000Y-84349587D01*
X203297520Y-84349587D01*
X203297520Y-83100000D01*
G36*
X205050062Y-83100000D02*
G01*
X206300000Y-83100000D01*
X206300000Y-84349938D01*
X205050062Y-84349938D01*
X205050062Y-83100000D01*
G37*
X205050062Y-83100000D02*
X206300000Y-83100000D01*
X206300000Y-84349938D01*
X205050062Y-84349938D01*
X205050062Y-83100000D01*
G36*
X203297480Y-84850000D02*
G01*
X204550000Y-84850000D01*
X204550000Y-86102520D01*
X203297480Y-86102520D01*
X203297480Y-84850000D01*
G37*
X203297480Y-84850000D02*
X204550000Y-84850000D01*
X204550000Y-86102520D01*
X203297480Y-86102520D01*
X203297480Y-84850000D01*
G36*
X205050456Y-84850000D02*
G01*
X206300000Y-84850000D01*
X206300000Y-86102730D01*
X205050456Y-86102730D01*
X205050456Y-84850000D01*
G37*
X205050456Y-84850000D02*
X206300000Y-84850000D01*
X206300000Y-86102730D01*
X205050456Y-86102730D01*
X205050456Y-84850000D01*
%TD*%
D11*
%TO.C,U2*%
X203300000Y-82010000D03*
X203800000Y-82010000D03*
X204300000Y-82010000D03*
X204800000Y-82010000D03*
X205300000Y-82010000D03*
X205800000Y-82010000D03*
X206300000Y-82010000D03*
D12*
X207390000Y-83100000D03*
X207390000Y-83600000D03*
X207390000Y-84100000D03*
X207390000Y-84600000D03*
X207390000Y-85100000D03*
X207390000Y-85600000D03*
X207390000Y-86100000D03*
D11*
X206300000Y-87190000D03*
X205800000Y-87190000D03*
X205300000Y-87190000D03*
X204800000Y-87190000D03*
X204300000Y-87190000D03*
X203800000Y-87190000D03*
X203300000Y-87190000D03*
D12*
X202210000Y-86100000D03*
X202210000Y-85600000D03*
X202210000Y-85100000D03*
X202210000Y-84600000D03*
X202210000Y-84100000D03*
X202210000Y-83600000D03*
X202210000Y-83100000D03*
%TD*%
%TO.C,R15*%
G36*
G01*
X201190000Y-88472500D02*
X201190000Y-88127500D01*
G75*
G02*
X201337500Y-87980000I147500J0D01*
G01*
X201632500Y-87980000D01*
G75*
G02*
X201780000Y-88127500I0J-147500D01*
G01*
X201780000Y-88472500D01*
G75*
G02*
X201632500Y-88620000I-147500J0D01*
G01*
X201337500Y-88620000D01*
G75*
G02*
X201190000Y-88472500I0J147500D01*
G01*
G37*
G36*
G01*
X200220000Y-88472500D02*
X200220000Y-88127500D01*
G75*
G02*
X200367500Y-87980000I147500J0D01*
G01*
X200662500Y-87980000D01*
G75*
G02*
X200810000Y-88127500I0J-147500D01*
G01*
X200810000Y-88472500D01*
G75*
G02*
X200662500Y-88620000I-147500J0D01*
G01*
X200367500Y-88620000D01*
G75*
G02*
X200220000Y-88472500I0J147500D01*
G01*
G37*
%TD*%
D13*
%TO.C,D1*%
X188200000Y-63450000D03*
X188200000Y-59150000D03*
%TD*%
%TO.C,R14*%
G36*
G01*
X222927500Y-85190000D02*
X223272500Y-85190000D01*
G75*
G02*
X223420000Y-85337500I0J-147500D01*
G01*
X223420000Y-85632500D01*
G75*
G02*
X223272500Y-85780000I-147500J0D01*
G01*
X222927500Y-85780000D01*
G75*
G02*
X222780000Y-85632500I0J147500D01*
G01*
X222780000Y-85337500D01*
G75*
G02*
X222927500Y-85190000I147500J0D01*
G01*
G37*
G36*
G01*
X222927500Y-84220000D02*
X223272500Y-84220000D01*
G75*
G02*
X223420000Y-84367500I0J-147500D01*
G01*
X223420000Y-84662500D01*
G75*
G02*
X223272500Y-84810000I-147500J0D01*
G01*
X222927500Y-84810000D01*
G75*
G02*
X222780000Y-84662500I0J147500D01*
G01*
X222780000Y-84367500D01*
G75*
G02*
X222927500Y-84220000I147500J0D01*
G01*
G37*
%TD*%
D14*
%TO.C,U12*%
X188400000Y-82400000D03*
X187450000Y-82400000D03*
X189350000Y-82400000D03*
X189350000Y-84600000D03*
X188400000Y-84600000D03*
X187450000Y-84600000D03*
%TD*%
%TO.C,U11*%
X188500000Y-94400000D03*
X187550000Y-94400000D03*
X189450000Y-94400000D03*
X189450000Y-96600000D03*
X188500000Y-96600000D03*
X187550000Y-96600000D03*
%TD*%
D15*
%TO.C,U10*%
X194900000Y-100500000D03*
X194900000Y-101450000D03*
X194900000Y-99550000D03*
X197100000Y-99550000D03*
X197100000Y-100500000D03*
X197100000Y-101450000D03*
%TD*%
%TO.C,U9*%
X206900000Y-100500000D03*
X206900000Y-101450000D03*
X206900000Y-99550000D03*
X209100000Y-99550000D03*
X209100000Y-100500000D03*
X209100000Y-101450000D03*
%TD*%
%TO.C,U8*%
X219760000Y-100500000D03*
X219760000Y-101450000D03*
X219760000Y-99550000D03*
X221960000Y-99550000D03*
X221960000Y-100500000D03*
X221960000Y-101450000D03*
%TD*%
%TO.C,U7*%
X231400000Y-100500000D03*
X231400000Y-101450000D03*
X231400000Y-99550000D03*
X233600000Y-99550000D03*
X233600000Y-100500000D03*
X233600000Y-101450000D03*
%TD*%
D14*
%TO.C,U6*%
X237500000Y-93600000D03*
X238450000Y-93600000D03*
X236550000Y-93600000D03*
X236550000Y-91400000D03*
X237500000Y-91400000D03*
X238450000Y-91400000D03*
%TD*%
%TO.C,U5*%
X237500000Y-80600000D03*
X238450000Y-80600000D03*
X236550000Y-80600000D03*
X236550000Y-78400000D03*
X237500000Y-78400000D03*
X238450000Y-78400000D03*
%TD*%
%TO.C,U4*%
X237500000Y-64100000D03*
X238450000Y-64100000D03*
X236550000Y-64100000D03*
X236550000Y-61900000D03*
X237500000Y-61900000D03*
X238450000Y-61900000D03*
%TD*%
D16*
%TO.C,U3*%
X230500000Y-59745000D03*
X230500000Y-61015000D03*
X230500000Y-62285000D03*
X230500000Y-63555000D03*
X230500000Y-64825000D03*
X230500000Y-66095000D03*
X230500000Y-67365000D03*
X230500000Y-68635000D03*
X230500000Y-69905000D03*
X230500000Y-71175000D03*
X230500000Y-72445000D03*
X230500000Y-73715000D03*
X230500000Y-74985000D03*
X230500000Y-76255000D03*
D17*
X227715000Y-77255000D03*
X226445000Y-77255000D03*
X225175000Y-77255000D03*
X223905000Y-77255000D03*
X222635000Y-77255000D03*
X221365000Y-77255000D03*
X220095000Y-77255000D03*
X218825000Y-77255000D03*
X217555000Y-77255000D03*
X216285000Y-77255000D03*
D16*
X213500000Y-76255000D03*
X213500000Y-74985000D03*
X213500000Y-73715000D03*
X213500000Y-72445000D03*
X213500000Y-71175000D03*
X213500000Y-69905000D03*
X213500000Y-68635000D03*
X213500000Y-67365000D03*
X213500000Y-66095000D03*
X213500000Y-64825000D03*
X213500000Y-63555000D03*
X213500000Y-62285000D03*
X213500000Y-61015000D03*
X213500000Y-59745000D03*
D18*
X221000000Y-67245000D03*
%TD*%
D19*
%TO.C,U1*%
X206800000Y-67850000D03*
X202200000Y-67850000D03*
X204500000Y-67850000D03*
D20*
X204500000Y-74150000D03*
%TD*%
D19*
%TO.C,SW1*%
X193650000Y-70800000D03*
X193650000Y-63800000D03*
X198150000Y-70800000D03*
X198150000Y-63800000D03*
%TD*%
%TO.C,R12*%
G36*
G01*
X189775000Y-80125000D02*
X189775000Y-78875000D01*
G75*
G02*
X190025000Y-78625000I250000J0D01*
G01*
X190775000Y-78625000D01*
G75*
G02*
X191025000Y-78875000I0J-250000D01*
G01*
X191025000Y-80125000D01*
G75*
G02*
X190775000Y-80375000I-250000J0D01*
G01*
X190025000Y-80375000D01*
G75*
G02*
X189775000Y-80125000I0J250000D01*
G01*
G37*
G36*
G01*
X186975000Y-80125000D02*
X186975000Y-78875000D01*
G75*
G02*
X187225000Y-78625000I250000J0D01*
G01*
X187975000Y-78625000D01*
G75*
G02*
X188225000Y-78875000I0J-250000D01*
G01*
X188225000Y-80125000D01*
G75*
G02*
X187975000Y-80375000I-250000J0D01*
G01*
X187225000Y-80375000D01*
G75*
G02*
X186975000Y-80125000I0J250000D01*
G01*
G37*
%TD*%
%TO.C,R11*%
G36*
G01*
X189775000Y-92125000D02*
X189775000Y-90875000D01*
G75*
G02*
X190025000Y-90625000I250000J0D01*
G01*
X190775000Y-90625000D01*
G75*
G02*
X191025000Y-90875000I0J-250000D01*
G01*
X191025000Y-92125000D01*
G75*
G02*
X190775000Y-92375000I-250000J0D01*
G01*
X190025000Y-92375000D01*
G75*
G02*
X189775000Y-92125000I0J250000D01*
G01*
G37*
G36*
G01*
X186975000Y-92125000D02*
X186975000Y-90875000D01*
G75*
G02*
X187225000Y-90625000I250000J0D01*
G01*
X187975000Y-90625000D01*
G75*
G02*
X188225000Y-90875000I0J-250000D01*
G01*
X188225000Y-92125000D01*
G75*
G02*
X187975000Y-92375000I-250000J0D01*
G01*
X187225000Y-92375000D01*
G75*
G02*
X186975000Y-92125000I0J250000D01*
G01*
G37*
%TD*%
%TO.C,R10*%
G36*
G01*
X192625000Y-99225000D02*
X191375000Y-99225000D01*
G75*
G02*
X191125000Y-98975000I0J250000D01*
G01*
X191125000Y-98225000D01*
G75*
G02*
X191375000Y-97975000I250000J0D01*
G01*
X192625000Y-97975000D01*
G75*
G02*
X192875000Y-98225000I0J-250000D01*
G01*
X192875000Y-98975000D01*
G75*
G02*
X192625000Y-99225000I-250000J0D01*
G01*
G37*
G36*
G01*
X192625000Y-102025000D02*
X191375000Y-102025000D01*
G75*
G02*
X191125000Y-101775000I0J250000D01*
G01*
X191125000Y-101025000D01*
G75*
G02*
X191375000Y-100775000I250000J0D01*
G01*
X192625000Y-100775000D01*
G75*
G02*
X192875000Y-101025000I0J-250000D01*
G01*
X192875000Y-101775000D01*
G75*
G02*
X192625000Y-102025000I-250000J0D01*
G01*
G37*
%TD*%
%TO.C,R9*%
G36*
G01*
X204625000Y-99225000D02*
X203375000Y-99225000D01*
G75*
G02*
X203125000Y-98975000I0J250000D01*
G01*
X203125000Y-98225000D01*
G75*
G02*
X203375000Y-97975000I250000J0D01*
G01*
X204625000Y-97975000D01*
G75*
G02*
X204875000Y-98225000I0J-250000D01*
G01*
X204875000Y-98975000D01*
G75*
G02*
X204625000Y-99225000I-250000J0D01*
G01*
G37*
G36*
G01*
X204625000Y-102025000D02*
X203375000Y-102025000D01*
G75*
G02*
X203125000Y-101775000I0J250000D01*
G01*
X203125000Y-101025000D01*
G75*
G02*
X203375000Y-100775000I250000J0D01*
G01*
X204625000Y-100775000D01*
G75*
G02*
X204875000Y-101025000I0J-250000D01*
G01*
X204875000Y-101775000D01*
G75*
G02*
X204625000Y-102025000I-250000J0D01*
G01*
G37*
%TD*%
%TO.C,R8*%
G36*
G01*
X217625000Y-99225000D02*
X216375000Y-99225000D01*
G75*
G02*
X216125000Y-98975000I0J250000D01*
G01*
X216125000Y-98225000D01*
G75*
G02*
X216375000Y-97975000I250000J0D01*
G01*
X217625000Y-97975000D01*
G75*
G02*
X217875000Y-98225000I0J-250000D01*
G01*
X217875000Y-98975000D01*
G75*
G02*
X217625000Y-99225000I-250000J0D01*
G01*
G37*
G36*
G01*
X217625000Y-102025000D02*
X216375000Y-102025000D01*
G75*
G02*
X216125000Y-101775000I0J250000D01*
G01*
X216125000Y-101025000D01*
G75*
G02*
X216375000Y-100775000I250000J0D01*
G01*
X217625000Y-100775000D01*
G75*
G02*
X217875000Y-101025000I0J-250000D01*
G01*
X217875000Y-101775000D01*
G75*
G02*
X217625000Y-102025000I-250000J0D01*
G01*
G37*
%TD*%
%TO.C,R7*%
G36*
G01*
X229325000Y-99225000D02*
X228075000Y-99225000D01*
G75*
G02*
X227825000Y-98975000I0J250000D01*
G01*
X227825000Y-98225000D01*
G75*
G02*
X228075000Y-97975000I250000J0D01*
G01*
X229325000Y-97975000D01*
G75*
G02*
X229575000Y-98225000I0J-250000D01*
G01*
X229575000Y-98975000D01*
G75*
G02*
X229325000Y-99225000I-250000J0D01*
G01*
G37*
G36*
G01*
X229325000Y-102025000D02*
X228075000Y-102025000D01*
G75*
G02*
X227825000Y-101775000I0J250000D01*
G01*
X227825000Y-101025000D01*
G75*
G02*
X228075000Y-100775000I250000J0D01*
G01*
X229325000Y-100775000D01*
G75*
G02*
X229575000Y-101025000I0J-250000D01*
G01*
X229575000Y-101775000D01*
G75*
G02*
X229325000Y-102025000I-250000J0D01*
G01*
G37*
%TD*%
%TO.C,R6*%
G36*
G01*
X236225000Y-95375000D02*
X236225000Y-96625000D01*
G75*
G02*
X235975000Y-96875000I-250000J0D01*
G01*
X235225000Y-96875000D01*
G75*
G02*
X234975000Y-96625000I0J250000D01*
G01*
X234975000Y-95375000D01*
G75*
G02*
X235225000Y-95125000I250000J0D01*
G01*
X235975000Y-95125000D01*
G75*
G02*
X236225000Y-95375000I0J-250000D01*
G01*
G37*
G36*
G01*
X239025000Y-95375000D02*
X239025000Y-96625000D01*
G75*
G02*
X238775000Y-96875000I-250000J0D01*
G01*
X238025000Y-96875000D01*
G75*
G02*
X237775000Y-96625000I0J250000D01*
G01*
X237775000Y-95375000D01*
G75*
G02*
X238025000Y-95125000I250000J0D01*
G01*
X238775000Y-95125000D01*
G75*
G02*
X239025000Y-95375000I0J-250000D01*
G01*
G37*
%TD*%
%TO.C,R5*%
G36*
G01*
X236225000Y-82335000D02*
X236225000Y-83585000D01*
G75*
G02*
X235975000Y-83835000I-250000J0D01*
G01*
X235225000Y-83835000D01*
G75*
G02*
X234975000Y-83585000I0J250000D01*
G01*
X234975000Y-82335000D01*
G75*
G02*
X235225000Y-82085000I250000J0D01*
G01*
X235975000Y-82085000D01*
G75*
G02*
X236225000Y-82335000I0J-250000D01*
G01*
G37*
G36*
G01*
X239025000Y-82335000D02*
X239025000Y-83585000D01*
G75*
G02*
X238775000Y-83835000I-250000J0D01*
G01*
X238025000Y-83835000D01*
G75*
G02*
X237775000Y-83585000I0J250000D01*
G01*
X237775000Y-82335000D01*
G75*
G02*
X238025000Y-82085000I250000J0D01*
G01*
X238775000Y-82085000D01*
G75*
G02*
X239025000Y-82335000I0J-250000D01*
G01*
G37*
%TD*%
%TO.C,R4*%
G36*
G01*
X236225000Y-67375000D02*
X236225000Y-68625000D01*
G75*
G02*
X235975000Y-68875000I-250000J0D01*
G01*
X235225000Y-68875000D01*
G75*
G02*
X234975000Y-68625000I0J250000D01*
G01*
X234975000Y-67375000D01*
G75*
G02*
X235225000Y-67125000I250000J0D01*
G01*
X235975000Y-67125000D01*
G75*
G02*
X236225000Y-67375000I0J-250000D01*
G01*
G37*
G36*
G01*
X239025000Y-67375000D02*
X239025000Y-68625000D01*
G75*
G02*
X238775000Y-68875000I-250000J0D01*
G01*
X238025000Y-68875000D01*
G75*
G02*
X237775000Y-68625000I0J250000D01*
G01*
X237775000Y-67375000D01*
G75*
G02*
X238025000Y-67125000I250000J0D01*
G01*
X238775000Y-67125000D01*
G75*
G02*
X239025000Y-67375000I0J-250000D01*
G01*
G37*
%TD*%
%TO.C,R3*%
G36*
G01*
X204327500Y-78190000D02*
X204672500Y-78190000D01*
G75*
G02*
X204820000Y-78337500I0J-147500D01*
G01*
X204820000Y-78632500D01*
G75*
G02*
X204672500Y-78780000I-147500J0D01*
G01*
X204327500Y-78780000D01*
G75*
G02*
X204180000Y-78632500I0J147500D01*
G01*
X204180000Y-78337500D01*
G75*
G02*
X204327500Y-78190000I147500J0D01*
G01*
G37*
G36*
G01*
X204327500Y-77220000D02*
X204672500Y-77220000D01*
G75*
G02*
X204820000Y-77367500I0J-147500D01*
G01*
X204820000Y-77662500D01*
G75*
G02*
X204672500Y-77810000I-147500J0D01*
G01*
X204327500Y-77810000D01*
G75*
G02*
X204180000Y-77662500I0J147500D01*
G01*
X204180000Y-77367500D01*
G75*
G02*
X204327500Y-77220000I147500J0D01*
G01*
G37*
%TD*%
%TO.C,R2*%
G36*
G01*
X199190000Y-81672500D02*
X199190000Y-81327500D01*
G75*
G02*
X199337500Y-81180000I147500J0D01*
G01*
X199632500Y-81180000D01*
G75*
G02*
X199780000Y-81327500I0J-147500D01*
G01*
X199780000Y-81672500D01*
G75*
G02*
X199632500Y-81820000I-147500J0D01*
G01*
X199337500Y-81820000D01*
G75*
G02*
X199190000Y-81672500I0J147500D01*
G01*
G37*
G36*
G01*
X198220000Y-81672500D02*
X198220000Y-81327500D01*
G75*
G02*
X198367500Y-81180000I147500J0D01*
G01*
X198662500Y-81180000D01*
G75*
G02*
X198810000Y-81327500I0J-147500D01*
G01*
X198810000Y-81672500D01*
G75*
G02*
X198662500Y-81820000I-147500J0D01*
G01*
X198367500Y-81820000D01*
G75*
G02*
X198220000Y-81672500I0J147500D01*
G01*
G37*
%TD*%
%TO.C,R1*%
G36*
G01*
X195810000Y-75327500D02*
X195810000Y-75672500D01*
G75*
G02*
X195662500Y-75820000I-147500J0D01*
G01*
X195367500Y-75820000D01*
G75*
G02*
X195220000Y-75672500I0J147500D01*
G01*
X195220000Y-75327500D01*
G75*
G02*
X195367500Y-75180000I147500J0D01*
G01*
X195662500Y-75180000D01*
G75*
G02*
X195810000Y-75327500I0J-147500D01*
G01*
G37*
G36*
G01*
X196780000Y-75327500D02*
X196780000Y-75672500D01*
G75*
G02*
X196632500Y-75820000I-147500J0D01*
G01*
X196337500Y-75820000D01*
G75*
G02*
X196190000Y-75672500I0J147500D01*
G01*
X196190000Y-75327500D01*
G75*
G02*
X196337500Y-75180000I147500J0D01*
G01*
X196632500Y-75180000D01*
G75*
G02*
X196780000Y-75327500I0J-147500D01*
G01*
G37*
%TD*%
D21*
%TO.C,Q2*%
X195500000Y-78500000D03*
X197500000Y-77550000D03*
X197500000Y-79450000D03*
%TD*%
%TO.C,Q1*%
X202500000Y-78500000D03*
X200500000Y-79450000D03*
X200500000Y-77550000D03*
%TD*%
D22*
%TO.C,J1*%
X190950000Y-53400000D03*
X197050000Y-53400000D03*
X193000000Y-53400000D03*
X195000000Y-53400000D03*
D23*
X192700000Y-56075000D03*
X193350000Y-56075000D03*
X194000000Y-56075000D03*
X194650000Y-56075000D03*
X195300000Y-56075000D03*
%TD*%
%TO.C,D2*%
G36*
G01*
X221756250Y-84150000D02*
X221243750Y-84150000D01*
G75*
G02*
X221025000Y-83931250I0J218750D01*
G01*
X221025000Y-83493750D01*
G75*
G02*
X221243750Y-83275000I218750J0D01*
G01*
X221756250Y-83275000D01*
G75*
G02*
X221975000Y-83493750I0J-218750D01*
G01*
X221975000Y-83931250D01*
G75*
G02*
X221756250Y-84150000I-218750J0D01*
G01*
G37*
G36*
G01*
X221756250Y-85725000D02*
X221243750Y-85725000D01*
G75*
G02*
X221025000Y-85506250I0J218750D01*
G01*
X221025000Y-85068750D01*
G75*
G02*
X221243750Y-84850000I218750J0D01*
G01*
X221756250Y-84850000D01*
G75*
G02*
X221975000Y-85068750I0J-218750D01*
G01*
X221975000Y-85506250D01*
G75*
G02*
X221756250Y-85725000I-218750J0D01*
G01*
G37*
%TD*%
%TO.C,C16*%
G36*
G01*
X191327500Y-83190000D02*
X191672500Y-83190000D01*
G75*
G02*
X191820000Y-83337500I0J-147500D01*
G01*
X191820000Y-83632500D01*
G75*
G02*
X191672500Y-83780000I-147500J0D01*
G01*
X191327500Y-83780000D01*
G75*
G02*
X191180000Y-83632500I0J147500D01*
G01*
X191180000Y-83337500D01*
G75*
G02*
X191327500Y-83190000I147500J0D01*
G01*
G37*
G36*
G01*
X191327500Y-82220000D02*
X191672500Y-82220000D01*
G75*
G02*
X191820000Y-82367500I0J-147500D01*
G01*
X191820000Y-82662500D01*
G75*
G02*
X191672500Y-82810000I-147500J0D01*
G01*
X191327500Y-82810000D01*
G75*
G02*
X191180000Y-82662500I0J147500D01*
G01*
X191180000Y-82367500D01*
G75*
G02*
X191327500Y-82220000I147500J0D01*
G01*
G37*
%TD*%
%TO.C,C15*%
G36*
G01*
X191327500Y-95175000D02*
X191672500Y-95175000D01*
G75*
G02*
X191820000Y-95322500I0J-147500D01*
G01*
X191820000Y-95617500D01*
G75*
G02*
X191672500Y-95765000I-147500J0D01*
G01*
X191327500Y-95765000D01*
G75*
G02*
X191180000Y-95617500I0J147500D01*
G01*
X191180000Y-95322500D01*
G75*
G02*
X191327500Y-95175000I147500J0D01*
G01*
G37*
G36*
G01*
X191327500Y-94205000D02*
X191672500Y-94205000D01*
G75*
G02*
X191820000Y-94352500I0J-147500D01*
G01*
X191820000Y-94647500D01*
G75*
G02*
X191672500Y-94795000I-147500J0D01*
G01*
X191327500Y-94795000D01*
G75*
G02*
X191180000Y-94647500I0J147500D01*
G01*
X191180000Y-94352500D01*
G75*
G02*
X191327500Y-94205000I147500J0D01*
G01*
G37*
%TD*%
%TO.C,C14*%
G36*
G01*
X196690000Y-97672500D02*
X196690000Y-97327500D01*
G75*
G02*
X196837500Y-97180000I147500J0D01*
G01*
X197132500Y-97180000D01*
G75*
G02*
X197280000Y-97327500I0J-147500D01*
G01*
X197280000Y-97672500D01*
G75*
G02*
X197132500Y-97820000I-147500J0D01*
G01*
X196837500Y-97820000D01*
G75*
G02*
X196690000Y-97672500I0J147500D01*
G01*
G37*
G36*
G01*
X195720000Y-97672500D02*
X195720000Y-97327500D01*
G75*
G02*
X195867500Y-97180000I147500J0D01*
G01*
X196162500Y-97180000D01*
G75*
G02*
X196310000Y-97327500I0J-147500D01*
G01*
X196310000Y-97672500D01*
G75*
G02*
X196162500Y-97820000I-147500J0D01*
G01*
X195867500Y-97820000D01*
G75*
G02*
X195720000Y-97672500I0J147500D01*
G01*
G37*
%TD*%
%TO.C,C13*%
G36*
G01*
X208690000Y-97672500D02*
X208690000Y-97327500D01*
G75*
G02*
X208837500Y-97180000I147500J0D01*
G01*
X209132500Y-97180000D01*
G75*
G02*
X209280000Y-97327500I0J-147500D01*
G01*
X209280000Y-97672500D01*
G75*
G02*
X209132500Y-97820000I-147500J0D01*
G01*
X208837500Y-97820000D01*
G75*
G02*
X208690000Y-97672500I0J147500D01*
G01*
G37*
G36*
G01*
X207720000Y-97672500D02*
X207720000Y-97327500D01*
G75*
G02*
X207867500Y-97180000I147500J0D01*
G01*
X208162500Y-97180000D01*
G75*
G02*
X208310000Y-97327500I0J-147500D01*
G01*
X208310000Y-97672500D01*
G75*
G02*
X208162500Y-97820000I-147500J0D01*
G01*
X207867500Y-97820000D01*
G75*
G02*
X207720000Y-97672500I0J147500D01*
G01*
G37*
%TD*%
%TO.C,C12*%
G36*
G01*
X221190000Y-97672500D02*
X221190000Y-97327500D01*
G75*
G02*
X221337500Y-97180000I147500J0D01*
G01*
X221632500Y-97180000D01*
G75*
G02*
X221780000Y-97327500I0J-147500D01*
G01*
X221780000Y-97672500D01*
G75*
G02*
X221632500Y-97820000I-147500J0D01*
G01*
X221337500Y-97820000D01*
G75*
G02*
X221190000Y-97672500I0J147500D01*
G01*
G37*
G36*
G01*
X220220000Y-97672500D02*
X220220000Y-97327500D01*
G75*
G02*
X220367500Y-97180000I147500J0D01*
G01*
X220662500Y-97180000D01*
G75*
G02*
X220810000Y-97327500I0J-147500D01*
G01*
X220810000Y-97672500D01*
G75*
G02*
X220662500Y-97820000I-147500J0D01*
G01*
X220367500Y-97820000D01*
G75*
G02*
X220220000Y-97672500I0J147500D01*
G01*
G37*
%TD*%
%TO.C,C11*%
G36*
G01*
X232690000Y-97672500D02*
X232690000Y-97327500D01*
G75*
G02*
X232837500Y-97180000I147500J0D01*
G01*
X233132500Y-97180000D01*
G75*
G02*
X233280000Y-97327500I0J-147500D01*
G01*
X233280000Y-97672500D01*
G75*
G02*
X233132500Y-97820000I-147500J0D01*
G01*
X232837500Y-97820000D01*
G75*
G02*
X232690000Y-97672500I0J147500D01*
G01*
G37*
G36*
G01*
X231720000Y-97672500D02*
X231720000Y-97327500D01*
G75*
G02*
X231867500Y-97180000I147500J0D01*
G01*
X232162500Y-97180000D01*
G75*
G02*
X232310000Y-97327500I0J-147500D01*
G01*
X232310000Y-97672500D01*
G75*
G02*
X232162500Y-97820000I-147500J0D01*
G01*
X231867500Y-97820000D01*
G75*
G02*
X231720000Y-97672500I0J147500D01*
G01*
G37*
%TD*%
%TO.C,C10*%
G36*
G01*
X234872500Y-92310000D02*
X234527500Y-92310000D01*
G75*
G02*
X234380000Y-92162500I0J147500D01*
G01*
X234380000Y-91867500D01*
G75*
G02*
X234527500Y-91720000I147500J0D01*
G01*
X234872500Y-91720000D01*
G75*
G02*
X235020000Y-91867500I0J-147500D01*
G01*
X235020000Y-92162500D01*
G75*
G02*
X234872500Y-92310000I-147500J0D01*
G01*
G37*
G36*
G01*
X234872500Y-93280000D02*
X234527500Y-93280000D01*
G75*
G02*
X234380000Y-93132500I0J147500D01*
G01*
X234380000Y-92837500D01*
G75*
G02*
X234527500Y-92690000I147500J0D01*
G01*
X234872500Y-92690000D01*
G75*
G02*
X235020000Y-92837500I0J-147500D01*
G01*
X235020000Y-93132500D01*
G75*
G02*
X234872500Y-93280000I-147500J0D01*
G01*
G37*
%TD*%
%TO.C,C9*%
G36*
G01*
X234872500Y-79310000D02*
X234527500Y-79310000D01*
G75*
G02*
X234380000Y-79162500I0J147500D01*
G01*
X234380000Y-78867500D01*
G75*
G02*
X234527500Y-78720000I147500J0D01*
G01*
X234872500Y-78720000D01*
G75*
G02*
X235020000Y-78867500I0J-147500D01*
G01*
X235020000Y-79162500D01*
G75*
G02*
X234872500Y-79310000I-147500J0D01*
G01*
G37*
G36*
G01*
X234872500Y-80280000D02*
X234527500Y-80280000D01*
G75*
G02*
X234380000Y-80132500I0J147500D01*
G01*
X234380000Y-79837500D01*
G75*
G02*
X234527500Y-79690000I147500J0D01*
G01*
X234872500Y-79690000D01*
G75*
G02*
X235020000Y-79837500I0J-147500D01*
G01*
X235020000Y-80132500D01*
G75*
G02*
X234872500Y-80280000I-147500J0D01*
G01*
G37*
%TD*%
%TO.C,C8*%
G36*
G01*
X236810000Y-65827500D02*
X236810000Y-66172500D01*
G75*
G02*
X236662500Y-66320000I-147500J0D01*
G01*
X236367500Y-66320000D01*
G75*
G02*
X236220000Y-66172500I0J147500D01*
G01*
X236220000Y-65827500D01*
G75*
G02*
X236367500Y-65680000I147500J0D01*
G01*
X236662500Y-65680000D01*
G75*
G02*
X236810000Y-65827500I0J-147500D01*
G01*
G37*
G36*
G01*
X237780000Y-65827500D02*
X237780000Y-66172500D01*
G75*
G02*
X237632500Y-66320000I-147500J0D01*
G01*
X237337500Y-66320000D01*
G75*
G02*
X237190000Y-66172500I0J147500D01*
G01*
X237190000Y-65827500D01*
G75*
G02*
X237337500Y-65680000I147500J0D01*
G01*
X237632500Y-65680000D01*
G75*
G02*
X237780000Y-65827500I0J-147500D01*
G01*
G37*
%TD*%
%TO.C,C7*%
G36*
G01*
X206672500Y-60310000D02*
X206327500Y-60310000D01*
G75*
G02*
X206180000Y-60162500I0J147500D01*
G01*
X206180000Y-59867500D01*
G75*
G02*
X206327500Y-59720000I147500J0D01*
G01*
X206672500Y-59720000D01*
G75*
G02*
X206820000Y-59867500I0J-147500D01*
G01*
X206820000Y-60162500D01*
G75*
G02*
X206672500Y-60310000I-147500J0D01*
G01*
G37*
G36*
G01*
X206672500Y-61280000D02*
X206327500Y-61280000D01*
G75*
G02*
X206180000Y-61132500I0J147500D01*
G01*
X206180000Y-60837500D01*
G75*
G02*
X206327500Y-60690000I147500J0D01*
G01*
X206672500Y-60690000D01*
G75*
G02*
X206820000Y-60837500I0J-147500D01*
G01*
X206820000Y-61132500D01*
G75*
G02*
X206672500Y-61280000I-147500J0D01*
G01*
G37*
%TD*%
%TO.C,C6*%
G36*
G01*
X208256250Y-60150000D02*
X207743750Y-60150000D01*
G75*
G02*
X207525000Y-59931250I0J218750D01*
G01*
X207525000Y-59493750D01*
G75*
G02*
X207743750Y-59275000I218750J0D01*
G01*
X208256250Y-59275000D01*
G75*
G02*
X208475000Y-59493750I0J-218750D01*
G01*
X208475000Y-59931250D01*
G75*
G02*
X208256250Y-60150000I-218750J0D01*
G01*
G37*
G36*
G01*
X208256250Y-61725000D02*
X207743750Y-61725000D01*
G75*
G02*
X207525000Y-61506250I0J218750D01*
G01*
X207525000Y-61068750D01*
G75*
G02*
X207743750Y-60850000I218750J0D01*
G01*
X208256250Y-60850000D01*
G75*
G02*
X208475000Y-61068750I0J-218750D01*
G01*
X208475000Y-61506250D01*
G75*
G02*
X208256250Y-61725000I-218750J0D01*
G01*
G37*
%TD*%
%TO.C,C5*%
G36*
G01*
X191656250Y-63150000D02*
X191143750Y-63150000D01*
G75*
G02*
X190925000Y-62931250I0J218750D01*
G01*
X190925000Y-62493750D01*
G75*
G02*
X191143750Y-62275000I218750J0D01*
G01*
X191656250Y-62275000D01*
G75*
G02*
X191875000Y-62493750I0J-218750D01*
G01*
X191875000Y-62931250D01*
G75*
G02*
X191656250Y-63150000I-218750J0D01*
G01*
G37*
G36*
G01*
X191656250Y-64725000D02*
X191143750Y-64725000D01*
G75*
G02*
X190925000Y-64506250I0J218750D01*
G01*
X190925000Y-64068750D01*
G75*
G02*
X191143750Y-63850000I218750J0D01*
G01*
X191656250Y-63850000D01*
G75*
G02*
X191875000Y-64068750I0J-218750D01*
G01*
X191875000Y-64506250D01*
G75*
G02*
X191656250Y-64725000I-218750J0D01*
G01*
G37*
%TD*%
%TO.C,C4*%
G36*
G01*
X206850000Y-65756250D02*
X206850000Y-65243750D01*
G75*
G02*
X207068750Y-65025000I218750J0D01*
G01*
X207506250Y-65025000D01*
G75*
G02*
X207725000Y-65243750I0J-218750D01*
G01*
X207725000Y-65756250D01*
G75*
G02*
X207506250Y-65975000I-218750J0D01*
G01*
X207068750Y-65975000D01*
G75*
G02*
X206850000Y-65756250I0J218750D01*
G01*
G37*
G36*
G01*
X205275000Y-65756250D02*
X205275000Y-65243750D01*
G75*
G02*
X205493750Y-65025000I218750J0D01*
G01*
X205931250Y-65025000D01*
G75*
G02*
X206150000Y-65243750I0J-218750D01*
G01*
X206150000Y-65756250D01*
G75*
G02*
X205931250Y-65975000I-218750J0D01*
G01*
X205493750Y-65975000D01*
G75*
G02*
X205275000Y-65756250I0J218750D01*
G01*
G37*
%TD*%
%TO.C,C2*%
G36*
G01*
X199872500Y-83810000D02*
X199527500Y-83810000D01*
G75*
G02*
X199380000Y-83662500I0J147500D01*
G01*
X199380000Y-83367500D01*
G75*
G02*
X199527500Y-83220000I147500J0D01*
G01*
X199872500Y-83220000D01*
G75*
G02*
X200020000Y-83367500I0J-147500D01*
G01*
X200020000Y-83662500D01*
G75*
G02*
X199872500Y-83810000I-147500J0D01*
G01*
G37*
G36*
G01*
X199872500Y-84780000D02*
X199527500Y-84780000D01*
G75*
G02*
X199380000Y-84632500I0J147500D01*
G01*
X199380000Y-84337500D01*
G75*
G02*
X199527500Y-84190000I147500J0D01*
G01*
X199872500Y-84190000D01*
G75*
G02*
X200020000Y-84337500I0J-147500D01*
G01*
X200020000Y-84632500D01*
G75*
G02*
X199872500Y-84780000I-147500J0D01*
G01*
G37*
%TD*%
%TO.C,C1*%
G36*
G01*
X200272500Y-69780000D02*
X199927500Y-69780000D01*
G75*
G02*
X199780000Y-69632500I0J147500D01*
G01*
X199780000Y-69337500D01*
G75*
G02*
X199927500Y-69190000I147500J0D01*
G01*
X200272500Y-69190000D01*
G75*
G02*
X200420000Y-69337500I0J-147500D01*
G01*
X200420000Y-69632500D01*
G75*
G02*
X200272500Y-69780000I-147500J0D01*
G01*
G37*
G36*
G01*
X200272500Y-68810000D02*
X199927500Y-68810000D01*
G75*
G02*
X199780000Y-68662500I0J147500D01*
G01*
X199780000Y-68367500D01*
G75*
G02*
X199927500Y-68220000I147500J0D01*
G01*
X200272500Y-68220000D01*
G75*
G02*
X200420000Y-68367500I0J-147500D01*
G01*
X200420000Y-68662500D01*
G75*
G02*
X200272500Y-68810000I-147500J0D01*
G01*
G37*
%TD*%
M02*
