%TF.GenerationSoftware,KiCad,Pcbnew,5.1.5+dfsg1-2build2*%
%TF.CreationDate,2020-08-24T22:09:22-06:00*%
%TF.ProjectId,twinkle-led-controller,7477696e-6b6c-4652-9d6c-65642d636f6e,rev?*%
%TF.SameCoordinates,Original*%
%TF.FileFunction,Legend,Bot*%
%TF.FilePolarity,Positive*%
%FSLAX46Y46*%
G04 Gerber Fmt 4.6, Leading zero omitted, Abs format (unit mm)*
G04 Created by KiCad (PCBNEW 5.1.5+dfsg1-2build2) date 2020-08-24 22:09:22*
%MOMM*%
%LPD*%
G04 APERTURE LIST*
%ADD10C,0.100000*%
%ADD11C,0.150000*%
G04 APERTURE END LIST*
D10*
G36*
X216600000Y-83900000D02*
G01*
X215600000Y-83900000D01*
X215600000Y-82900000D01*
X216600000Y-82900000D01*
X216600000Y-83900000D01*
G37*
X216600000Y-83900000D02*
X215600000Y-83900000D01*
X215600000Y-82900000D01*
X216600000Y-82900000D01*
X216600000Y-83900000D01*
G36*
X216624000Y-85528000D02*
G01*
X215608000Y-85528000D01*
X215608000Y-84512000D01*
X216624000Y-84512000D01*
X216624000Y-85528000D01*
G37*
X216624000Y-85528000D02*
X215608000Y-85528000D01*
X215608000Y-84512000D01*
X216624000Y-84512000D01*
X216624000Y-85528000D01*
D11*
X214853714Y-83885380D02*
X214853714Y-82885380D01*
X214472761Y-82885380D01*
X214377523Y-82933000D01*
X214329904Y-82980619D01*
X214282285Y-83075857D01*
X214282285Y-83218714D01*
X214329904Y-83313952D01*
X214377523Y-83361571D01*
X214472761Y-83409190D01*
X214853714Y-83409190D01*
X213282285Y-83885380D02*
X213615619Y-83409190D01*
X213853714Y-83885380D02*
X213853714Y-82885380D01*
X213472761Y-82885380D01*
X213377523Y-82933000D01*
X213329904Y-82980619D01*
X213282285Y-83075857D01*
X213282285Y-83218714D01*
X213329904Y-83313952D01*
X213377523Y-83361571D01*
X213472761Y-83409190D01*
X213853714Y-83409190D01*
X212663238Y-82885380D02*
X212472761Y-82885380D01*
X212377523Y-82933000D01*
X212282285Y-83028238D01*
X212234666Y-83218714D01*
X212234666Y-83552047D01*
X212282285Y-83742523D01*
X212377523Y-83837761D01*
X212472761Y-83885380D01*
X212663238Y-83885380D01*
X212758476Y-83837761D01*
X212853714Y-83742523D01*
X212901333Y-83552047D01*
X212901333Y-83218714D01*
X212853714Y-83028238D01*
X212758476Y-82933000D01*
X212663238Y-82885380D01*
X211282285Y-82933000D02*
X211377523Y-82885380D01*
X211520380Y-82885380D01*
X211663238Y-82933000D01*
X211758476Y-83028238D01*
X211806095Y-83123476D01*
X211853714Y-83313952D01*
X211853714Y-83456809D01*
X211806095Y-83647285D01*
X211758476Y-83742523D01*
X211663238Y-83837761D01*
X211520380Y-83885380D01*
X211425142Y-83885380D01*
X211282285Y-83837761D01*
X211234666Y-83790142D01*
X211234666Y-83456809D01*
X211425142Y-83456809D01*
X214663238Y-84535380D02*
X214091809Y-84535380D01*
X214377523Y-85535380D02*
X214377523Y-84535380D01*
X213758476Y-85011571D02*
X213425142Y-85011571D01*
X213282285Y-85535380D02*
X213758476Y-85535380D01*
X213758476Y-84535380D01*
X213282285Y-84535380D01*
X212901333Y-85487761D02*
X212758476Y-85535380D01*
X212520380Y-85535380D01*
X212425142Y-85487761D01*
X212377523Y-85440142D01*
X212329904Y-85344904D01*
X212329904Y-85249666D01*
X212377523Y-85154428D01*
X212425142Y-85106809D01*
X212520380Y-85059190D01*
X212710857Y-85011571D01*
X212806095Y-84963952D01*
X212853714Y-84916333D01*
X212901333Y-84821095D01*
X212901333Y-84725857D01*
X212853714Y-84630619D01*
X212806095Y-84583000D01*
X212710857Y-84535380D01*
X212472761Y-84535380D01*
X212329904Y-84583000D01*
X212044190Y-84535380D02*
X211472761Y-84535380D01*
X211758476Y-85535380D02*
X211758476Y-84535380D01*
X200002857Y-63644380D02*
X200479047Y-63644380D01*
X200526666Y-64120571D01*
X200479047Y-64072952D01*
X200383809Y-64025333D01*
X200145714Y-64025333D01*
X200050476Y-64072952D01*
X200002857Y-64120571D01*
X199955238Y-64215809D01*
X199955238Y-64453904D01*
X200002857Y-64549142D01*
X200050476Y-64596761D01*
X200145714Y-64644380D01*
X200383809Y-64644380D01*
X200479047Y-64596761D01*
X200526666Y-64549142D01*
X199621904Y-63977714D02*
X199383809Y-64644380D01*
X199145714Y-63977714D01*
X201050476Y-61104380D02*
X200431428Y-61104380D01*
X200764761Y-61485333D01*
X200621904Y-61485333D01*
X200526666Y-61532952D01*
X200479047Y-61580571D01*
X200431428Y-61675809D01*
X200431428Y-61913904D01*
X200479047Y-62009142D01*
X200526666Y-62056761D01*
X200621904Y-62104380D01*
X200907619Y-62104380D01*
X201002857Y-62056761D01*
X201050476Y-62009142D01*
X200098095Y-61437714D02*
X199860000Y-62104380D01*
X199621904Y-61437714D01*
X199336190Y-61104380D02*
X198717142Y-61104380D01*
X199050476Y-61485333D01*
X198907619Y-61485333D01*
X198812380Y-61532952D01*
X198764761Y-61580571D01*
X198717142Y-61675809D01*
X198717142Y-61913904D01*
X198764761Y-62009142D01*
X198812380Y-62056761D01*
X198907619Y-62104380D01*
X199193333Y-62104380D01*
X199288571Y-62056761D01*
X199336190Y-62009142D01*
X200860000Y-59564380D02*
X200860000Y-58564380D01*
X200383809Y-59564380D02*
X200383809Y-58564380D01*
X199812380Y-59564380D01*
X199812380Y-58564380D01*
X198812380Y-59564380D02*
X199383809Y-59564380D01*
X199098095Y-59564380D02*
X199098095Y-58564380D01*
X199193333Y-58707238D01*
X199288571Y-58802476D01*
X199383809Y-58850095D01*
X200860000Y-57024380D02*
X200860000Y-56024380D01*
X200383809Y-57024380D02*
X200383809Y-56024380D01*
X199812380Y-57024380D01*
X199812380Y-56024380D01*
X199145714Y-56024380D02*
X199050476Y-56024380D01*
X198955238Y-56072000D01*
X198907619Y-56119619D01*
X198860000Y-56214857D01*
X198812380Y-56405333D01*
X198812380Y-56643428D01*
X198860000Y-56833904D01*
X198907619Y-56929142D01*
X198955238Y-56976761D01*
X199050476Y-57024380D01*
X199145714Y-57024380D01*
X199240952Y-56976761D01*
X199288571Y-56929142D01*
X199336190Y-56833904D01*
X199383809Y-56643428D01*
X199383809Y-56405333D01*
X199336190Y-56214857D01*
X199288571Y-56119619D01*
X199240952Y-56072000D01*
X199145714Y-56024380D01*
X199738095Y-53500000D02*
X199833333Y-53452380D01*
X199976190Y-53452380D01*
X200119047Y-53500000D01*
X200214285Y-53595238D01*
X200261904Y-53690476D01*
X200309523Y-53880952D01*
X200309523Y-54023809D01*
X200261904Y-54214285D01*
X200214285Y-54309523D01*
X200119047Y-54404761D01*
X199976190Y-54452380D01*
X199880952Y-54452380D01*
X199738095Y-54404761D01*
X199690476Y-54357142D01*
X199690476Y-54023809D01*
X199880952Y-54023809D01*
M02*
