%TF.GenerationSoftware,KiCad,Pcbnew,5.1.5+dfsg1-2build2*%
%TF.CreationDate,2020-08-24T22:09:22-06:00*%
%TF.ProjectId,twinkle-led-controller,7477696e-6b6c-4652-9d6c-65642d636f6e,rev?*%
%TF.SameCoordinates,Original*%
%TF.FileFunction,Paste,Top*%
%TF.FilePolarity,Positive*%
%FSLAX46Y46*%
G04 Gerber Fmt 4.6, Leading zero omitted, Abs format (unit mm)*
G04 Created by KiCad (PCBNEW 5.1.5+dfsg1-2build2) date 2020-08-24 22:09:22*
%MOMM*%
%LPD*%
G04 APERTURE LIST*
%ADD10C,0.010000*%
%ADD11R,0.254000X0.900000*%
%ADD12R,0.900000X0.254000*%
%ADD13C,0.100000*%
%ADD14R,2.300000X2.500000*%
%ADD15R,0.650000X1.060000*%
%ADD16R,1.060000X0.650000*%
%ADD17R,2.000000X0.900000*%
%ADD18R,0.900000X2.000000*%
%ADD19R,5.000000X5.000000*%
%ADD20R,1.500000X2.000000*%
%ADD21R,3.800000X2.000000*%
%ADD22R,0.900000X0.800000*%
%ADD23R,1.500000X1.550000*%
%ADD24R,0.320000X1.080000*%
G04 APERTURE END LIST*
D10*
%TO.C,U2*%
G36*
X205050456Y-84850000D02*
G01*
X206300000Y-84850000D01*
X206300000Y-86102730D01*
X205050456Y-86102730D01*
X205050456Y-84850000D01*
G37*
X205050456Y-84850000D02*
X206300000Y-84850000D01*
X206300000Y-86102730D01*
X205050456Y-86102730D01*
X205050456Y-84850000D01*
G36*
X203297480Y-84850000D02*
G01*
X204550000Y-84850000D01*
X204550000Y-86102520D01*
X203297480Y-86102520D01*
X203297480Y-84850000D01*
G37*
X203297480Y-84850000D02*
X204550000Y-84850000D01*
X204550000Y-86102520D01*
X203297480Y-86102520D01*
X203297480Y-84850000D01*
G36*
X205050062Y-83100000D02*
G01*
X206300000Y-83100000D01*
X206300000Y-84349938D01*
X205050062Y-84349938D01*
X205050062Y-83100000D01*
G37*
X205050062Y-83100000D02*
X206300000Y-83100000D01*
X206300000Y-84349938D01*
X205050062Y-84349938D01*
X205050062Y-83100000D01*
G36*
X203297520Y-83100000D02*
G01*
X204550000Y-83100000D01*
X204550000Y-84349587D01*
X203297520Y-84349587D01*
X203297520Y-83100000D01*
G37*
X203297520Y-83100000D02*
X204550000Y-83100000D01*
X204550000Y-84349587D01*
X203297520Y-84349587D01*
X203297520Y-83100000D01*
%TD*%
D11*
%TO.C,U2*%
X203300000Y-82010000D03*
X203800000Y-82010000D03*
X204300000Y-82010000D03*
X204800000Y-82010000D03*
X205300000Y-82010000D03*
X205800000Y-82010000D03*
X206300000Y-82010000D03*
D12*
X207390000Y-83100000D03*
X207390000Y-83600000D03*
X207390000Y-84100000D03*
X207390000Y-84600000D03*
X207390000Y-85100000D03*
X207390000Y-85600000D03*
X207390000Y-86100000D03*
D11*
X206300000Y-87190000D03*
X205800000Y-87190000D03*
X205300000Y-87190000D03*
X204800000Y-87190000D03*
X204300000Y-87190000D03*
X203800000Y-87190000D03*
X203300000Y-87190000D03*
D12*
X202210000Y-86100000D03*
X202210000Y-85600000D03*
X202210000Y-85100000D03*
X202210000Y-84600000D03*
X202210000Y-84100000D03*
X202210000Y-83600000D03*
X202210000Y-83100000D03*
%TD*%
D13*
%TO.C,R15*%
G36*
X201646958Y-87980710D02*
G01*
X201661276Y-87982834D01*
X201675317Y-87986351D01*
X201688946Y-87991228D01*
X201702031Y-87997417D01*
X201714447Y-88004858D01*
X201726073Y-88013481D01*
X201736798Y-88023202D01*
X201746519Y-88033927D01*
X201755142Y-88045553D01*
X201762583Y-88057969D01*
X201768772Y-88071054D01*
X201773649Y-88084683D01*
X201777166Y-88098724D01*
X201779290Y-88113042D01*
X201780000Y-88127500D01*
X201780000Y-88472500D01*
X201779290Y-88486958D01*
X201777166Y-88501276D01*
X201773649Y-88515317D01*
X201768772Y-88528946D01*
X201762583Y-88542031D01*
X201755142Y-88554447D01*
X201746519Y-88566073D01*
X201736798Y-88576798D01*
X201726073Y-88586519D01*
X201714447Y-88595142D01*
X201702031Y-88602583D01*
X201688946Y-88608772D01*
X201675317Y-88613649D01*
X201661276Y-88617166D01*
X201646958Y-88619290D01*
X201632500Y-88620000D01*
X201337500Y-88620000D01*
X201323042Y-88619290D01*
X201308724Y-88617166D01*
X201294683Y-88613649D01*
X201281054Y-88608772D01*
X201267969Y-88602583D01*
X201255553Y-88595142D01*
X201243927Y-88586519D01*
X201233202Y-88576798D01*
X201223481Y-88566073D01*
X201214858Y-88554447D01*
X201207417Y-88542031D01*
X201201228Y-88528946D01*
X201196351Y-88515317D01*
X201192834Y-88501276D01*
X201190710Y-88486958D01*
X201190000Y-88472500D01*
X201190000Y-88127500D01*
X201190710Y-88113042D01*
X201192834Y-88098724D01*
X201196351Y-88084683D01*
X201201228Y-88071054D01*
X201207417Y-88057969D01*
X201214858Y-88045553D01*
X201223481Y-88033927D01*
X201233202Y-88023202D01*
X201243927Y-88013481D01*
X201255553Y-88004858D01*
X201267969Y-87997417D01*
X201281054Y-87991228D01*
X201294683Y-87986351D01*
X201308724Y-87982834D01*
X201323042Y-87980710D01*
X201337500Y-87980000D01*
X201632500Y-87980000D01*
X201646958Y-87980710D01*
G37*
G36*
X200676958Y-87980710D02*
G01*
X200691276Y-87982834D01*
X200705317Y-87986351D01*
X200718946Y-87991228D01*
X200732031Y-87997417D01*
X200744447Y-88004858D01*
X200756073Y-88013481D01*
X200766798Y-88023202D01*
X200776519Y-88033927D01*
X200785142Y-88045553D01*
X200792583Y-88057969D01*
X200798772Y-88071054D01*
X200803649Y-88084683D01*
X200807166Y-88098724D01*
X200809290Y-88113042D01*
X200810000Y-88127500D01*
X200810000Y-88472500D01*
X200809290Y-88486958D01*
X200807166Y-88501276D01*
X200803649Y-88515317D01*
X200798772Y-88528946D01*
X200792583Y-88542031D01*
X200785142Y-88554447D01*
X200776519Y-88566073D01*
X200766798Y-88576798D01*
X200756073Y-88586519D01*
X200744447Y-88595142D01*
X200732031Y-88602583D01*
X200718946Y-88608772D01*
X200705317Y-88613649D01*
X200691276Y-88617166D01*
X200676958Y-88619290D01*
X200662500Y-88620000D01*
X200367500Y-88620000D01*
X200353042Y-88619290D01*
X200338724Y-88617166D01*
X200324683Y-88613649D01*
X200311054Y-88608772D01*
X200297969Y-88602583D01*
X200285553Y-88595142D01*
X200273927Y-88586519D01*
X200263202Y-88576798D01*
X200253481Y-88566073D01*
X200244858Y-88554447D01*
X200237417Y-88542031D01*
X200231228Y-88528946D01*
X200226351Y-88515317D01*
X200222834Y-88501276D01*
X200220710Y-88486958D01*
X200220000Y-88472500D01*
X200220000Y-88127500D01*
X200220710Y-88113042D01*
X200222834Y-88098724D01*
X200226351Y-88084683D01*
X200231228Y-88071054D01*
X200237417Y-88057969D01*
X200244858Y-88045553D01*
X200253481Y-88033927D01*
X200263202Y-88023202D01*
X200273927Y-88013481D01*
X200285553Y-88004858D01*
X200297969Y-87997417D01*
X200311054Y-87991228D01*
X200324683Y-87986351D01*
X200338724Y-87982834D01*
X200353042Y-87980710D01*
X200367500Y-87980000D01*
X200662500Y-87980000D01*
X200676958Y-87980710D01*
G37*
%TD*%
D14*
%TO.C,D1*%
X188200000Y-63450000D03*
X188200000Y-59150000D03*
%TD*%
D13*
%TO.C,R14*%
G36*
X223286958Y-85190710D02*
G01*
X223301276Y-85192834D01*
X223315317Y-85196351D01*
X223328946Y-85201228D01*
X223342031Y-85207417D01*
X223354447Y-85214858D01*
X223366073Y-85223481D01*
X223376798Y-85233202D01*
X223386519Y-85243927D01*
X223395142Y-85255553D01*
X223402583Y-85267969D01*
X223408772Y-85281054D01*
X223413649Y-85294683D01*
X223417166Y-85308724D01*
X223419290Y-85323042D01*
X223420000Y-85337500D01*
X223420000Y-85632500D01*
X223419290Y-85646958D01*
X223417166Y-85661276D01*
X223413649Y-85675317D01*
X223408772Y-85688946D01*
X223402583Y-85702031D01*
X223395142Y-85714447D01*
X223386519Y-85726073D01*
X223376798Y-85736798D01*
X223366073Y-85746519D01*
X223354447Y-85755142D01*
X223342031Y-85762583D01*
X223328946Y-85768772D01*
X223315317Y-85773649D01*
X223301276Y-85777166D01*
X223286958Y-85779290D01*
X223272500Y-85780000D01*
X222927500Y-85780000D01*
X222913042Y-85779290D01*
X222898724Y-85777166D01*
X222884683Y-85773649D01*
X222871054Y-85768772D01*
X222857969Y-85762583D01*
X222845553Y-85755142D01*
X222833927Y-85746519D01*
X222823202Y-85736798D01*
X222813481Y-85726073D01*
X222804858Y-85714447D01*
X222797417Y-85702031D01*
X222791228Y-85688946D01*
X222786351Y-85675317D01*
X222782834Y-85661276D01*
X222780710Y-85646958D01*
X222780000Y-85632500D01*
X222780000Y-85337500D01*
X222780710Y-85323042D01*
X222782834Y-85308724D01*
X222786351Y-85294683D01*
X222791228Y-85281054D01*
X222797417Y-85267969D01*
X222804858Y-85255553D01*
X222813481Y-85243927D01*
X222823202Y-85233202D01*
X222833927Y-85223481D01*
X222845553Y-85214858D01*
X222857969Y-85207417D01*
X222871054Y-85201228D01*
X222884683Y-85196351D01*
X222898724Y-85192834D01*
X222913042Y-85190710D01*
X222927500Y-85190000D01*
X223272500Y-85190000D01*
X223286958Y-85190710D01*
G37*
G36*
X223286958Y-84220710D02*
G01*
X223301276Y-84222834D01*
X223315317Y-84226351D01*
X223328946Y-84231228D01*
X223342031Y-84237417D01*
X223354447Y-84244858D01*
X223366073Y-84253481D01*
X223376798Y-84263202D01*
X223386519Y-84273927D01*
X223395142Y-84285553D01*
X223402583Y-84297969D01*
X223408772Y-84311054D01*
X223413649Y-84324683D01*
X223417166Y-84338724D01*
X223419290Y-84353042D01*
X223420000Y-84367500D01*
X223420000Y-84662500D01*
X223419290Y-84676958D01*
X223417166Y-84691276D01*
X223413649Y-84705317D01*
X223408772Y-84718946D01*
X223402583Y-84732031D01*
X223395142Y-84744447D01*
X223386519Y-84756073D01*
X223376798Y-84766798D01*
X223366073Y-84776519D01*
X223354447Y-84785142D01*
X223342031Y-84792583D01*
X223328946Y-84798772D01*
X223315317Y-84803649D01*
X223301276Y-84807166D01*
X223286958Y-84809290D01*
X223272500Y-84810000D01*
X222927500Y-84810000D01*
X222913042Y-84809290D01*
X222898724Y-84807166D01*
X222884683Y-84803649D01*
X222871054Y-84798772D01*
X222857969Y-84792583D01*
X222845553Y-84785142D01*
X222833927Y-84776519D01*
X222823202Y-84766798D01*
X222813481Y-84756073D01*
X222804858Y-84744447D01*
X222797417Y-84732031D01*
X222791228Y-84718946D01*
X222786351Y-84705317D01*
X222782834Y-84691276D01*
X222780710Y-84676958D01*
X222780000Y-84662500D01*
X222780000Y-84367500D01*
X222780710Y-84353042D01*
X222782834Y-84338724D01*
X222786351Y-84324683D01*
X222791228Y-84311054D01*
X222797417Y-84297969D01*
X222804858Y-84285553D01*
X222813481Y-84273927D01*
X222823202Y-84263202D01*
X222833927Y-84253481D01*
X222845553Y-84244858D01*
X222857969Y-84237417D01*
X222871054Y-84231228D01*
X222884683Y-84226351D01*
X222898724Y-84222834D01*
X222913042Y-84220710D01*
X222927500Y-84220000D01*
X223272500Y-84220000D01*
X223286958Y-84220710D01*
G37*
%TD*%
D15*
%TO.C,U13*%
X188500000Y-69400000D03*
X187550000Y-69400000D03*
X189450000Y-69400000D03*
X189450000Y-71600000D03*
X188500000Y-71600000D03*
X187550000Y-71600000D03*
%TD*%
%TO.C,U12*%
X188400000Y-82400000D03*
X187450000Y-82400000D03*
X189350000Y-82400000D03*
X189350000Y-84600000D03*
X188400000Y-84600000D03*
X187450000Y-84600000D03*
%TD*%
%TO.C,U11*%
X188500000Y-94400000D03*
X187550000Y-94400000D03*
X189450000Y-94400000D03*
X189450000Y-96600000D03*
X188500000Y-96600000D03*
X187550000Y-96600000D03*
%TD*%
D16*
%TO.C,U10*%
X194900000Y-100500000D03*
X194900000Y-101450000D03*
X194900000Y-99550000D03*
X197100000Y-99550000D03*
X197100000Y-100500000D03*
X197100000Y-101450000D03*
%TD*%
%TO.C,U9*%
X206900000Y-100500000D03*
X206900000Y-101450000D03*
X206900000Y-99550000D03*
X209100000Y-99550000D03*
X209100000Y-100500000D03*
X209100000Y-101450000D03*
%TD*%
%TO.C,U8*%
X219760000Y-100500000D03*
X219760000Y-101450000D03*
X219760000Y-99550000D03*
X221960000Y-99550000D03*
X221960000Y-100500000D03*
X221960000Y-101450000D03*
%TD*%
%TO.C,U7*%
X231400000Y-100500000D03*
X231400000Y-101450000D03*
X231400000Y-99550000D03*
X233600000Y-99550000D03*
X233600000Y-100500000D03*
X233600000Y-101450000D03*
%TD*%
D15*
%TO.C,U6*%
X237500000Y-93600000D03*
X238450000Y-93600000D03*
X236550000Y-93600000D03*
X236550000Y-91400000D03*
X237500000Y-91400000D03*
X238450000Y-91400000D03*
%TD*%
%TO.C,U5*%
X237500000Y-80600000D03*
X238450000Y-80600000D03*
X236550000Y-80600000D03*
X236550000Y-78400000D03*
X237500000Y-78400000D03*
X238450000Y-78400000D03*
%TD*%
%TO.C,U4*%
X237500000Y-64100000D03*
X238450000Y-64100000D03*
X236550000Y-64100000D03*
X236550000Y-61900000D03*
X237500000Y-61900000D03*
X238450000Y-61900000D03*
%TD*%
D17*
%TO.C,U3*%
X230500000Y-59745000D03*
X230500000Y-61015000D03*
X230500000Y-62285000D03*
X230500000Y-63555000D03*
X230500000Y-64825000D03*
X230500000Y-66095000D03*
X230500000Y-67365000D03*
X230500000Y-68635000D03*
X230500000Y-69905000D03*
X230500000Y-71175000D03*
X230500000Y-72445000D03*
X230500000Y-73715000D03*
X230500000Y-74985000D03*
X230500000Y-76255000D03*
D18*
X227715000Y-77255000D03*
X226445000Y-77255000D03*
X225175000Y-77255000D03*
X223905000Y-77255000D03*
X222635000Y-77255000D03*
X221365000Y-77255000D03*
X220095000Y-77255000D03*
X218825000Y-77255000D03*
X217555000Y-77255000D03*
X216285000Y-77255000D03*
D17*
X213500000Y-76255000D03*
X213500000Y-74985000D03*
X213500000Y-73715000D03*
X213500000Y-72445000D03*
X213500000Y-71175000D03*
X213500000Y-69905000D03*
X213500000Y-68635000D03*
X213500000Y-67365000D03*
X213500000Y-66095000D03*
X213500000Y-64825000D03*
X213500000Y-63555000D03*
X213500000Y-62285000D03*
X213500000Y-61015000D03*
X213500000Y-59745000D03*
D19*
X221000000Y-67245000D03*
%TD*%
D20*
%TO.C,U1*%
X206800000Y-67850000D03*
X202200000Y-67850000D03*
X204500000Y-67850000D03*
D21*
X204500000Y-74150000D03*
%TD*%
D20*
%TO.C,SW1*%
X193650000Y-70800000D03*
X193650000Y-63800000D03*
X198150000Y-70800000D03*
X198150000Y-63800000D03*
%TD*%
D13*
%TO.C,R13*%
G36*
X190799504Y-65626204D02*
G01*
X190823773Y-65629804D01*
X190847571Y-65635765D01*
X190870671Y-65644030D01*
X190892849Y-65654520D01*
X190913893Y-65667133D01*
X190933598Y-65681747D01*
X190951777Y-65698223D01*
X190968253Y-65716402D01*
X190982867Y-65736107D01*
X190995480Y-65757151D01*
X191005970Y-65779329D01*
X191014235Y-65802429D01*
X191020196Y-65826227D01*
X191023796Y-65850496D01*
X191025000Y-65875000D01*
X191025000Y-67125000D01*
X191023796Y-67149504D01*
X191020196Y-67173773D01*
X191014235Y-67197571D01*
X191005970Y-67220671D01*
X190995480Y-67242849D01*
X190982867Y-67263893D01*
X190968253Y-67283598D01*
X190951777Y-67301777D01*
X190933598Y-67318253D01*
X190913893Y-67332867D01*
X190892849Y-67345480D01*
X190870671Y-67355970D01*
X190847571Y-67364235D01*
X190823773Y-67370196D01*
X190799504Y-67373796D01*
X190775000Y-67375000D01*
X190025000Y-67375000D01*
X190000496Y-67373796D01*
X189976227Y-67370196D01*
X189952429Y-67364235D01*
X189929329Y-67355970D01*
X189907151Y-67345480D01*
X189886107Y-67332867D01*
X189866402Y-67318253D01*
X189848223Y-67301777D01*
X189831747Y-67283598D01*
X189817133Y-67263893D01*
X189804520Y-67242849D01*
X189794030Y-67220671D01*
X189785765Y-67197571D01*
X189779804Y-67173773D01*
X189776204Y-67149504D01*
X189775000Y-67125000D01*
X189775000Y-65875000D01*
X189776204Y-65850496D01*
X189779804Y-65826227D01*
X189785765Y-65802429D01*
X189794030Y-65779329D01*
X189804520Y-65757151D01*
X189817133Y-65736107D01*
X189831747Y-65716402D01*
X189848223Y-65698223D01*
X189866402Y-65681747D01*
X189886107Y-65667133D01*
X189907151Y-65654520D01*
X189929329Y-65644030D01*
X189952429Y-65635765D01*
X189976227Y-65629804D01*
X190000496Y-65626204D01*
X190025000Y-65625000D01*
X190775000Y-65625000D01*
X190799504Y-65626204D01*
G37*
G36*
X187999504Y-65626204D02*
G01*
X188023773Y-65629804D01*
X188047571Y-65635765D01*
X188070671Y-65644030D01*
X188092849Y-65654520D01*
X188113893Y-65667133D01*
X188133598Y-65681747D01*
X188151777Y-65698223D01*
X188168253Y-65716402D01*
X188182867Y-65736107D01*
X188195480Y-65757151D01*
X188205970Y-65779329D01*
X188214235Y-65802429D01*
X188220196Y-65826227D01*
X188223796Y-65850496D01*
X188225000Y-65875000D01*
X188225000Y-67125000D01*
X188223796Y-67149504D01*
X188220196Y-67173773D01*
X188214235Y-67197571D01*
X188205970Y-67220671D01*
X188195480Y-67242849D01*
X188182867Y-67263893D01*
X188168253Y-67283598D01*
X188151777Y-67301777D01*
X188133598Y-67318253D01*
X188113893Y-67332867D01*
X188092849Y-67345480D01*
X188070671Y-67355970D01*
X188047571Y-67364235D01*
X188023773Y-67370196D01*
X187999504Y-67373796D01*
X187975000Y-67375000D01*
X187225000Y-67375000D01*
X187200496Y-67373796D01*
X187176227Y-67370196D01*
X187152429Y-67364235D01*
X187129329Y-67355970D01*
X187107151Y-67345480D01*
X187086107Y-67332867D01*
X187066402Y-67318253D01*
X187048223Y-67301777D01*
X187031747Y-67283598D01*
X187017133Y-67263893D01*
X187004520Y-67242849D01*
X186994030Y-67220671D01*
X186985765Y-67197571D01*
X186979804Y-67173773D01*
X186976204Y-67149504D01*
X186975000Y-67125000D01*
X186975000Y-65875000D01*
X186976204Y-65850496D01*
X186979804Y-65826227D01*
X186985765Y-65802429D01*
X186994030Y-65779329D01*
X187004520Y-65757151D01*
X187017133Y-65736107D01*
X187031747Y-65716402D01*
X187048223Y-65698223D01*
X187066402Y-65681747D01*
X187086107Y-65667133D01*
X187107151Y-65654520D01*
X187129329Y-65644030D01*
X187152429Y-65635765D01*
X187176227Y-65629804D01*
X187200496Y-65626204D01*
X187225000Y-65625000D01*
X187975000Y-65625000D01*
X187999504Y-65626204D01*
G37*
%TD*%
%TO.C,R12*%
G36*
X190799504Y-78626204D02*
G01*
X190823773Y-78629804D01*
X190847571Y-78635765D01*
X190870671Y-78644030D01*
X190892849Y-78654520D01*
X190913893Y-78667133D01*
X190933598Y-78681747D01*
X190951777Y-78698223D01*
X190968253Y-78716402D01*
X190982867Y-78736107D01*
X190995480Y-78757151D01*
X191005970Y-78779329D01*
X191014235Y-78802429D01*
X191020196Y-78826227D01*
X191023796Y-78850496D01*
X191025000Y-78875000D01*
X191025000Y-80125000D01*
X191023796Y-80149504D01*
X191020196Y-80173773D01*
X191014235Y-80197571D01*
X191005970Y-80220671D01*
X190995480Y-80242849D01*
X190982867Y-80263893D01*
X190968253Y-80283598D01*
X190951777Y-80301777D01*
X190933598Y-80318253D01*
X190913893Y-80332867D01*
X190892849Y-80345480D01*
X190870671Y-80355970D01*
X190847571Y-80364235D01*
X190823773Y-80370196D01*
X190799504Y-80373796D01*
X190775000Y-80375000D01*
X190025000Y-80375000D01*
X190000496Y-80373796D01*
X189976227Y-80370196D01*
X189952429Y-80364235D01*
X189929329Y-80355970D01*
X189907151Y-80345480D01*
X189886107Y-80332867D01*
X189866402Y-80318253D01*
X189848223Y-80301777D01*
X189831747Y-80283598D01*
X189817133Y-80263893D01*
X189804520Y-80242849D01*
X189794030Y-80220671D01*
X189785765Y-80197571D01*
X189779804Y-80173773D01*
X189776204Y-80149504D01*
X189775000Y-80125000D01*
X189775000Y-78875000D01*
X189776204Y-78850496D01*
X189779804Y-78826227D01*
X189785765Y-78802429D01*
X189794030Y-78779329D01*
X189804520Y-78757151D01*
X189817133Y-78736107D01*
X189831747Y-78716402D01*
X189848223Y-78698223D01*
X189866402Y-78681747D01*
X189886107Y-78667133D01*
X189907151Y-78654520D01*
X189929329Y-78644030D01*
X189952429Y-78635765D01*
X189976227Y-78629804D01*
X190000496Y-78626204D01*
X190025000Y-78625000D01*
X190775000Y-78625000D01*
X190799504Y-78626204D01*
G37*
G36*
X187999504Y-78626204D02*
G01*
X188023773Y-78629804D01*
X188047571Y-78635765D01*
X188070671Y-78644030D01*
X188092849Y-78654520D01*
X188113893Y-78667133D01*
X188133598Y-78681747D01*
X188151777Y-78698223D01*
X188168253Y-78716402D01*
X188182867Y-78736107D01*
X188195480Y-78757151D01*
X188205970Y-78779329D01*
X188214235Y-78802429D01*
X188220196Y-78826227D01*
X188223796Y-78850496D01*
X188225000Y-78875000D01*
X188225000Y-80125000D01*
X188223796Y-80149504D01*
X188220196Y-80173773D01*
X188214235Y-80197571D01*
X188205970Y-80220671D01*
X188195480Y-80242849D01*
X188182867Y-80263893D01*
X188168253Y-80283598D01*
X188151777Y-80301777D01*
X188133598Y-80318253D01*
X188113893Y-80332867D01*
X188092849Y-80345480D01*
X188070671Y-80355970D01*
X188047571Y-80364235D01*
X188023773Y-80370196D01*
X187999504Y-80373796D01*
X187975000Y-80375000D01*
X187225000Y-80375000D01*
X187200496Y-80373796D01*
X187176227Y-80370196D01*
X187152429Y-80364235D01*
X187129329Y-80355970D01*
X187107151Y-80345480D01*
X187086107Y-80332867D01*
X187066402Y-80318253D01*
X187048223Y-80301777D01*
X187031747Y-80283598D01*
X187017133Y-80263893D01*
X187004520Y-80242849D01*
X186994030Y-80220671D01*
X186985765Y-80197571D01*
X186979804Y-80173773D01*
X186976204Y-80149504D01*
X186975000Y-80125000D01*
X186975000Y-78875000D01*
X186976204Y-78850496D01*
X186979804Y-78826227D01*
X186985765Y-78802429D01*
X186994030Y-78779329D01*
X187004520Y-78757151D01*
X187017133Y-78736107D01*
X187031747Y-78716402D01*
X187048223Y-78698223D01*
X187066402Y-78681747D01*
X187086107Y-78667133D01*
X187107151Y-78654520D01*
X187129329Y-78644030D01*
X187152429Y-78635765D01*
X187176227Y-78629804D01*
X187200496Y-78626204D01*
X187225000Y-78625000D01*
X187975000Y-78625000D01*
X187999504Y-78626204D01*
G37*
%TD*%
%TO.C,R11*%
G36*
X190799504Y-90626204D02*
G01*
X190823773Y-90629804D01*
X190847571Y-90635765D01*
X190870671Y-90644030D01*
X190892849Y-90654520D01*
X190913893Y-90667133D01*
X190933598Y-90681747D01*
X190951777Y-90698223D01*
X190968253Y-90716402D01*
X190982867Y-90736107D01*
X190995480Y-90757151D01*
X191005970Y-90779329D01*
X191014235Y-90802429D01*
X191020196Y-90826227D01*
X191023796Y-90850496D01*
X191025000Y-90875000D01*
X191025000Y-92125000D01*
X191023796Y-92149504D01*
X191020196Y-92173773D01*
X191014235Y-92197571D01*
X191005970Y-92220671D01*
X190995480Y-92242849D01*
X190982867Y-92263893D01*
X190968253Y-92283598D01*
X190951777Y-92301777D01*
X190933598Y-92318253D01*
X190913893Y-92332867D01*
X190892849Y-92345480D01*
X190870671Y-92355970D01*
X190847571Y-92364235D01*
X190823773Y-92370196D01*
X190799504Y-92373796D01*
X190775000Y-92375000D01*
X190025000Y-92375000D01*
X190000496Y-92373796D01*
X189976227Y-92370196D01*
X189952429Y-92364235D01*
X189929329Y-92355970D01*
X189907151Y-92345480D01*
X189886107Y-92332867D01*
X189866402Y-92318253D01*
X189848223Y-92301777D01*
X189831747Y-92283598D01*
X189817133Y-92263893D01*
X189804520Y-92242849D01*
X189794030Y-92220671D01*
X189785765Y-92197571D01*
X189779804Y-92173773D01*
X189776204Y-92149504D01*
X189775000Y-92125000D01*
X189775000Y-90875000D01*
X189776204Y-90850496D01*
X189779804Y-90826227D01*
X189785765Y-90802429D01*
X189794030Y-90779329D01*
X189804520Y-90757151D01*
X189817133Y-90736107D01*
X189831747Y-90716402D01*
X189848223Y-90698223D01*
X189866402Y-90681747D01*
X189886107Y-90667133D01*
X189907151Y-90654520D01*
X189929329Y-90644030D01*
X189952429Y-90635765D01*
X189976227Y-90629804D01*
X190000496Y-90626204D01*
X190025000Y-90625000D01*
X190775000Y-90625000D01*
X190799504Y-90626204D01*
G37*
G36*
X187999504Y-90626204D02*
G01*
X188023773Y-90629804D01*
X188047571Y-90635765D01*
X188070671Y-90644030D01*
X188092849Y-90654520D01*
X188113893Y-90667133D01*
X188133598Y-90681747D01*
X188151777Y-90698223D01*
X188168253Y-90716402D01*
X188182867Y-90736107D01*
X188195480Y-90757151D01*
X188205970Y-90779329D01*
X188214235Y-90802429D01*
X188220196Y-90826227D01*
X188223796Y-90850496D01*
X188225000Y-90875000D01*
X188225000Y-92125000D01*
X188223796Y-92149504D01*
X188220196Y-92173773D01*
X188214235Y-92197571D01*
X188205970Y-92220671D01*
X188195480Y-92242849D01*
X188182867Y-92263893D01*
X188168253Y-92283598D01*
X188151777Y-92301777D01*
X188133598Y-92318253D01*
X188113893Y-92332867D01*
X188092849Y-92345480D01*
X188070671Y-92355970D01*
X188047571Y-92364235D01*
X188023773Y-92370196D01*
X187999504Y-92373796D01*
X187975000Y-92375000D01*
X187225000Y-92375000D01*
X187200496Y-92373796D01*
X187176227Y-92370196D01*
X187152429Y-92364235D01*
X187129329Y-92355970D01*
X187107151Y-92345480D01*
X187086107Y-92332867D01*
X187066402Y-92318253D01*
X187048223Y-92301777D01*
X187031747Y-92283598D01*
X187017133Y-92263893D01*
X187004520Y-92242849D01*
X186994030Y-92220671D01*
X186985765Y-92197571D01*
X186979804Y-92173773D01*
X186976204Y-92149504D01*
X186975000Y-92125000D01*
X186975000Y-90875000D01*
X186976204Y-90850496D01*
X186979804Y-90826227D01*
X186985765Y-90802429D01*
X186994030Y-90779329D01*
X187004520Y-90757151D01*
X187017133Y-90736107D01*
X187031747Y-90716402D01*
X187048223Y-90698223D01*
X187066402Y-90681747D01*
X187086107Y-90667133D01*
X187107151Y-90654520D01*
X187129329Y-90644030D01*
X187152429Y-90635765D01*
X187176227Y-90629804D01*
X187200496Y-90626204D01*
X187225000Y-90625000D01*
X187975000Y-90625000D01*
X187999504Y-90626204D01*
G37*
%TD*%
%TO.C,R10*%
G36*
X192649504Y-97976204D02*
G01*
X192673773Y-97979804D01*
X192697571Y-97985765D01*
X192720671Y-97994030D01*
X192742849Y-98004520D01*
X192763893Y-98017133D01*
X192783598Y-98031747D01*
X192801777Y-98048223D01*
X192818253Y-98066402D01*
X192832867Y-98086107D01*
X192845480Y-98107151D01*
X192855970Y-98129329D01*
X192864235Y-98152429D01*
X192870196Y-98176227D01*
X192873796Y-98200496D01*
X192875000Y-98225000D01*
X192875000Y-98975000D01*
X192873796Y-98999504D01*
X192870196Y-99023773D01*
X192864235Y-99047571D01*
X192855970Y-99070671D01*
X192845480Y-99092849D01*
X192832867Y-99113893D01*
X192818253Y-99133598D01*
X192801777Y-99151777D01*
X192783598Y-99168253D01*
X192763893Y-99182867D01*
X192742849Y-99195480D01*
X192720671Y-99205970D01*
X192697571Y-99214235D01*
X192673773Y-99220196D01*
X192649504Y-99223796D01*
X192625000Y-99225000D01*
X191375000Y-99225000D01*
X191350496Y-99223796D01*
X191326227Y-99220196D01*
X191302429Y-99214235D01*
X191279329Y-99205970D01*
X191257151Y-99195480D01*
X191236107Y-99182867D01*
X191216402Y-99168253D01*
X191198223Y-99151777D01*
X191181747Y-99133598D01*
X191167133Y-99113893D01*
X191154520Y-99092849D01*
X191144030Y-99070671D01*
X191135765Y-99047571D01*
X191129804Y-99023773D01*
X191126204Y-98999504D01*
X191125000Y-98975000D01*
X191125000Y-98225000D01*
X191126204Y-98200496D01*
X191129804Y-98176227D01*
X191135765Y-98152429D01*
X191144030Y-98129329D01*
X191154520Y-98107151D01*
X191167133Y-98086107D01*
X191181747Y-98066402D01*
X191198223Y-98048223D01*
X191216402Y-98031747D01*
X191236107Y-98017133D01*
X191257151Y-98004520D01*
X191279329Y-97994030D01*
X191302429Y-97985765D01*
X191326227Y-97979804D01*
X191350496Y-97976204D01*
X191375000Y-97975000D01*
X192625000Y-97975000D01*
X192649504Y-97976204D01*
G37*
G36*
X192649504Y-100776204D02*
G01*
X192673773Y-100779804D01*
X192697571Y-100785765D01*
X192720671Y-100794030D01*
X192742849Y-100804520D01*
X192763893Y-100817133D01*
X192783598Y-100831747D01*
X192801777Y-100848223D01*
X192818253Y-100866402D01*
X192832867Y-100886107D01*
X192845480Y-100907151D01*
X192855970Y-100929329D01*
X192864235Y-100952429D01*
X192870196Y-100976227D01*
X192873796Y-101000496D01*
X192875000Y-101025000D01*
X192875000Y-101775000D01*
X192873796Y-101799504D01*
X192870196Y-101823773D01*
X192864235Y-101847571D01*
X192855970Y-101870671D01*
X192845480Y-101892849D01*
X192832867Y-101913893D01*
X192818253Y-101933598D01*
X192801777Y-101951777D01*
X192783598Y-101968253D01*
X192763893Y-101982867D01*
X192742849Y-101995480D01*
X192720671Y-102005970D01*
X192697571Y-102014235D01*
X192673773Y-102020196D01*
X192649504Y-102023796D01*
X192625000Y-102025000D01*
X191375000Y-102025000D01*
X191350496Y-102023796D01*
X191326227Y-102020196D01*
X191302429Y-102014235D01*
X191279329Y-102005970D01*
X191257151Y-101995480D01*
X191236107Y-101982867D01*
X191216402Y-101968253D01*
X191198223Y-101951777D01*
X191181747Y-101933598D01*
X191167133Y-101913893D01*
X191154520Y-101892849D01*
X191144030Y-101870671D01*
X191135765Y-101847571D01*
X191129804Y-101823773D01*
X191126204Y-101799504D01*
X191125000Y-101775000D01*
X191125000Y-101025000D01*
X191126204Y-101000496D01*
X191129804Y-100976227D01*
X191135765Y-100952429D01*
X191144030Y-100929329D01*
X191154520Y-100907151D01*
X191167133Y-100886107D01*
X191181747Y-100866402D01*
X191198223Y-100848223D01*
X191216402Y-100831747D01*
X191236107Y-100817133D01*
X191257151Y-100804520D01*
X191279329Y-100794030D01*
X191302429Y-100785765D01*
X191326227Y-100779804D01*
X191350496Y-100776204D01*
X191375000Y-100775000D01*
X192625000Y-100775000D01*
X192649504Y-100776204D01*
G37*
%TD*%
%TO.C,R9*%
G36*
X204649504Y-97976204D02*
G01*
X204673773Y-97979804D01*
X204697571Y-97985765D01*
X204720671Y-97994030D01*
X204742849Y-98004520D01*
X204763893Y-98017133D01*
X204783598Y-98031747D01*
X204801777Y-98048223D01*
X204818253Y-98066402D01*
X204832867Y-98086107D01*
X204845480Y-98107151D01*
X204855970Y-98129329D01*
X204864235Y-98152429D01*
X204870196Y-98176227D01*
X204873796Y-98200496D01*
X204875000Y-98225000D01*
X204875000Y-98975000D01*
X204873796Y-98999504D01*
X204870196Y-99023773D01*
X204864235Y-99047571D01*
X204855970Y-99070671D01*
X204845480Y-99092849D01*
X204832867Y-99113893D01*
X204818253Y-99133598D01*
X204801777Y-99151777D01*
X204783598Y-99168253D01*
X204763893Y-99182867D01*
X204742849Y-99195480D01*
X204720671Y-99205970D01*
X204697571Y-99214235D01*
X204673773Y-99220196D01*
X204649504Y-99223796D01*
X204625000Y-99225000D01*
X203375000Y-99225000D01*
X203350496Y-99223796D01*
X203326227Y-99220196D01*
X203302429Y-99214235D01*
X203279329Y-99205970D01*
X203257151Y-99195480D01*
X203236107Y-99182867D01*
X203216402Y-99168253D01*
X203198223Y-99151777D01*
X203181747Y-99133598D01*
X203167133Y-99113893D01*
X203154520Y-99092849D01*
X203144030Y-99070671D01*
X203135765Y-99047571D01*
X203129804Y-99023773D01*
X203126204Y-98999504D01*
X203125000Y-98975000D01*
X203125000Y-98225000D01*
X203126204Y-98200496D01*
X203129804Y-98176227D01*
X203135765Y-98152429D01*
X203144030Y-98129329D01*
X203154520Y-98107151D01*
X203167133Y-98086107D01*
X203181747Y-98066402D01*
X203198223Y-98048223D01*
X203216402Y-98031747D01*
X203236107Y-98017133D01*
X203257151Y-98004520D01*
X203279329Y-97994030D01*
X203302429Y-97985765D01*
X203326227Y-97979804D01*
X203350496Y-97976204D01*
X203375000Y-97975000D01*
X204625000Y-97975000D01*
X204649504Y-97976204D01*
G37*
G36*
X204649504Y-100776204D02*
G01*
X204673773Y-100779804D01*
X204697571Y-100785765D01*
X204720671Y-100794030D01*
X204742849Y-100804520D01*
X204763893Y-100817133D01*
X204783598Y-100831747D01*
X204801777Y-100848223D01*
X204818253Y-100866402D01*
X204832867Y-100886107D01*
X204845480Y-100907151D01*
X204855970Y-100929329D01*
X204864235Y-100952429D01*
X204870196Y-100976227D01*
X204873796Y-101000496D01*
X204875000Y-101025000D01*
X204875000Y-101775000D01*
X204873796Y-101799504D01*
X204870196Y-101823773D01*
X204864235Y-101847571D01*
X204855970Y-101870671D01*
X204845480Y-101892849D01*
X204832867Y-101913893D01*
X204818253Y-101933598D01*
X204801777Y-101951777D01*
X204783598Y-101968253D01*
X204763893Y-101982867D01*
X204742849Y-101995480D01*
X204720671Y-102005970D01*
X204697571Y-102014235D01*
X204673773Y-102020196D01*
X204649504Y-102023796D01*
X204625000Y-102025000D01*
X203375000Y-102025000D01*
X203350496Y-102023796D01*
X203326227Y-102020196D01*
X203302429Y-102014235D01*
X203279329Y-102005970D01*
X203257151Y-101995480D01*
X203236107Y-101982867D01*
X203216402Y-101968253D01*
X203198223Y-101951777D01*
X203181747Y-101933598D01*
X203167133Y-101913893D01*
X203154520Y-101892849D01*
X203144030Y-101870671D01*
X203135765Y-101847571D01*
X203129804Y-101823773D01*
X203126204Y-101799504D01*
X203125000Y-101775000D01*
X203125000Y-101025000D01*
X203126204Y-101000496D01*
X203129804Y-100976227D01*
X203135765Y-100952429D01*
X203144030Y-100929329D01*
X203154520Y-100907151D01*
X203167133Y-100886107D01*
X203181747Y-100866402D01*
X203198223Y-100848223D01*
X203216402Y-100831747D01*
X203236107Y-100817133D01*
X203257151Y-100804520D01*
X203279329Y-100794030D01*
X203302429Y-100785765D01*
X203326227Y-100779804D01*
X203350496Y-100776204D01*
X203375000Y-100775000D01*
X204625000Y-100775000D01*
X204649504Y-100776204D01*
G37*
%TD*%
%TO.C,R8*%
G36*
X217649504Y-97976204D02*
G01*
X217673773Y-97979804D01*
X217697571Y-97985765D01*
X217720671Y-97994030D01*
X217742849Y-98004520D01*
X217763893Y-98017133D01*
X217783598Y-98031747D01*
X217801777Y-98048223D01*
X217818253Y-98066402D01*
X217832867Y-98086107D01*
X217845480Y-98107151D01*
X217855970Y-98129329D01*
X217864235Y-98152429D01*
X217870196Y-98176227D01*
X217873796Y-98200496D01*
X217875000Y-98225000D01*
X217875000Y-98975000D01*
X217873796Y-98999504D01*
X217870196Y-99023773D01*
X217864235Y-99047571D01*
X217855970Y-99070671D01*
X217845480Y-99092849D01*
X217832867Y-99113893D01*
X217818253Y-99133598D01*
X217801777Y-99151777D01*
X217783598Y-99168253D01*
X217763893Y-99182867D01*
X217742849Y-99195480D01*
X217720671Y-99205970D01*
X217697571Y-99214235D01*
X217673773Y-99220196D01*
X217649504Y-99223796D01*
X217625000Y-99225000D01*
X216375000Y-99225000D01*
X216350496Y-99223796D01*
X216326227Y-99220196D01*
X216302429Y-99214235D01*
X216279329Y-99205970D01*
X216257151Y-99195480D01*
X216236107Y-99182867D01*
X216216402Y-99168253D01*
X216198223Y-99151777D01*
X216181747Y-99133598D01*
X216167133Y-99113893D01*
X216154520Y-99092849D01*
X216144030Y-99070671D01*
X216135765Y-99047571D01*
X216129804Y-99023773D01*
X216126204Y-98999504D01*
X216125000Y-98975000D01*
X216125000Y-98225000D01*
X216126204Y-98200496D01*
X216129804Y-98176227D01*
X216135765Y-98152429D01*
X216144030Y-98129329D01*
X216154520Y-98107151D01*
X216167133Y-98086107D01*
X216181747Y-98066402D01*
X216198223Y-98048223D01*
X216216402Y-98031747D01*
X216236107Y-98017133D01*
X216257151Y-98004520D01*
X216279329Y-97994030D01*
X216302429Y-97985765D01*
X216326227Y-97979804D01*
X216350496Y-97976204D01*
X216375000Y-97975000D01*
X217625000Y-97975000D01*
X217649504Y-97976204D01*
G37*
G36*
X217649504Y-100776204D02*
G01*
X217673773Y-100779804D01*
X217697571Y-100785765D01*
X217720671Y-100794030D01*
X217742849Y-100804520D01*
X217763893Y-100817133D01*
X217783598Y-100831747D01*
X217801777Y-100848223D01*
X217818253Y-100866402D01*
X217832867Y-100886107D01*
X217845480Y-100907151D01*
X217855970Y-100929329D01*
X217864235Y-100952429D01*
X217870196Y-100976227D01*
X217873796Y-101000496D01*
X217875000Y-101025000D01*
X217875000Y-101775000D01*
X217873796Y-101799504D01*
X217870196Y-101823773D01*
X217864235Y-101847571D01*
X217855970Y-101870671D01*
X217845480Y-101892849D01*
X217832867Y-101913893D01*
X217818253Y-101933598D01*
X217801777Y-101951777D01*
X217783598Y-101968253D01*
X217763893Y-101982867D01*
X217742849Y-101995480D01*
X217720671Y-102005970D01*
X217697571Y-102014235D01*
X217673773Y-102020196D01*
X217649504Y-102023796D01*
X217625000Y-102025000D01*
X216375000Y-102025000D01*
X216350496Y-102023796D01*
X216326227Y-102020196D01*
X216302429Y-102014235D01*
X216279329Y-102005970D01*
X216257151Y-101995480D01*
X216236107Y-101982867D01*
X216216402Y-101968253D01*
X216198223Y-101951777D01*
X216181747Y-101933598D01*
X216167133Y-101913893D01*
X216154520Y-101892849D01*
X216144030Y-101870671D01*
X216135765Y-101847571D01*
X216129804Y-101823773D01*
X216126204Y-101799504D01*
X216125000Y-101775000D01*
X216125000Y-101025000D01*
X216126204Y-101000496D01*
X216129804Y-100976227D01*
X216135765Y-100952429D01*
X216144030Y-100929329D01*
X216154520Y-100907151D01*
X216167133Y-100886107D01*
X216181747Y-100866402D01*
X216198223Y-100848223D01*
X216216402Y-100831747D01*
X216236107Y-100817133D01*
X216257151Y-100804520D01*
X216279329Y-100794030D01*
X216302429Y-100785765D01*
X216326227Y-100779804D01*
X216350496Y-100776204D01*
X216375000Y-100775000D01*
X217625000Y-100775000D01*
X217649504Y-100776204D01*
G37*
%TD*%
%TO.C,R7*%
G36*
X229349504Y-97976204D02*
G01*
X229373773Y-97979804D01*
X229397571Y-97985765D01*
X229420671Y-97994030D01*
X229442849Y-98004520D01*
X229463893Y-98017133D01*
X229483598Y-98031747D01*
X229501777Y-98048223D01*
X229518253Y-98066402D01*
X229532867Y-98086107D01*
X229545480Y-98107151D01*
X229555970Y-98129329D01*
X229564235Y-98152429D01*
X229570196Y-98176227D01*
X229573796Y-98200496D01*
X229575000Y-98225000D01*
X229575000Y-98975000D01*
X229573796Y-98999504D01*
X229570196Y-99023773D01*
X229564235Y-99047571D01*
X229555970Y-99070671D01*
X229545480Y-99092849D01*
X229532867Y-99113893D01*
X229518253Y-99133598D01*
X229501777Y-99151777D01*
X229483598Y-99168253D01*
X229463893Y-99182867D01*
X229442849Y-99195480D01*
X229420671Y-99205970D01*
X229397571Y-99214235D01*
X229373773Y-99220196D01*
X229349504Y-99223796D01*
X229325000Y-99225000D01*
X228075000Y-99225000D01*
X228050496Y-99223796D01*
X228026227Y-99220196D01*
X228002429Y-99214235D01*
X227979329Y-99205970D01*
X227957151Y-99195480D01*
X227936107Y-99182867D01*
X227916402Y-99168253D01*
X227898223Y-99151777D01*
X227881747Y-99133598D01*
X227867133Y-99113893D01*
X227854520Y-99092849D01*
X227844030Y-99070671D01*
X227835765Y-99047571D01*
X227829804Y-99023773D01*
X227826204Y-98999504D01*
X227825000Y-98975000D01*
X227825000Y-98225000D01*
X227826204Y-98200496D01*
X227829804Y-98176227D01*
X227835765Y-98152429D01*
X227844030Y-98129329D01*
X227854520Y-98107151D01*
X227867133Y-98086107D01*
X227881747Y-98066402D01*
X227898223Y-98048223D01*
X227916402Y-98031747D01*
X227936107Y-98017133D01*
X227957151Y-98004520D01*
X227979329Y-97994030D01*
X228002429Y-97985765D01*
X228026227Y-97979804D01*
X228050496Y-97976204D01*
X228075000Y-97975000D01*
X229325000Y-97975000D01*
X229349504Y-97976204D01*
G37*
G36*
X229349504Y-100776204D02*
G01*
X229373773Y-100779804D01*
X229397571Y-100785765D01*
X229420671Y-100794030D01*
X229442849Y-100804520D01*
X229463893Y-100817133D01*
X229483598Y-100831747D01*
X229501777Y-100848223D01*
X229518253Y-100866402D01*
X229532867Y-100886107D01*
X229545480Y-100907151D01*
X229555970Y-100929329D01*
X229564235Y-100952429D01*
X229570196Y-100976227D01*
X229573796Y-101000496D01*
X229575000Y-101025000D01*
X229575000Y-101775000D01*
X229573796Y-101799504D01*
X229570196Y-101823773D01*
X229564235Y-101847571D01*
X229555970Y-101870671D01*
X229545480Y-101892849D01*
X229532867Y-101913893D01*
X229518253Y-101933598D01*
X229501777Y-101951777D01*
X229483598Y-101968253D01*
X229463893Y-101982867D01*
X229442849Y-101995480D01*
X229420671Y-102005970D01*
X229397571Y-102014235D01*
X229373773Y-102020196D01*
X229349504Y-102023796D01*
X229325000Y-102025000D01*
X228075000Y-102025000D01*
X228050496Y-102023796D01*
X228026227Y-102020196D01*
X228002429Y-102014235D01*
X227979329Y-102005970D01*
X227957151Y-101995480D01*
X227936107Y-101982867D01*
X227916402Y-101968253D01*
X227898223Y-101951777D01*
X227881747Y-101933598D01*
X227867133Y-101913893D01*
X227854520Y-101892849D01*
X227844030Y-101870671D01*
X227835765Y-101847571D01*
X227829804Y-101823773D01*
X227826204Y-101799504D01*
X227825000Y-101775000D01*
X227825000Y-101025000D01*
X227826204Y-101000496D01*
X227829804Y-100976227D01*
X227835765Y-100952429D01*
X227844030Y-100929329D01*
X227854520Y-100907151D01*
X227867133Y-100886107D01*
X227881747Y-100866402D01*
X227898223Y-100848223D01*
X227916402Y-100831747D01*
X227936107Y-100817133D01*
X227957151Y-100804520D01*
X227979329Y-100794030D01*
X228002429Y-100785765D01*
X228026227Y-100779804D01*
X228050496Y-100776204D01*
X228075000Y-100775000D01*
X229325000Y-100775000D01*
X229349504Y-100776204D01*
G37*
%TD*%
%TO.C,R6*%
G36*
X235999504Y-95126204D02*
G01*
X236023773Y-95129804D01*
X236047571Y-95135765D01*
X236070671Y-95144030D01*
X236092849Y-95154520D01*
X236113893Y-95167133D01*
X236133598Y-95181747D01*
X236151777Y-95198223D01*
X236168253Y-95216402D01*
X236182867Y-95236107D01*
X236195480Y-95257151D01*
X236205970Y-95279329D01*
X236214235Y-95302429D01*
X236220196Y-95326227D01*
X236223796Y-95350496D01*
X236225000Y-95375000D01*
X236225000Y-96625000D01*
X236223796Y-96649504D01*
X236220196Y-96673773D01*
X236214235Y-96697571D01*
X236205970Y-96720671D01*
X236195480Y-96742849D01*
X236182867Y-96763893D01*
X236168253Y-96783598D01*
X236151777Y-96801777D01*
X236133598Y-96818253D01*
X236113893Y-96832867D01*
X236092849Y-96845480D01*
X236070671Y-96855970D01*
X236047571Y-96864235D01*
X236023773Y-96870196D01*
X235999504Y-96873796D01*
X235975000Y-96875000D01*
X235225000Y-96875000D01*
X235200496Y-96873796D01*
X235176227Y-96870196D01*
X235152429Y-96864235D01*
X235129329Y-96855970D01*
X235107151Y-96845480D01*
X235086107Y-96832867D01*
X235066402Y-96818253D01*
X235048223Y-96801777D01*
X235031747Y-96783598D01*
X235017133Y-96763893D01*
X235004520Y-96742849D01*
X234994030Y-96720671D01*
X234985765Y-96697571D01*
X234979804Y-96673773D01*
X234976204Y-96649504D01*
X234975000Y-96625000D01*
X234975000Y-95375000D01*
X234976204Y-95350496D01*
X234979804Y-95326227D01*
X234985765Y-95302429D01*
X234994030Y-95279329D01*
X235004520Y-95257151D01*
X235017133Y-95236107D01*
X235031747Y-95216402D01*
X235048223Y-95198223D01*
X235066402Y-95181747D01*
X235086107Y-95167133D01*
X235107151Y-95154520D01*
X235129329Y-95144030D01*
X235152429Y-95135765D01*
X235176227Y-95129804D01*
X235200496Y-95126204D01*
X235225000Y-95125000D01*
X235975000Y-95125000D01*
X235999504Y-95126204D01*
G37*
G36*
X238799504Y-95126204D02*
G01*
X238823773Y-95129804D01*
X238847571Y-95135765D01*
X238870671Y-95144030D01*
X238892849Y-95154520D01*
X238913893Y-95167133D01*
X238933598Y-95181747D01*
X238951777Y-95198223D01*
X238968253Y-95216402D01*
X238982867Y-95236107D01*
X238995480Y-95257151D01*
X239005970Y-95279329D01*
X239014235Y-95302429D01*
X239020196Y-95326227D01*
X239023796Y-95350496D01*
X239025000Y-95375000D01*
X239025000Y-96625000D01*
X239023796Y-96649504D01*
X239020196Y-96673773D01*
X239014235Y-96697571D01*
X239005970Y-96720671D01*
X238995480Y-96742849D01*
X238982867Y-96763893D01*
X238968253Y-96783598D01*
X238951777Y-96801777D01*
X238933598Y-96818253D01*
X238913893Y-96832867D01*
X238892849Y-96845480D01*
X238870671Y-96855970D01*
X238847571Y-96864235D01*
X238823773Y-96870196D01*
X238799504Y-96873796D01*
X238775000Y-96875000D01*
X238025000Y-96875000D01*
X238000496Y-96873796D01*
X237976227Y-96870196D01*
X237952429Y-96864235D01*
X237929329Y-96855970D01*
X237907151Y-96845480D01*
X237886107Y-96832867D01*
X237866402Y-96818253D01*
X237848223Y-96801777D01*
X237831747Y-96783598D01*
X237817133Y-96763893D01*
X237804520Y-96742849D01*
X237794030Y-96720671D01*
X237785765Y-96697571D01*
X237779804Y-96673773D01*
X237776204Y-96649504D01*
X237775000Y-96625000D01*
X237775000Y-95375000D01*
X237776204Y-95350496D01*
X237779804Y-95326227D01*
X237785765Y-95302429D01*
X237794030Y-95279329D01*
X237804520Y-95257151D01*
X237817133Y-95236107D01*
X237831747Y-95216402D01*
X237848223Y-95198223D01*
X237866402Y-95181747D01*
X237886107Y-95167133D01*
X237907151Y-95154520D01*
X237929329Y-95144030D01*
X237952429Y-95135765D01*
X237976227Y-95129804D01*
X238000496Y-95126204D01*
X238025000Y-95125000D01*
X238775000Y-95125000D01*
X238799504Y-95126204D01*
G37*
%TD*%
%TO.C,R5*%
G36*
X235999504Y-82086204D02*
G01*
X236023773Y-82089804D01*
X236047571Y-82095765D01*
X236070671Y-82104030D01*
X236092849Y-82114520D01*
X236113893Y-82127133D01*
X236133598Y-82141747D01*
X236151777Y-82158223D01*
X236168253Y-82176402D01*
X236182867Y-82196107D01*
X236195480Y-82217151D01*
X236205970Y-82239329D01*
X236214235Y-82262429D01*
X236220196Y-82286227D01*
X236223796Y-82310496D01*
X236225000Y-82335000D01*
X236225000Y-83585000D01*
X236223796Y-83609504D01*
X236220196Y-83633773D01*
X236214235Y-83657571D01*
X236205970Y-83680671D01*
X236195480Y-83702849D01*
X236182867Y-83723893D01*
X236168253Y-83743598D01*
X236151777Y-83761777D01*
X236133598Y-83778253D01*
X236113893Y-83792867D01*
X236092849Y-83805480D01*
X236070671Y-83815970D01*
X236047571Y-83824235D01*
X236023773Y-83830196D01*
X235999504Y-83833796D01*
X235975000Y-83835000D01*
X235225000Y-83835000D01*
X235200496Y-83833796D01*
X235176227Y-83830196D01*
X235152429Y-83824235D01*
X235129329Y-83815970D01*
X235107151Y-83805480D01*
X235086107Y-83792867D01*
X235066402Y-83778253D01*
X235048223Y-83761777D01*
X235031747Y-83743598D01*
X235017133Y-83723893D01*
X235004520Y-83702849D01*
X234994030Y-83680671D01*
X234985765Y-83657571D01*
X234979804Y-83633773D01*
X234976204Y-83609504D01*
X234975000Y-83585000D01*
X234975000Y-82335000D01*
X234976204Y-82310496D01*
X234979804Y-82286227D01*
X234985765Y-82262429D01*
X234994030Y-82239329D01*
X235004520Y-82217151D01*
X235017133Y-82196107D01*
X235031747Y-82176402D01*
X235048223Y-82158223D01*
X235066402Y-82141747D01*
X235086107Y-82127133D01*
X235107151Y-82114520D01*
X235129329Y-82104030D01*
X235152429Y-82095765D01*
X235176227Y-82089804D01*
X235200496Y-82086204D01*
X235225000Y-82085000D01*
X235975000Y-82085000D01*
X235999504Y-82086204D01*
G37*
G36*
X238799504Y-82086204D02*
G01*
X238823773Y-82089804D01*
X238847571Y-82095765D01*
X238870671Y-82104030D01*
X238892849Y-82114520D01*
X238913893Y-82127133D01*
X238933598Y-82141747D01*
X238951777Y-82158223D01*
X238968253Y-82176402D01*
X238982867Y-82196107D01*
X238995480Y-82217151D01*
X239005970Y-82239329D01*
X239014235Y-82262429D01*
X239020196Y-82286227D01*
X239023796Y-82310496D01*
X239025000Y-82335000D01*
X239025000Y-83585000D01*
X239023796Y-83609504D01*
X239020196Y-83633773D01*
X239014235Y-83657571D01*
X239005970Y-83680671D01*
X238995480Y-83702849D01*
X238982867Y-83723893D01*
X238968253Y-83743598D01*
X238951777Y-83761777D01*
X238933598Y-83778253D01*
X238913893Y-83792867D01*
X238892849Y-83805480D01*
X238870671Y-83815970D01*
X238847571Y-83824235D01*
X238823773Y-83830196D01*
X238799504Y-83833796D01*
X238775000Y-83835000D01*
X238025000Y-83835000D01*
X238000496Y-83833796D01*
X237976227Y-83830196D01*
X237952429Y-83824235D01*
X237929329Y-83815970D01*
X237907151Y-83805480D01*
X237886107Y-83792867D01*
X237866402Y-83778253D01*
X237848223Y-83761777D01*
X237831747Y-83743598D01*
X237817133Y-83723893D01*
X237804520Y-83702849D01*
X237794030Y-83680671D01*
X237785765Y-83657571D01*
X237779804Y-83633773D01*
X237776204Y-83609504D01*
X237775000Y-83585000D01*
X237775000Y-82335000D01*
X237776204Y-82310496D01*
X237779804Y-82286227D01*
X237785765Y-82262429D01*
X237794030Y-82239329D01*
X237804520Y-82217151D01*
X237817133Y-82196107D01*
X237831747Y-82176402D01*
X237848223Y-82158223D01*
X237866402Y-82141747D01*
X237886107Y-82127133D01*
X237907151Y-82114520D01*
X237929329Y-82104030D01*
X237952429Y-82095765D01*
X237976227Y-82089804D01*
X238000496Y-82086204D01*
X238025000Y-82085000D01*
X238775000Y-82085000D01*
X238799504Y-82086204D01*
G37*
%TD*%
%TO.C,R4*%
G36*
X235999504Y-67126204D02*
G01*
X236023773Y-67129804D01*
X236047571Y-67135765D01*
X236070671Y-67144030D01*
X236092849Y-67154520D01*
X236113893Y-67167133D01*
X236133598Y-67181747D01*
X236151777Y-67198223D01*
X236168253Y-67216402D01*
X236182867Y-67236107D01*
X236195480Y-67257151D01*
X236205970Y-67279329D01*
X236214235Y-67302429D01*
X236220196Y-67326227D01*
X236223796Y-67350496D01*
X236225000Y-67375000D01*
X236225000Y-68625000D01*
X236223796Y-68649504D01*
X236220196Y-68673773D01*
X236214235Y-68697571D01*
X236205970Y-68720671D01*
X236195480Y-68742849D01*
X236182867Y-68763893D01*
X236168253Y-68783598D01*
X236151777Y-68801777D01*
X236133598Y-68818253D01*
X236113893Y-68832867D01*
X236092849Y-68845480D01*
X236070671Y-68855970D01*
X236047571Y-68864235D01*
X236023773Y-68870196D01*
X235999504Y-68873796D01*
X235975000Y-68875000D01*
X235225000Y-68875000D01*
X235200496Y-68873796D01*
X235176227Y-68870196D01*
X235152429Y-68864235D01*
X235129329Y-68855970D01*
X235107151Y-68845480D01*
X235086107Y-68832867D01*
X235066402Y-68818253D01*
X235048223Y-68801777D01*
X235031747Y-68783598D01*
X235017133Y-68763893D01*
X235004520Y-68742849D01*
X234994030Y-68720671D01*
X234985765Y-68697571D01*
X234979804Y-68673773D01*
X234976204Y-68649504D01*
X234975000Y-68625000D01*
X234975000Y-67375000D01*
X234976204Y-67350496D01*
X234979804Y-67326227D01*
X234985765Y-67302429D01*
X234994030Y-67279329D01*
X235004520Y-67257151D01*
X235017133Y-67236107D01*
X235031747Y-67216402D01*
X235048223Y-67198223D01*
X235066402Y-67181747D01*
X235086107Y-67167133D01*
X235107151Y-67154520D01*
X235129329Y-67144030D01*
X235152429Y-67135765D01*
X235176227Y-67129804D01*
X235200496Y-67126204D01*
X235225000Y-67125000D01*
X235975000Y-67125000D01*
X235999504Y-67126204D01*
G37*
G36*
X238799504Y-67126204D02*
G01*
X238823773Y-67129804D01*
X238847571Y-67135765D01*
X238870671Y-67144030D01*
X238892849Y-67154520D01*
X238913893Y-67167133D01*
X238933598Y-67181747D01*
X238951777Y-67198223D01*
X238968253Y-67216402D01*
X238982867Y-67236107D01*
X238995480Y-67257151D01*
X239005970Y-67279329D01*
X239014235Y-67302429D01*
X239020196Y-67326227D01*
X239023796Y-67350496D01*
X239025000Y-67375000D01*
X239025000Y-68625000D01*
X239023796Y-68649504D01*
X239020196Y-68673773D01*
X239014235Y-68697571D01*
X239005970Y-68720671D01*
X238995480Y-68742849D01*
X238982867Y-68763893D01*
X238968253Y-68783598D01*
X238951777Y-68801777D01*
X238933598Y-68818253D01*
X238913893Y-68832867D01*
X238892849Y-68845480D01*
X238870671Y-68855970D01*
X238847571Y-68864235D01*
X238823773Y-68870196D01*
X238799504Y-68873796D01*
X238775000Y-68875000D01*
X238025000Y-68875000D01*
X238000496Y-68873796D01*
X237976227Y-68870196D01*
X237952429Y-68864235D01*
X237929329Y-68855970D01*
X237907151Y-68845480D01*
X237886107Y-68832867D01*
X237866402Y-68818253D01*
X237848223Y-68801777D01*
X237831747Y-68783598D01*
X237817133Y-68763893D01*
X237804520Y-68742849D01*
X237794030Y-68720671D01*
X237785765Y-68697571D01*
X237779804Y-68673773D01*
X237776204Y-68649504D01*
X237775000Y-68625000D01*
X237775000Y-67375000D01*
X237776204Y-67350496D01*
X237779804Y-67326227D01*
X237785765Y-67302429D01*
X237794030Y-67279329D01*
X237804520Y-67257151D01*
X237817133Y-67236107D01*
X237831747Y-67216402D01*
X237848223Y-67198223D01*
X237866402Y-67181747D01*
X237886107Y-67167133D01*
X237907151Y-67154520D01*
X237929329Y-67144030D01*
X237952429Y-67135765D01*
X237976227Y-67129804D01*
X238000496Y-67126204D01*
X238025000Y-67125000D01*
X238775000Y-67125000D01*
X238799504Y-67126204D01*
G37*
%TD*%
%TO.C,R3*%
G36*
X204686958Y-78190710D02*
G01*
X204701276Y-78192834D01*
X204715317Y-78196351D01*
X204728946Y-78201228D01*
X204742031Y-78207417D01*
X204754447Y-78214858D01*
X204766073Y-78223481D01*
X204776798Y-78233202D01*
X204786519Y-78243927D01*
X204795142Y-78255553D01*
X204802583Y-78267969D01*
X204808772Y-78281054D01*
X204813649Y-78294683D01*
X204817166Y-78308724D01*
X204819290Y-78323042D01*
X204820000Y-78337500D01*
X204820000Y-78632500D01*
X204819290Y-78646958D01*
X204817166Y-78661276D01*
X204813649Y-78675317D01*
X204808772Y-78688946D01*
X204802583Y-78702031D01*
X204795142Y-78714447D01*
X204786519Y-78726073D01*
X204776798Y-78736798D01*
X204766073Y-78746519D01*
X204754447Y-78755142D01*
X204742031Y-78762583D01*
X204728946Y-78768772D01*
X204715317Y-78773649D01*
X204701276Y-78777166D01*
X204686958Y-78779290D01*
X204672500Y-78780000D01*
X204327500Y-78780000D01*
X204313042Y-78779290D01*
X204298724Y-78777166D01*
X204284683Y-78773649D01*
X204271054Y-78768772D01*
X204257969Y-78762583D01*
X204245553Y-78755142D01*
X204233927Y-78746519D01*
X204223202Y-78736798D01*
X204213481Y-78726073D01*
X204204858Y-78714447D01*
X204197417Y-78702031D01*
X204191228Y-78688946D01*
X204186351Y-78675317D01*
X204182834Y-78661276D01*
X204180710Y-78646958D01*
X204180000Y-78632500D01*
X204180000Y-78337500D01*
X204180710Y-78323042D01*
X204182834Y-78308724D01*
X204186351Y-78294683D01*
X204191228Y-78281054D01*
X204197417Y-78267969D01*
X204204858Y-78255553D01*
X204213481Y-78243927D01*
X204223202Y-78233202D01*
X204233927Y-78223481D01*
X204245553Y-78214858D01*
X204257969Y-78207417D01*
X204271054Y-78201228D01*
X204284683Y-78196351D01*
X204298724Y-78192834D01*
X204313042Y-78190710D01*
X204327500Y-78190000D01*
X204672500Y-78190000D01*
X204686958Y-78190710D01*
G37*
G36*
X204686958Y-77220710D02*
G01*
X204701276Y-77222834D01*
X204715317Y-77226351D01*
X204728946Y-77231228D01*
X204742031Y-77237417D01*
X204754447Y-77244858D01*
X204766073Y-77253481D01*
X204776798Y-77263202D01*
X204786519Y-77273927D01*
X204795142Y-77285553D01*
X204802583Y-77297969D01*
X204808772Y-77311054D01*
X204813649Y-77324683D01*
X204817166Y-77338724D01*
X204819290Y-77353042D01*
X204820000Y-77367500D01*
X204820000Y-77662500D01*
X204819290Y-77676958D01*
X204817166Y-77691276D01*
X204813649Y-77705317D01*
X204808772Y-77718946D01*
X204802583Y-77732031D01*
X204795142Y-77744447D01*
X204786519Y-77756073D01*
X204776798Y-77766798D01*
X204766073Y-77776519D01*
X204754447Y-77785142D01*
X204742031Y-77792583D01*
X204728946Y-77798772D01*
X204715317Y-77803649D01*
X204701276Y-77807166D01*
X204686958Y-77809290D01*
X204672500Y-77810000D01*
X204327500Y-77810000D01*
X204313042Y-77809290D01*
X204298724Y-77807166D01*
X204284683Y-77803649D01*
X204271054Y-77798772D01*
X204257969Y-77792583D01*
X204245553Y-77785142D01*
X204233927Y-77776519D01*
X204223202Y-77766798D01*
X204213481Y-77756073D01*
X204204858Y-77744447D01*
X204197417Y-77732031D01*
X204191228Y-77718946D01*
X204186351Y-77705317D01*
X204182834Y-77691276D01*
X204180710Y-77676958D01*
X204180000Y-77662500D01*
X204180000Y-77367500D01*
X204180710Y-77353042D01*
X204182834Y-77338724D01*
X204186351Y-77324683D01*
X204191228Y-77311054D01*
X204197417Y-77297969D01*
X204204858Y-77285553D01*
X204213481Y-77273927D01*
X204223202Y-77263202D01*
X204233927Y-77253481D01*
X204245553Y-77244858D01*
X204257969Y-77237417D01*
X204271054Y-77231228D01*
X204284683Y-77226351D01*
X204298724Y-77222834D01*
X204313042Y-77220710D01*
X204327500Y-77220000D01*
X204672500Y-77220000D01*
X204686958Y-77220710D01*
G37*
%TD*%
%TO.C,R2*%
G36*
X199646958Y-81180710D02*
G01*
X199661276Y-81182834D01*
X199675317Y-81186351D01*
X199688946Y-81191228D01*
X199702031Y-81197417D01*
X199714447Y-81204858D01*
X199726073Y-81213481D01*
X199736798Y-81223202D01*
X199746519Y-81233927D01*
X199755142Y-81245553D01*
X199762583Y-81257969D01*
X199768772Y-81271054D01*
X199773649Y-81284683D01*
X199777166Y-81298724D01*
X199779290Y-81313042D01*
X199780000Y-81327500D01*
X199780000Y-81672500D01*
X199779290Y-81686958D01*
X199777166Y-81701276D01*
X199773649Y-81715317D01*
X199768772Y-81728946D01*
X199762583Y-81742031D01*
X199755142Y-81754447D01*
X199746519Y-81766073D01*
X199736798Y-81776798D01*
X199726073Y-81786519D01*
X199714447Y-81795142D01*
X199702031Y-81802583D01*
X199688946Y-81808772D01*
X199675317Y-81813649D01*
X199661276Y-81817166D01*
X199646958Y-81819290D01*
X199632500Y-81820000D01*
X199337500Y-81820000D01*
X199323042Y-81819290D01*
X199308724Y-81817166D01*
X199294683Y-81813649D01*
X199281054Y-81808772D01*
X199267969Y-81802583D01*
X199255553Y-81795142D01*
X199243927Y-81786519D01*
X199233202Y-81776798D01*
X199223481Y-81766073D01*
X199214858Y-81754447D01*
X199207417Y-81742031D01*
X199201228Y-81728946D01*
X199196351Y-81715317D01*
X199192834Y-81701276D01*
X199190710Y-81686958D01*
X199190000Y-81672500D01*
X199190000Y-81327500D01*
X199190710Y-81313042D01*
X199192834Y-81298724D01*
X199196351Y-81284683D01*
X199201228Y-81271054D01*
X199207417Y-81257969D01*
X199214858Y-81245553D01*
X199223481Y-81233927D01*
X199233202Y-81223202D01*
X199243927Y-81213481D01*
X199255553Y-81204858D01*
X199267969Y-81197417D01*
X199281054Y-81191228D01*
X199294683Y-81186351D01*
X199308724Y-81182834D01*
X199323042Y-81180710D01*
X199337500Y-81180000D01*
X199632500Y-81180000D01*
X199646958Y-81180710D01*
G37*
G36*
X198676958Y-81180710D02*
G01*
X198691276Y-81182834D01*
X198705317Y-81186351D01*
X198718946Y-81191228D01*
X198732031Y-81197417D01*
X198744447Y-81204858D01*
X198756073Y-81213481D01*
X198766798Y-81223202D01*
X198776519Y-81233927D01*
X198785142Y-81245553D01*
X198792583Y-81257969D01*
X198798772Y-81271054D01*
X198803649Y-81284683D01*
X198807166Y-81298724D01*
X198809290Y-81313042D01*
X198810000Y-81327500D01*
X198810000Y-81672500D01*
X198809290Y-81686958D01*
X198807166Y-81701276D01*
X198803649Y-81715317D01*
X198798772Y-81728946D01*
X198792583Y-81742031D01*
X198785142Y-81754447D01*
X198776519Y-81766073D01*
X198766798Y-81776798D01*
X198756073Y-81786519D01*
X198744447Y-81795142D01*
X198732031Y-81802583D01*
X198718946Y-81808772D01*
X198705317Y-81813649D01*
X198691276Y-81817166D01*
X198676958Y-81819290D01*
X198662500Y-81820000D01*
X198367500Y-81820000D01*
X198353042Y-81819290D01*
X198338724Y-81817166D01*
X198324683Y-81813649D01*
X198311054Y-81808772D01*
X198297969Y-81802583D01*
X198285553Y-81795142D01*
X198273927Y-81786519D01*
X198263202Y-81776798D01*
X198253481Y-81766073D01*
X198244858Y-81754447D01*
X198237417Y-81742031D01*
X198231228Y-81728946D01*
X198226351Y-81715317D01*
X198222834Y-81701276D01*
X198220710Y-81686958D01*
X198220000Y-81672500D01*
X198220000Y-81327500D01*
X198220710Y-81313042D01*
X198222834Y-81298724D01*
X198226351Y-81284683D01*
X198231228Y-81271054D01*
X198237417Y-81257969D01*
X198244858Y-81245553D01*
X198253481Y-81233927D01*
X198263202Y-81223202D01*
X198273927Y-81213481D01*
X198285553Y-81204858D01*
X198297969Y-81197417D01*
X198311054Y-81191228D01*
X198324683Y-81186351D01*
X198338724Y-81182834D01*
X198353042Y-81180710D01*
X198367500Y-81180000D01*
X198662500Y-81180000D01*
X198676958Y-81180710D01*
G37*
%TD*%
%TO.C,R1*%
G36*
X195676958Y-75180710D02*
G01*
X195691276Y-75182834D01*
X195705317Y-75186351D01*
X195718946Y-75191228D01*
X195732031Y-75197417D01*
X195744447Y-75204858D01*
X195756073Y-75213481D01*
X195766798Y-75223202D01*
X195776519Y-75233927D01*
X195785142Y-75245553D01*
X195792583Y-75257969D01*
X195798772Y-75271054D01*
X195803649Y-75284683D01*
X195807166Y-75298724D01*
X195809290Y-75313042D01*
X195810000Y-75327500D01*
X195810000Y-75672500D01*
X195809290Y-75686958D01*
X195807166Y-75701276D01*
X195803649Y-75715317D01*
X195798772Y-75728946D01*
X195792583Y-75742031D01*
X195785142Y-75754447D01*
X195776519Y-75766073D01*
X195766798Y-75776798D01*
X195756073Y-75786519D01*
X195744447Y-75795142D01*
X195732031Y-75802583D01*
X195718946Y-75808772D01*
X195705317Y-75813649D01*
X195691276Y-75817166D01*
X195676958Y-75819290D01*
X195662500Y-75820000D01*
X195367500Y-75820000D01*
X195353042Y-75819290D01*
X195338724Y-75817166D01*
X195324683Y-75813649D01*
X195311054Y-75808772D01*
X195297969Y-75802583D01*
X195285553Y-75795142D01*
X195273927Y-75786519D01*
X195263202Y-75776798D01*
X195253481Y-75766073D01*
X195244858Y-75754447D01*
X195237417Y-75742031D01*
X195231228Y-75728946D01*
X195226351Y-75715317D01*
X195222834Y-75701276D01*
X195220710Y-75686958D01*
X195220000Y-75672500D01*
X195220000Y-75327500D01*
X195220710Y-75313042D01*
X195222834Y-75298724D01*
X195226351Y-75284683D01*
X195231228Y-75271054D01*
X195237417Y-75257969D01*
X195244858Y-75245553D01*
X195253481Y-75233927D01*
X195263202Y-75223202D01*
X195273927Y-75213481D01*
X195285553Y-75204858D01*
X195297969Y-75197417D01*
X195311054Y-75191228D01*
X195324683Y-75186351D01*
X195338724Y-75182834D01*
X195353042Y-75180710D01*
X195367500Y-75180000D01*
X195662500Y-75180000D01*
X195676958Y-75180710D01*
G37*
G36*
X196646958Y-75180710D02*
G01*
X196661276Y-75182834D01*
X196675317Y-75186351D01*
X196688946Y-75191228D01*
X196702031Y-75197417D01*
X196714447Y-75204858D01*
X196726073Y-75213481D01*
X196736798Y-75223202D01*
X196746519Y-75233927D01*
X196755142Y-75245553D01*
X196762583Y-75257969D01*
X196768772Y-75271054D01*
X196773649Y-75284683D01*
X196777166Y-75298724D01*
X196779290Y-75313042D01*
X196780000Y-75327500D01*
X196780000Y-75672500D01*
X196779290Y-75686958D01*
X196777166Y-75701276D01*
X196773649Y-75715317D01*
X196768772Y-75728946D01*
X196762583Y-75742031D01*
X196755142Y-75754447D01*
X196746519Y-75766073D01*
X196736798Y-75776798D01*
X196726073Y-75786519D01*
X196714447Y-75795142D01*
X196702031Y-75802583D01*
X196688946Y-75808772D01*
X196675317Y-75813649D01*
X196661276Y-75817166D01*
X196646958Y-75819290D01*
X196632500Y-75820000D01*
X196337500Y-75820000D01*
X196323042Y-75819290D01*
X196308724Y-75817166D01*
X196294683Y-75813649D01*
X196281054Y-75808772D01*
X196267969Y-75802583D01*
X196255553Y-75795142D01*
X196243927Y-75786519D01*
X196233202Y-75776798D01*
X196223481Y-75766073D01*
X196214858Y-75754447D01*
X196207417Y-75742031D01*
X196201228Y-75728946D01*
X196196351Y-75715317D01*
X196192834Y-75701276D01*
X196190710Y-75686958D01*
X196190000Y-75672500D01*
X196190000Y-75327500D01*
X196190710Y-75313042D01*
X196192834Y-75298724D01*
X196196351Y-75284683D01*
X196201228Y-75271054D01*
X196207417Y-75257969D01*
X196214858Y-75245553D01*
X196223481Y-75233927D01*
X196233202Y-75223202D01*
X196243927Y-75213481D01*
X196255553Y-75204858D01*
X196267969Y-75197417D01*
X196281054Y-75191228D01*
X196294683Y-75186351D01*
X196308724Y-75182834D01*
X196323042Y-75180710D01*
X196337500Y-75180000D01*
X196632500Y-75180000D01*
X196646958Y-75180710D01*
G37*
%TD*%
D22*
%TO.C,Q2*%
X195500000Y-78500000D03*
X197500000Y-77550000D03*
X197500000Y-79450000D03*
%TD*%
%TO.C,Q1*%
X202500000Y-78500000D03*
X200500000Y-79450000D03*
X200500000Y-77550000D03*
%TD*%
D23*
%TO.C,J1*%
X190950000Y-53400000D03*
X197050000Y-53400000D03*
X193000000Y-53400000D03*
X195000000Y-53400000D03*
D24*
X192700000Y-56075000D03*
X193350000Y-56075000D03*
X194000000Y-56075000D03*
X194650000Y-56075000D03*
X195300000Y-56075000D03*
%TD*%
D13*
%TO.C,D2*%
G36*
X221777691Y-83276053D02*
G01*
X221798926Y-83279203D01*
X221819750Y-83284419D01*
X221839962Y-83291651D01*
X221859368Y-83300830D01*
X221877781Y-83311866D01*
X221895024Y-83324654D01*
X221910930Y-83339070D01*
X221925346Y-83354976D01*
X221938134Y-83372219D01*
X221949170Y-83390632D01*
X221958349Y-83410038D01*
X221965581Y-83430250D01*
X221970797Y-83451074D01*
X221973947Y-83472309D01*
X221975000Y-83493750D01*
X221975000Y-83931250D01*
X221973947Y-83952691D01*
X221970797Y-83973926D01*
X221965581Y-83994750D01*
X221958349Y-84014962D01*
X221949170Y-84034368D01*
X221938134Y-84052781D01*
X221925346Y-84070024D01*
X221910930Y-84085930D01*
X221895024Y-84100346D01*
X221877781Y-84113134D01*
X221859368Y-84124170D01*
X221839962Y-84133349D01*
X221819750Y-84140581D01*
X221798926Y-84145797D01*
X221777691Y-84148947D01*
X221756250Y-84150000D01*
X221243750Y-84150000D01*
X221222309Y-84148947D01*
X221201074Y-84145797D01*
X221180250Y-84140581D01*
X221160038Y-84133349D01*
X221140632Y-84124170D01*
X221122219Y-84113134D01*
X221104976Y-84100346D01*
X221089070Y-84085930D01*
X221074654Y-84070024D01*
X221061866Y-84052781D01*
X221050830Y-84034368D01*
X221041651Y-84014962D01*
X221034419Y-83994750D01*
X221029203Y-83973926D01*
X221026053Y-83952691D01*
X221025000Y-83931250D01*
X221025000Y-83493750D01*
X221026053Y-83472309D01*
X221029203Y-83451074D01*
X221034419Y-83430250D01*
X221041651Y-83410038D01*
X221050830Y-83390632D01*
X221061866Y-83372219D01*
X221074654Y-83354976D01*
X221089070Y-83339070D01*
X221104976Y-83324654D01*
X221122219Y-83311866D01*
X221140632Y-83300830D01*
X221160038Y-83291651D01*
X221180250Y-83284419D01*
X221201074Y-83279203D01*
X221222309Y-83276053D01*
X221243750Y-83275000D01*
X221756250Y-83275000D01*
X221777691Y-83276053D01*
G37*
G36*
X221777691Y-84851053D02*
G01*
X221798926Y-84854203D01*
X221819750Y-84859419D01*
X221839962Y-84866651D01*
X221859368Y-84875830D01*
X221877781Y-84886866D01*
X221895024Y-84899654D01*
X221910930Y-84914070D01*
X221925346Y-84929976D01*
X221938134Y-84947219D01*
X221949170Y-84965632D01*
X221958349Y-84985038D01*
X221965581Y-85005250D01*
X221970797Y-85026074D01*
X221973947Y-85047309D01*
X221975000Y-85068750D01*
X221975000Y-85506250D01*
X221973947Y-85527691D01*
X221970797Y-85548926D01*
X221965581Y-85569750D01*
X221958349Y-85589962D01*
X221949170Y-85609368D01*
X221938134Y-85627781D01*
X221925346Y-85645024D01*
X221910930Y-85660930D01*
X221895024Y-85675346D01*
X221877781Y-85688134D01*
X221859368Y-85699170D01*
X221839962Y-85708349D01*
X221819750Y-85715581D01*
X221798926Y-85720797D01*
X221777691Y-85723947D01*
X221756250Y-85725000D01*
X221243750Y-85725000D01*
X221222309Y-85723947D01*
X221201074Y-85720797D01*
X221180250Y-85715581D01*
X221160038Y-85708349D01*
X221140632Y-85699170D01*
X221122219Y-85688134D01*
X221104976Y-85675346D01*
X221089070Y-85660930D01*
X221074654Y-85645024D01*
X221061866Y-85627781D01*
X221050830Y-85609368D01*
X221041651Y-85589962D01*
X221034419Y-85569750D01*
X221029203Y-85548926D01*
X221026053Y-85527691D01*
X221025000Y-85506250D01*
X221025000Y-85068750D01*
X221026053Y-85047309D01*
X221029203Y-85026074D01*
X221034419Y-85005250D01*
X221041651Y-84985038D01*
X221050830Y-84965632D01*
X221061866Y-84947219D01*
X221074654Y-84929976D01*
X221089070Y-84914070D01*
X221104976Y-84899654D01*
X221122219Y-84886866D01*
X221140632Y-84875830D01*
X221160038Y-84866651D01*
X221180250Y-84859419D01*
X221201074Y-84854203D01*
X221222309Y-84851053D01*
X221243750Y-84850000D01*
X221756250Y-84850000D01*
X221777691Y-84851053D01*
G37*
%TD*%
%TO.C,C17*%
G36*
X191686958Y-70190710D02*
G01*
X191701276Y-70192834D01*
X191715317Y-70196351D01*
X191728946Y-70201228D01*
X191742031Y-70207417D01*
X191754447Y-70214858D01*
X191766073Y-70223481D01*
X191776798Y-70233202D01*
X191786519Y-70243927D01*
X191795142Y-70255553D01*
X191802583Y-70267969D01*
X191808772Y-70281054D01*
X191813649Y-70294683D01*
X191817166Y-70308724D01*
X191819290Y-70323042D01*
X191820000Y-70337500D01*
X191820000Y-70632500D01*
X191819290Y-70646958D01*
X191817166Y-70661276D01*
X191813649Y-70675317D01*
X191808772Y-70688946D01*
X191802583Y-70702031D01*
X191795142Y-70714447D01*
X191786519Y-70726073D01*
X191776798Y-70736798D01*
X191766073Y-70746519D01*
X191754447Y-70755142D01*
X191742031Y-70762583D01*
X191728946Y-70768772D01*
X191715317Y-70773649D01*
X191701276Y-70777166D01*
X191686958Y-70779290D01*
X191672500Y-70780000D01*
X191327500Y-70780000D01*
X191313042Y-70779290D01*
X191298724Y-70777166D01*
X191284683Y-70773649D01*
X191271054Y-70768772D01*
X191257969Y-70762583D01*
X191245553Y-70755142D01*
X191233927Y-70746519D01*
X191223202Y-70736798D01*
X191213481Y-70726073D01*
X191204858Y-70714447D01*
X191197417Y-70702031D01*
X191191228Y-70688946D01*
X191186351Y-70675317D01*
X191182834Y-70661276D01*
X191180710Y-70646958D01*
X191180000Y-70632500D01*
X191180000Y-70337500D01*
X191180710Y-70323042D01*
X191182834Y-70308724D01*
X191186351Y-70294683D01*
X191191228Y-70281054D01*
X191197417Y-70267969D01*
X191204858Y-70255553D01*
X191213481Y-70243927D01*
X191223202Y-70233202D01*
X191233927Y-70223481D01*
X191245553Y-70214858D01*
X191257969Y-70207417D01*
X191271054Y-70201228D01*
X191284683Y-70196351D01*
X191298724Y-70192834D01*
X191313042Y-70190710D01*
X191327500Y-70190000D01*
X191672500Y-70190000D01*
X191686958Y-70190710D01*
G37*
G36*
X191686958Y-69220710D02*
G01*
X191701276Y-69222834D01*
X191715317Y-69226351D01*
X191728946Y-69231228D01*
X191742031Y-69237417D01*
X191754447Y-69244858D01*
X191766073Y-69253481D01*
X191776798Y-69263202D01*
X191786519Y-69273927D01*
X191795142Y-69285553D01*
X191802583Y-69297969D01*
X191808772Y-69311054D01*
X191813649Y-69324683D01*
X191817166Y-69338724D01*
X191819290Y-69353042D01*
X191820000Y-69367500D01*
X191820000Y-69662500D01*
X191819290Y-69676958D01*
X191817166Y-69691276D01*
X191813649Y-69705317D01*
X191808772Y-69718946D01*
X191802583Y-69732031D01*
X191795142Y-69744447D01*
X191786519Y-69756073D01*
X191776798Y-69766798D01*
X191766073Y-69776519D01*
X191754447Y-69785142D01*
X191742031Y-69792583D01*
X191728946Y-69798772D01*
X191715317Y-69803649D01*
X191701276Y-69807166D01*
X191686958Y-69809290D01*
X191672500Y-69810000D01*
X191327500Y-69810000D01*
X191313042Y-69809290D01*
X191298724Y-69807166D01*
X191284683Y-69803649D01*
X191271054Y-69798772D01*
X191257969Y-69792583D01*
X191245553Y-69785142D01*
X191233927Y-69776519D01*
X191223202Y-69766798D01*
X191213481Y-69756073D01*
X191204858Y-69744447D01*
X191197417Y-69732031D01*
X191191228Y-69718946D01*
X191186351Y-69705317D01*
X191182834Y-69691276D01*
X191180710Y-69676958D01*
X191180000Y-69662500D01*
X191180000Y-69367500D01*
X191180710Y-69353042D01*
X191182834Y-69338724D01*
X191186351Y-69324683D01*
X191191228Y-69311054D01*
X191197417Y-69297969D01*
X191204858Y-69285553D01*
X191213481Y-69273927D01*
X191223202Y-69263202D01*
X191233927Y-69253481D01*
X191245553Y-69244858D01*
X191257969Y-69237417D01*
X191271054Y-69231228D01*
X191284683Y-69226351D01*
X191298724Y-69222834D01*
X191313042Y-69220710D01*
X191327500Y-69220000D01*
X191672500Y-69220000D01*
X191686958Y-69220710D01*
G37*
%TD*%
%TO.C,C16*%
G36*
X191686958Y-83190710D02*
G01*
X191701276Y-83192834D01*
X191715317Y-83196351D01*
X191728946Y-83201228D01*
X191742031Y-83207417D01*
X191754447Y-83214858D01*
X191766073Y-83223481D01*
X191776798Y-83233202D01*
X191786519Y-83243927D01*
X191795142Y-83255553D01*
X191802583Y-83267969D01*
X191808772Y-83281054D01*
X191813649Y-83294683D01*
X191817166Y-83308724D01*
X191819290Y-83323042D01*
X191820000Y-83337500D01*
X191820000Y-83632500D01*
X191819290Y-83646958D01*
X191817166Y-83661276D01*
X191813649Y-83675317D01*
X191808772Y-83688946D01*
X191802583Y-83702031D01*
X191795142Y-83714447D01*
X191786519Y-83726073D01*
X191776798Y-83736798D01*
X191766073Y-83746519D01*
X191754447Y-83755142D01*
X191742031Y-83762583D01*
X191728946Y-83768772D01*
X191715317Y-83773649D01*
X191701276Y-83777166D01*
X191686958Y-83779290D01*
X191672500Y-83780000D01*
X191327500Y-83780000D01*
X191313042Y-83779290D01*
X191298724Y-83777166D01*
X191284683Y-83773649D01*
X191271054Y-83768772D01*
X191257969Y-83762583D01*
X191245553Y-83755142D01*
X191233927Y-83746519D01*
X191223202Y-83736798D01*
X191213481Y-83726073D01*
X191204858Y-83714447D01*
X191197417Y-83702031D01*
X191191228Y-83688946D01*
X191186351Y-83675317D01*
X191182834Y-83661276D01*
X191180710Y-83646958D01*
X191180000Y-83632500D01*
X191180000Y-83337500D01*
X191180710Y-83323042D01*
X191182834Y-83308724D01*
X191186351Y-83294683D01*
X191191228Y-83281054D01*
X191197417Y-83267969D01*
X191204858Y-83255553D01*
X191213481Y-83243927D01*
X191223202Y-83233202D01*
X191233927Y-83223481D01*
X191245553Y-83214858D01*
X191257969Y-83207417D01*
X191271054Y-83201228D01*
X191284683Y-83196351D01*
X191298724Y-83192834D01*
X191313042Y-83190710D01*
X191327500Y-83190000D01*
X191672500Y-83190000D01*
X191686958Y-83190710D01*
G37*
G36*
X191686958Y-82220710D02*
G01*
X191701276Y-82222834D01*
X191715317Y-82226351D01*
X191728946Y-82231228D01*
X191742031Y-82237417D01*
X191754447Y-82244858D01*
X191766073Y-82253481D01*
X191776798Y-82263202D01*
X191786519Y-82273927D01*
X191795142Y-82285553D01*
X191802583Y-82297969D01*
X191808772Y-82311054D01*
X191813649Y-82324683D01*
X191817166Y-82338724D01*
X191819290Y-82353042D01*
X191820000Y-82367500D01*
X191820000Y-82662500D01*
X191819290Y-82676958D01*
X191817166Y-82691276D01*
X191813649Y-82705317D01*
X191808772Y-82718946D01*
X191802583Y-82732031D01*
X191795142Y-82744447D01*
X191786519Y-82756073D01*
X191776798Y-82766798D01*
X191766073Y-82776519D01*
X191754447Y-82785142D01*
X191742031Y-82792583D01*
X191728946Y-82798772D01*
X191715317Y-82803649D01*
X191701276Y-82807166D01*
X191686958Y-82809290D01*
X191672500Y-82810000D01*
X191327500Y-82810000D01*
X191313042Y-82809290D01*
X191298724Y-82807166D01*
X191284683Y-82803649D01*
X191271054Y-82798772D01*
X191257969Y-82792583D01*
X191245553Y-82785142D01*
X191233927Y-82776519D01*
X191223202Y-82766798D01*
X191213481Y-82756073D01*
X191204858Y-82744447D01*
X191197417Y-82732031D01*
X191191228Y-82718946D01*
X191186351Y-82705317D01*
X191182834Y-82691276D01*
X191180710Y-82676958D01*
X191180000Y-82662500D01*
X191180000Y-82367500D01*
X191180710Y-82353042D01*
X191182834Y-82338724D01*
X191186351Y-82324683D01*
X191191228Y-82311054D01*
X191197417Y-82297969D01*
X191204858Y-82285553D01*
X191213481Y-82273927D01*
X191223202Y-82263202D01*
X191233927Y-82253481D01*
X191245553Y-82244858D01*
X191257969Y-82237417D01*
X191271054Y-82231228D01*
X191284683Y-82226351D01*
X191298724Y-82222834D01*
X191313042Y-82220710D01*
X191327500Y-82220000D01*
X191672500Y-82220000D01*
X191686958Y-82220710D01*
G37*
%TD*%
%TO.C,C15*%
G36*
X191686958Y-95175710D02*
G01*
X191701276Y-95177834D01*
X191715317Y-95181351D01*
X191728946Y-95186228D01*
X191742031Y-95192417D01*
X191754447Y-95199858D01*
X191766073Y-95208481D01*
X191776798Y-95218202D01*
X191786519Y-95228927D01*
X191795142Y-95240553D01*
X191802583Y-95252969D01*
X191808772Y-95266054D01*
X191813649Y-95279683D01*
X191817166Y-95293724D01*
X191819290Y-95308042D01*
X191820000Y-95322500D01*
X191820000Y-95617500D01*
X191819290Y-95631958D01*
X191817166Y-95646276D01*
X191813649Y-95660317D01*
X191808772Y-95673946D01*
X191802583Y-95687031D01*
X191795142Y-95699447D01*
X191786519Y-95711073D01*
X191776798Y-95721798D01*
X191766073Y-95731519D01*
X191754447Y-95740142D01*
X191742031Y-95747583D01*
X191728946Y-95753772D01*
X191715317Y-95758649D01*
X191701276Y-95762166D01*
X191686958Y-95764290D01*
X191672500Y-95765000D01*
X191327500Y-95765000D01*
X191313042Y-95764290D01*
X191298724Y-95762166D01*
X191284683Y-95758649D01*
X191271054Y-95753772D01*
X191257969Y-95747583D01*
X191245553Y-95740142D01*
X191233927Y-95731519D01*
X191223202Y-95721798D01*
X191213481Y-95711073D01*
X191204858Y-95699447D01*
X191197417Y-95687031D01*
X191191228Y-95673946D01*
X191186351Y-95660317D01*
X191182834Y-95646276D01*
X191180710Y-95631958D01*
X191180000Y-95617500D01*
X191180000Y-95322500D01*
X191180710Y-95308042D01*
X191182834Y-95293724D01*
X191186351Y-95279683D01*
X191191228Y-95266054D01*
X191197417Y-95252969D01*
X191204858Y-95240553D01*
X191213481Y-95228927D01*
X191223202Y-95218202D01*
X191233927Y-95208481D01*
X191245553Y-95199858D01*
X191257969Y-95192417D01*
X191271054Y-95186228D01*
X191284683Y-95181351D01*
X191298724Y-95177834D01*
X191313042Y-95175710D01*
X191327500Y-95175000D01*
X191672500Y-95175000D01*
X191686958Y-95175710D01*
G37*
G36*
X191686958Y-94205710D02*
G01*
X191701276Y-94207834D01*
X191715317Y-94211351D01*
X191728946Y-94216228D01*
X191742031Y-94222417D01*
X191754447Y-94229858D01*
X191766073Y-94238481D01*
X191776798Y-94248202D01*
X191786519Y-94258927D01*
X191795142Y-94270553D01*
X191802583Y-94282969D01*
X191808772Y-94296054D01*
X191813649Y-94309683D01*
X191817166Y-94323724D01*
X191819290Y-94338042D01*
X191820000Y-94352500D01*
X191820000Y-94647500D01*
X191819290Y-94661958D01*
X191817166Y-94676276D01*
X191813649Y-94690317D01*
X191808772Y-94703946D01*
X191802583Y-94717031D01*
X191795142Y-94729447D01*
X191786519Y-94741073D01*
X191776798Y-94751798D01*
X191766073Y-94761519D01*
X191754447Y-94770142D01*
X191742031Y-94777583D01*
X191728946Y-94783772D01*
X191715317Y-94788649D01*
X191701276Y-94792166D01*
X191686958Y-94794290D01*
X191672500Y-94795000D01*
X191327500Y-94795000D01*
X191313042Y-94794290D01*
X191298724Y-94792166D01*
X191284683Y-94788649D01*
X191271054Y-94783772D01*
X191257969Y-94777583D01*
X191245553Y-94770142D01*
X191233927Y-94761519D01*
X191223202Y-94751798D01*
X191213481Y-94741073D01*
X191204858Y-94729447D01*
X191197417Y-94717031D01*
X191191228Y-94703946D01*
X191186351Y-94690317D01*
X191182834Y-94676276D01*
X191180710Y-94661958D01*
X191180000Y-94647500D01*
X191180000Y-94352500D01*
X191180710Y-94338042D01*
X191182834Y-94323724D01*
X191186351Y-94309683D01*
X191191228Y-94296054D01*
X191197417Y-94282969D01*
X191204858Y-94270553D01*
X191213481Y-94258927D01*
X191223202Y-94248202D01*
X191233927Y-94238481D01*
X191245553Y-94229858D01*
X191257969Y-94222417D01*
X191271054Y-94216228D01*
X191284683Y-94211351D01*
X191298724Y-94207834D01*
X191313042Y-94205710D01*
X191327500Y-94205000D01*
X191672500Y-94205000D01*
X191686958Y-94205710D01*
G37*
%TD*%
%TO.C,C14*%
G36*
X197146958Y-97180710D02*
G01*
X197161276Y-97182834D01*
X197175317Y-97186351D01*
X197188946Y-97191228D01*
X197202031Y-97197417D01*
X197214447Y-97204858D01*
X197226073Y-97213481D01*
X197236798Y-97223202D01*
X197246519Y-97233927D01*
X197255142Y-97245553D01*
X197262583Y-97257969D01*
X197268772Y-97271054D01*
X197273649Y-97284683D01*
X197277166Y-97298724D01*
X197279290Y-97313042D01*
X197280000Y-97327500D01*
X197280000Y-97672500D01*
X197279290Y-97686958D01*
X197277166Y-97701276D01*
X197273649Y-97715317D01*
X197268772Y-97728946D01*
X197262583Y-97742031D01*
X197255142Y-97754447D01*
X197246519Y-97766073D01*
X197236798Y-97776798D01*
X197226073Y-97786519D01*
X197214447Y-97795142D01*
X197202031Y-97802583D01*
X197188946Y-97808772D01*
X197175317Y-97813649D01*
X197161276Y-97817166D01*
X197146958Y-97819290D01*
X197132500Y-97820000D01*
X196837500Y-97820000D01*
X196823042Y-97819290D01*
X196808724Y-97817166D01*
X196794683Y-97813649D01*
X196781054Y-97808772D01*
X196767969Y-97802583D01*
X196755553Y-97795142D01*
X196743927Y-97786519D01*
X196733202Y-97776798D01*
X196723481Y-97766073D01*
X196714858Y-97754447D01*
X196707417Y-97742031D01*
X196701228Y-97728946D01*
X196696351Y-97715317D01*
X196692834Y-97701276D01*
X196690710Y-97686958D01*
X196690000Y-97672500D01*
X196690000Y-97327500D01*
X196690710Y-97313042D01*
X196692834Y-97298724D01*
X196696351Y-97284683D01*
X196701228Y-97271054D01*
X196707417Y-97257969D01*
X196714858Y-97245553D01*
X196723481Y-97233927D01*
X196733202Y-97223202D01*
X196743927Y-97213481D01*
X196755553Y-97204858D01*
X196767969Y-97197417D01*
X196781054Y-97191228D01*
X196794683Y-97186351D01*
X196808724Y-97182834D01*
X196823042Y-97180710D01*
X196837500Y-97180000D01*
X197132500Y-97180000D01*
X197146958Y-97180710D01*
G37*
G36*
X196176958Y-97180710D02*
G01*
X196191276Y-97182834D01*
X196205317Y-97186351D01*
X196218946Y-97191228D01*
X196232031Y-97197417D01*
X196244447Y-97204858D01*
X196256073Y-97213481D01*
X196266798Y-97223202D01*
X196276519Y-97233927D01*
X196285142Y-97245553D01*
X196292583Y-97257969D01*
X196298772Y-97271054D01*
X196303649Y-97284683D01*
X196307166Y-97298724D01*
X196309290Y-97313042D01*
X196310000Y-97327500D01*
X196310000Y-97672500D01*
X196309290Y-97686958D01*
X196307166Y-97701276D01*
X196303649Y-97715317D01*
X196298772Y-97728946D01*
X196292583Y-97742031D01*
X196285142Y-97754447D01*
X196276519Y-97766073D01*
X196266798Y-97776798D01*
X196256073Y-97786519D01*
X196244447Y-97795142D01*
X196232031Y-97802583D01*
X196218946Y-97808772D01*
X196205317Y-97813649D01*
X196191276Y-97817166D01*
X196176958Y-97819290D01*
X196162500Y-97820000D01*
X195867500Y-97820000D01*
X195853042Y-97819290D01*
X195838724Y-97817166D01*
X195824683Y-97813649D01*
X195811054Y-97808772D01*
X195797969Y-97802583D01*
X195785553Y-97795142D01*
X195773927Y-97786519D01*
X195763202Y-97776798D01*
X195753481Y-97766073D01*
X195744858Y-97754447D01*
X195737417Y-97742031D01*
X195731228Y-97728946D01*
X195726351Y-97715317D01*
X195722834Y-97701276D01*
X195720710Y-97686958D01*
X195720000Y-97672500D01*
X195720000Y-97327500D01*
X195720710Y-97313042D01*
X195722834Y-97298724D01*
X195726351Y-97284683D01*
X195731228Y-97271054D01*
X195737417Y-97257969D01*
X195744858Y-97245553D01*
X195753481Y-97233927D01*
X195763202Y-97223202D01*
X195773927Y-97213481D01*
X195785553Y-97204858D01*
X195797969Y-97197417D01*
X195811054Y-97191228D01*
X195824683Y-97186351D01*
X195838724Y-97182834D01*
X195853042Y-97180710D01*
X195867500Y-97180000D01*
X196162500Y-97180000D01*
X196176958Y-97180710D01*
G37*
%TD*%
%TO.C,C13*%
G36*
X209146958Y-97180710D02*
G01*
X209161276Y-97182834D01*
X209175317Y-97186351D01*
X209188946Y-97191228D01*
X209202031Y-97197417D01*
X209214447Y-97204858D01*
X209226073Y-97213481D01*
X209236798Y-97223202D01*
X209246519Y-97233927D01*
X209255142Y-97245553D01*
X209262583Y-97257969D01*
X209268772Y-97271054D01*
X209273649Y-97284683D01*
X209277166Y-97298724D01*
X209279290Y-97313042D01*
X209280000Y-97327500D01*
X209280000Y-97672500D01*
X209279290Y-97686958D01*
X209277166Y-97701276D01*
X209273649Y-97715317D01*
X209268772Y-97728946D01*
X209262583Y-97742031D01*
X209255142Y-97754447D01*
X209246519Y-97766073D01*
X209236798Y-97776798D01*
X209226073Y-97786519D01*
X209214447Y-97795142D01*
X209202031Y-97802583D01*
X209188946Y-97808772D01*
X209175317Y-97813649D01*
X209161276Y-97817166D01*
X209146958Y-97819290D01*
X209132500Y-97820000D01*
X208837500Y-97820000D01*
X208823042Y-97819290D01*
X208808724Y-97817166D01*
X208794683Y-97813649D01*
X208781054Y-97808772D01*
X208767969Y-97802583D01*
X208755553Y-97795142D01*
X208743927Y-97786519D01*
X208733202Y-97776798D01*
X208723481Y-97766073D01*
X208714858Y-97754447D01*
X208707417Y-97742031D01*
X208701228Y-97728946D01*
X208696351Y-97715317D01*
X208692834Y-97701276D01*
X208690710Y-97686958D01*
X208690000Y-97672500D01*
X208690000Y-97327500D01*
X208690710Y-97313042D01*
X208692834Y-97298724D01*
X208696351Y-97284683D01*
X208701228Y-97271054D01*
X208707417Y-97257969D01*
X208714858Y-97245553D01*
X208723481Y-97233927D01*
X208733202Y-97223202D01*
X208743927Y-97213481D01*
X208755553Y-97204858D01*
X208767969Y-97197417D01*
X208781054Y-97191228D01*
X208794683Y-97186351D01*
X208808724Y-97182834D01*
X208823042Y-97180710D01*
X208837500Y-97180000D01*
X209132500Y-97180000D01*
X209146958Y-97180710D01*
G37*
G36*
X208176958Y-97180710D02*
G01*
X208191276Y-97182834D01*
X208205317Y-97186351D01*
X208218946Y-97191228D01*
X208232031Y-97197417D01*
X208244447Y-97204858D01*
X208256073Y-97213481D01*
X208266798Y-97223202D01*
X208276519Y-97233927D01*
X208285142Y-97245553D01*
X208292583Y-97257969D01*
X208298772Y-97271054D01*
X208303649Y-97284683D01*
X208307166Y-97298724D01*
X208309290Y-97313042D01*
X208310000Y-97327500D01*
X208310000Y-97672500D01*
X208309290Y-97686958D01*
X208307166Y-97701276D01*
X208303649Y-97715317D01*
X208298772Y-97728946D01*
X208292583Y-97742031D01*
X208285142Y-97754447D01*
X208276519Y-97766073D01*
X208266798Y-97776798D01*
X208256073Y-97786519D01*
X208244447Y-97795142D01*
X208232031Y-97802583D01*
X208218946Y-97808772D01*
X208205317Y-97813649D01*
X208191276Y-97817166D01*
X208176958Y-97819290D01*
X208162500Y-97820000D01*
X207867500Y-97820000D01*
X207853042Y-97819290D01*
X207838724Y-97817166D01*
X207824683Y-97813649D01*
X207811054Y-97808772D01*
X207797969Y-97802583D01*
X207785553Y-97795142D01*
X207773927Y-97786519D01*
X207763202Y-97776798D01*
X207753481Y-97766073D01*
X207744858Y-97754447D01*
X207737417Y-97742031D01*
X207731228Y-97728946D01*
X207726351Y-97715317D01*
X207722834Y-97701276D01*
X207720710Y-97686958D01*
X207720000Y-97672500D01*
X207720000Y-97327500D01*
X207720710Y-97313042D01*
X207722834Y-97298724D01*
X207726351Y-97284683D01*
X207731228Y-97271054D01*
X207737417Y-97257969D01*
X207744858Y-97245553D01*
X207753481Y-97233927D01*
X207763202Y-97223202D01*
X207773927Y-97213481D01*
X207785553Y-97204858D01*
X207797969Y-97197417D01*
X207811054Y-97191228D01*
X207824683Y-97186351D01*
X207838724Y-97182834D01*
X207853042Y-97180710D01*
X207867500Y-97180000D01*
X208162500Y-97180000D01*
X208176958Y-97180710D01*
G37*
%TD*%
%TO.C,C12*%
G36*
X221646958Y-97180710D02*
G01*
X221661276Y-97182834D01*
X221675317Y-97186351D01*
X221688946Y-97191228D01*
X221702031Y-97197417D01*
X221714447Y-97204858D01*
X221726073Y-97213481D01*
X221736798Y-97223202D01*
X221746519Y-97233927D01*
X221755142Y-97245553D01*
X221762583Y-97257969D01*
X221768772Y-97271054D01*
X221773649Y-97284683D01*
X221777166Y-97298724D01*
X221779290Y-97313042D01*
X221780000Y-97327500D01*
X221780000Y-97672500D01*
X221779290Y-97686958D01*
X221777166Y-97701276D01*
X221773649Y-97715317D01*
X221768772Y-97728946D01*
X221762583Y-97742031D01*
X221755142Y-97754447D01*
X221746519Y-97766073D01*
X221736798Y-97776798D01*
X221726073Y-97786519D01*
X221714447Y-97795142D01*
X221702031Y-97802583D01*
X221688946Y-97808772D01*
X221675317Y-97813649D01*
X221661276Y-97817166D01*
X221646958Y-97819290D01*
X221632500Y-97820000D01*
X221337500Y-97820000D01*
X221323042Y-97819290D01*
X221308724Y-97817166D01*
X221294683Y-97813649D01*
X221281054Y-97808772D01*
X221267969Y-97802583D01*
X221255553Y-97795142D01*
X221243927Y-97786519D01*
X221233202Y-97776798D01*
X221223481Y-97766073D01*
X221214858Y-97754447D01*
X221207417Y-97742031D01*
X221201228Y-97728946D01*
X221196351Y-97715317D01*
X221192834Y-97701276D01*
X221190710Y-97686958D01*
X221190000Y-97672500D01*
X221190000Y-97327500D01*
X221190710Y-97313042D01*
X221192834Y-97298724D01*
X221196351Y-97284683D01*
X221201228Y-97271054D01*
X221207417Y-97257969D01*
X221214858Y-97245553D01*
X221223481Y-97233927D01*
X221233202Y-97223202D01*
X221243927Y-97213481D01*
X221255553Y-97204858D01*
X221267969Y-97197417D01*
X221281054Y-97191228D01*
X221294683Y-97186351D01*
X221308724Y-97182834D01*
X221323042Y-97180710D01*
X221337500Y-97180000D01*
X221632500Y-97180000D01*
X221646958Y-97180710D01*
G37*
G36*
X220676958Y-97180710D02*
G01*
X220691276Y-97182834D01*
X220705317Y-97186351D01*
X220718946Y-97191228D01*
X220732031Y-97197417D01*
X220744447Y-97204858D01*
X220756073Y-97213481D01*
X220766798Y-97223202D01*
X220776519Y-97233927D01*
X220785142Y-97245553D01*
X220792583Y-97257969D01*
X220798772Y-97271054D01*
X220803649Y-97284683D01*
X220807166Y-97298724D01*
X220809290Y-97313042D01*
X220810000Y-97327500D01*
X220810000Y-97672500D01*
X220809290Y-97686958D01*
X220807166Y-97701276D01*
X220803649Y-97715317D01*
X220798772Y-97728946D01*
X220792583Y-97742031D01*
X220785142Y-97754447D01*
X220776519Y-97766073D01*
X220766798Y-97776798D01*
X220756073Y-97786519D01*
X220744447Y-97795142D01*
X220732031Y-97802583D01*
X220718946Y-97808772D01*
X220705317Y-97813649D01*
X220691276Y-97817166D01*
X220676958Y-97819290D01*
X220662500Y-97820000D01*
X220367500Y-97820000D01*
X220353042Y-97819290D01*
X220338724Y-97817166D01*
X220324683Y-97813649D01*
X220311054Y-97808772D01*
X220297969Y-97802583D01*
X220285553Y-97795142D01*
X220273927Y-97786519D01*
X220263202Y-97776798D01*
X220253481Y-97766073D01*
X220244858Y-97754447D01*
X220237417Y-97742031D01*
X220231228Y-97728946D01*
X220226351Y-97715317D01*
X220222834Y-97701276D01*
X220220710Y-97686958D01*
X220220000Y-97672500D01*
X220220000Y-97327500D01*
X220220710Y-97313042D01*
X220222834Y-97298724D01*
X220226351Y-97284683D01*
X220231228Y-97271054D01*
X220237417Y-97257969D01*
X220244858Y-97245553D01*
X220253481Y-97233927D01*
X220263202Y-97223202D01*
X220273927Y-97213481D01*
X220285553Y-97204858D01*
X220297969Y-97197417D01*
X220311054Y-97191228D01*
X220324683Y-97186351D01*
X220338724Y-97182834D01*
X220353042Y-97180710D01*
X220367500Y-97180000D01*
X220662500Y-97180000D01*
X220676958Y-97180710D01*
G37*
%TD*%
%TO.C,C11*%
G36*
X233146958Y-97180710D02*
G01*
X233161276Y-97182834D01*
X233175317Y-97186351D01*
X233188946Y-97191228D01*
X233202031Y-97197417D01*
X233214447Y-97204858D01*
X233226073Y-97213481D01*
X233236798Y-97223202D01*
X233246519Y-97233927D01*
X233255142Y-97245553D01*
X233262583Y-97257969D01*
X233268772Y-97271054D01*
X233273649Y-97284683D01*
X233277166Y-97298724D01*
X233279290Y-97313042D01*
X233280000Y-97327500D01*
X233280000Y-97672500D01*
X233279290Y-97686958D01*
X233277166Y-97701276D01*
X233273649Y-97715317D01*
X233268772Y-97728946D01*
X233262583Y-97742031D01*
X233255142Y-97754447D01*
X233246519Y-97766073D01*
X233236798Y-97776798D01*
X233226073Y-97786519D01*
X233214447Y-97795142D01*
X233202031Y-97802583D01*
X233188946Y-97808772D01*
X233175317Y-97813649D01*
X233161276Y-97817166D01*
X233146958Y-97819290D01*
X233132500Y-97820000D01*
X232837500Y-97820000D01*
X232823042Y-97819290D01*
X232808724Y-97817166D01*
X232794683Y-97813649D01*
X232781054Y-97808772D01*
X232767969Y-97802583D01*
X232755553Y-97795142D01*
X232743927Y-97786519D01*
X232733202Y-97776798D01*
X232723481Y-97766073D01*
X232714858Y-97754447D01*
X232707417Y-97742031D01*
X232701228Y-97728946D01*
X232696351Y-97715317D01*
X232692834Y-97701276D01*
X232690710Y-97686958D01*
X232690000Y-97672500D01*
X232690000Y-97327500D01*
X232690710Y-97313042D01*
X232692834Y-97298724D01*
X232696351Y-97284683D01*
X232701228Y-97271054D01*
X232707417Y-97257969D01*
X232714858Y-97245553D01*
X232723481Y-97233927D01*
X232733202Y-97223202D01*
X232743927Y-97213481D01*
X232755553Y-97204858D01*
X232767969Y-97197417D01*
X232781054Y-97191228D01*
X232794683Y-97186351D01*
X232808724Y-97182834D01*
X232823042Y-97180710D01*
X232837500Y-97180000D01*
X233132500Y-97180000D01*
X233146958Y-97180710D01*
G37*
G36*
X232176958Y-97180710D02*
G01*
X232191276Y-97182834D01*
X232205317Y-97186351D01*
X232218946Y-97191228D01*
X232232031Y-97197417D01*
X232244447Y-97204858D01*
X232256073Y-97213481D01*
X232266798Y-97223202D01*
X232276519Y-97233927D01*
X232285142Y-97245553D01*
X232292583Y-97257969D01*
X232298772Y-97271054D01*
X232303649Y-97284683D01*
X232307166Y-97298724D01*
X232309290Y-97313042D01*
X232310000Y-97327500D01*
X232310000Y-97672500D01*
X232309290Y-97686958D01*
X232307166Y-97701276D01*
X232303649Y-97715317D01*
X232298772Y-97728946D01*
X232292583Y-97742031D01*
X232285142Y-97754447D01*
X232276519Y-97766073D01*
X232266798Y-97776798D01*
X232256073Y-97786519D01*
X232244447Y-97795142D01*
X232232031Y-97802583D01*
X232218946Y-97808772D01*
X232205317Y-97813649D01*
X232191276Y-97817166D01*
X232176958Y-97819290D01*
X232162500Y-97820000D01*
X231867500Y-97820000D01*
X231853042Y-97819290D01*
X231838724Y-97817166D01*
X231824683Y-97813649D01*
X231811054Y-97808772D01*
X231797969Y-97802583D01*
X231785553Y-97795142D01*
X231773927Y-97786519D01*
X231763202Y-97776798D01*
X231753481Y-97766073D01*
X231744858Y-97754447D01*
X231737417Y-97742031D01*
X231731228Y-97728946D01*
X231726351Y-97715317D01*
X231722834Y-97701276D01*
X231720710Y-97686958D01*
X231720000Y-97672500D01*
X231720000Y-97327500D01*
X231720710Y-97313042D01*
X231722834Y-97298724D01*
X231726351Y-97284683D01*
X231731228Y-97271054D01*
X231737417Y-97257969D01*
X231744858Y-97245553D01*
X231753481Y-97233927D01*
X231763202Y-97223202D01*
X231773927Y-97213481D01*
X231785553Y-97204858D01*
X231797969Y-97197417D01*
X231811054Y-97191228D01*
X231824683Y-97186351D01*
X231838724Y-97182834D01*
X231853042Y-97180710D01*
X231867500Y-97180000D01*
X232162500Y-97180000D01*
X232176958Y-97180710D01*
G37*
%TD*%
%TO.C,C10*%
G36*
X234886958Y-91720710D02*
G01*
X234901276Y-91722834D01*
X234915317Y-91726351D01*
X234928946Y-91731228D01*
X234942031Y-91737417D01*
X234954447Y-91744858D01*
X234966073Y-91753481D01*
X234976798Y-91763202D01*
X234986519Y-91773927D01*
X234995142Y-91785553D01*
X235002583Y-91797969D01*
X235008772Y-91811054D01*
X235013649Y-91824683D01*
X235017166Y-91838724D01*
X235019290Y-91853042D01*
X235020000Y-91867500D01*
X235020000Y-92162500D01*
X235019290Y-92176958D01*
X235017166Y-92191276D01*
X235013649Y-92205317D01*
X235008772Y-92218946D01*
X235002583Y-92232031D01*
X234995142Y-92244447D01*
X234986519Y-92256073D01*
X234976798Y-92266798D01*
X234966073Y-92276519D01*
X234954447Y-92285142D01*
X234942031Y-92292583D01*
X234928946Y-92298772D01*
X234915317Y-92303649D01*
X234901276Y-92307166D01*
X234886958Y-92309290D01*
X234872500Y-92310000D01*
X234527500Y-92310000D01*
X234513042Y-92309290D01*
X234498724Y-92307166D01*
X234484683Y-92303649D01*
X234471054Y-92298772D01*
X234457969Y-92292583D01*
X234445553Y-92285142D01*
X234433927Y-92276519D01*
X234423202Y-92266798D01*
X234413481Y-92256073D01*
X234404858Y-92244447D01*
X234397417Y-92232031D01*
X234391228Y-92218946D01*
X234386351Y-92205317D01*
X234382834Y-92191276D01*
X234380710Y-92176958D01*
X234380000Y-92162500D01*
X234380000Y-91867500D01*
X234380710Y-91853042D01*
X234382834Y-91838724D01*
X234386351Y-91824683D01*
X234391228Y-91811054D01*
X234397417Y-91797969D01*
X234404858Y-91785553D01*
X234413481Y-91773927D01*
X234423202Y-91763202D01*
X234433927Y-91753481D01*
X234445553Y-91744858D01*
X234457969Y-91737417D01*
X234471054Y-91731228D01*
X234484683Y-91726351D01*
X234498724Y-91722834D01*
X234513042Y-91720710D01*
X234527500Y-91720000D01*
X234872500Y-91720000D01*
X234886958Y-91720710D01*
G37*
G36*
X234886958Y-92690710D02*
G01*
X234901276Y-92692834D01*
X234915317Y-92696351D01*
X234928946Y-92701228D01*
X234942031Y-92707417D01*
X234954447Y-92714858D01*
X234966073Y-92723481D01*
X234976798Y-92733202D01*
X234986519Y-92743927D01*
X234995142Y-92755553D01*
X235002583Y-92767969D01*
X235008772Y-92781054D01*
X235013649Y-92794683D01*
X235017166Y-92808724D01*
X235019290Y-92823042D01*
X235020000Y-92837500D01*
X235020000Y-93132500D01*
X235019290Y-93146958D01*
X235017166Y-93161276D01*
X235013649Y-93175317D01*
X235008772Y-93188946D01*
X235002583Y-93202031D01*
X234995142Y-93214447D01*
X234986519Y-93226073D01*
X234976798Y-93236798D01*
X234966073Y-93246519D01*
X234954447Y-93255142D01*
X234942031Y-93262583D01*
X234928946Y-93268772D01*
X234915317Y-93273649D01*
X234901276Y-93277166D01*
X234886958Y-93279290D01*
X234872500Y-93280000D01*
X234527500Y-93280000D01*
X234513042Y-93279290D01*
X234498724Y-93277166D01*
X234484683Y-93273649D01*
X234471054Y-93268772D01*
X234457969Y-93262583D01*
X234445553Y-93255142D01*
X234433927Y-93246519D01*
X234423202Y-93236798D01*
X234413481Y-93226073D01*
X234404858Y-93214447D01*
X234397417Y-93202031D01*
X234391228Y-93188946D01*
X234386351Y-93175317D01*
X234382834Y-93161276D01*
X234380710Y-93146958D01*
X234380000Y-93132500D01*
X234380000Y-92837500D01*
X234380710Y-92823042D01*
X234382834Y-92808724D01*
X234386351Y-92794683D01*
X234391228Y-92781054D01*
X234397417Y-92767969D01*
X234404858Y-92755553D01*
X234413481Y-92743927D01*
X234423202Y-92733202D01*
X234433927Y-92723481D01*
X234445553Y-92714858D01*
X234457969Y-92707417D01*
X234471054Y-92701228D01*
X234484683Y-92696351D01*
X234498724Y-92692834D01*
X234513042Y-92690710D01*
X234527500Y-92690000D01*
X234872500Y-92690000D01*
X234886958Y-92690710D01*
G37*
%TD*%
%TO.C,C9*%
G36*
X234886958Y-78720710D02*
G01*
X234901276Y-78722834D01*
X234915317Y-78726351D01*
X234928946Y-78731228D01*
X234942031Y-78737417D01*
X234954447Y-78744858D01*
X234966073Y-78753481D01*
X234976798Y-78763202D01*
X234986519Y-78773927D01*
X234995142Y-78785553D01*
X235002583Y-78797969D01*
X235008772Y-78811054D01*
X235013649Y-78824683D01*
X235017166Y-78838724D01*
X235019290Y-78853042D01*
X235020000Y-78867500D01*
X235020000Y-79162500D01*
X235019290Y-79176958D01*
X235017166Y-79191276D01*
X235013649Y-79205317D01*
X235008772Y-79218946D01*
X235002583Y-79232031D01*
X234995142Y-79244447D01*
X234986519Y-79256073D01*
X234976798Y-79266798D01*
X234966073Y-79276519D01*
X234954447Y-79285142D01*
X234942031Y-79292583D01*
X234928946Y-79298772D01*
X234915317Y-79303649D01*
X234901276Y-79307166D01*
X234886958Y-79309290D01*
X234872500Y-79310000D01*
X234527500Y-79310000D01*
X234513042Y-79309290D01*
X234498724Y-79307166D01*
X234484683Y-79303649D01*
X234471054Y-79298772D01*
X234457969Y-79292583D01*
X234445553Y-79285142D01*
X234433927Y-79276519D01*
X234423202Y-79266798D01*
X234413481Y-79256073D01*
X234404858Y-79244447D01*
X234397417Y-79232031D01*
X234391228Y-79218946D01*
X234386351Y-79205317D01*
X234382834Y-79191276D01*
X234380710Y-79176958D01*
X234380000Y-79162500D01*
X234380000Y-78867500D01*
X234380710Y-78853042D01*
X234382834Y-78838724D01*
X234386351Y-78824683D01*
X234391228Y-78811054D01*
X234397417Y-78797969D01*
X234404858Y-78785553D01*
X234413481Y-78773927D01*
X234423202Y-78763202D01*
X234433927Y-78753481D01*
X234445553Y-78744858D01*
X234457969Y-78737417D01*
X234471054Y-78731228D01*
X234484683Y-78726351D01*
X234498724Y-78722834D01*
X234513042Y-78720710D01*
X234527500Y-78720000D01*
X234872500Y-78720000D01*
X234886958Y-78720710D01*
G37*
G36*
X234886958Y-79690710D02*
G01*
X234901276Y-79692834D01*
X234915317Y-79696351D01*
X234928946Y-79701228D01*
X234942031Y-79707417D01*
X234954447Y-79714858D01*
X234966073Y-79723481D01*
X234976798Y-79733202D01*
X234986519Y-79743927D01*
X234995142Y-79755553D01*
X235002583Y-79767969D01*
X235008772Y-79781054D01*
X235013649Y-79794683D01*
X235017166Y-79808724D01*
X235019290Y-79823042D01*
X235020000Y-79837500D01*
X235020000Y-80132500D01*
X235019290Y-80146958D01*
X235017166Y-80161276D01*
X235013649Y-80175317D01*
X235008772Y-80188946D01*
X235002583Y-80202031D01*
X234995142Y-80214447D01*
X234986519Y-80226073D01*
X234976798Y-80236798D01*
X234966073Y-80246519D01*
X234954447Y-80255142D01*
X234942031Y-80262583D01*
X234928946Y-80268772D01*
X234915317Y-80273649D01*
X234901276Y-80277166D01*
X234886958Y-80279290D01*
X234872500Y-80280000D01*
X234527500Y-80280000D01*
X234513042Y-80279290D01*
X234498724Y-80277166D01*
X234484683Y-80273649D01*
X234471054Y-80268772D01*
X234457969Y-80262583D01*
X234445553Y-80255142D01*
X234433927Y-80246519D01*
X234423202Y-80236798D01*
X234413481Y-80226073D01*
X234404858Y-80214447D01*
X234397417Y-80202031D01*
X234391228Y-80188946D01*
X234386351Y-80175317D01*
X234382834Y-80161276D01*
X234380710Y-80146958D01*
X234380000Y-80132500D01*
X234380000Y-79837500D01*
X234380710Y-79823042D01*
X234382834Y-79808724D01*
X234386351Y-79794683D01*
X234391228Y-79781054D01*
X234397417Y-79767969D01*
X234404858Y-79755553D01*
X234413481Y-79743927D01*
X234423202Y-79733202D01*
X234433927Y-79723481D01*
X234445553Y-79714858D01*
X234457969Y-79707417D01*
X234471054Y-79701228D01*
X234484683Y-79696351D01*
X234498724Y-79692834D01*
X234513042Y-79690710D01*
X234527500Y-79690000D01*
X234872500Y-79690000D01*
X234886958Y-79690710D01*
G37*
%TD*%
%TO.C,C8*%
G36*
X236676958Y-65680710D02*
G01*
X236691276Y-65682834D01*
X236705317Y-65686351D01*
X236718946Y-65691228D01*
X236732031Y-65697417D01*
X236744447Y-65704858D01*
X236756073Y-65713481D01*
X236766798Y-65723202D01*
X236776519Y-65733927D01*
X236785142Y-65745553D01*
X236792583Y-65757969D01*
X236798772Y-65771054D01*
X236803649Y-65784683D01*
X236807166Y-65798724D01*
X236809290Y-65813042D01*
X236810000Y-65827500D01*
X236810000Y-66172500D01*
X236809290Y-66186958D01*
X236807166Y-66201276D01*
X236803649Y-66215317D01*
X236798772Y-66228946D01*
X236792583Y-66242031D01*
X236785142Y-66254447D01*
X236776519Y-66266073D01*
X236766798Y-66276798D01*
X236756073Y-66286519D01*
X236744447Y-66295142D01*
X236732031Y-66302583D01*
X236718946Y-66308772D01*
X236705317Y-66313649D01*
X236691276Y-66317166D01*
X236676958Y-66319290D01*
X236662500Y-66320000D01*
X236367500Y-66320000D01*
X236353042Y-66319290D01*
X236338724Y-66317166D01*
X236324683Y-66313649D01*
X236311054Y-66308772D01*
X236297969Y-66302583D01*
X236285553Y-66295142D01*
X236273927Y-66286519D01*
X236263202Y-66276798D01*
X236253481Y-66266073D01*
X236244858Y-66254447D01*
X236237417Y-66242031D01*
X236231228Y-66228946D01*
X236226351Y-66215317D01*
X236222834Y-66201276D01*
X236220710Y-66186958D01*
X236220000Y-66172500D01*
X236220000Y-65827500D01*
X236220710Y-65813042D01*
X236222834Y-65798724D01*
X236226351Y-65784683D01*
X236231228Y-65771054D01*
X236237417Y-65757969D01*
X236244858Y-65745553D01*
X236253481Y-65733927D01*
X236263202Y-65723202D01*
X236273927Y-65713481D01*
X236285553Y-65704858D01*
X236297969Y-65697417D01*
X236311054Y-65691228D01*
X236324683Y-65686351D01*
X236338724Y-65682834D01*
X236353042Y-65680710D01*
X236367500Y-65680000D01*
X236662500Y-65680000D01*
X236676958Y-65680710D01*
G37*
G36*
X237646958Y-65680710D02*
G01*
X237661276Y-65682834D01*
X237675317Y-65686351D01*
X237688946Y-65691228D01*
X237702031Y-65697417D01*
X237714447Y-65704858D01*
X237726073Y-65713481D01*
X237736798Y-65723202D01*
X237746519Y-65733927D01*
X237755142Y-65745553D01*
X237762583Y-65757969D01*
X237768772Y-65771054D01*
X237773649Y-65784683D01*
X237777166Y-65798724D01*
X237779290Y-65813042D01*
X237780000Y-65827500D01*
X237780000Y-66172500D01*
X237779290Y-66186958D01*
X237777166Y-66201276D01*
X237773649Y-66215317D01*
X237768772Y-66228946D01*
X237762583Y-66242031D01*
X237755142Y-66254447D01*
X237746519Y-66266073D01*
X237736798Y-66276798D01*
X237726073Y-66286519D01*
X237714447Y-66295142D01*
X237702031Y-66302583D01*
X237688946Y-66308772D01*
X237675317Y-66313649D01*
X237661276Y-66317166D01*
X237646958Y-66319290D01*
X237632500Y-66320000D01*
X237337500Y-66320000D01*
X237323042Y-66319290D01*
X237308724Y-66317166D01*
X237294683Y-66313649D01*
X237281054Y-66308772D01*
X237267969Y-66302583D01*
X237255553Y-66295142D01*
X237243927Y-66286519D01*
X237233202Y-66276798D01*
X237223481Y-66266073D01*
X237214858Y-66254447D01*
X237207417Y-66242031D01*
X237201228Y-66228946D01*
X237196351Y-66215317D01*
X237192834Y-66201276D01*
X237190710Y-66186958D01*
X237190000Y-66172500D01*
X237190000Y-65827500D01*
X237190710Y-65813042D01*
X237192834Y-65798724D01*
X237196351Y-65784683D01*
X237201228Y-65771054D01*
X237207417Y-65757969D01*
X237214858Y-65745553D01*
X237223481Y-65733927D01*
X237233202Y-65723202D01*
X237243927Y-65713481D01*
X237255553Y-65704858D01*
X237267969Y-65697417D01*
X237281054Y-65691228D01*
X237294683Y-65686351D01*
X237308724Y-65682834D01*
X237323042Y-65680710D01*
X237337500Y-65680000D01*
X237632500Y-65680000D01*
X237646958Y-65680710D01*
G37*
%TD*%
%TO.C,C7*%
G36*
X206686958Y-59720710D02*
G01*
X206701276Y-59722834D01*
X206715317Y-59726351D01*
X206728946Y-59731228D01*
X206742031Y-59737417D01*
X206754447Y-59744858D01*
X206766073Y-59753481D01*
X206776798Y-59763202D01*
X206786519Y-59773927D01*
X206795142Y-59785553D01*
X206802583Y-59797969D01*
X206808772Y-59811054D01*
X206813649Y-59824683D01*
X206817166Y-59838724D01*
X206819290Y-59853042D01*
X206820000Y-59867500D01*
X206820000Y-60162500D01*
X206819290Y-60176958D01*
X206817166Y-60191276D01*
X206813649Y-60205317D01*
X206808772Y-60218946D01*
X206802583Y-60232031D01*
X206795142Y-60244447D01*
X206786519Y-60256073D01*
X206776798Y-60266798D01*
X206766073Y-60276519D01*
X206754447Y-60285142D01*
X206742031Y-60292583D01*
X206728946Y-60298772D01*
X206715317Y-60303649D01*
X206701276Y-60307166D01*
X206686958Y-60309290D01*
X206672500Y-60310000D01*
X206327500Y-60310000D01*
X206313042Y-60309290D01*
X206298724Y-60307166D01*
X206284683Y-60303649D01*
X206271054Y-60298772D01*
X206257969Y-60292583D01*
X206245553Y-60285142D01*
X206233927Y-60276519D01*
X206223202Y-60266798D01*
X206213481Y-60256073D01*
X206204858Y-60244447D01*
X206197417Y-60232031D01*
X206191228Y-60218946D01*
X206186351Y-60205317D01*
X206182834Y-60191276D01*
X206180710Y-60176958D01*
X206180000Y-60162500D01*
X206180000Y-59867500D01*
X206180710Y-59853042D01*
X206182834Y-59838724D01*
X206186351Y-59824683D01*
X206191228Y-59811054D01*
X206197417Y-59797969D01*
X206204858Y-59785553D01*
X206213481Y-59773927D01*
X206223202Y-59763202D01*
X206233927Y-59753481D01*
X206245553Y-59744858D01*
X206257969Y-59737417D01*
X206271054Y-59731228D01*
X206284683Y-59726351D01*
X206298724Y-59722834D01*
X206313042Y-59720710D01*
X206327500Y-59720000D01*
X206672500Y-59720000D01*
X206686958Y-59720710D01*
G37*
G36*
X206686958Y-60690710D02*
G01*
X206701276Y-60692834D01*
X206715317Y-60696351D01*
X206728946Y-60701228D01*
X206742031Y-60707417D01*
X206754447Y-60714858D01*
X206766073Y-60723481D01*
X206776798Y-60733202D01*
X206786519Y-60743927D01*
X206795142Y-60755553D01*
X206802583Y-60767969D01*
X206808772Y-60781054D01*
X206813649Y-60794683D01*
X206817166Y-60808724D01*
X206819290Y-60823042D01*
X206820000Y-60837500D01*
X206820000Y-61132500D01*
X206819290Y-61146958D01*
X206817166Y-61161276D01*
X206813649Y-61175317D01*
X206808772Y-61188946D01*
X206802583Y-61202031D01*
X206795142Y-61214447D01*
X206786519Y-61226073D01*
X206776798Y-61236798D01*
X206766073Y-61246519D01*
X206754447Y-61255142D01*
X206742031Y-61262583D01*
X206728946Y-61268772D01*
X206715317Y-61273649D01*
X206701276Y-61277166D01*
X206686958Y-61279290D01*
X206672500Y-61280000D01*
X206327500Y-61280000D01*
X206313042Y-61279290D01*
X206298724Y-61277166D01*
X206284683Y-61273649D01*
X206271054Y-61268772D01*
X206257969Y-61262583D01*
X206245553Y-61255142D01*
X206233927Y-61246519D01*
X206223202Y-61236798D01*
X206213481Y-61226073D01*
X206204858Y-61214447D01*
X206197417Y-61202031D01*
X206191228Y-61188946D01*
X206186351Y-61175317D01*
X206182834Y-61161276D01*
X206180710Y-61146958D01*
X206180000Y-61132500D01*
X206180000Y-60837500D01*
X206180710Y-60823042D01*
X206182834Y-60808724D01*
X206186351Y-60794683D01*
X206191228Y-60781054D01*
X206197417Y-60767969D01*
X206204858Y-60755553D01*
X206213481Y-60743927D01*
X206223202Y-60733202D01*
X206233927Y-60723481D01*
X206245553Y-60714858D01*
X206257969Y-60707417D01*
X206271054Y-60701228D01*
X206284683Y-60696351D01*
X206298724Y-60692834D01*
X206313042Y-60690710D01*
X206327500Y-60690000D01*
X206672500Y-60690000D01*
X206686958Y-60690710D01*
G37*
%TD*%
%TO.C,C6*%
G36*
X208277691Y-59276053D02*
G01*
X208298926Y-59279203D01*
X208319750Y-59284419D01*
X208339962Y-59291651D01*
X208359368Y-59300830D01*
X208377781Y-59311866D01*
X208395024Y-59324654D01*
X208410930Y-59339070D01*
X208425346Y-59354976D01*
X208438134Y-59372219D01*
X208449170Y-59390632D01*
X208458349Y-59410038D01*
X208465581Y-59430250D01*
X208470797Y-59451074D01*
X208473947Y-59472309D01*
X208475000Y-59493750D01*
X208475000Y-59931250D01*
X208473947Y-59952691D01*
X208470797Y-59973926D01*
X208465581Y-59994750D01*
X208458349Y-60014962D01*
X208449170Y-60034368D01*
X208438134Y-60052781D01*
X208425346Y-60070024D01*
X208410930Y-60085930D01*
X208395024Y-60100346D01*
X208377781Y-60113134D01*
X208359368Y-60124170D01*
X208339962Y-60133349D01*
X208319750Y-60140581D01*
X208298926Y-60145797D01*
X208277691Y-60148947D01*
X208256250Y-60150000D01*
X207743750Y-60150000D01*
X207722309Y-60148947D01*
X207701074Y-60145797D01*
X207680250Y-60140581D01*
X207660038Y-60133349D01*
X207640632Y-60124170D01*
X207622219Y-60113134D01*
X207604976Y-60100346D01*
X207589070Y-60085930D01*
X207574654Y-60070024D01*
X207561866Y-60052781D01*
X207550830Y-60034368D01*
X207541651Y-60014962D01*
X207534419Y-59994750D01*
X207529203Y-59973926D01*
X207526053Y-59952691D01*
X207525000Y-59931250D01*
X207525000Y-59493750D01*
X207526053Y-59472309D01*
X207529203Y-59451074D01*
X207534419Y-59430250D01*
X207541651Y-59410038D01*
X207550830Y-59390632D01*
X207561866Y-59372219D01*
X207574654Y-59354976D01*
X207589070Y-59339070D01*
X207604976Y-59324654D01*
X207622219Y-59311866D01*
X207640632Y-59300830D01*
X207660038Y-59291651D01*
X207680250Y-59284419D01*
X207701074Y-59279203D01*
X207722309Y-59276053D01*
X207743750Y-59275000D01*
X208256250Y-59275000D01*
X208277691Y-59276053D01*
G37*
G36*
X208277691Y-60851053D02*
G01*
X208298926Y-60854203D01*
X208319750Y-60859419D01*
X208339962Y-60866651D01*
X208359368Y-60875830D01*
X208377781Y-60886866D01*
X208395024Y-60899654D01*
X208410930Y-60914070D01*
X208425346Y-60929976D01*
X208438134Y-60947219D01*
X208449170Y-60965632D01*
X208458349Y-60985038D01*
X208465581Y-61005250D01*
X208470797Y-61026074D01*
X208473947Y-61047309D01*
X208475000Y-61068750D01*
X208475000Y-61506250D01*
X208473947Y-61527691D01*
X208470797Y-61548926D01*
X208465581Y-61569750D01*
X208458349Y-61589962D01*
X208449170Y-61609368D01*
X208438134Y-61627781D01*
X208425346Y-61645024D01*
X208410930Y-61660930D01*
X208395024Y-61675346D01*
X208377781Y-61688134D01*
X208359368Y-61699170D01*
X208339962Y-61708349D01*
X208319750Y-61715581D01*
X208298926Y-61720797D01*
X208277691Y-61723947D01*
X208256250Y-61725000D01*
X207743750Y-61725000D01*
X207722309Y-61723947D01*
X207701074Y-61720797D01*
X207680250Y-61715581D01*
X207660038Y-61708349D01*
X207640632Y-61699170D01*
X207622219Y-61688134D01*
X207604976Y-61675346D01*
X207589070Y-61660930D01*
X207574654Y-61645024D01*
X207561866Y-61627781D01*
X207550830Y-61609368D01*
X207541651Y-61589962D01*
X207534419Y-61569750D01*
X207529203Y-61548926D01*
X207526053Y-61527691D01*
X207525000Y-61506250D01*
X207525000Y-61068750D01*
X207526053Y-61047309D01*
X207529203Y-61026074D01*
X207534419Y-61005250D01*
X207541651Y-60985038D01*
X207550830Y-60965632D01*
X207561866Y-60947219D01*
X207574654Y-60929976D01*
X207589070Y-60914070D01*
X207604976Y-60899654D01*
X207622219Y-60886866D01*
X207640632Y-60875830D01*
X207660038Y-60866651D01*
X207680250Y-60859419D01*
X207701074Y-60854203D01*
X207722309Y-60851053D01*
X207743750Y-60850000D01*
X208256250Y-60850000D01*
X208277691Y-60851053D01*
G37*
%TD*%
%TO.C,C5*%
G36*
X191677691Y-62276053D02*
G01*
X191698926Y-62279203D01*
X191719750Y-62284419D01*
X191739962Y-62291651D01*
X191759368Y-62300830D01*
X191777781Y-62311866D01*
X191795024Y-62324654D01*
X191810930Y-62339070D01*
X191825346Y-62354976D01*
X191838134Y-62372219D01*
X191849170Y-62390632D01*
X191858349Y-62410038D01*
X191865581Y-62430250D01*
X191870797Y-62451074D01*
X191873947Y-62472309D01*
X191875000Y-62493750D01*
X191875000Y-62931250D01*
X191873947Y-62952691D01*
X191870797Y-62973926D01*
X191865581Y-62994750D01*
X191858349Y-63014962D01*
X191849170Y-63034368D01*
X191838134Y-63052781D01*
X191825346Y-63070024D01*
X191810930Y-63085930D01*
X191795024Y-63100346D01*
X191777781Y-63113134D01*
X191759368Y-63124170D01*
X191739962Y-63133349D01*
X191719750Y-63140581D01*
X191698926Y-63145797D01*
X191677691Y-63148947D01*
X191656250Y-63150000D01*
X191143750Y-63150000D01*
X191122309Y-63148947D01*
X191101074Y-63145797D01*
X191080250Y-63140581D01*
X191060038Y-63133349D01*
X191040632Y-63124170D01*
X191022219Y-63113134D01*
X191004976Y-63100346D01*
X190989070Y-63085930D01*
X190974654Y-63070024D01*
X190961866Y-63052781D01*
X190950830Y-63034368D01*
X190941651Y-63014962D01*
X190934419Y-62994750D01*
X190929203Y-62973926D01*
X190926053Y-62952691D01*
X190925000Y-62931250D01*
X190925000Y-62493750D01*
X190926053Y-62472309D01*
X190929203Y-62451074D01*
X190934419Y-62430250D01*
X190941651Y-62410038D01*
X190950830Y-62390632D01*
X190961866Y-62372219D01*
X190974654Y-62354976D01*
X190989070Y-62339070D01*
X191004976Y-62324654D01*
X191022219Y-62311866D01*
X191040632Y-62300830D01*
X191060038Y-62291651D01*
X191080250Y-62284419D01*
X191101074Y-62279203D01*
X191122309Y-62276053D01*
X191143750Y-62275000D01*
X191656250Y-62275000D01*
X191677691Y-62276053D01*
G37*
G36*
X191677691Y-63851053D02*
G01*
X191698926Y-63854203D01*
X191719750Y-63859419D01*
X191739962Y-63866651D01*
X191759368Y-63875830D01*
X191777781Y-63886866D01*
X191795024Y-63899654D01*
X191810930Y-63914070D01*
X191825346Y-63929976D01*
X191838134Y-63947219D01*
X191849170Y-63965632D01*
X191858349Y-63985038D01*
X191865581Y-64005250D01*
X191870797Y-64026074D01*
X191873947Y-64047309D01*
X191875000Y-64068750D01*
X191875000Y-64506250D01*
X191873947Y-64527691D01*
X191870797Y-64548926D01*
X191865581Y-64569750D01*
X191858349Y-64589962D01*
X191849170Y-64609368D01*
X191838134Y-64627781D01*
X191825346Y-64645024D01*
X191810930Y-64660930D01*
X191795024Y-64675346D01*
X191777781Y-64688134D01*
X191759368Y-64699170D01*
X191739962Y-64708349D01*
X191719750Y-64715581D01*
X191698926Y-64720797D01*
X191677691Y-64723947D01*
X191656250Y-64725000D01*
X191143750Y-64725000D01*
X191122309Y-64723947D01*
X191101074Y-64720797D01*
X191080250Y-64715581D01*
X191060038Y-64708349D01*
X191040632Y-64699170D01*
X191022219Y-64688134D01*
X191004976Y-64675346D01*
X190989070Y-64660930D01*
X190974654Y-64645024D01*
X190961866Y-64627781D01*
X190950830Y-64609368D01*
X190941651Y-64589962D01*
X190934419Y-64569750D01*
X190929203Y-64548926D01*
X190926053Y-64527691D01*
X190925000Y-64506250D01*
X190925000Y-64068750D01*
X190926053Y-64047309D01*
X190929203Y-64026074D01*
X190934419Y-64005250D01*
X190941651Y-63985038D01*
X190950830Y-63965632D01*
X190961866Y-63947219D01*
X190974654Y-63929976D01*
X190989070Y-63914070D01*
X191004976Y-63899654D01*
X191022219Y-63886866D01*
X191040632Y-63875830D01*
X191060038Y-63866651D01*
X191080250Y-63859419D01*
X191101074Y-63854203D01*
X191122309Y-63851053D01*
X191143750Y-63850000D01*
X191656250Y-63850000D01*
X191677691Y-63851053D01*
G37*
%TD*%
%TO.C,C4*%
G36*
X207527691Y-65026053D02*
G01*
X207548926Y-65029203D01*
X207569750Y-65034419D01*
X207589962Y-65041651D01*
X207609368Y-65050830D01*
X207627781Y-65061866D01*
X207645024Y-65074654D01*
X207660930Y-65089070D01*
X207675346Y-65104976D01*
X207688134Y-65122219D01*
X207699170Y-65140632D01*
X207708349Y-65160038D01*
X207715581Y-65180250D01*
X207720797Y-65201074D01*
X207723947Y-65222309D01*
X207725000Y-65243750D01*
X207725000Y-65756250D01*
X207723947Y-65777691D01*
X207720797Y-65798926D01*
X207715581Y-65819750D01*
X207708349Y-65839962D01*
X207699170Y-65859368D01*
X207688134Y-65877781D01*
X207675346Y-65895024D01*
X207660930Y-65910930D01*
X207645024Y-65925346D01*
X207627781Y-65938134D01*
X207609368Y-65949170D01*
X207589962Y-65958349D01*
X207569750Y-65965581D01*
X207548926Y-65970797D01*
X207527691Y-65973947D01*
X207506250Y-65975000D01*
X207068750Y-65975000D01*
X207047309Y-65973947D01*
X207026074Y-65970797D01*
X207005250Y-65965581D01*
X206985038Y-65958349D01*
X206965632Y-65949170D01*
X206947219Y-65938134D01*
X206929976Y-65925346D01*
X206914070Y-65910930D01*
X206899654Y-65895024D01*
X206886866Y-65877781D01*
X206875830Y-65859368D01*
X206866651Y-65839962D01*
X206859419Y-65819750D01*
X206854203Y-65798926D01*
X206851053Y-65777691D01*
X206850000Y-65756250D01*
X206850000Y-65243750D01*
X206851053Y-65222309D01*
X206854203Y-65201074D01*
X206859419Y-65180250D01*
X206866651Y-65160038D01*
X206875830Y-65140632D01*
X206886866Y-65122219D01*
X206899654Y-65104976D01*
X206914070Y-65089070D01*
X206929976Y-65074654D01*
X206947219Y-65061866D01*
X206965632Y-65050830D01*
X206985038Y-65041651D01*
X207005250Y-65034419D01*
X207026074Y-65029203D01*
X207047309Y-65026053D01*
X207068750Y-65025000D01*
X207506250Y-65025000D01*
X207527691Y-65026053D01*
G37*
G36*
X205952691Y-65026053D02*
G01*
X205973926Y-65029203D01*
X205994750Y-65034419D01*
X206014962Y-65041651D01*
X206034368Y-65050830D01*
X206052781Y-65061866D01*
X206070024Y-65074654D01*
X206085930Y-65089070D01*
X206100346Y-65104976D01*
X206113134Y-65122219D01*
X206124170Y-65140632D01*
X206133349Y-65160038D01*
X206140581Y-65180250D01*
X206145797Y-65201074D01*
X206148947Y-65222309D01*
X206150000Y-65243750D01*
X206150000Y-65756250D01*
X206148947Y-65777691D01*
X206145797Y-65798926D01*
X206140581Y-65819750D01*
X206133349Y-65839962D01*
X206124170Y-65859368D01*
X206113134Y-65877781D01*
X206100346Y-65895024D01*
X206085930Y-65910930D01*
X206070024Y-65925346D01*
X206052781Y-65938134D01*
X206034368Y-65949170D01*
X206014962Y-65958349D01*
X205994750Y-65965581D01*
X205973926Y-65970797D01*
X205952691Y-65973947D01*
X205931250Y-65975000D01*
X205493750Y-65975000D01*
X205472309Y-65973947D01*
X205451074Y-65970797D01*
X205430250Y-65965581D01*
X205410038Y-65958349D01*
X205390632Y-65949170D01*
X205372219Y-65938134D01*
X205354976Y-65925346D01*
X205339070Y-65910930D01*
X205324654Y-65895024D01*
X205311866Y-65877781D01*
X205300830Y-65859368D01*
X205291651Y-65839962D01*
X205284419Y-65819750D01*
X205279203Y-65798926D01*
X205276053Y-65777691D01*
X205275000Y-65756250D01*
X205275000Y-65243750D01*
X205276053Y-65222309D01*
X205279203Y-65201074D01*
X205284419Y-65180250D01*
X205291651Y-65160038D01*
X205300830Y-65140632D01*
X205311866Y-65122219D01*
X205324654Y-65104976D01*
X205339070Y-65089070D01*
X205354976Y-65074654D01*
X205372219Y-65061866D01*
X205390632Y-65050830D01*
X205410038Y-65041651D01*
X205430250Y-65034419D01*
X205451074Y-65029203D01*
X205472309Y-65026053D01*
X205493750Y-65025000D01*
X205931250Y-65025000D01*
X205952691Y-65026053D01*
G37*
%TD*%
%TO.C,C2*%
G36*
X199886958Y-83220710D02*
G01*
X199901276Y-83222834D01*
X199915317Y-83226351D01*
X199928946Y-83231228D01*
X199942031Y-83237417D01*
X199954447Y-83244858D01*
X199966073Y-83253481D01*
X199976798Y-83263202D01*
X199986519Y-83273927D01*
X199995142Y-83285553D01*
X200002583Y-83297969D01*
X200008772Y-83311054D01*
X200013649Y-83324683D01*
X200017166Y-83338724D01*
X200019290Y-83353042D01*
X200020000Y-83367500D01*
X200020000Y-83662500D01*
X200019290Y-83676958D01*
X200017166Y-83691276D01*
X200013649Y-83705317D01*
X200008772Y-83718946D01*
X200002583Y-83732031D01*
X199995142Y-83744447D01*
X199986519Y-83756073D01*
X199976798Y-83766798D01*
X199966073Y-83776519D01*
X199954447Y-83785142D01*
X199942031Y-83792583D01*
X199928946Y-83798772D01*
X199915317Y-83803649D01*
X199901276Y-83807166D01*
X199886958Y-83809290D01*
X199872500Y-83810000D01*
X199527500Y-83810000D01*
X199513042Y-83809290D01*
X199498724Y-83807166D01*
X199484683Y-83803649D01*
X199471054Y-83798772D01*
X199457969Y-83792583D01*
X199445553Y-83785142D01*
X199433927Y-83776519D01*
X199423202Y-83766798D01*
X199413481Y-83756073D01*
X199404858Y-83744447D01*
X199397417Y-83732031D01*
X199391228Y-83718946D01*
X199386351Y-83705317D01*
X199382834Y-83691276D01*
X199380710Y-83676958D01*
X199380000Y-83662500D01*
X199380000Y-83367500D01*
X199380710Y-83353042D01*
X199382834Y-83338724D01*
X199386351Y-83324683D01*
X199391228Y-83311054D01*
X199397417Y-83297969D01*
X199404858Y-83285553D01*
X199413481Y-83273927D01*
X199423202Y-83263202D01*
X199433927Y-83253481D01*
X199445553Y-83244858D01*
X199457969Y-83237417D01*
X199471054Y-83231228D01*
X199484683Y-83226351D01*
X199498724Y-83222834D01*
X199513042Y-83220710D01*
X199527500Y-83220000D01*
X199872500Y-83220000D01*
X199886958Y-83220710D01*
G37*
G36*
X199886958Y-84190710D02*
G01*
X199901276Y-84192834D01*
X199915317Y-84196351D01*
X199928946Y-84201228D01*
X199942031Y-84207417D01*
X199954447Y-84214858D01*
X199966073Y-84223481D01*
X199976798Y-84233202D01*
X199986519Y-84243927D01*
X199995142Y-84255553D01*
X200002583Y-84267969D01*
X200008772Y-84281054D01*
X200013649Y-84294683D01*
X200017166Y-84308724D01*
X200019290Y-84323042D01*
X200020000Y-84337500D01*
X200020000Y-84632500D01*
X200019290Y-84646958D01*
X200017166Y-84661276D01*
X200013649Y-84675317D01*
X200008772Y-84688946D01*
X200002583Y-84702031D01*
X199995142Y-84714447D01*
X199986519Y-84726073D01*
X199976798Y-84736798D01*
X199966073Y-84746519D01*
X199954447Y-84755142D01*
X199942031Y-84762583D01*
X199928946Y-84768772D01*
X199915317Y-84773649D01*
X199901276Y-84777166D01*
X199886958Y-84779290D01*
X199872500Y-84780000D01*
X199527500Y-84780000D01*
X199513042Y-84779290D01*
X199498724Y-84777166D01*
X199484683Y-84773649D01*
X199471054Y-84768772D01*
X199457969Y-84762583D01*
X199445553Y-84755142D01*
X199433927Y-84746519D01*
X199423202Y-84736798D01*
X199413481Y-84726073D01*
X199404858Y-84714447D01*
X199397417Y-84702031D01*
X199391228Y-84688946D01*
X199386351Y-84675317D01*
X199382834Y-84661276D01*
X199380710Y-84646958D01*
X199380000Y-84632500D01*
X199380000Y-84337500D01*
X199380710Y-84323042D01*
X199382834Y-84308724D01*
X199386351Y-84294683D01*
X199391228Y-84281054D01*
X199397417Y-84267969D01*
X199404858Y-84255553D01*
X199413481Y-84243927D01*
X199423202Y-84233202D01*
X199433927Y-84223481D01*
X199445553Y-84214858D01*
X199457969Y-84207417D01*
X199471054Y-84201228D01*
X199484683Y-84196351D01*
X199498724Y-84192834D01*
X199513042Y-84190710D01*
X199527500Y-84190000D01*
X199872500Y-84190000D01*
X199886958Y-84190710D01*
G37*
%TD*%
%TO.C,C1*%
G36*
X200286958Y-69190710D02*
G01*
X200301276Y-69192834D01*
X200315317Y-69196351D01*
X200328946Y-69201228D01*
X200342031Y-69207417D01*
X200354447Y-69214858D01*
X200366073Y-69223481D01*
X200376798Y-69233202D01*
X200386519Y-69243927D01*
X200395142Y-69255553D01*
X200402583Y-69267969D01*
X200408772Y-69281054D01*
X200413649Y-69294683D01*
X200417166Y-69308724D01*
X200419290Y-69323042D01*
X200420000Y-69337500D01*
X200420000Y-69632500D01*
X200419290Y-69646958D01*
X200417166Y-69661276D01*
X200413649Y-69675317D01*
X200408772Y-69688946D01*
X200402583Y-69702031D01*
X200395142Y-69714447D01*
X200386519Y-69726073D01*
X200376798Y-69736798D01*
X200366073Y-69746519D01*
X200354447Y-69755142D01*
X200342031Y-69762583D01*
X200328946Y-69768772D01*
X200315317Y-69773649D01*
X200301276Y-69777166D01*
X200286958Y-69779290D01*
X200272500Y-69780000D01*
X199927500Y-69780000D01*
X199913042Y-69779290D01*
X199898724Y-69777166D01*
X199884683Y-69773649D01*
X199871054Y-69768772D01*
X199857969Y-69762583D01*
X199845553Y-69755142D01*
X199833927Y-69746519D01*
X199823202Y-69736798D01*
X199813481Y-69726073D01*
X199804858Y-69714447D01*
X199797417Y-69702031D01*
X199791228Y-69688946D01*
X199786351Y-69675317D01*
X199782834Y-69661276D01*
X199780710Y-69646958D01*
X199780000Y-69632500D01*
X199780000Y-69337500D01*
X199780710Y-69323042D01*
X199782834Y-69308724D01*
X199786351Y-69294683D01*
X199791228Y-69281054D01*
X199797417Y-69267969D01*
X199804858Y-69255553D01*
X199813481Y-69243927D01*
X199823202Y-69233202D01*
X199833927Y-69223481D01*
X199845553Y-69214858D01*
X199857969Y-69207417D01*
X199871054Y-69201228D01*
X199884683Y-69196351D01*
X199898724Y-69192834D01*
X199913042Y-69190710D01*
X199927500Y-69190000D01*
X200272500Y-69190000D01*
X200286958Y-69190710D01*
G37*
G36*
X200286958Y-68220710D02*
G01*
X200301276Y-68222834D01*
X200315317Y-68226351D01*
X200328946Y-68231228D01*
X200342031Y-68237417D01*
X200354447Y-68244858D01*
X200366073Y-68253481D01*
X200376798Y-68263202D01*
X200386519Y-68273927D01*
X200395142Y-68285553D01*
X200402583Y-68297969D01*
X200408772Y-68311054D01*
X200413649Y-68324683D01*
X200417166Y-68338724D01*
X200419290Y-68353042D01*
X200420000Y-68367500D01*
X200420000Y-68662500D01*
X200419290Y-68676958D01*
X200417166Y-68691276D01*
X200413649Y-68705317D01*
X200408772Y-68718946D01*
X200402583Y-68732031D01*
X200395142Y-68744447D01*
X200386519Y-68756073D01*
X200376798Y-68766798D01*
X200366073Y-68776519D01*
X200354447Y-68785142D01*
X200342031Y-68792583D01*
X200328946Y-68798772D01*
X200315317Y-68803649D01*
X200301276Y-68807166D01*
X200286958Y-68809290D01*
X200272500Y-68810000D01*
X199927500Y-68810000D01*
X199913042Y-68809290D01*
X199898724Y-68807166D01*
X199884683Y-68803649D01*
X199871054Y-68798772D01*
X199857969Y-68792583D01*
X199845553Y-68785142D01*
X199833927Y-68776519D01*
X199823202Y-68766798D01*
X199813481Y-68756073D01*
X199804858Y-68744447D01*
X199797417Y-68732031D01*
X199791228Y-68718946D01*
X199786351Y-68705317D01*
X199782834Y-68691276D01*
X199780710Y-68676958D01*
X199780000Y-68662500D01*
X199780000Y-68367500D01*
X199780710Y-68353042D01*
X199782834Y-68338724D01*
X199786351Y-68324683D01*
X199791228Y-68311054D01*
X199797417Y-68297969D01*
X199804858Y-68285553D01*
X199813481Y-68273927D01*
X199823202Y-68263202D01*
X199833927Y-68253481D01*
X199845553Y-68244858D01*
X199857969Y-68237417D01*
X199871054Y-68231228D01*
X199884683Y-68226351D01*
X199898724Y-68222834D01*
X199913042Y-68220710D01*
X199927500Y-68220000D01*
X200272500Y-68220000D01*
X200286958Y-68220710D01*
G37*
%TD*%
M02*
