%TF.GenerationSoftware,KiCad,Pcbnew,5.1.6-c6e7f7d~87~ubuntu18.04.1*%
%TF.CreationDate,2020-09-13T15:34:11-06:00*%
%TF.ProjectId,twinkle-led-controller,7477696e-6b6c-4652-9d6c-65642d636f6e,rev?*%
%TF.SameCoordinates,Original*%
%TF.FileFunction,Copper,L3,Inr*%
%TF.FilePolarity,Positive*%
%FSLAX46Y46*%
G04 Gerber Fmt 4.6, Leading zero omitted, Abs format (unit mm)*
G04 Created by KiCad (PCBNEW 5.1.6-c6e7f7d~87~ubuntu18.04.1) date 2020-09-13 15:34:11*
%MOMM*%
%LPD*%
G01*
G04 APERTURE LIST*
%TA.AperFunction,ViaPad*%
%ADD10C,2.100000*%
%TD*%
%TA.AperFunction,ViaPad*%
%ADD11O,1.700000X1.700000*%
%TD*%
%TA.AperFunction,ViaPad*%
%ADD12R,1.700000X1.700000*%
%TD*%
%TA.AperFunction,ViaPad*%
%ADD13C,1.800000*%
%TD*%
%TA.AperFunction,ViaPad*%
%ADD14C,1.408000*%
%TD*%
%TA.AperFunction,ViaPad*%
%ADD15C,0.600000*%
%TD*%
%TA.AperFunction,ViaPad*%
%ADD16C,0.800000*%
%TD*%
%TA.AperFunction,Conductor*%
%ADD17C,0.254000*%
%TD*%
G04 APERTURE END LIST*
D10*
%TO.N,GND*%
%TO.C,J12*%
X182000000Y-70500000D03*
%TO.N,+5V*%
X182000000Y-65500000D03*
%TD*%
%TO.N,Net-(J11-Pad2)*%
%TO.C,J11*%
X182000000Y-85000000D03*
%TO.N,Net-(J11-Pad1)*%
X182000000Y-80000000D03*
%TD*%
%TO.N,Net-(J10-Pad2)*%
%TO.C,J10*%
X182000000Y-98000000D03*
%TO.N,Net-(J10-Pad1)*%
X182000000Y-93000000D03*
%TD*%
%TO.N,Net-(J9-Pad2)*%
%TO.C,J9*%
X196000000Y-107000000D03*
%TO.N,Net-(J9-Pad1)*%
X191000000Y-107000000D03*
%TD*%
%TO.N,Net-(J8-Pad2)*%
%TO.C,J8*%
X209000000Y-107000000D03*
%TO.N,Net-(J8-Pad1)*%
X204000000Y-107000000D03*
%TD*%
%TO.N,Net-(J7-Pad2)*%
%TO.C,J7*%
X222000000Y-107000000D03*
%TO.N,Net-(J7-Pad1)*%
X217000000Y-107000000D03*
%TD*%
%TO.N,Net-(J6-Pad2)*%
%TO.C,J6*%
X235000000Y-107000000D03*
%TO.N,Net-(J6-Pad1)*%
X230000000Y-107000000D03*
%TD*%
%TO.N,Net-(J5-Pad2)*%
%TO.C,J5*%
X244000000Y-93000000D03*
%TO.N,Net-(J5-Pad1)*%
X244000000Y-98000000D03*
%TD*%
%TO.N,Net-(J4-Pad2)*%
%TO.C,J4*%
X244000000Y-80000000D03*
%TO.N,Net-(J4-Pad1)*%
X244000000Y-85000000D03*
%TD*%
%TO.N,Net-(J3-Pad2)*%
%TO.C,J3*%
X244000000Y-67000000D03*
%TO.N,Net-(J3-Pad1)*%
X244000000Y-72000000D03*
%TD*%
D11*
%TO.N,+5V*%
%TO.C,J2*%
X203000000Y-64160000D03*
%TO.N,+3V3*%
X203000000Y-61620000D03*
%TO.N,/AUX_OUT*%
X203000000Y-59080000D03*
%TO.N,/AUX_IN*%
X203000000Y-56540000D03*
D12*
%TO.N,GND*%
X203000000Y-54000000D03*
%TD*%
D13*
%TO.N,N/C*%
%TO.C,J1*%
X190500000Y-53400000D03*
X197500000Y-53400000D03*
D14*
X191500000Y-56100000D03*
X196500000Y-56100000D03*
%TD*%
D15*
%TO.N,+5V*%
X237500000Y-65100000D03*
D16*
X194400000Y-54775002D03*
X237813251Y-79530002D03*
X232000000Y-98500000D03*
X220301426Y-98625107D03*
X207700000Y-98300000D03*
X190375002Y-94700000D03*
X195700000Y-98400000D03*
X203133446Y-88175213D03*
X190416500Y-82620000D03*
X233725010Y-92500000D03*
D15*
%TO.N,GND*%
X236500000Y-65130002D03*
D16*
X237500000Y-62969998D03*
X228800000Y-59700000D03*
X210600000Y-59900000D03*
X206665000Y-69485000D03*
D15*
X223100000Y-83500000D03*
D16*
X207447135Y-64325010D03*
X196800000Y-98400000D03*
X233900000Y-91100000D03*
X235300000Y-78000000D03*
X233000000Y-98500000D03*
X221300000Y-98400000D03*
X190354346Y-95913881D03*
X216300000Y-75500000D03*
X221000000Y-70700000D03*
X190394792Y-83815568D03*
X191800000Y-57500000D03*
D15*
X198900000Y-83374990D03*
D16*
X208880000Y-98400000D03*
%TO.N,+3V3*%
X205700000Y-64400000D03*
D15*
X203500000Y-77500000D03*
X200000000Y-85400000D03*
%TO.N,/EN*%
X211000000Y-62400000D03*
X205600000Y-77500000D03*
D16*
X196300000Y-63300000D03*
D15*
%TO.N,/AUX_OUT*%
X213500000Y-82500000D03*
X221500000Y-82500000D03*
%TO.N,/USB_D+*%
X193900000Y-57700000D03*
X195300000Y-58700000D03*
X200813138Y-84108028D03*
%TO.N,/USB_D-*%
X194700000Y-57700000D03*
X200700000Y-84900000D03*
%TO.N,/USB_RTS*%
X199500000Y-79400000D03*
X200300000Y-81500000D03*
%TO.N,/IO0*%
X230300000Y-78100000D03*
X199000000Y-77600000D03*
%TO.N,Net-(Q2-Pad1)*%
X196500000Y-79300000D03*
X196600000Y-81500000D03*
%TO.N,/USB_TX*%
X228500000Y-64800000D03*
X204300000Y-80075010D03*
%TO.N,/USB_RX*%
X226700000Y-65500000D03*
X205100000Y-80400000D03*
%TO.N,/AUX_OUT*%
X215500000Y-61750000D03*
%TO.N,/AUX_IN*%
X207281927Y-62119724D03*
%TD*%
D17*
%TO.N,+5V*%
G36*
X189139701Y-52672905D02*
G01*
X189023989Y-52952257D01*
X188965000Y-53248816D01*
X188965000Y-53551184D01*
X189023989Y-53847743D01*
X189139701Y-54127095D01*
X189307688Y-54378505D01*
X189521495Y-54592312D01*
X189772905Y-54760299D01*
X190052257Y-54876011D01*
X190348816Y-54935000D01*
X190651184Y-54935000D01*
X190947743Y-54876011D01*
X191227095Y-54760299D01*
X191478505Y-54592312D01*
X191692312Y-54378505D01*
X191860299Y-54127095D01*
X191976011Y-53847743D01*
X192035000Y-53551184D01*
X192035000Y-53248816D01*
X191976011Y-52952257D01*
X191860299Y-52672905D01*
X191851676Y-52660000D01*
X194863559Y-52660000D01*
X194804879Y-56767544D01*
X194792089Y-56765000D01*
X194607911Y-56765000D01*
X194427271Y-56800932D01*
X194300000Y-56853649D01*
X194172729Y-56800932D01*
X193992089Y-56765000D01*
X193807911Y-56765000D01*
X193627271Y-56800932D01*
X193457111Y-56871414D01*
X193303972Y-56973738D01*
X193173738Y-57103972D01*
X193071414Y-57257111D01*
X193000932Y-57427271D01*
X192965000Y-57607911D01*
X192965000Y-57792089D01*
X193000932Y-57972729D01*
X193071414Y-58142889D01*
X193173738Y-58296028D01*
X193303972Y-58426262D01*
X193457111Y-58528586D01*
X193627271Y-58599068D01*
X193807911Y-58635000D01*
X193992089Y-58635000D01*
X194172729Y-58599068D01*
X194300000Y-58546351D01*
X194371365Y-58575911D01*
X194365000Y-58607911D01*
X194365000Y-58792089D01*
X194400932Y-58972729D01*
X194471414Y-59142889D01*
X194573738Y-59296028D01*
X194703972Y-59426262D01*
X194766303Y-59467910D01*
X194373013Y-86998186D01*
X194375099Y-87022995D01*
X194381985Y-87046920D01*
X194393406Y-87069042D01*
X194408924Y-87088511D01*
X194427941Y-87104578D01*
X194449728Y-87116627D01*
X194473447Y-87124193D01*
X194501649Y-87126989D01*
X233001649Y-86626989D01*
X233026392Y-86624227D01*
X233050120Y-86616692D01*
X233071923Y-86604671D01*
X233090961Y-86588629D01*
X233106504Y-86569180D01*
X233117954Y-86547073D01*
X233124871Y-86523157D01*
X233127000Y-86500000D01*
X233127000Y-84834042D01*
X242315000Y-84834042D01*
X242315000Y-85165958D01*
X242379754Y-85491496D01*
X242506772Y-85798147D01*
X242691175Y-86074125D01*
X242925875Y-86308825D01*
X243201853Y-86493228D01*
X243508504Y-86620246D01*
X243834042Y-86685000D01*
X244165958Y-86685000D01*
X244491496Y-86620246D01*
X244798147Y-86493228D01*
X245074125Y-86308825D01*
X245308825Y-86074125D01*
X245493228Y-85798147D01*
X245620246Y-85491496D01*
X245685000Y-85165958D01*
X245685000Y-84834042D01*
X245620246Y-84508504D01*
X245493228Y-84201853D01*
X245308825Y-83925875D01*
X245074125Y-83691175D01*
X244798147Y-83506772D01*
X244491496Y-83379754D01*
X244165958Y-83315000D01*
X243834042Y-83315000D01*
X243508504Y-83379754D01*
X243201853Y-83506772D01*
X242925875Y-83691175D01*
X242691175Y-83925875D01*
X242506772Y-84201853D01*
X242379754Y-84508504D01*
X242315000Y-84834042D01*
X233127000Y-84834042D01*
X233127000Y-79834042D01*
X242315000Y-79834042D01*
X242315000Y-80165958D01*
X242379754Y-80491496D01*
X242506772Y-80798147D01*
X242691175Y-81074125D01*
X242925875Y-81308825D01*
X243201853Y-81493228D01*
X243508504Y-81620246D01*
X243834042Y-81685000D01*
X244165958Y-81685000D01*
X244491496Y-81620246D01*
X244798147Y-81493228D01*
X245074125Y-81308825D01*
X245308825Y-81074125D01*
X245493228Y-80798147D01*
X245620246Y-80491496D01*
X245685000Y-80165958D01*
X245685000Y-79834042D01*
X245620246Y-79508504D01*
X245493228Y-79201853D01*
X245308825Y-78925875D01*
X245074125Y-78691175D01*
X244798147Y-78506772D01*
X244491496Y-78379754D01*
X244165958Y-78315000D01*
X243834042Y-78315000D01*
X243508504Y-78379754D01*
X243201853Y-78506772D01*
X242925875Y-78691175D01*
X242691175Y-78925875D01*
X242506772Y-79201853D01*
X242379754Y-79508504D01*
X242315000Y-79834042D01*
X233127000Y-79834042D01*
X233127000Y-77898061D01*
X234265000Y-77898061D01*
X234265000Y-78101939D01*
X234304774Y-78301898D01*
X234382795Y-78490256D01*
X234496063Y-78659774D01*
X234640226Y-78803937D01*
X234809744Y-78917205D01*
X234998102Y-78995226D01*
X235198061Y-79035000D01*
X235401939Y-79035000D01*
X235601898Y-78995226D01*
X235790256Y-78917205D01*
X235959774Y-78803937D01*
X236103937Y-78659774D01*
X236217205Y-78490256D01*
X236295226Y-78301898D01*
X236335000Y-78101939D01*
X236335000Y-77898061D01*
X236295226Y-77698102D01*
X236217205Y-77509744D01*
X236103937Y-77340226D01*
X235959774Y-77196063D01*
X235790256Y-77082795D01*
X235601898Y-77004774D01*
X235401939Y-76965000D01*
X235198061Y-76965000D01*
X234998102Y-77004774D01*
X234809744Y-77082795D01*
X234640226Y-77196063D01*
X234496063Y-77340226D01*
X234382795Y-77509744D01*
X234304774Y-77698102D01*
X234265000Y-77898061D01*
X233127000Y-77898061D01*
X233127000Y-71834042D01*
X242315000Y-71834042D01*
X242315000Y-72165958D01*
X242379754Y-72491496D01*
X242506772Y-72798147D01*
X242691175Y-73074125D01*
X242925875Y-73308825D01*
X243201853Y-73493228D01*
X243508504Y-73620246D01*
X243834042Y-73685000D01*
X244165958Y-73685000D01*
X244491496Y-73620246D01*
X244798147Y-73493228D01*
X245074125Y-73308825D01*
X245308825Y-73074125D01*
X245493228Y-72798147D01*
X245620246Y-72491496D01*
X245685000Y-72165958D01*
X245685000Y-71834042D01*
X245620246Y-71508504D01*
X245493228Y-71201853D01*
X245308825Y-70925875D01*
X245074125Y-70691175D01*
X244798147Y-70506772D01*
X244491496Y-70379754D01*
X244165958Y-70315000D01*
X243834042Y-70315000D01*
X243508504Y-70379754D01*
X243201853Y-70506772D01*
X242925875Y-70691175D01*
X242691175Y-70925875D01*
X242506772Y-71201853D01*
X242379754Y-71508504D01*
X242315000Y-71834042D01*
X233127000Y-71834042D01*
X233127000Y-66834042D01*
X242315000Y-66834042D01*
X242315000Y-67165958D01*
X242379754Y-67491496D01*
X242506772Y-67798147D01*
X242691175Y-68074125D01*
X242925875Y-68308825D01*
X243201853Y-68493228D01*
X243508504Y-68620246D01*
X243834042Y-68685000D01*
X244165958Y-68685000D01*
X244491496Y-68620246D01*
X244798147Y-68493228D01*
X245074125Y-68308825D01*
X245308825Y-68074125D01*
X245493228Y-67798147D01*
X245620246Y-67491496D01*
X245685000Y-67165958D01*
X245685000Y-66834042D01*
X245620246Y-66508504D01*
X245493228Y-66201853D01*
X245308825Y-65925875D01*
X245074125Y-65691175D01*
X244798147Y-65506772D01*
X244491496Y-65379754D01*
X244165958Y-65315000D01*
X243834042Y-65315000D01*
X243508504Y-65379754D01*
X243201853Y-65506772D01*
X242925875Y-65691175D01*
X242691175Y-65925875D01*
X242506772Y-66201853D01*
X242379754Y-66508504D01*
X242315000Y-66834042D01*
X233127000Y-66834042D01*
X233127000Y-65037913D01*
X235565000Y-65037913D01*
X235565000Y-65222091D01*
X235600932Y-65402731D01*
X235671414Y-65572891D01*
X235773738Y-65726030D01*
X235903972Y-65856264D01*
X236057111Y-65958588D01*
X236227271Y-66029070D01*
X236407911Y-66065002D01*
X236592089Y-66065002D01*
X236772729Y-66029070D01*
X236942889Y-65958588D01*
X237096028Y-65856264D01*
X237226262Y-65726030D01*
X237328586Y-65572891D01*
X237399068Y-65402731D01*
X237435000Y-65222091D01*
X237435000Y-65037913D01*
X237399068Y-64857273D01*
X237328586Y-64687113D01*
X237226262Y-64533974D01*
X237096028Y-64403740D01*
X236942889Y-64301416D01*
X236772729Y-64230934D01*
X236592089Y-64195002D01*
X236407911Y-64195002D01*
X236227271Y-64230934D01*
X236057111Y-64301416D01*
X235903972Y-64403740D01*
X235773738Y-64533974D01*
X235671414Y-64687113D01*
X235600932Y-64857273D01*
X235565000Y-65037913D01*
X233127000Y-65037913D01*
X233127000Y-62868059D01*
X236465000Y-62868059D01*
X236465000Y-63071937D01*
X236504774Y-63271896D01*
X236582795Y-63460254D01*
X236696063Y-63629772D01*
X236840226Y-63773935D01*
X237009744Y-63887203D01*
X237198102Y-63965224D01*
X237398061Y-64004998D01*
X237601939Y-64004998D01*
X237801898Y-63965224D01*
X237990256Y-63887203D01*
X238159774Y-63773935D01*
X238303937Y-63629772D01*
X238417205Y-63460254D01*
X238495226Y-63271896D01*
X238535000Y-63071937D01*
X238535000Y-62868059D01*
X238495226Y-62668100D01*
X238417205Y-62479742D01*
X238303937Y-62310224D01*
X238159774Y-62166061D01*
X237990256Y-62052793D01*
X237801898Y-61974772D01*
X237601939Y-61934998D01*
X237398061Y-61934998D01*
X237198102Y-61974772D01*
X237009744Y-62052793D01*
X236840226Y-62166061D01*
X236696063Y-62310224D01*
X236582795Y-62479742D01*
X236504774Y-62668100D01*
X236465000Y-62868059D01*
X233127000Y-62868059D01*
X233127000Y-59160000D01*
X235532419Y-59160000D01*
X235560674Y-59157217D01*
X235566801Y-59157260D01*
X235575972Y-59156360D01*
X235770069Y-59135959D01*
X235813712Y-59127000D01*
X241426923Y-59127000D01*
X241443915Y-59168022D01*
X241944812Y-59917667D01*
X242582333Y-60555188D01*
X243331978Y-61056085D01*
X244164938Y-61401108D01*
X245049205Y-61577000D01*
X245950795Y-61577000D01*
X246835062Y-61401108D01*
X247668022Y-61056085D01*
X248417667Y-60555188D01*
X249055188Y-59917667D01*
X249556085Y-59168022D01*
X249573077Y-59127000D01*
X249790001Y-59127000D01*
X249790000Y-106896699D01*
X249556085Y-106331978D01*
X249055188Y-105582333D01*
X248417667Y-104944812D01*
X247668022Y-104443915D01*
X246835062Y-104098892D01*
X245950795Y-103923000D01*
X245049205Y-103923000D01*
X244164938Y-104098892D01*
X243331978Y-104443915D01*
X242582333Y-104944812D01*
X241944812Y-105582333D01*
X241443915Y-106331978D01*
X241098892Y-107164938D01*
X240923000Y-108049205D01*
X240923000Y-108950795D01*
X241098892Y-109835062D01*
X241443915Y-110668022D01*
X241944812Y-111417667D01*
X242582333Y-112055188D01*
X243331978Y-112556085D01*
X243896699Y-112790000D01*
X182103301Y-112790000D01*
X182668022Y-112556085D01*
X183417667Y-112055188D01*
X184055188Y-111417667D01*
X184556085Y-110668022D01*
X184901108Y-109835062D01*
X185077000Y-108950795D01*
X185077000Y-108049205D01*
X184901108Y-107164938D01*
X184764047Y-106834042D01*
X189315000Y-106834042D01*
X189315000Y-107165958D01*
X189379754Y-107491496D01*
X189506772Y-107798147D01*
X189691175Y-108074125D01*
X189925875Y-108308825D01*
X190201853Y-108493228D01*
X190508504Y-108620246D01*
X190834042Y-108685000D01*
X191165958Y-108685000D01*
X191491496Y-108620246D01*
X191798147Y-108493228D01*
X192074125Y-108308825D01*
X192308825Y-108074125D01*
X192493228Y-107798147D01*
X192620246Y-107491496D01*
X192685000Y-107165958D01*
X192685000Y-106834042D01*
X194315000Y-106834042D01*
X194315000Y-107165958D01*
X194379754Y-107491496D01*
X194506772Y-107798147D01*
X194691175Y-108074125D01*
X194925875Y-108308825D01*
X195201853Y-108493228D01*
X195508504Y-108620246D01*
X195834042Y-108685000D01*
X196165958Y-108685000D01*
X196491496Y-108620246D01*
X196798147Y-108493228D01*
X197074125Y-108308825D01*
X197308825Y-108074125D01*
X197493228Y-107798147D01*
X197620246Y-107491496D01*
X197685000Y-107165958D01*
X197685000Y-106834042D01*
X202315000Y-106834042D01*
X202315000Y-107165958D01*
X202379754Y-107491496D01*
X202506772Y-107798147D01*
X202691175Y-108074125D01*
X202925875Y-108308825D01*
X203201853Y-108493228D01*
X203508504Y-108620246D01*
X203834042Y-108685000D01*
X204165958Y-108685000D01*
X204491496Y-108620246D01*
X204798147Y-108493228D01*
X205074125Y-108308825D01*
X205308825Y-108074125D01*
X205493228Y-107798147D01*
X205620246Y-107491496D01*
X205685000Y-107165958D01*
X205685000Y-106834042D01*
X207315000Y-106834042D01*
X207315000Y-107165958D01*
X207379754Y-107491496D01*
X207506772Y-107798147D01*
X207691175Y-108074125D01*
X207925875Y-108308825D01*
X208201853Y-108493228D01*
X208508504Y-108620246D01*
X208834042Y-108685000D01*
X209165958Y-108685000D01*
X209491496Y-108620246D01*
X209798147Y-108493228D01*
X210074125Y-108308825D01*
X210308825Y-108074125D01*
X210493228Y-107798147D01*
X210620246Y-107491496D01*
X210685000Y-107165958D01*
X210685000Y-106834042D01*
X215315000Y-106834042D01*
X215315000Y-107165958D01*
X215379754Y-107491496D01*
X215506772Y-107798147D01*
X215691175Y-108074125D01*
X215925875Y-108308825D01*
X216201853Y-108493228D01*
X216508504Y-108620246D01*
X216834042Y-108685000D01*
X217165958Y-108685000D01*
X217491496Y-108620246D01*
X217798147Y-108493228D01*
X218074125Y-108308825D01*
X218308825Y-108074125D01*
X218493228Y-107798147D01*
X218620246Y-107491496D01*
X218685000Y-107165958D01*
X218685000Y-106834042D01*
X220315000Y-106834042D01*
X220315000Y-107165958D01*
X220379754Y-107491496D01*
X220506772Y-107798147D01*
X220691175Y-108074125D01*
X220925875Y-108308825D01*
X221201853Y-108493228D01*
X221508504Y-108620246D01*
X221834042Y-108685000D01*
X222165958Y-108685000D01*
X222491496Y-108620246D01*
X222798147Y-108493228D01*
X223074125Y-108308825D01*
X223308825Y-108074125D01*
X223493228Y-107798147D01*
X223620246Y-107491496D01*
X223685000Y-107165958D01*
X223685000Y-106834042D01*
X228315000Y-106834042D01*
X228315000Y-107165958D01*
X228379754Y-107491496D01*
X228506772Y-107798147D01*
X228691175Y-108074125D01*
X228925875Y-108308825D01*
X229201853Y-108493228D01*
X229508504Y-108620246D01*
X229834042Y-108685000D01*
X230165958Y-108685000D01*
X230491496Y-108620246D01*
X230798147Y-108493228D01*
X231074125Y-108308825D01*
X231308825Y-108074125D01*
X231493228Y-107798147D01*
X231620246Y-107491496D01*
X231685000Y-107165958D01*
X231685000Y-106834042D01*
X233315000Y-106834042D01*
X233315000Y-107165958D01*
X233379754Y-107491496D01*
X233506772Y-107798147D01*
X233691175Y-108074125D01*
X233925875Y-108308825D01*
X234201853Y-108493228D01*
X234508504Y-108620246D01*
X234834042Y-108685000D01*
X235165958Y-108685000D01*
X235491496Y-108620246D01*
X235798147Y-108493228D01*
X236074125Y-108308825D01*
X236308825Y-108074125D01*
X236493228Y-107798147D01*
X236620246Y-107491496D01*
X236685000Y-107165958D01*
X236685000Y-106834042D01*
X236620246Y-106508504D01*
X236493228Y-106201853D01*
X236308825Y-105925875D01*
X236074125Y-105691175D01*
X235798147Y-105506772D01*
X235491496Y-105379754D01*
X235165958Y-105315000D01*
X234834042Y-105315000D01*
X234508504Y-105379754D01*
X234201853Y-105506772D01*
X233925875Y-105691175D01*
X233691175Y-105925875D01*
X233506772Y-106201853D01*
X233379754Y-106508504D01*
X233315000Y-106834042D01*
X231685000Y-106834042D01*
X231620246Y-106508504D01*
X231493228Y-106201853D01*
X231308825Y-105925875D01*
X231074125Y-105691175D01*
X230798147Y-105506772D01*
X230491496Y-105379754D01*
X230165958Y-105315000D01*
X229834042Y-105315000D01*
X229508504Y-105379754D01*
X229201853Y-105506772D01*
X228925875Y-105691175D01*
X228691175Y-105925875D01*
X228506772Y-106201853D01*
X228379754Y-106508504D01*
X228315000Y-106834042D01*
X223685000Y-106834042D01*
X223620246Y-106508504D01*
X223493228Y-106201853D01*
X223308825Y-105925875D01*
X223074125Y-105691175D01*
X222798147Y-105506772D01*
X222491496Y-105379754D01*
X222165958Y-105315000D01*
X221834042Y-105315000D01*
X221508504Y-105379754D01*
X221201853Y-105506772D01*
X220925875Y-105691175D01*
X220691175Y-105925875D01*
X220506772Y-106201853D01*
X220379754Y-106508504D01*
X220315000Y-106834042D01*
X218685000Y-106834042D01*
X218620246Y-106508504D01*
X218493228Y-106201853D01*
X218308825Y-105925875D01*
X218074125Y-105691175D01*
X217798147Y-105506772D01*
X217491496Y-105379754D01*
X217165958Y-105315000D01*
X216834042Y-105315000D01*
X216508504Y-105379754D01*
X216201853Y-105506772D01*
X215925875Y-105691175D01*
X215691175Y-105925875D01*
X215506772Y-106201853D01*
X215379754Y-106508504D01*
X215315000Y-106834042D01*
X210685000Y-106834042D01*
X210620246Y-106508504D01*
X210493228Y-106201853D01*
X210308825Y-105925875D01*
X210074125Y-105691175D01*
X209798147Y-105506772D01*
X209491496Y-105379754D01*
X209165958Y-105315000D01*
X208834042Y-105315000D01*
X208508504Y-105379754D01*
X208201853Y-105506772D01*
X207925875Y-105691175D01*
X207691175Y-105925875D01*
X207506772Y-106201853D01*
X207379754Y-106508504D01*
X207315000Y-106834042D01*
X205685000Y-106834042D01*
X205620246Y-106508504D01*
X205493228Y-106201853D01*
X205308825Y-105925875D01*
X205074125Y-105691175D01*
X204798147Y-105506772D01*
X204491496Y-105379754D01*
X204165958Y-105315000D01*
X203834042Y-105315000D01*
X203508504Y-105379754D01*
X203201853Y-105506772D01*
X202925875Y-105691175D01*
X202691175Y-105925875D01*
X202506772Y-106201853D01*
X202379754Y-106508504D01*
X202315000Y-106834042D01*
X197685000Y-106834042D01*
X197620246Y-106508504D01*
X197493228Y-106201853D01*
X197308825Y-105925875D01*
X197074125Y-105691175D01*
X196798147Y-105506772D01*
X196491496Y-105379754D01*
X196165958Y-105315000D01*
X195834042Y-105315000D01*
X195508504Y-105379754D01*
X195201853Y-105506772D01*
X194925875Y-105691175D01*
X194691175Y-105925875D01*
X194506772Y-106201853D01*
X194379754Y-106508504D01*
X194315000Y-106834042D01*
X192685000Y-106834042D01*
X192620246Y-106508504D01*
X192493228Y-106201853D01*
X192308825Y-105925875D01*
X192074125Y-105691175D01*
X191798147Y-105506772D01*
X191491496Y-105379754D01*
X191165958Y-105315000D01*
X190834042Y-105315000D01*
X190508504Y-105379754D01*
X190201853Y-105506772D01*
X189925875Y-105691175D01*
X189691175Y-105925875D01*
X189506772Y-106201853D01*
X189379754Y-106508504D01*
X189315000Y-106834042D01*
X184764047Y-106834042D01*
X184556085Y-106331978D01*
X184055188Y-105582333D01*
X183417667Y-104944812D01*
X182668022Y-104443915D01*
X181835062Y-104098892D01*
X180950795Y-103923000D01*
X180049205Y-103923000D01*
X179164938Y-104098892D01*
X178331978Y-104443915D01*
X177582333Y-104944812D01*
X176944812Y-105582333D01*
X176443915Y-106331978D01*
X176210000Y-106896699D01*
X176210000Y-97834042D01*
X180315000Y-97834042D01*
X180315000Y-98165958D01*
X180379754Y-98491496D01*
X180506772Y-98798147D01*
X180691175Y-99074125D01*
X180925875Y-99308825D01*
X181201853Y-99493228D01*
X181508504Y-99620246D01*
X181834042Y-99685000D01*
X182165958Y-99685000D01*
X182491496Y-99620246D01*
X182798147Y-99493228D01*
X183074125Y-99308825D01*
X183308825Y-99074125D01*
X183493228Y-98798147D01*
X183620246Y-98491496D01*
X183658722Y-98298061D01*
X195765000Y-98298061D01*
X195765000Y-98501939D01*
X195804774Y-98701898D01*
X195882795Y-98890256D01*
X195996063Y-99059774D01*
X196140226Y-99203937D01*
X196309744Y-99317205D01*
X196498102Y-99395226D01*
X196698061Y-99435000D01*
X196901939Y-99435000D01*
X197101898Y-99395226D01*
X197290256Y-99317205D01*
X197459774Y-99203937D01*
X197603937Y-99059774D01*
X197717205Y-98890256D01*
X197795226Y-98701898D01*
X197835000Y-98501939D01*
X197835000Y-98298061D01*
X207845000Y-98298061D01*
X207845000Y-98501939D01*
X207884774Y-98701898D01*
X207962795Y-98890256D01*
X208076063Y-99059774D01*
X208220226Y-99203937D01*
X208389744Y-99317205D01*
X208578102Y-99395226D01*
X208778061Y-99435000D01*
X208981939Y-99435000D01*
X209181898Y-99395226D01*
X209370256Y-99317205D01*
X209539774Y-99203937D01*
X209683937Y-99059774D01*
X209797205Y-98890256D01*
X209875226Y-98701898D01*
X209915000Y-98501939D01*
X209915000Y-98298061D01*
X220265000Y-98298061D01*
X220265000Y-98501939D01*
X220304774Y-98701898D01*
X220382795Y-98890256D01*
X220496063Y-99059774D01*
X220640226Y-99203937D01*
X220809744Y-99317205D01*
X220998102Y-99395226D01*
X221198061Y-99435000D01*
X221401939Y-99435000D01*
X221601898Y-99395226D01*
X221790256Y-99317205D01*
X221959774Y-99203937D01*
X222103937Y-99059774D01*
X222217205Y-98890256D01*
X222295226Y-98701898D01*
X222335000Y-98501939D01*
X222335000Y-98398061D01*
X231965000Y-98398061D01*
X231965000Y-98601939D01*
X232004774Y-98801898D01*
X232082795Y-98990256D01*
X232196063Y-99159774D01*
X232340226Y-99303937D01*
X232509744Y-99417205D01*
X232698102Y-99495226D01*
X232898061Y-99535000D01*
X233101939Y-99535000D01*
X233301898Y-99495226D01*
X233490256Y-99417205D01*
X233659774Y-99303937D01*
X233803937Y-99159774D01*
X233917205Y-98990256D01*
X233995226Y-98801898D01*
X234035000Y-98601939D01*
X234035000Y-98398061D01*
X233995226Y-98198102D01*
X233917205Y-98009744D01*
X233803937Y-97840226D01*
X233797753Y-97834042D01*
X242315000Y-97834042D01*
X242315000Y-98165958D01*
X242379754Y-98491496D01*
X242506772Y-98798147D01*
X242691175Y-99074125D01*
X242925875Y-99308825D01*
X243201853Y-99493228D01*
X243508504Y-99620246D01*
X243834042Y-99685000D01*
X244165958Y-99685000D01*
X244491496Y-99620246D01*
X244798147Y-99493228D01*
X245074125Y-99308825D01*
X245308825Y-99074125D01*
X245493228Y-98798147D01*
X245620246Y-98491496D01*
X245685000Y-98165958D01*
X245685000Y-97834042D01*
X245620246Y-97508504D01*
X245493228Y-97201853D01*
X245308825Y-96925875D01*
X245074125Y-96691175D01*
X244798147Y-96506772D01*
X244491496Y-96379754D01*
X244165958Y-96315000D01*
X243834042Y-96315000D01*
X243508504Y-96379754D01*
X243201853Y-96506772D01*
X242925875Y-96691175D01*
X242691175Y-96925875D01*
X242506772Y-97201853D01*
X242379754Y-97508504D01*
X242315000Y-97834042D01*
X233797753Y-97834042D01*
X233659774Y-97696063D01*
X233490256Y-97582795D01*
X233301898Y-97504774D01*
X233101939Y-97465000D01*
X232898061Y-97465000D01*
X232698102Y-97504774D01*
X232509744Y-97582795D01*
X232340226Y-97696063D01*
X232196063Y-97840226D01*
X232082795Y-98009744D01*
X232004774Y-98198102D01*
X231965000Y-98398061D01*
X222335000Y-98398061D01*
X222335000Y-98298061D01*
X222295226Y-98098102D01*
X222217205Y-97909744D01*
X222103937Y-97740226D01*
X221959774Y-97596063D01*
X221790256Y-97482795D01*
X221601898Y-97404774D01*
X221401939Y-97365000D01*
X221198061Y-97365000D01*
X220998102Y-97404774D01*
X220809744Y-97482795D01*
X220640226Y-97596063D01*
X220496063Y-97740226D01*
X220382795Y-97909744D01*
X220304774Y-98098102D01*
X220265000Y-98298061D01*
X209915000Y-98298061D01*
X209875226Y-98098102D01*
X209797205Y-97909744D01*
X209683937Y-97740226D01*
X209539774Y-97596063D01*
X209370256Y-97482795D01*
X209181898Y-97404774D01*
X208981939Y-97365000D01*
X208778061Y-97365000D01*
X208578102Y-97404774D01*
X208389744Y-97482795D01*
X208220226Y-97596063D01*
X208076063Y-97740226D01*
X207962795Y-97909744D01*
X207884774Y-98098102D01*
X207845000Y-98298061D01*
X197835000Y-98298061D01*
X197795226Y-98098102D01*
X197717205Y-97909744D01*
X197603937Y-97740226D01*
X197459774Y-97596063D01*
X197290256Y-97482795D01*
X197101898Y-97404774D01*
X196901939Y-97365000D01*
X196698061Y-97365000D01*
X196498102Y-97404774D01*
X196309744Y-97482795D01*
X196140226Y-97596063D01*
X195996063Y-97740226D01*
X195882795Y-97909744D01*
X195804774Y-98098102D01*
X195765000Y-98298061D01*
X183658722Y-98298061D01*
X183685000Y-98165958D01*
X183685000Y-97834042D01*
X183620246Y-97508504D01*
X183493228Y-97201853D01*
X183308825Y-96925875D01*
X183074125Y-96691175D01*
X182798147Y-96506772D01*
X182491496Y-96379754D01*
X182165958Y-96315000D01*
X181834042Y-96315000D01*
X181508504Y-96379754D01*
X181201853Y-96506772D01*
X180925875Y-96691175D01*
X180691175Y-96925875D01*
X180506772Y-97201853D01*
X180379754Y-97508504D01*
X180315000Y-97834042D01*
X176210000Y-97834042D01*
X176210000Y-95811942D01*
X189319346Y-95811942D01*
X189319346Y-96015820D01*
X189359120Y-96215779D01*
X189437141Y-96404137D01*
X189550409Y-96573655D01*
X189694572Y-96717818D01*
X189864090Y-96831086D01*
X190052448Y-96909107D01*
X190252407Y-96948881D01*
X190456285Y-96948881D01*
X190656244Y-96909107D01*
X190844602Y-96831086D01*
X191014120Y-96717818D01*
X191158283Y-96573655D01*
X191271551Y-96404137D01*
X191349572Y-96215779D01*
X191389346Y-96015820D01*
X191389346Y-95811942D01*
X191349572Y-95611983D01*
X191271551Y-95423625D01*
X191158283Y-95254107D01*
X191014120Y-95109944D01*
X190844602Y-94996676D01*
X190656244Y-94918655D01*
X190456285Y-94878881D01*
X190252407Y-94878881D01*
X190052448Y-94918655D01*
X189864090Y-94996676D01*
X189694572Y-95109944D01*
X189550409Y-95254107D01*
X189437141Y-95423625D01*
X189359120Y-95611983D01*
X189319346Y-95811942D01*
X176210000Y-95811942D01*
X176210000Y-92834042D01*
X180315000Y-92834042D01*
X180315000Y-93165958D01*
X180379754Y-93491496D01*
X180506772Y-93798147D01*
X180691175Y-94074125D01*
X180925875Y-94308825D01*
X181201853Y-94493228D01*
X181508504Y-94620246D01*
X181834042Y-94685000D01*
X182165958Y-94685000D01*
X182491496Y-94620246D01*
X182798147Y-94493228D01*
X183074125Y-94308825D01*
X183308825Y-94074125D01*
X183493228Y-93798147D01*
X183620246Y-93491496D01*
X183685000Y-93165958D01*
X183685000Y-92834042D01*
X242315000Y-92834042D01*
X242315000Y-93165958D01*
X242379754Y-93491496D01*
X242506772Y-93798147D01*
X242691175Y-94074125D01*
X242925875Y-94308825D01*
X243201853Y-94493228D01*
X243508504Y-94620246D01*
X243834042Y-94685000D01*
X244165958Y-94685000D01*
X244491496Y-94620246D01*
X244798147Y-94493228D01*
X245074125Y-94308825D01*
X245308825Y-94074125D01*
X245493228Y-93798147D01*
X245620246Y-93491496D01*
X245685000Y-93165958D01*
X245685000Y-92834042D01*
X245620246Y-92508504D01*
X245493228Y-92201853D01*
X245308825Y-91925875D01*
X245074125Y-91691175D01*
X244798147Y-91506772D01*
X244491496Y-91379754D01*
X244165958Y-91315000D01*
X243834042Y-91315000D01*
X243508504Y-91379754D01*
X243201853Y-91506772D01*
X242925875Y-91691175D01*
X242691175Y-91925875D01*
X242506772Y-92201853D01*
X242379754Y-92508504D01*
X242315000Y-92834042D01*
X183685000Y-92834042D01*
X183620246Y-92508504D01*
X183493228Y-92201853D01*
X183308825Y-91925875D01*
X183074125Y-91691175D01*
X182798147Y-91506772D01*
X182491496Y-91379754D01*
X182165958Y-91315000D01*
X181834042Y-91315000D01*
X181508504Y-91379754D01*
X181201853Y-91506772D01*
X180925875Y-91691175D01*
X180691175Y-91925875D01*
X180506772Y-92201853D01*
X180379754Y-92508504D01*
X180315000Y-92834042D01*
X176210000Y-92834042D01*
X176210000Y-90998061D01*
X232865000Y-90998061D01*
X232865000Y-91201939D01*
X232904774Y-91401898D01*
X232982795Y-91590256D01*
X233096063Y-91759774D01*
X233240226Y-91903937D01*
X233409744Y-92017205D01*
X233598102Y-92095226D01*
X233798061Y-92135000D01*
X234001939Y-92135000D01*
X234201898Y-92095226D01*
X234390256Y-92017205D01*
X234559774Y-91903937D01*
X234703937Y-91759774D01*
X234817205Y-91590256D01*
X234895226Y-91401898D01*
X234935000Y-91201939D01*
X234935000Y-90998061D01*
X234895226Y-90798102D01*
X234817205Y-90609744D01*
X234703937Y-90440226D01*
X234559774Y-90296063D01*
X234390256Y-90182795D01*
X234201898Y-90104774D01*
X234001939Y-90065000D01*
X233798061Y-90065000D01*
X233598102Y-90104774D01*
X233409744Y-90182795D01*
X233240226Y-90296063D01*
X233096063Y-90440226D01*
X232982795Y-90609744D01*
X232904774Y-90798102D01*
X232865000Y-90998061D01*
X176210000Y-90998061D01*
X176210000Y-84834042D01*
X180315000Y-84834042D01*
X180315000Y-85165958D01*
X180379754Y-85491496D01*
X180506772Y-85798147D01*
X180691175Y-86074125D01*
X180925875Y-86308825D01*
X181201853Y-86493228D01*
X181508504Y-86620246D01*
X181834042Y-86685000D01*
X182165958Y-86685000D01*
X182491496Y-86620246D01*
X182798147Y-86493228D01*
X183074125Y-86308825D01*
X183308825Y-86074125D01*
X183493228Y-85798147D01*
X183620246Y-85491496D01*
X183685000Y-85165958D01*
X183685000Y-84834042D01*
X183620246Y-84508504D01*
X183493228Y-84201853D01*
X183308825Y-83925875D01*
X183096579Y-83713629D01*
X189359792Y-83713629D01*
X189359792Y-83917507D01*
X189399566Y-84117466D01*
X189477587Y-84305824D01*
X189590855Y-84475342D01*
X189735018Y-84619505D01*
X189904536Y-84732773D01*
X190092894Y-84810794D01*
X190292853Y-84850568D01*
X190496731Y-84850568D01*
X190696690Y-84810794D01*
X190885048Y-84732773D01*
X191054566Y-84619505D01*
X191198729Y-84475342D01*
X191311997Y-84305824D01*
X191390018Y-84117466D01*
X191429792Y-83917507D01*
X191429792Y-83713629D01*
X191390018Y-83513670D01*
X191311997Y-83325312D01*
X191198729Y-83155794D01*
X191054566Y-83011631D01*
X190885048Y-82898363D01*
X190696690Y-82820342D01*
X190496731Y-82780568D01*
X190292853Y-82780568D01*
X190092894Y-82820342D01*
X189904536Y-82898363D01*
X189735018Y-83011631D01*
X189590855Y-83155794D01*
X189477587Y-83325312D01*
X189399566Y-83513670D01*
X189359792Y-83713629D01*
X183096579Y-83713629D01*
X183074125Y-83691175D01*
X182798147Y-83506772D01*
X182491496Y-83379754D01*
X182165958Y-83315000D01*
X181834042Y-83315000D01*
X181508504Y-83379754D01*
X181201853Y-83506772D01*
X180925875Y-83691175D01*
X180691175Y-83925875D01*
X180506772Y-84201853D01*
X180379754Y-84508504D01*
X180315000Y-84834042D01*
X176210000Y-84834042D01*
X176210000Y-79834042D01*
X180315000Y-79834042D01*
X180315000Y-80165958D01*
X180379754Y-80491496D01*
X180506772Y-80798147D01*
X180691175Y-81074125D01*
X180925875Y-81308825D01*
X181201853Y-81493228D01*
X181508504Y-81620246D01*
X181834042Y-81685000D01*
X182165958Y-81685000D01*
X182491496Y-81620246D01*
X182798147Y-81493228D01*
X183074125Y-81308825D01*
X183308825Y-81074125D01*
X183493228Y-80798147D01*
X183620246Y-80491496D01*
X183685000Y-80165958D01*
X183685000Y-79834042D01*
X183620246Y-79508504D01*
X183493228Y-79201853D01*
X183308825Y-78925875D01*
X183074125Y-78691175D01*
X182798147Y-78506772D01*
X182491496Y-78379754D01*
X182165958Y-78315000D01*
X181834042Y-78315000D01*
X181508504Y-78379754D01*
X181201853Y-78506772D01*
X180925875Y-78691175D01*
X180691175Y-78925875D01*
X180506772Y-79201853D01*
X180379754Y-79508504D01*
X180315000Y-79834042D01*
X176210000Y-79834042D01*
X176210000Y-70334042D01*
X180315000Y-70334042D01*
X180315000Y-70665958D01*
X180379754Y-70991496D01*
X180506772Y-71298147D01*
X180691175Y-71574125D01*
X180925875Y-71808825D01*
X181201853Y-71993228D01*
X181508504Y-72120246D01*
X181834042Y-72185000D01*
X182165958Y-72185000D01*
X182491496Y-72120246D01*
X182798147Y-71993228D01*
X183074125Y-71808825D01*
X183308825Y-71574125D01*
X183493228Y-71298147D01*
X183620246Y-70991496D01*
X183685000Y-70665958D01*
X183685000Y-70334042D01*
X183620246Y-70008504D01*
X183493228Y-69701853D01*
X183308825Y-69425875D01*
X183074125Y-69191175D01*
X182798147Y-69006772D01*
X182491496Y-68879754D01*
X182165958Y-68815000D01*
X181834042Y-68815000D01*
X181508504Y-68879754D01*
X181201853Y-69006772D01*
X180925875Y-69191175D01*
X180691175Y-69425875D01*
X180506772Y-69701853D01*
X180379754Y-70008504D01*
X180315000Y-70334042D01*
X176210000Y-70334042D01*
X176210000Y-66671066D01*
X181008539Y-66671066D01*
X181110339Y-66940579D01*
X181408477Y-67086463D01*
X181729346Y-67171380D01*
X182060617Y-67192066D01*
X182389557Y-67147728D01*
X182703527Y-67040069D01*
X182889661Y-66940579D01*
X182991461Y-66671066D01*
X182000000Y-65679605D01*
X181008539Y-66671066D01*
X176210000Y-66671066D01*
X176210000Y-65560617D01*
X180307934Y-65560617D01*
X180352272Y-65889557D01*
X180459931Y-66203527D01*
X180559421Y-66389661D01*
X180828934Y-66491461D01*
X181820395Y-65500000D01*
X182179605Y-65500000D01*
X183171066Y-66491461D01*
X183440579Y-66389661D01*
X183586463Y-66091523D01*
X183671380Y-65770654D01*
X183692066Y-65439383D01*
X183647728Y-65110443D01*
X183540069Y-64796473D01*
X183440579Y-64610339D01*
X183171066Y-64508539D01*
X182179605Y-65500000D01*
X181820395Y-65500000D01*
X180828934Y-64508539D01*
X180559421Y-64610339D01*
X180413537Y-64908477D01*
X180328620Y-65229346D01*
X180307934Y-65560617D01*
X176210000Y-65560617D01*
X176210000Y-64328934D01*
X181008539Y-64328934D01*
X182000000Y-65320395D01*
X182991461Y-64328934D01*
X182889661Y-64059421D01*
X182591523Y-63913537D01*
X182270654Y-63828620D01*
X181939383Y-63807934D01*
X181610443Y-63852272D01*
X181296473Y-63959931D01*
X181110339Y-64059421D01*
X181008539Y-64328934D01*
X176210000Y-64328934D01*
X176210000Y-58603301D01*
X176443915Y-59168022D01*
X176944812Y-59917667D01*
X177582333Y-60555188D01*
X178331978Y-61056085D01*
X179164938Y-61401108D01*
X180049205Y-61577000D01*
X180950795Y-61577000D01*
X181835062Y-61401108D01*
X182668022Y-61056085D01*
X183417667Y-60555188D01*
X184055188Y-59917667D01*
X184556085Y-59168022D01*
X184901108Y-58335062D01*
X185077000Y-57450795D01*
X185077000Y-56549205D01*
X184961415Y-55968120D01*
X190161000Y-55968120D01*
X190161000Y-56231880D01*
X190212457Y-56490572D01*
X190313393Y-56734254D01*
X190459931Y-56953563D01*
X190646437Y-57140069D01*
X190796388Y-57240263D01*
X190765000Y-57398061D01*
X190765000Y-57601939D01*
X190804774Y-57801898D01*
X190882795Y-57990256D01*
X190996063Y-58159774D01*
X191140226Y-58303937D01*
X191309744Y-58417205D01*
X191498102Y-58495226D01*
X191698061Y-58535000D01*
X191901939Y-58535000D01*
X192101898Y-58495226D01*
X192290256Y-58417205D01*
X192459774Y-58303937D01*
X192603937Y-58159774D01*
X192717205Y-57990256D01*
X192795226Y-57801898D01*
X192835000Y-57601939D01*
X192835000Y-57398061D01*
X192795226Y-57198102D01*
X192717205Y-57009744D01*
X192609868Y-56849102D01*
X192686607Y-56734254D01*
X192787543Y-56490572D01*
X192839000Y-56231880D01*
X192839000Y-55968120D01*
X192787543Y-55709428D01*
X192686607Y-55465746D01*
X192540069Y-55246437D01*
X192353563Y-55059931D01*
X192134254Y-54913393D01*
X191890572Y-54812457D01*
X191631880Y-54761000D01*
X191368120Y-54761000D01*
X191109428Y-54812457D01*
X190865746Y-54913393D01*
X190646437Y-55059931D01*
X190459931Y-55246437D01*
X190313393Y-55465746D01*
X190212457Y-55709428D01*
X190161000Y-55968120D01*
X184961415Y-55968120D01*
X184901108Y-55664938D01*
X184556085Y-54831978D01*
X184055188Y-54082333D01*
X183417667Y-53444812D01*
X182668022Y-52943915D01*
X181982590Y-52660000D01*
X189148324Y-52660000D01*
X189139701Y-52672905D01*
G37*
X189139701Y-52672905D02*
X189023989Y-52952257D01*
X188965000Y-53248816D01*
X188965000Y-53551184D01*
X189023989Y-53847743D01*
X189139701Y-54127095D01*
X189307688Y-54378505D01*
X189521495Y-54592312D01*
X189772905Y-54760299D01*
X190052257Y-54876011D01*
X190348816Y-54935000D01*
X190651184Y-54935000D01*
X190947743Y-54876011D01*
X191227095Y-54760299D01*
X191478505Y-54592312D01*
X191692312Y-54378505D01*
X191860299Y-54127095D01*
X191976011Y-53847743D01*
X192035000Y-53551184D01*
X192035000Y-53248816D01*
X191976011Y-52952257D01*
X191860299Y-52672905D01*
X191851676Y-52660000D01*
X194863559Y-52660000D01*
X194804879Y-56767544D01*
X194792089Y-56765000D01*
X194607911Y-56765000D01*
X194427271Y-56800932D01*
X194300000Y-56853649D01*
X194172729Y-56800932D01*
X193992089Y-56765000D01*
X193807911Y-56765000D01*
X193627271Y-56800932D01*
X193457111Y-56871414D01*
X193303972Y-56973738D01*
X193173738Y-57103972D01*
X193071414Y-57257111D01*
X193000932Y-57427271D01*
X192965000Y-57607911D01*
X192965000Y-57792089D01*
X193000932Y-57972729D01*
X193071414Y-58142889D01*
X193173738Y-58296028D01*
X193303972Y-58426262D01*
X193457111Y-58528586D01*
X193627271Y-58599068D01*
X193807911Y-58635000D01*
X193992089Y-58635000D01*
X194172729Y-58599068D01*
X194300000Y-58546351D01*
X194371365Y-58575911D01*
X194365000Y-58607911D01*
X194365000Y-58792089D01*
X194400932Y-58972729D01*
X194471414Y-59142889D01*
X194573738Y-59296028D01*
X194703972Y-59426262D01*
X194766303Y-59467910D01*
X194373013Y-86998186D01*
X194375099Y-87022995D01*
X194381985Y-87046920D01*
X194393406Y-87069042D01*
X194408924Y-87088511D01*
X194427941Y-87104578D01*
X194449728Y-87116627D01*
X194473447Y-87124193D01*
X194501649Y-87126989D01*
X233001649Y-86626989D01*
X233026392Y-86624227D01*
X233050120Y-86616692D01*
X233071923Y-86604671D01*
X233090961Y-86588629D01*
X233106504Y-86569180D01*
X233117954Y-86547073D01*
X233124871Y-86523157D01*
X233127000Y-86500000D01*
X233127000Y-84834042D01*
X242315000Y-84834042D01*
X242315000Y-85165958D01*
X242379754Y-85491496D01*
X242506772Y-85798147D01*
X242691175Y-86074125D01*
X242925875Y-86308825D01*
X243201853Y-86493228D01*
X243508504Y-86620246D01*
X243834042Y-86685000D01*
X244165958Y-86685000D01*
X244491496Y-86620246D01*
X244798147Y-86493228D01*
X245074125Y-86308825D01*
X245308825Y-86074125D01*
X245493228Y-85798147D01*
X245620246Y-85491496D01*
X245685000Y-85165958D01*
X245685000Y-84834042D01*
X245620246Y-84508504D01*
X245493228Y-84201853D01*
X245308825Y-83925875D01*
X245074125Y-83691175D01*
X244798147Y-83506772D01*
X244491496Y-83379754D01*
X244165958Y-83315000D01*
X243834042Y-83315000D01*
X243508504Y-83379754D01*
X243201853Y-83506772D01*
X242925875Y-83691175D01*
X242691175Y-83925875D01*
X242506772Y-84201853D01*
X242379754Y-84508504D01*
X242315000Y-84834042D01*
X233127000Y-84834042D01*
X233127000Y-79834042D01*
X242315000Y-79834042D01*
X242315000Y-80165958D01*
X242379754Y-80491496D01*
X242506772Y-80798147D01*
X242691175Y-81074125D01*
X242925875Y-81308825D01*
X243201853Y-81493228D01*
X243508504Y-81620246D01*
X243834042Y-81685000D01*
X244165958Y-81685000D01*
X244491496Y-81620246D01*
X244798147Y-81493228D01*
X245074125Y-81308825D01*
X245308825Y-81074125D01*
X245493228Y-80798147D01*
X245620246Y-80491496D01*
X245685000Y-80165958D01*
X245685000Y-79834042D01*
X245620246Y-79508504D01*
X245493228Y-79201853D01*
X245308825Y-78925875D01*
X245074125Y-78691175D01*
X244798147Y-78506772D01*
X244491496Y-78379754D01*
X244165958Y-78315000D01*
X243834042Y-78315000D01*
X243508504Y-78379754D01*
X243201853Y-78506772D01*
X242925875Y-78691175D01*
X242691175Y-78925875D01*
X242506772Y-79201853D01*
X242379754Y-79508504D01*
X242315000Y-79834042D01*
X233127000Y-79834042D01*
X233127000Y-77898061D01*
X234265000Y-77898061D01*
X234265000Y-78101939D01*
X234304774Y-78301898D01*
X234382795Y-78490256D01*
X234496063Y-78659774D01*
X234640226Y-78803937D01*
X234809744Y-78917205D01*
X234998102Y-78995226D01*
X235198061Y-79035000D01*
X235401939Y-79035000D01*
X235601898Y-78995226D01*
X235790256Y-78917205D01*
X235959774Y-78803937D01*
X236103937Y-78659774D01*
X236217205Y-78490256D01*
X236295226Y-78301898D01*
X236335000Y-78101939D01*
X236335000Y-77898061D01*
X236295226Y-77698102D01*
X236217205Y-77509744D01*
X236103937Y-77340226D01*
X235959774Y-77196063D01*
X235790256Y-77082795D01*
X235601898Y-77004774D01*
X235401939Y-76965000D01*
X235198061Y-76965000D01*
X234998102Y-77004774D01*
X234809744Y-77082795D01*
X234640226Y-77196063D01*
X234496063Y-77340226D01*
X234382795Y-77509744D01*
X234304774Y-77698102D01*
X234265000Y-77898061D01*
X233127000Y-77898061D01*
X233127000Y-71834042D01*
X242315000Y-71834042D01*
X242315000Y-72165958D01*
X242379754Y-72491496D01*
X242506772Y-72798147D01*
X242691175Y-73074125D01*
X242925875Y-73308825D01*
X243201853Y-73493228D01*
X243508504Y-73620246D01*
X243834042Y-73685000D01*
X244165958Y-73685000D01*
X244491496Y-73620246D01*
X244798147Y-73493228D01*
X245074125Y-73308825D01*
X245308825Y-73074125D01*
X245493228Y-72798147D01*
X245620246Y-72491496D01*
X245685000Y-72165958D01*
X245685000Y-71834042D01*
X245620246Y-71508504D01*
X245493228Y-71201853D01*
X245308825Y-70925875D01*
X245074125Y-70691175D01*
X244798147Y-70506772D01*
X244491496Y-70379754D01*
X244165958Y-70315000D01*
X243834042Y-70315000D01*
X243508504Y-70379754D01*
X243201853Y-70506772D01*
X242925875Y-70691175D01*
X242691175Y-70925875D01*
X242506772Y-71201853D01*
X242379754Y-71508504D01*
X242315000Y-71834042D01*
X233127000Y-71834042D01*
X233127000Y-66834042D01*
X242315000Y-66834042D01*
X242315000Y-67165958D01*
X242379754Y-67491496D01*
X242506772Y-67798147D01*
X242691175Y-68074125D01*
X242925875Y-68308825D01*
X243201853Y-68493228D01*
X243508504Y-68620246D01*
X243834042Y-68685000D01*
X244165958Y-68685000D01*
X244491496Y-68620246D01*
X244798147Y-68493228D01*
X245074125Y-68308825D01*
X245308825Y-68074125D01*
X245493228Y-67798147D01*
X245620246Y-67491496D01*
X245685000Y-67165958D01*
X245685000Y-66834042D01*
X245620246Y-66508504D01*
X245493228Y-66201853D01*
X245308825Y-65925875D01*
X245074125Y-65691175D01*
X244798147Y-65506772D01*
X244491496Y-65379754D01*
X244165958Y-65315000D01*
X243834042Y-65315000D01*
X243508504Y-65379754D01*
X243201853Y-65506772D01*
X242925875Y-65691175D01*
X242691175Y-65925875D01*
X242506772Y-66201853D01*
X242379754Y-66508504D01*
X242315000Y-66834042D01*
X233127000Y-66834042D01*
X233127000Y-65037913D01*
X235565000Y-65037913D01*
X235565000Y-65222091D01*
X235600932Y-65402731D01*
X235671414Y-65572891D01*
X235773738Y-65726030D01*
X235903972Y-65856264D01*
X236057111Y-65958588D01*
X236227271Y-66029070D01*
X236407911Y-66065002D01*
X236592089Y-66065002D01*
X236772729Y-66029070D01*
X236942889Y-65958588D01*
X237096028Y-65856264D01*
X237226262Y-65726030D01*
X237328586Y-65572891D01*
X237399068Y-65402731D01*
X237435000Y-65222091D01*
X237435000Y-65037913D01*
X237399068Y-64857273D01*
X237328586Y-64687113D01*
X237226262Y-64533974D01*
X237096028Y-64403740D01*
X236942889Y-64301416D01*
X236772729Y-64230934D01*
X236592089Y-64195002D01*
X236407911Y-64195002D01*
X236227271Y-64230934D01*
X236057111Y-64301416D01*
X235903972Y-64403740D01*
X235773738Y-64533974D01*
X235671414Y-64687113D01*
X235600932Y-64857273D01*
X235565000Y-65037913D01*
X233127000Y-65037913D01*
X233127000Y-62868059D01*
X236465000Y-62868059D01*
X236465000Y-63071937D01*
X236504774Y-63271896D01*
X236582795Y-63460254D01*
X236696063Y-63629772D01*
X236840226Y-63773935D01*
X237009744Y-63887203D01*
X237198102Y-63965224D01*
X237398061Y-64004998D01*
X237601939Y-64004998D01*
X237801898Y-63965224D01*
X237990256Y-63887203D01*
X238159774Y-63773935D01*
X238303937Y-63629772D01*
X238417205Y-63460254D01*
X238495226Y-63271896D01*
X238535000Y-63071937D01*
X238535000Y-62868059D01*
X238495226Y-62668100D01*
X238417205Y-62479742D01*
X238303937Y-62310224D01*
X238159774Y-62166061D01*
X237990256Y-62052793D01*
X237801898Y-61974772D01*
X237601939Y-61934998D01*
X237398061Y-61934998D01*
X237198102Y-61974772D01*
X237009744Y-62052793D01*
X236840226Y-62166061D01*
X236696063Y-62310224D01*
X236582795Y-62479742D01*
X236504774Y-62668100D01*
X236465000Y-62868059D01*
X233127000Y-62868059D01*
X233127000Y-59160000D01*
X235532419Y-59160000D01*
X235560674Y-59157217D01*
X235566801Y-59157260D01*
X235575972Y-59156360D01*
X235770069Y-59135959D01*
X235813712Y-59127000D01*
X241426923Y-59127000D01*
X241443915Y-59168022D01*
X241944812Y-59917667D01*
X242582333Y-60555188D01*
X243331978Y-61056085D01*
X244164938Y-61401108D01*
X245049205Y-61577000D01*
X245950795Y-61577000D01*
X246835062Y-61401108D01*
X247668022Y-61056085D01*
X248417667Y-60555188D01*
X249055188Y-59917667D01*
X249556085Y-59168022D01*
X249573077Y-59127000D01*
X249790001Y-59127000D01*
X249790000Y-106896699D01*
X249556085Y-106331978D01*
X249055188Y-105582333D01*
X248417667Y-104944812D01*
X247668022Y-104443915D01*
X246835062Y-104098892D01*
X245950795Y-103923000D01*
X245049205Y-103923000D01*
X244164938Y-104098892D01*
X243331978Y-104443915D01*
X242582333Y-104944812D01*
X241944812Y-105582333D01*
X241443915Y-106331978D01*
X241098892Y-107164938D01*
X240923000Y-108049205D01*
X240923000Y-108950795D01*
X241098892Y-109835062D01*
X241443915Y-110668022D01*
X241944812Y-111417667D01*
X242582333Y-112055188D01*
X243331978Y-112556085D01*
X243896699Y-112790000D01*
X182103301Y-112790000D01*
X182668022Y-112556085D01*
X183417667Y-112055188D01*
X184055188Y-111417667D01*
X184556085Y-110668022D01*
X184901108Y-109835062D01*
X185077000Y-108950795D01*
X185077000Y-108049205D01*
X184901108Y-107164938D01*
X184764047Y-106834042D01*
X189315000Y-106834042D01*
X189315000Y-107165958D01*
X189379754Y-107491496D01*
X189506772Y-107798147D01*
X189691175Y-108074125D01*
X189925875Y-108308825D01*
X190201853Y-108493228D01*
X190508504Y-108620246D01*
X190834042Y-108685000D01*
X191165958Y-108685000D01*
X191491496Y-108620246D01*
X191798147Y-108493228D01*
X192074125Y-108308825D01*
X192308825Y-108074125D01*
X192493228Y-107798147D01*
X192620246Y-107491496D01*
X192685000Y-107165958D01*
X192685000Y-106834042D01*
X194315000Y-106834042D01*
X194315000Y-107165958D01*
X194379754Y-107491496D01*
X194506772Y-107798147D01*
X194691175Y-108074125D01*
X194925875Y-108308825D01*
X195201853Y-108493228D01*
X195508504Y-108620246D01*
X195834042Y-108685000D01*
X196165958Y-108685000D01*
X196491496Y-108620246D01*
X196798147Y-108493228D01*
X197074125Y-108308825D01*
X197308825Y-108074125D01*
X197493228Y-107798147D01*
X197620246Y-107491496D01*
X197685000Y-107165958D01*
X197685000Y-106834042D01*
X202315000Y-106834042D01*
X202315000Y-107165958D01*
X202379754Y-107491496D01*
X202506772Y-107798147D01*
X202691175Y-108074125D01*
X202925875Y-108308825D01*
X203201853Y-108493228D01*
X203508504Y-108620246D01*
X203834042Y-108685000D01*
X204165958Y-108685000D01*
X204491496Y-108620246D01*
X204798147Y-108493228D01*
X205074125Y-108308825D01*
X205308825Y-108074125D01*
X205493228Y-107798147D01*
X205620246Y-107491496D01*
X205685000Y-107165958D01*
X205685000Y-106834042D01*
X207315000Y-106834042D01*
X207315000Y-107165958D01*
X207379754Y-107491496D01*
X207506772Y-107798147D01*
X207691175Y-108074125D01*
X207925875Y-108308825D01*
X208201853Y-108493228D01*
X208508504Y-108620246D01*
X208834042Y-108685000D01*
X209165958Y-108685000D01*
X209491496Y-108620246D01*
X209798147Y-108493228D01*
X210074125Y-108308825D01*
X210308825Y-108074125D01*
X210493228Y-107798147D01*
X210620246Y-107491496D01*
X210685000Y-107165958D01*
X210685000Y-106834042D01*
X215315000Y-106834042D01*
X215315000Y-107165958D01*
X215379754Y-107491496D01*
X215506772Y-107798147D01*
X215691175Y-108074125D01*
X215925875Y-108308825D01*
X216201853Y-108493228D01*
X216508504Y-108620246D01*
X216834042Y-108685000D01*
X217165958Y-108685000D01*
X217491496Y-108620246D01*
X217798147Y-108493228D01*
X218074125Y-108308825D01*
X218308825Y-108074125D01*
X218493228Y-107798147D01*
X218620246Y-107491496D01*
X218685000Y-107165958D01*
X218685000Y-106834042D01*
X220315000Y-106834042D01*
X220315000Y-107165958D01*
X220379754Y-107491496D01*
X220506772Y-107798147D01*
X220691175Y-108074125D01*
X220925875Y-108308825D01*
X221201853Y-108493228D01*
X221508504Y-108620246D01*
X221834042Y-108685000D01*
X222165958Y-108685000D01*
X222491496Y-108620246D01*
X222798147Y-108493228D01*
X223074125Y-108308825D01*
X223308825Y-108074125D01*
X223493228Y-107798147D01*
X223620246Y-107491496D01*
X223685000Y-107165958D01*
X223685000Y-106834042D01*
X228315000Y-106834042D01*
X228315000Y-107165958D01*
X228379754Y-107491496D01*
X228506772Y-107798147D01*
X228691175Y-108074125D01*
X228925875Y-108308825D01*
X229201853Y-108493228D01*
X229508504Y-108620246D01*
X229834042Y-108685000D01*
X230165958Y-108685000D01*
X230491496Y-108620246D01*
X230798147Y-108493228D01*
X231074125Y-108308825D01*
X231308825Y-108074125D01*
X231493228Y-107798147D01*
X231620246Y-107491496D01*
X231685000Y-107165958D01*
X231685000Y-106834042D01*
X233315000Y-106834042D01*
X233315000Y-107165958D01*
X233379754Y-107491496D01*
X233506772Y-107798147D01*
X233691175Y-108074125D01*
X233925875Y-108308825D01*
X234201853Y-108493228D01*
X234508504Y-108620246D01*
X234834042Y-108685000D01*
X235165958Y-108685000D01*
X235491496Y-108620246D01*
X235798147Y-108493228D01*
X236074125Y-108308825D01*
X236308825Y-108074125D01*
X236493228Y-107798147D01*
X236620246Y-107491496D01*
X236685000Y-107165958D01*
X236685000Y-106834042D01*
X236620246Y-106508504D01*
X236493228Y-106201853D01*
X236308825Y-105925875D01*
X236074125Y-105691175D01*
X235798147Y-105506772D01*
X235491496Y-105379754D01*
X235165958Y-105315000D01*
X234834042Y-105315000D01*
X234508504Y-105379754D01*
X234201853Y-105506772D01*
X233925875Y-105691175D01*
X233691175Y-105925875D01*
X233506772Y-106201853D01*
X233379754Y-106508504D01*
X233315000Y-106834042D01*
X231685000Y-106834042D01*
X231620246Y-106508504D01*
X231493228Y-106201853D01*
X231308825Y-105925875D01*
X231074125Y-105691175D01*
X230798147Y-105506772D01*
X230491496Y-105379754D01*
X230165958Y-105315000D01*
X229834042Y-105315000D01*
X229508504Y-105379754D01*
X229201853Y-105506772D01*
X228925875Y-105691175D01*
X228691175Y-105925875D01*
X228506772Y-106201853D01*
X228379754Y-106508504D01*
X228315000Y-106834042D01*
X223685000Y-106834042D01*
X223620246Y-106508504D01*
X223493228Y-106201853D01*
X223308825Y-105925875D01*
X223074125Y-105691175D01*
X222798147Y-105506772D01*
X222491496Y-105379754D01*
X222165958Y-105315000D01*
X221834042Y-105315000D01*
X221508504Y-105379754D01*
X221201853Y-105506772D01*
X220925875Y-105691175D01*
X220691175Y-105925875D01*
X220506772Y-106201853D01*
X220379754Y-106508504D01*
X220315000Y-106834042D01*
X218685000Y-106834042D01*
X218620246Y-106508504D01*
X218493228Y-106201853D01*
X218308825Y-105925875D01*
X218074125Y-105691175D01*
X217798147Y-105506772D01*
X217491496Y-105379754D01*
X217165958Y-105315000D01*
X216834042Y-105315000D01*
X216508504Y-105379754D01*
X216201853Y-105506772D01*
X215925875Y-105691175D01*
X215691175Y-105925875D01*
X215506772Y-106201853D01*
X215379754Y-106508504D01*
X215315000Y-106834042D01*
X210685000Y-106834042D01*
X210620246Y-106508504D01*
X210493228Y-106201853D01*
X210308825Y-105925875D01*
X210074125Y-105691175D01*
X209798147Y-105506772D01*
X209491496Y-105379754D01*
X209165958Y-105315000D01*
X208834042Y-105315000D01*
X208508504Y-105379754D01*
X208201853Y-105506772D01*
X207925875Y-105691175D01*
X207691175Y-105925875D01*
X207506772Y-106201853D01*
X207379754Y-106508504D01*
X207315000Y-106834042D01*
X205685000Y-106834042D01*
X205620246Y-106508504D01*
X205493228Y-106201853D01*
X205308825Y-105925875D01*
X205074125Y-105691175D01*
X204798147Y-105506772D01*
X204491496Y-105379754D01*
X204165958Y-105315000D01*
X203834042Y-105315000D01*
X203508504Y-105379754D01*
X203201853Y-105506772D01*
X202925875Y-105691175D01*
X202691175Y-105925875D01*
X202506772Y-106201853D01*
X202379754Y-106508504D01*
X202315000Y-106834042D01*
X197685000Y-106834042D01*
X197620246Y-106508504D01*
X197493228Y-106201853D01*
X197308825Y-105925875D01*
X197074125Y-105691175D01*
X196798147Y-105506772D01*
X196491496Y-105379754D01*
X196165958Y-105315000D01*
X195834042Y-105315000D01*
X195508504Y-105379754D01*
X195201853Y-105506772D01*
X194925875Y-105691175D01*
X194691175Y-105925875D01*
X194506772Y-106201853D01*
X194379754Y-106508504D01*
X194315000Y-106834042D01*
X192685000Y-106834042D01*
X192620246Y-106508504D01*
X192493228Y-106201853D01*
X192308825Y-105925875D01*
X192074125Y-105691175D01*
X191798147Y-105506772D01*
X191491496Y-105379754D01*
X191165958Y-105315000D01*
X190834042Y-105315000D01*
X190508504Y-105379754D01*
X190201853Y-105506772D01*
X189925875Y-105691175D01*
X189691175Y-105925875D01*
X189506772Y-106201853D01*
X189379754Y-106508504D01*
X189315000Y-106834042D01*
X184764047Y-106834042D01*
X184556085Y-106331978D01*
X184055188Y-105582333D01*
X183417667Y-104944812D01*
X182668022Y-104443915D01*
X181835062Y-104098892D01*
X180950795Y-103923000D01*
X180049205Y-103923000D01*
X179164938Y-104098892D01*
X178331978Y-104443915D01*
X177582333Y-104944812D01*
X176944812Y-105582333D01*
X176443915Y-106331978D01*
X176210000Y-106896699D01*
X176210000Y-97834042D01*
X180315000Y-97834042D01*
X180315000Y-98165958D01*
X180379754Y-98491496D01*
X180506772Y-98798147D01*
X180691175Y-99074125D01*
X180925875Y-99308825D01*
X181201853Y-99493228D01*
X181508504Y-99620246D01*
X181834042Y-99685000D01*
X182165958Y-99685000D01*
X182491496Y-99620246D01*
X182798147Y-99493228D01*
X183074125Y-99308825D01*
X183308825Y-99074125D01*
X183493228Y-98798147D01*
X183620246Y-98491496D01*
X183658722Y-98298061D01*
X195765000Y-98298061D01*
X195765000Y-98501939D01*
X195804774Y-98701898D01*
X195882795Y-98890256D01*
X195996063Y-99059774D01*
X196140226Y-99203937D01*
X196309744Y-99317205D01*
X196498102Y-99395226D01*
X196698061Y-99435000D01*
X196901939Y-99435000D01*
X197101898Y-99395226D01*
X197290256Y-99317205D01*
X197459774Y-99203937D01*
X197603937Y-99059774D01*
X197717205Y-98890256D01*
X197795226Y-98701898D01*
X197835000Y-98501939D01*
X197835000Y-98298061D01*
X207845000Y-98298061D01*
X207845000Y-98501939D01*
X207884774Y-98701898D01*
X207962795Y-98890256D01*
X208076063Y-99059774D01*
X208220226Y-99203937D01*
X208389744Y-99317205D01*
X208578102Y-99395226D01*
X208778061Y-99435000D01*
X208981939Y-99435000D01*
X209181898Y-99395226D01*
X209370256Y-99317205D01*
X209539774Y-99203937D01*
X209683937Y-99059774D01*
X209797205Y-98890256D01*
X209875226Y-98701898D01*
X209915000Y-98501939D01*
X209915000Y-98298061D01*
X220265000Y-98298061D01*
X220265000Y-98501939D01*
X220304774Y-98701898D01*
X220382795Y-98890256D01*
X220496063Y-99059774D01*
X220640226Y-99203937D01*
X220809744Y-99317205D01*
X220998102Y-99395226D01*
X221198061Y-99435000D01*
X221401939Y-99435000D01*
X221601898Y-99395226D01*
X221790256Y-99317205D01*
X221959774Y-99203937D01*
X222103937Y-99059774D01*
X222217205Y-98890256D01*
X222295226Y-98701898D01*
X222335000Y-98501939D01*
X222335000Y-98398061D01*
X231965000Y-98398061D01*
X231965000Y-98601939D01*
X232004774Y-98801898D01*
X232082795Y-98990256D01*
X232196063Y-99159774D01*
X232340226Y-99303937D01*
X232509744Y-99417205D01*
X232698102Y-99495226D01*
X232898061Y-99535000D01*
X233101939Y-99535000D01*
X233301898Y-99495226D01*
X233490256Y-99417205D01*
X233659774Y-99303937D01*
X233803937Y-99159774D01*
X233917205Y-98990256D01*
X233995226Y-98801898D01*
X234035000Y-98601939D01*
X234035000Y-98398061D01*
X233995226Y-98198102D01*
X233917205Y-98009744D01*
X233803937Y-97840226D01*
X233797753Y-97834042D01*
X242315000Y-97834042D01*
X242315000Y-98165958D01*
X242379754Y-98491496D01*
X242506772Y-98798147D01*
X242691175Y-99074125D01*
X242925875Y-99308825D01*
X243201853Y-99493228D01*
X243508504Y-99620246D01*
X243834042Y-99685000D01*
X244165958Y-99685000D01*
X244491496Y-99620246D01*
X244798147Y-99493228D01*
X245074125Y-99308825D01*
X245308825Y-99074125D01*
X245493228Y-98798147D01*
X245620246Y-98491496D01*
X245685000Y-98165958D01*
X245685000Y-97834042D01*
X245620246Y-97508504D01*
X245493228Y-97201853D01*
X245308825Y-96925875D01*
X245074125Y-96691175D01*
X244798147Y-96506772D01*
X244491496Y-96379754D01*
X244165958Y-96315000D01*
X243834042Y-96315000D01*
X243508504Y-96379754D01*
X243201853Y-96506772D01*
X242925875Y-96691175D01*
X242691175Y-96925875D01*
X242506772Y-97201853D01*
X242379754Y-97508504D01*
X242315000Y-97834042D01*
X233797753Y-97834042D01*
X233659774Y-97696063D01*
X233490256Y-97582795D01*
X233301898Y-97504774D01*
X233101939Y-97465000D01*
X232898061Y-97465000D01*
X232698102Y-97504774D01*
X232509744Y-97582795D01*
X232340226Y-97696063D01*
X232196063Y-97840226D01*
X232082795Y-98009744D01*
X232004774Y-98198102D01*
X231965000Y-98398061D01*
X222335000Y-98398061D01*
X222335000Y-98298061D01*
X222295226Y-98098102D01*
X222217205Y-97909744D01*
X222103937Y-97740226D01*
X221959774Y-97596063D01*
X221790256Y-97482795D01*
X221601898Y-97404774D01*
X221401939Y-97365000D01*
X221198061Y-97365000D01*
X220998102Y-97404774D01*
X220809744Y-97482795D01*
X220640226Y-97596063D01*
X220496063Y-97740226D01*
X220382795Y-97909744D01*
X220304774Y-98098102D01*
X220265000Y-98298061D01*
X209915000Y-98298061D01*
X209875226Y-98098102D01*
X209797205Y-97909744D01*
X209683937Y-97740226D01*
X209539774Y-97596063D01*
X209370256Y-97482795D01*
X209181898Y-97404774D01*
X208981939Y-97365000D01*
X208778061Y-97365000D01*
X208578102Y-97404774D01*
X208389744Y-97482795D01*
X208220226Y-97596063D01*
X208076063Y-97740226D01*
X207962795Y-97909744D01*
X207884774Y-98098102D01*
X207845000Y-98298061D01*
X197835000Y-98298061D01*
X197795226Y-98098102D01*
X197717205Y-97909744D01*
X197603937Y-97740226D01*
X197459774Y-97596063D01*
X197290256Y-97482795D01*
X197101898Y-97404774D01*
X196901939Y-97365000D01*
X196698061Y-97365000D01*
X196498102Y-97404774D01*
X196309744Y-97482795D01*
X196140226Y-97596063D01*
X195996063Y-97740226D01*
X195882795Y-97909744D01*
X195804774Y-98098102D01*
X195765000Y-98298061D01*
X183658722Y-98298061D01*
X183685000Y-98165958D01*
X183685000Y-97834042D01*
X183620246Y-97508504D01*
X183493228Y-97201853D01*
X183308825Y-96925875D01*
X183074125Y-96691175D01*
X182798147Y-96506772D01*
X182491496Y-96379754D01*
X182165958Y-96315000D01*
X181834042Y-96315000D01*
X181508504Y-96379754D01*
X181201853Y-96506772D01*
X180925875Y-96691175D01*
X180691175Y-96925875D01*
X180506772Y-97201853D01*
X180379754Y-97508504D01*
X180315000Y-97834042D01*
X176210000Y-97834042D01*
X176210000Y-95811942D01*
X189319346Y-95811942D01*
X189319346Y-96015820D01*
X189359120Y-96215779D01*
X189437141Y-96404137D01*
X189550409Y-96573655D01*
X189694572Y-96717818D01*
X189864090Y-96831086D01*
X190052448Y-96909107D01*
X190252407Y-96948881D01*
X190456285Y-96948881D01*
X190656244Y-96909107D01*
X190844602Y-96831086D01*
X191014120Y-96717818D01*
X191158283Y-96573655D01*
X191271551Y-96404137D01*
X191349572Y-96215779D01*
X191389346Y-96015820D01*
X191389346Y-95811942D01*
X191349572Y-95611983D01*
X191271551Y-95423625D01*
X191158283Y-95254107D01*
X191014120Y-95109944D01*
X190844602Y-94996676D01*
X190656244Y-94918655D01*
X190456285Y-94878881D01*
X190252407Y-94878881D01*
X190052448Y-94918655D01*
X189864090Y-94996676D01*
X189694572Y-95109944D01*
X189550409Y-95254107D01*
X189437141Y-95423625D01*
X189359120Y-95611983D01*
X189319346Y-95811942D01*
X176210000Y-95811942D01*
X176210000Y-92834042D01*
X180315000Y-92834042D01*
X180315000Y-93165958D01*
X180379754Y-93491496D01*
X180506772Y-93798147D01*
X180691175Y-94074125D01*
X180925875Y-94308825D01*
X181201853Y-94493228D01*
X181508504Y-94620246D01*
X181834042Y-94685000D01*
X182165958Y-94685000D01*
X182491496Y-94620246D01*
X182798147Y-94493228D01*
X183074125Y-94308825D01*
X183308825Y-94074125D01*
X183493228Y-93798147D01*
X183620246Y-93491496D01*
X183685000Y-93165958D01*
X183685000Y-92834042D01*
X242315000Y-92834042D01*
X242315000Y-93165958D01*
X242379754Y-93491496D01*
X242506772Y-93798147D01*
X242691175Y-94074125D01*
X242925875Y-94308825D01*
X243201853Y-94493228D01*
X243508504Y-94620246D01*
X243834042Y-94685000D01*
X244165958Y-94685000D01*
X244491496Y-94620246D01*
X244798147Y-94493228D01*
X245074125Y-94308825D01*
X245308825Y-94074125D01*
X245493228Y-93798147D01*
X245620246Y-93491496D01*
X245685000Y-93165958D01*
X245685000Y-92834042D01*
X245620246Y-92508504D01*
X245493228Y-92201853D01*
X245308825Y-91925875D01*
X245074125Y-91691175D01*
X244798147Y-91506772D01*
X244491496Y-91379754D01*
X244165958Y-91315000D01*
X243834042Y-91315000D01*
X243508504Y-91379754D01*
X243201853Y-91506772D01*
X242925875Y-91691175D01*
X242691175Y-91925875D01*
X242506772Y-92201853D01*
X242379754Y-92508504D01*
X242315000Y-92834042D01*
X183685000Y-92834042D01*
X183620246Y-92508504D01*
X183493228Y-92201853D01*
X183308825Y-91925875D01*
X183074125Y-91691175D01*
X182798147Y-91506772D01*
X182491496Y-91379754D01*
X182165958Y-91315000D01*
X181834042Y-91315000D01*
X181508504Y-91379754D01*
X181201853Y-91506772D01*
X180925875Y-91691175D01*
X180691175Y-91925875D01*
X180506772Y-92201853D01*
X180379754Y-92508504D01*
X180315000Y-92834042D01*
X176210000Y-92834042D01*
X176210000Y-90998061D01*
X232865000Y-90998061D01*
X232865000Y-91201939D01*
X232904774Y-91401898D01*
X232982795Y-91590256D01*
X233096063Y-91759774D01*
X233240226Y-91903937D01*
X233409744Y-92017205D01*
X233598102Y-92095226D01*
X233798061Y-92135000D01*
X234001939Y-92135000D01*
X234201898Y-92095226D01*
X234390256Y-92017205D01*
X234559774Y-91903937D01*
X234703937Y-91759774D01*
X234817205Y-91590256D01*
X234895226Y-91401898D01*
X234935000Y-91201939D01*
X234935000Y-90998061D01*
X234895226Y-90798102D01*
X234817205Y-90609744D01*
X234703937Y-90440226D01*
X234559774Y-90296063D01*
X234390256Y-90182795D01*
X234201898Y-90104774D01*
X234001939Y-90065000D01*
X233798061Y-90065000D01*
X233598102Y-90104774D01*
X233409744Y-90182795D01*
X233240226Y-90296063D01*
X233096063Y-90440226D01*
X232982795Y-90609744D01*
X232904774Y-90798102D01*
X232865000Y-90998061D01*
X176210000Y-90998061D01*
X176210000Y-84834042D01*
X180315000Y-84834042D01*
X180315000Y-85165958D01*
X180379754Y-85491496D01*
X180506772Y-85798147D01*
X180691175Y-86074125D01*
X180925875Y-86308825D01*
X181201853Y-86493228D01*
X181508504Y-86620246D01*
X181834042Y-86685000D01*
X182165958Y-86685000D01*
X182491496Y-86620246D01*
X182798147Y-86493228D01*
X183074125Y-86308825D01*
X183308825Y-86074125D01*
X183493228Y-85798147D01*
X183620246Y-85491496D01*
X183685000Y-85165958D01*
X183685000Y-84834042D01*
X183620246Y-84508504D01*
X183493228Y-84201853D01*
X183308825Y-83925875D01*
X183096579Y-83713629D01*
X189359792Y-83713629D01*
X189359792Y-83917507D01*
X189399566Y-84117466D01*
X189477587Y-84305824D01*
X189590855Y-84475342D01*
X189735018Y-84619505D01*
X189904536Y-84732773D01*
X190092894Y-84810794D01*
X190292853Y-84850568D01*
X190496731Y-84850568D01*
X190696690Y-84810794D01*
X190885048Y-84732773D01*
X191054566Y-84619505D01*
X191198729Y-84475342D01*
X191311997Y-84305824D01*
X191390018Y-84117466D01*
X191429792Y-83917507D01*
X191429792Y-83713629D01*
X191390018Y-83513670D01*
X191311997Y-83325312D01*
X191198729Y-83155794D01*
X191054566Y-83011631D01*
X190885048Y-82898363D01*
X190696690Y-82820342D01*
X190496731Y-82780568D01*
X190292853Y-82780568D01*
X190092894Y-82820342D01*
X189904536Y-82898363D01*
X189735018Y-83011631D01*
X189590855Y-83155794D01*
X189477587Y-83325312D01*
X189399566Y-83513670D01*
X189359792Y-83713629D01*
X183096579Y-83713629D01*
X183074125Y-83691175D01*
X182798147Y-83506772D01*
X182491496Y-83379754D01*
X182165958Y-83315000D01*
X181834042Y-83315000D01*
X181508504Y-83379754D01*
X181201853Y-83506772D01*
X180925875Y-83691175D01*
X180691175Y-83925875D01*
X180506772Y-84201853D01*
X180379754Y-84508504D01*
X180315000Y-84834042D01*
X176210000Y-84834042D01*
X176210000Y-79834042D01*
X180315000Y-79834042D01*
X180315000Y-80165958D01*
X180379754Y-80491496D01*
X180506772Y-80798147D01*
X180691175Y-81074125D01*
X180925875Y-81308825D01*
X181201853Y-81493228D01*
X181508504Y-81620246D01*
X181834042Y-81685000D01*
X182165958Y-81685000D01*
X182491496Y-81620246D01*
X182798147Y-81493228D01*
X183074125Y-81308825D01*
X183308825Y-81074125D01*
X183493228Y-80798147D01*
X183620246Y-80491496D01*
X183685000Y-80165958D01*
X183685000Y-79834042D01*
X183620246Y-79508504D01*
X183493228Y-79201853D01*
X183308825Y-78925875D01*
X183074125Y-78691175D01*
X182798147Y-78506772D01*
X182491496Y-78379754D01*
X182165958Y-78315000D01*
X181834042Y-78315000D01*
X181508504Y-78379754D01*
X181201853Y-78506772D01*
X180925875Y-78691175D01*
X180691175Y-78925875D01*
X180506772Y-79201853D01*
X180379754Y-79508504D01*
X180315000Y-79834042D01*
X176210000Y-79834042D01*
X176210000Y-70334042D01*
X180315000Y-70334042D01*
X180315000Y-70665958D01*
X180379754Y-70991496D01*
X180506772Y-71298147D01*
X180691175Y-71574125D01*
X180925875Y-71808825D01*
X181201853Y-71993228D01*
X181508504Y-72120246D01*
X181834042Y-72185000D01*
X182165958Y-72185000D01*
X182491496Y-72120246D01*
X182798147Y-71993228D01*
X183074125Y-71808825D01*
X183308825Y-71574125D01*
X183493228Y-71298147D01*
X183620246Y-70991496D01*
X183685000Y-70665958D01*
X183685000Y-70334042D01*
X183620246Y-70008504D01*
X183493228Y-69701853D01*
X183308825Y-69425875D01*
X183074125Y-69191175D01*
X182798147Y-69006772D01*
X182491496Y-68879754D01*
X182165958Y-68815000D01*
X181834042Y-68815000D01*
X181508504Y-68879754D01*
X181201853Y-69006772D01*
X180925875Y-69191175D01*
X180691175Y-69425875D01*
X180506772Y-69701853D01*
X180379754Y-70008504D01*
X180315000Y-70334042D01*
X176210000Y-70334042D01*
X176210000Y-66671066D01*
X181008539Y-66671066D01*
X181110339Y-66940579D01*
X181408477Y-67086463D01*
X181729346Y-67171380D01*
X182060617Y-67192066D01*
X182389557Y-67147728D01*
X182703527Y-67040069D01*
X182889661Y-66940579D01*
X182991461Y-66671066D01*
X182000000Y-65679605D01*
X181008539Y-66671066D01*
X176210000Y-66671066D01*
X176210000Y-65560617D01*
X180307934Y-65560617D01*
X180352272Y-65889557D01*
X180459931Y-66203527D01*
X180559421Y-66389661D01*
X180828934Y-66491461D01*
X181820395Y-65500000D01*
X182179605Y-65500000D01*
X183171066Y-66491461D01*
X183440579Y-66389661D01*
X183586463Y-66091523D01*
X183671380Y-65770654D01*
X183692066Y-65439383D01*
X183647728Y-65110443D01*
X183540069Y-64796473D01*
X183440579Y-64610339D01*
X183171066Y-64508539D01*
X182179605Y-65500000D01*
X181820395Y-65500000D01*
X180828934Y-64508539D01*
X180559421Y-64610339D01*
X180413537Y-64908477D01*
X180328620Y-65229346D01*
X180307934Y-65560617D01*
X176210000Y-65560617D01*
X176210000Y-64328934D01*
X181008539Y-64328934D01*
X182000000Y-65320395D01*
X182991461Y-64328934D01*
X182889661Y-64059421D01*
X182591523Y-63913537D01*
X182270654Y-63828620D01*
X181939383Y-63807934D01*
X181610443Y-63852272D01*
X181296473Y-63959931D01*
X181110339Y-64059421D01*
X181008539Y-64328934D01*
X176210000Y-64328934D01*
X176210000Y-58603301D01*
X176443915Y-59168022D01*
X176944812Y-59917667D01*
X177582333Y-60555188D01*
X178331978Y-61056085D01*
X179164938Y-61401108D01*
X180049205Y-61577000D01*
X180950795Y-61577000D01*
X181835062Y-61401108D01*
X182668022Y-61056085D01*
X183417667Y-60555188D01*
X184055188Y-59917667D01*
X184556085Y-59168022D01*
X184901108Y-58335062D01*
X185077000Y-57450795D01*
X185077000Y-56549205D01*
X184961415Y-55968120D01*
X190161000Y-55968120D01*
X190161000Y-56231880D01*
X190212457Y-56490572D01*
X190313393Y-56734254D01*
X190459931Y-56953563D01*
X190646437Y-57140069D01*
X190796388Y-57240263D01*
X190765000Y-57398061D01*
X190765000Y-57601939D01*
X190804774Y-57801898D01*
X190882795Y-57990256D01*
X190996063Y-58159774D01*
X191140226Y-58303937D01*
X191309744Y-58417205D01*
X191498102Y-58495226D01*
X191698061Y-58535000D01*
X191901939Y-58535000D01*
X192101898Y-58495226D01*
X192290256Y-58417205D01*
X192459774Y-58303937D01*
X192603937Y-58159774D01*
X192717205Y-57990256D01*
X192795226Y-57801898D01*
X192835000Y-57601939D01*
X192835000Y-57398061D01*
X192795226Y-57198102D01*
X192717205Y-57009744D01*
X192609868Y-56849102D01*
X192686607Y-56734254D01*
X192787543Y-56490572D01*
X192839000Y-56231880D01*
X192839000Y-55968120D01*
X192787543Y-55709428D01*
X192686607Y-55465746D01*
X192540069Y-55246437D01*
X192353563Y-55059931D01*
X192134254Y-54913393D01*
X191890572Y-54812457D01*
X191631880Y-54761000D01*
X191368120Y-54761000D01*
X191109428Y-54812457D01*
X190865746Y-54913393D01*
X190646437Y-55059931D01*
X190459931Y-55246437D01*
X190313393Y-55465746D01*
X190212457Y-55709428D01*
X190161000Y-55968120D01*
X184961415Y-55968120D01*
X184901108Y-55664938D01*
X184556085Y-54831978D01*
X184055188Y-54082333D01*
X183417667Y-53444812D01*
X182668022Y-52943915D01*
X181982590Y-52660000D01*
X189148324Y-52660000D01*
X189139701Y-52672905D01*
%TO.N,+3V3*%
G36*
X201515000Y-59226260D02*
G01*
X201572068Y-59513158D01*
X201684010Y-59783411D01*
X201846525Y-60026632D01*
X202053368Y-60233475D01*
X202235534Y-60355195D01*
X202118645Y-60424822D01*
X201902412Y-60619731D01*
X201728359Y-60853080D01*
X201603175Y-61115901D01*
X201558524Y-61263110D01*
X201679845Y-61493000D01*
X202873000Y-61493000D01*
X202873000Y-61473000D01*
X203127000Y-61473000D01*
X203127000Y-61493000D01*
X204320155Y-61493000D01*
X204441476Y-61263110D01*
X204396825Y-61115901D01*
X204271641Y-60853080D01*
X204097588Y-60619731D01*
X203881355Y-60424822D01*
X203764466Y-60355195D01*
X203946632Y-60233475D01*
X204153475Y-60026632D01*
X204315990Y-59783411D01*
X204427932Y-59513158D01*
X204485000Y-59226260D01*
X204485000Y-59127000D01*
X208185894Y-59127000D01*
X208232196Y-59136842D01*
X208241361Y-59137805D01*
X208435594Y-59156850D01*
X208435598Y-59156850D01*
X208467581Y-59160000D01*
X209876289Y-59160000D01*
X209796063Y-59240226D01*
X209682795Y-59409744D01*
X209604774Y-59598102D01*
X209565000Y-59798061D01*
X209565000Y-60001939D01*
X209604774Y-60201898D01*
X209682795Y-60390256D01*
X209796063Y-60559774D01*
X209940226Y-60703937D01*
X210109744Y-60817205D01*
X210298102Y-60895226D01*
X210498061Y-60935000D01*
X210701939Y-60935000D01*
X210901898Y-60895226D01*
X211090256Y-60817205D01*
X211259774Y-60703937D01*
X211403937Y-60559774D01*
X211517205Y-60390256D01*
X211595226Y-60201898D01*
X211635000Y-60001939D01*
X211635000Y-59798061D01*
X211595226Y-59598102D01*
X211517205Y-59409744D01*
X211403937Y-59240226D01*
X211323711Y-59160000D01*
X214873000Y-59160000D01*
X214873000Y-61054710D01*
X214773738Y-61153972D01*
X214671414Y-61307111D01*
X214600932Y-61477271D01*
X214565000Y-61657911D01*
X214565000Y-61842089D01*
X214600932Y-62022729D01*
X214671414Y-62192889D01*
X214773738Y-62346028D01*
X214873000Y-62445290D01*
X214873000Y-85873000D01*
X199127000Y-85873000D01*
X199127000Y-84807911D01*
X199765000Y-84807911D01*
X199765000Y-84992089D01*
X199800932Y-85172729D01*
X199871414Y-85342889D01*
X199973738Y-85496028D01*
X200103972Y-85626262D01*
X200257111Y-85728586D01*
X200427271Y-85799068D01*
X200607911Y-85835000D01*
X200792089Y-85835000D01*
X200972729Y-85799068D01*
X201142889Y-85728586D01*
X201296028Y-85626262D01*
X201426262Y-85496028D01*
X201528586Y-85342889D01*
X201599068Y-85172729D01*
X201635000Y-84992089D01*
X201635000Y-84807911D01*
X201599068Y-84627271D01*
X201595868Y-84619545D01*
X201641724Y-84550917D01*
X201712206Y-84380757D01*
X201748138Y-84200117D01*
X201748138Y-84015939D01*
X201712206Y-83835299D01*
X201641724Y-83665139D01*
X201539400Y-83512000D01*
X201409166Y-83381766D01*
X201256027Y-83279442D01*
X201085867Y-83208960D01*
X200905227Y-83173028D01*
X200721049Y-83173028D01*
X200540409Y-83208960D01*
X200370249Y-83279442D01*
X200217110Y-83381766D01*
X200086876Y-83512000D01*
X199984552Y-83665139D01*
X199914070Y-83835299D01*
X199878138Y-84015939D01*
X199878138Y-84200117D01*
X199914070Y-84380757D01*
X199917270Y-84388483D01*
X199871414Y-84457111D01*
X199800932Y-84627271D01*
X199765000Y-84807911D01*
X199127000Y-84807911D01*
X199127000Y-84283154D01*
X199172729Y-84274058D01*
X199342889Y-84203576D01*
X199496028Y-84101252D01*
X199626262Y-83971018D01*
X199728586Y-83817879D01*
X199799068Y-83647719D01*
X199835000Y-83467079D01*
X199835000Y-83282901D01*
X199799068Y-83102261D01*
X199728586Y-82932101D01*
X199626262Y-82778962D01*
X199496028Y-82648728D01*
X199342889Y-82546404D01*
X199172729Y-82475922D01*
X199127000Y-82466826D01*
X199127000Y-81407911D01*
X199365000Y-81407911D01*
X199365000Y-81592089D01*
X199400932Y-81772729D01*
X199471414Y-81942889D01*
X199573738Y-82096028D01*
X199703972Y-82226262D01*
X199857111Y-82328586D01*
X200027271Y-82399068D01*
X200207911Y-82435000D01*
X200392089Y-82435000D01*
X200528272Y-82407911D01*
X212565000Y-82407911D01*
X212565000Y-82592089D01*
X212600932Y-82772729D01*
X212671414Y-82942889D01*
X212773738Y-83096028D01*
X212903972Y-83226262D01*
X213057111Y-83328586D01*
X213227271Y-83399068D01*
X213407911Y-83435000D01*
X213592089Y-83435000D01*
X213772729Y-83399068D01*
X213942889Y-83328586D01*
X214096028Y-83226262D01*
X214226262Y-83096028D01*
X214328586Y-82942889D01*
X214399068Y-82772729D01*
X214435000Y-82592089D01*
X214435000Y-82407911D01*
X214399068Y-82227271D01*
X214328586Y-82057111D01*
X214226262Y-81903972D01*
X214096028Y-81773738D01*
X213942889Y-81671414D01*
X213772729Y-81600932D01*
X213592089Y-81565000D01*
X213407911Y-81565000D01*
X213227271Y-81600932D01*
X213057111Y-81671414D01*
X212903972Y-81773738D01*
X212773738Y-81903972D01*
X212671414Y-82057111D01*
X212600932Y-82227271D01*
X212565000Y-82407911D01*
X200528272Y-82407911D01*
X200572729Y-82399068D01*
X200742889Y-82328586D01*
X200896028Y-82226262D01*
X201026262Y-82096028D01*
X201128586Y-81942889D01*
X201199068Y-81772729D01*
X201235000Y-81592089D01*
X201235000Y-81407911D01*
X201199068Y-81227271D01*
X201128586Y-81057111D01*
X201026262Y-80903972D01*
X200896028Y-80773738D01*
X200742889Y-80671414D01*
X200572729Y-80600932D01*
X200392089Y-80565000D01*
X200207911Y-80565000D01*
X200027271Y-80600932D01*
X199857111Y-80671414D01*
X199703972Y-80773738D01*
X199573738Y-80903972D01*
X199471414Y-81057111D01*
X199400932Y-81227271D01*
X199365000Y-81407911D01*
X199127000Y-81407911D01*
X199127000Y-80257535D01*
X199227271Y-80299068D01*
X199407911Y-80335000D01*
X199592089Y-80335000D01*
X199772729Y-80299068D01*
X199942889Y-80228586D01*
X200096028Y-80126262D01*
X200226262Y-79996028D01*
X200235019Y-79982921D01*
X203365000Y-79982921D01*
X203365000Y-80167099D01*
X203400932Y-80347739D01*
X203471414Y-80517899D01*
X203573738Y-80671038D01*
X203703972Y-80801272D01*
X203857111Y-80903596D01*
X204027271Y-80974078D01*
X204207911Y-81010010D01*
X204387720Y-81010010D01*
X204503972Y-81126262D01*
X204657111Y-81228586D01*
X204827271Y-81299068D01*
X205007911Y-81335000D01*
X205192089Y-81335000D01*
X205372729Y-81299068D01*
X205542889Y-81228586D01*
X205696028Y-81126262D01*
X205826262Y-80996028D01*
X205928586Y-80842889D01*
X205999068Y-80672729D01*
X206035000Y-80492089D01*
X206035000Y-80307911D01*
X205999068Y-80127271D01*
X205928586Y-79957111D01*
X205826262Y-79803972D01*
X205696028Y-79673738D01*
X205542889Y-79571414D01*
X205372729Y-79500932D01*
X205192089Y-79465000D01*
X205012280Y-79465000D01*
X204896028Y-79348748D01*
X204742889Y-79246424D01*
X204572729Y-79175942D01*
X204392089Y-79140010D01*
X204207911Y-79140010D01*
X204027271Y-79175942D01*
X203857111Y-79246424D01*
X203703972Y-79348748D01*
X203573738Y-79478982D01*
X203471414Y-79632121D01*
X203400932Y-79802281D01*
X203365000Y-79982921D01*
X200235019Y-79982921D01*
X200328586Y-79842889D01*
X200399068Y-79672729D01*
X200435000Y-79492089D01*
X200435000Y-79307911D01*
X200399068Y-79127271D01*
X200328586Y-78957111D01*
X200226262Y-78803972D01*
X200096028Y-78673738D01*
X199942889Y-78571414D01*
X199772729Y-78500932D01*
X199592089Y-78465000D01*
X199407911Y-78465000D01*
X199306071Y-78485258D01*
X199442889Y-78428586D01*
X199596028Y-78326262D01*
X199726262Y-78196028D01*
X199828586Y-78042889D01*
X199899068Y-77872729D01*
X199935000Y-77692089D01*
X199935000Y-77507911D01*
X199915109Y-77407911D01*
X204665000Y-77407911D01*
X204665000Y-77592089D01*
X204700932Y-77772729D01*
X204771414Y-77942889D01*
X204873738Y-78096028D01*
X205003972Y-78226262D01*
X205157111Y-78328586D01*
X205327271Y-78399068D01*
X205507911Y-78435000D01*
X205692089Y-78435000D01*
X205872729Y-78399068D01*
X206042889Y-78328586D01*
X206196028Y-78226262D01*
X206326262Y-78096028D01*
X206428586Y-77942889D01*
X206499068Y-77772729D01*
X206535000Y-77592089D01*
X206535000Y-77407911D01*
X206499068Y-77227271D01*
X206428586Y-77057111D01*
X206326262Y-76903972D01*
X206196028Y-76773738D01*
X206042889Y-76671414D01*
X205872729Y-76600932D01*
X205692089Y-76565000D01*
X205507911Y-76565000D01*
X205327271Y-76600932D01*
X205157111Y-76671414D01*
X205003972Y-76773738D01*
X204873738Y-76903972D01*
X204771414Y-77057111D01*
X204700932Y-77227271D01*
X204665000Y-77407911D01*
X199915109Y-77407911D01*
X199899068Y-77327271D01*
X199828586Y-77157111D01*
X199726262Y-77003972D01*
X199596028Y-76873738D01*
X199442889Y-76771414D01*
X199272729Y-76700932D01*
X199127000Y-76671944D01*
X199127000Y-69383061D01*
X205630000Y-69383061D01*
X205630000Y-69586939D01*
X205669774Y-69786898D01*
X205747795Y-69975256D01*
X205861063Y-70144774D01*
X206005226Y-70288937D01*
X206174744Y-70402205D01*
X206363102Y-70480226D01*
X206563061Y-70520000D01*
X206766939Y-70520000D01*
X206966898Y-70480226D01*
X207155256Y-70402205D01*
X207324774Y-70288937D01*
X207468937Y-70144774D01*
X207582205Y-69975256D01*
X207660226Y-69786898D01*
X207700000Y-69586939D01*
X207700000Y-69383061D01*
X207660226Y-69183102D01*
X207582205Y-68994744D01*
X207468937Y-68825226D01*
X207324774Y-68681063D01*
X207155256Y-68567795D01*
X206966898Y-68489774D01*
X206766939Y-68450000D01*
X206563061Y-68450000D01*
X206363102Y-68489774D01*
X206174744Y-68567795D01*
X206005226Y-68681063D01*
X205861063Y-68825226D01*
X205747795Y-68994744D01*
X205669774Y-69183102D01*
X205630000Y-69383061D01*
X199127000Y-69383061D01*
X199127000Y-64013740D01*
X201515000Y-64013740D01*
X201515000Y-64306260D01*
X201572068Y-64593158D01*
X201684010Y-64863411D01*
X201846525Y-65106632D01*
X202053368Y-65313475D01*
X202296589Y-65475990D01*
X202566842Y-65587932D01*
X202853740Y-65645000D01*
X203146260Y-65645000D01*
X203433158Y-65587932D01*
X203703411Y-65475990D01*
X203946632Y-65313475D01*
X204153475Y-65106632D01*
X204315990Y-64863411D01*
X204427932Y-64593158D01*
X204485000Y-64306260D01*
X204485000Y-64223071D01*
X206412135Y-64223071D01*
X206412135Y-64426949D01*
X206451909Y-64626908D01*
X206529930Y-64815266D01*
X206643198Y-64984784D01*
X206787361Y-65128947D01*
X206956879Y-65242215D01*
X207145237Y-65320236D01*
X207345196Y-65360010D01*
X207549074Y-65360010D01*
X207749033Y-65320236D01*
X207937391Y-65242215D01*
X208106909Y-65128947D01*
X208251072Y-64984784D01*
X208364340Y-64815266D01*
X208442361Y-64626908D01*
X208482135Y-64426949D01*
X208482135Y-64223071D01*
X208442361Y-64023112D01*
X208364340Y-63834754D01*
X208251072Y-63665236D01*
X208106909Y-63521073D01*
X207937391Y-63407805D01*
X207749033Y-63329784D01*
X207549074Y-63290010D01*
X207345196Y-63290010D01*
X207145237Y-63329784D01*
X206956879Y-63407805D01*
X206787361Y-63521073D01*
X206643198Y-63665236D01*
X206529930Y-63834754D01*
X206451909Y-64023112D01*
X206412135Y-64223071D01*
X204485000Y-64223071D01*
X204485000Y-64013740D01*
X204427932Y-63726842D01*
X204315990Y-63456589D01*
X204153475Y-63213368D01*
X203946632Y-63006525D01*
X203764466Y-62884805D01*
X203881355Y-62815178D01*
X204097588Y-62620269D01*
X204271641Y-62386920D01*
X204396825Y-62124099D01*
X204426084Y-62027635D01*
X206346927Y-62027635D01*
X206346927Y-62211813D01*
X206382859Y-62392453D01*
X206453341Y-62562613D01*
X206555665Y-62715752D01*
X206685899Y-62845986D01*
X206839038Y-62948310D01*
X207009198Y-63018792D01*
X207189838Y-63054724D01*
X207374016Y-63054724D01*
X207554656Y-63018792D01*
X207724816Y-62948310D01*
X207877955Y-62845986D01*
X208008189Y-62715752D01*
X208110513Y-62562613D01*
X208180995Y-62392453D01*
X208197811Y-62307911D01*
X210065000Y-62307911D01*
X210065000Y-62492089D01*
X210100932Y-62672729D01*
X210171414Y-62842889D01*
X210273738Y-62996028D01*
X210403972Y-63126262D01*
X210557111Y-63228586D01*
X210727271Y-63299068D01*
X210907911Y-63335000D01*
X211092089Y-63335000D01*
X211272729Y-63299068D01*
X211442889Y-63228586D01*
X211596028Y-63126262D01*
X211726262Y-62996028D01*
X211828586Y-62842889D01*
X211899068Y-62672729D01*
X211935000Y-62492089D01*
X211935000Y-62307911D01*
X211899068Y-62127271D01*
X211828586Y-61957111D01*
X211726262Y-61803972D01*
X211596028Y-61673738D01*
X211442889Y-61571414D01*
X211272729Y-61500932D01*
X211092089Y-61465000D01*
X210907911Y-61465000D01*
X210727271Y-61500932D01*
X210557111Y-61571414D01*
X210403972Y-61673738D01*
X210273738Y-61803972D01*
X210171414Y-61957111D01*
X210100932Y-62127271D01*
X210065000Y-62307911D01*
X208197811Y-62307911D01*
X208216927Y-62211813D01*
X208216927Y-62027635D01*
X208180995Y-61846995D01*
X208110513Y-61676835D01*
X208008189Y-61523696D01*
X207877955Y-61393462D01*
X207724816Y-61291138D01*
X207554656Y-61220656D01*
X207374016Y-61184724D01*
X207189838Y-61184724D01*
X207009198Y-61220656D01*
X206839038Y-61291138D01*
X206685899Y-61393462D01*
X206555665Y-61523696D01*
X206453341Y-61676835D01*
X206382859Y-61846995D01*
X206346927Y-62027635D01*
X204426084Y-62027635D01*
X204441476Y-61976890D01*
X204320155Y-61747000D01*
X203127000Y-61747000D01*
X203127000Y-61767000D01*
X202873000Y-61767000D01*
X202873000Y-61747000D01*
X201679845Y-61747000D01*
X201558524Y-61976890D01*
X201603175Y-62124099D01*
X201728359Y-62386920D01*
X201902412Y-62620269D01*
X202118645Y-62815178D01*
X202235534Y-62884805D01*
X202053368Y-63006525D01*
X201846525Y-63213368D01*
X201684010Y-63456589D01*
X201572068Y-63726842D01*
X201515000Y-64013740D01*
X199127000Y-64013740D01*
X199127000Y-59127000D01*
X201515000Y-59127000D01*
X201515000Y-59226260D01*
G37*
X201515000Y-59226260D02*
X201572068Y-59513158D01*
X201684010Y-59783411D01*
X201846525Y-60026632D01*
X202053368Y-60233475D01*
X202235534Y-60355195D01*
X202118645Y-60424822D01*
X201902412Y-60619731D01*
X201728359Y-60853080D01*
X201603175Y-61115901D01*
X201558524Y-61263110D01*
X201679845Y-61493000D01*
X202873000Y-61493000D01*
X202873000Y-61473000D01*
X203127000Y-61473000D01*
X203127000Y-61493000D01*
X204320155Y-61493000D01*
X204441476Y-61263110D01*
X204396825Y-61115901D01*
X204271641Y-60853080D01*
X204097588Y-60619731D01*
X203881355Y-60424822D01*
X203764466Y-60355195D01*
X203946632Y-60233475D01*
X204153475Y-60026632D01*
X204315990Y-59783411D01*
X204427932Y-59513158D01*
X204485000Y-59226260D01*
X204485000Y-59127000D01*
X208185894Y-59127000D01*
X208232196Y-59136842D01*
X208241361Y-59137805D01*
X208435594Y-59156850D01*
X208435598Y-59156850D01*
X208467581Y-59160000D01*
X209876289Y-59160000D01*
X209796063Y-59240226D01*
X209682795Y-59409744D01*
X209604774Y-59598102D01*
X209565000Y-59798061D01*
X209565000Y-60001939D01*
X209604774Y-60201898D01*
X209682795Y-60390256D01*
X209796063Y-60559774D01*
X209940226Y-60703937D01*
X210109744Y-60817205D01*
X210298102Y-60895226D01*
X210498061Y-60935000D01*
X210701939Y-60935000D01*
X210901898Y-60895226D01*
X211090256Y-60817205D01*
X211259774Y-60703937D01*
X211403937Y-60559774D01*
X211517205Y-60390256D01*
X211595226Y-60201898D01*
X211635000Y-60001939D01*
X211635000Y-59798061D01*
X211595226Y-59598102D01*
X211517205Y-59409744D01*
X211403937Y-59240226D01*
X211323711Y-59160000D01*
X214873000Y-59160000D01*
X214873000Y-61054710D01*
X214773738Y-61153972D01*
X214671414Y-61307111D01*
X214600932Y-61477271D01*
X214565000Y-61657911D01*
X214565000Y-61842089D01*
X214600932Y-62022729D01*
X214671414Y-62192889D01*
X214773738Y-62346028D01*
X214873000Y-62445290D01*
X214873000Y-85873000D01*
X199127000Y-85873000D01*
X199127000Y-84807911D01*
X199765000Y-84807911D01*
X199765000Y-84992089D01*
X199800932Y-85172729D01*
X199871414Y-85342889D01*
X199973738Y-85496028D01*
X200103972Y-85626262D01*
X200257111Y-85728586D01*
X200427271Y-85799068D01*
X200607911Y-85835000D01*
X200792089Y-85835000D01*
X200972729Y-85799068D01*
X201142889Y-85728586D01*
X201296028Y-85626262D01*
X201426262Y-85496028D01*
X201528586Y-85342889D01*
X201599068Y-85172729D01*
X201635000Y-84992089D01*
X201635000Y-84807911D01*
X201599068Y-84627271D01*
X201595868Y-84619545D01*
X201641724Y-84550917D01*
X201712206Y-84380757D01*
X201748138Y-84200117D01*
X201748138Y-84015939D01*
X201712206Y-83835299D01*
X201641724Y-83665139D01*
X201539400Y-83512000D01*
X201409166Y-83381766D01*
X201256027Y-83279442D01*
X201085867Y-83208960D01*
X200905227Y-83173028D01*
X200721049Y-83173028D01*
X200540409Y-83208960D01*
X200370249Y-83279442D01*
X200217110Y-83381766D01*
X200086876Y-83512000D01*
X199984552Y-83665139D01*
X199914070Y-83835299D01*
X199878138Y-84015939D01*
X199878138Y-84200117D01*
X199914070Y-84380757D01*
X199917270Y-84388483D01*
X199871414Y-84457111D01*
X199800932Y-84627271D01*
X199765000Y-84807911D01*
X199127000Y-84807911D01*
X199127000Y-84283154D01*
X199172729Y-84274058D01*
X199342889Y-84203576D01*
X199496028Y-84101252D01*
X199626262Y-83971018D01*
X199728586Y-83817879D01*
X199799068Y-83647719D01*
X199835000Y-83467079D01*
X199835000Y-83282901D01*
X199799068Y-83102261D01*
X199728586Y-82932101D01*
X199626262Y-82778962D01*
X199496028Y-82648728D01*
X199342889Y-82546404D01*
X199172729Y-82475922D01*
X199127000Y-82466826D01*
X199127000Y-81407911D01*
X199365000Y-81407911D01*
X199365000Y-81592089D01*
X199400932Y-81772729D01*
X199471414Y-81942889D01*
X199573738Y-82096028D01*
X199703972Y-82226262D01*
X199857111Y-82328586D01*
X200027271Y-82399068D01*
X200207911Y-82435000D01*
X200392089Y-82435000D01*
X200528272Y-82407911D01*
X212565000Y-82407911D01*
X212565000Y-82592089D01*
X212600932Y-82772729D01*
X212671414Y-82942889D01*
X212773738Y-83096028D01*
X212903972Y-83226262D01*
X213057111Y-83328586D01*
X213227271Y-83399068D01*
X213407911Y-83435000D01*
X213592089Y-83435000D01*
X213772729Y-83399068D01*
X213942889Y-83328586D01*
X214096028Y-83226262D01*
X214226262Y-83096028D01*
X214328586Y-82942889D01*
X214399068Y-82772729D01*
X214435000Y-82592089D01*
X214435000Y-82407911D01*
X214399068Y-82227271D01*
X214328586Y-82057111D01*
X214226262Y-81903972D01*
X214096028Y-81773738D01*
X213942889Y-81671414D01*
X213772729Y-81600932D01*
X213592089Y-81565000D01*
X213407911Y-81565000D01*
X213227271Y-81600932D01*
X213057111Y-81671414D01*
X212903972Y-81773738D01*
X212773738Y-81903972D01*
X212671414Y-82057111D01*
X212600932Y-82227271D01*
X212565000Y-82407911D01*
X200528272Y-82407911D01*
X200572729Y-82399068D01*
X200742889Y-82328586D01*
X200896028Y-82226262D01*
X201026262Y-82096028D01*
X201128586Y-81942889D01*
X201199068Y-81772729D01*
X201235000Y-81592089D01*
X201235000Y-81407911D01*
X201199068Y-81227271D01*
X201128586Y-81057111D01*
X201026262Y-80903972D01*
X200896028Y-80773738D01*
X200742889Y-80671414D01*
X200572729Y-80600932D01*
X200392089Y-80565000D01*
X200207911Y-80565000D01*
X200027271Y-80600932D01*
X199857111Y-80671414D01*
X199703972Y-80773738D01*
X199573738Y-80903972D01*
X199471414Y-81057111D01*
X199400932Y-81227271D01*
X199365000Y-81407911D01*
X199127000Y-81407911D01*
X199127000Y-80257535D01*
X199227271Y-80299068D01*
X199407911Y-80335000D01*
X199592089Y-80335000D01*
X199772729Y-80299068D01*
X199942889Y-80228586D01*
X200096028Y-80126262D01*
X200226262Y-79996028D01*
X200235019Y-79982921D01*
X203365000Y-79982921D01*
X203365000Y-80167099D01*
X203400932Y-80347739D01*
X203471414Y-80517899D01*
X203573738Y-80671038D01*
X203703972Y-80801272D01*
X203857111Y-80903596D01*
X204027271Y-80974078D01*
X204207911Y-81010010D01*
X204387720Y-81010010D01*
X204503972Y-81126262D01*
X204657111Y-81228586D01*
X204827271Y-81299068D01*
X205007911Y-81335000D01*
X205192089Y-81335000D01*
X205372729Y-81299068D01*
X205542889Y-81228586D01*
X205696028Y-81126262D01*
X205826262Y-80996028D01*
X205928586Y-80842889D01*
X205999068Y-80672729D01*
X206035000Y-80492089D01*
X206035000Y-80307911D01*
X205999068Y-80127271D01*
X205928586Y-79957111D01*
X205826262Y-79803972D01*
X205696028Y-79673738D01*
X205542889Y-79571414D01*
X205372729Y-79500932D01*
X205192089Y-79465000D01*
X205012280Y-79465000D01*
X204896028Y-79348748D01*
X204742889Y-79246424D01*
X204572729Y-79175942D01*
X204392089Y-79140010D01*
X204207911Y-79140010D01*
X204027271Y-79175942D01*
X203857111Y-79246424D01*
X203703972Y-79348748D01*
X203573738Y-79478982D01*
X203471414Y-79632121D01*
X203400932Y-79802281D01*
X203365000Y-79982921D01*
X200235019Y-79982921D01*
X200328586Y-79842889D01*
X200399068Y-79672729D01*
X200435000Y-79492089D01*
X200435000Y-79307911D01*
X200399068Y-79127271D01*
X200328586Y-78957111D01*
X200226262Y-78803972D01*
X200096028Y-78673738D01*
X199942889Y-78571414D01*
X199772729Y-78500932D01*
X199592089Y-78465000D01*
X199407911Y-78465000D01*
X199306071Y-78485258D01*
X199442889Y-78428586D01*
X199596028Y-78326262D01*
X199726262Y-78196028D01*
X199828586Y-78042889D01*
X199899068Y-77872729D01*
X199935000Y-77692089D01*
X199935000Y-77507911D01*
X199915109Y-77407911D01*
X204665000Y-77407911D01*
X204665000Y-77592089D01*
X204700932Y-77772729D01*
X204771414Y-77942889D01*
X204873738Y-78096028D01*
X205003972Y-78226262D01*
X205157111Y-78328586D01*
X205327271Y-78399068D01*
X205507911Y-78435000D01*
X205692089Y-78435000D01*
X205872729Y-78399068D01*
X206042889Y-78328586D01*
X206196028Y-78226262D01*
X206326262Y-78096028D01*
X206428586Y-77942889D01*
X206499068Y-77772729D01*
X206535000Y-77592089D01*
X206535000Y-77407911D01*
X206499068Y-77227271D01*
X206428586Y-77057111D01*
X206326262Y-76903972D01*
X206196028Y-76773738D01*
X206042889Y-76671414D01*
X205872729Y-76600932D01*
X205692089Y-76565000D01*
X205507911Y-76565000D01*
X205327271Y-76600932D01*
X205157111Y-76671414D01*
X205003972Y-76773738D01*
X204873738Y-76903972D01*
X204771414Y-77057111D01*
X204700932Y-77227271D01*
X204665000Y-77407911D01*
X199915109Y-77407911D01*
X199899068Y-77327271D01*
X199828586Y-77157111D01*
X199726262Y-77003972D01*
X199596028Y-76873738D01*
X199442889Y-76771414D01*
X199272729Y-76700932D01*
X199127000Y-76671944D01*
X199127000Y-69383061D01*
X205630000Y-69383061D01*
X205630000Y-69586939D01*
X205669774Y-69786898D01*
X205747795Y-69975256D01*
X205861063Y-70144774D01*
X206005226Y-70288937D01*
X206174744Y-70402205D01*
X206363102Y-70480226D01*
X206563061Y-70520000D01*
X206766939Y-70520000D01*
X206966898Y-70480226D01*
X207155256Y-70402205D01*
X207324774Y-70288937D01*
X207468937Y-70144774D01*
X207582205Y-69975256D01*
X207660226Y-69786898D01*
X207700000Y-69586939D01*
X207700000Y-69383061D01*
X207660226Y-69183102D01*
X207582205Y-68994744D01*
X207468937Y-68825226D01*
X207324774Y-68681063D01*
X207155256Y-68567795D01*
X206966898Y-68489774D01*
X206766939Y-68450000D01*
X206563061Y-68450000D01*
X206363102Y-68489774D01*
X206174744Y-68567795D01*
X206005226Y-68681063D01*
X205861063Y-68825226D01*
X205747795Y-68994744D01*
X205669774Y-69183102D01*
X205630000Y-69383061D01*
X199127000Y-69383061D01*
X199127000Y-64013740D01*
X201515000Y-64013740D01*
X201515000Y-64306260D01*
X201572068Y-64593158D01*
X201684010Y-64863411D01*
X201846525Y-65106632D01*
X202053368Y-65313475D01*
X202296589Y-65475990D01*
X202566842Y-65587932D01*
X202853740Y-65645000D01*
X203146260Y-65645000D01*
X203433158Y-65587932D01*
X203703411Y-65475990D01*
X203946632Y-65313475D01*
X204153475Y-65106632D01*
X204315990Y-64863411D01*
X204427932Y-64593158D01*
X204485000Y-64306260D01*
X204485000Y-64223071D01*
X206412135Y-64223071D01*
X206412135Y-64426949D01*
X206451909Y-64626908D01*
X206529930Y-64815266D01*
X206643198Y-64984784D01*
X206787361Y-65128947D01*
X206956879Y-65242215D01*
X207145237Y-65320236D01*
X207345196Y-65360010D01*
X207549074Y-65360010D01*
X207749033Y-65320236D01*
X207937391Y-65242215D01*
X208106909Y-65128947D01*
X208251072Y-64984784D01*
X208364340Y-64815266D01*
X208442361Y-64626908D01*
X208482135Y-64426949D01*
X208482135Y-64223071D01*
X208442361Y-64023112D01*
X208364340Y-63834754D01*
X208251072Y-63665236D01*
X208106909Y-63521073D01*
X207937391Y-63407805D01*
X207749033Y-63329784D01*
X207549074Y-63290010D01*
X207345196Y-63290010D01*
X207145237Y-63329784D01*
X206956879Y-63407805D01*
X206787361Y-63521073D01*
X206643198Y-63665236D01*
X206529930Y-63834754D01*
X206451909Y-64023112D01*
X206412135Y-64223071D01*
X204485000Y-64223071D01*
X204485000Y-64013740D01*
X204427932Y-63726842D01*
X204315990Y-63456589D01*
X204153475Y-63213368D01*
X203946632Y-63006525D01*
X203764466Y-62884805D01*
X203881355Y-62815178D01*
X204097588Y-62620269D01*
X204271641Y-62386920D01*
X204396825Y-62124099D01*
X204426084Y-62027635D01*
X206346927Y-62027635D01*
X206346927Y-62211813D01*
X206382859Y-62392453D01*
X206453341Y-62562613D01*
X206555665Y-62715752D01*
X206685899Y-62845986D01*
X206839038Y-62948310D01*
X207009198Y-63018792D01*
X207189838Y-63054724D01*
X207374016Y-63054724D01*
X207554656Y-63018792D01*
X207724816Y-62948310D01*
X207877955Y-62845986D01*
X208008189Y-62715752D01*
X208110513Y-62562613D01*
X208180995Y-62392453D01*
X208197811Y-62307911D01*
X210065000Y-62307911D01*
X210065000Y-62492089D01*
X210100932Y-62672729D01*
X210171414Y-62842889D01*
X210273738Y-62996028D01*
X210403972Y-63126262D01*
X210557111Y-63228586D01*
X210727271Y-63299068D01*
X210907911Y-63335000D01*
X211092089Y-63335000D01*
X211272729Y-63299068D01*
X211442889Y-63228586D01*
X211596028Y-63126262D01*
X211726262Y-62996028D01*
X211828586Y-62842889D01*
X211899068Y-62672729D01*
X211935000Y-62492089D01*
X211935000Y-62307911D01*
X211899068Y-62127271D01*
X211828586Y-61957111D01*
X211726262Y-61803972D01*
X211596028Y-61673738D01*
X211442889Y-61571414D01*
X211272729Y-61500932D01*
X211092089Y-61465000D01*
X210907911Y-61465000D01*
X210727271Y-61500932D01*
X210557111Y-61571414D01*
X210403972Y-61673738D01*
X210273738Y-61803972D01*
X210171414Y-61957111D01*
X210100932Y-62127271D01*
X210065000Y-62307911D01*
X208197811Y-62307911D01*
X208216927Y-62211813D01*
X208216927Y-62027635D01*
X208180995Y-61846995D01*
X208110513Y-61676835D01*
X208008189Y-61523696D01*
X207877955Y-61393462D01*
X207724816Y-61291138D01*
X207554656Y-61220656D01*
X207374016Y-61184724D01*
X207189838Y-61184724D01*
X207009198Y-61220656D01*
X206839038Y-61291138D01*
X206685899Y-61393462D01*
X206555665Y-61523696D01*
X206453341Y-61676835D01*
X206382859Y-61846995D01*
X206346927Y-62027635D01*
X204426084Y-62027635D01*
X204441476Y-61976890D01*
X204320155Y-61747000D01*
X203127000Y-61747000D01*
X203127000Y-61767000D01*
X202873000Y-61767000D01*
X202873000Y-61747000D01*
X201679845Y-61747000D01*
X201558524Y-61976890D01*
X201603175Y-62124099D01*
X201728359Y-62386920D01*
X201902412Y-62620269D01*
X202118645Y-62815178D01*
X202235534Y-62884805D01*
X202053368Y-63006525D01*
X201846525Y-63213368D01*
X201684010Y-63456589D01*
X201572068Y-63726842D01*
X201515000Y-64013740D01*
X199127000Y-64013740D01*
X199127000Y-59127000D01*
X201515000Y-59127000D01*
X201515000Y-59226260D01*
%TD*%
M02*
