%TF.GenerationSoftware,KiCad,Pcbnew,5.1.5+dfsg1-2build2*%
%TF.CreationDate,2020-08-24T22:09:22-06:00*%
%TF.ProjectId,twinkle-led-controller,7477696e-6b6c-4652-9d6c-65642d636f6e,rev?*%
%TF.SameCoordinates,Original*%
%TF.FileFunction,Soldermask,Top*%
%TF.FilePolarity,Negative*%
%FSLAX46Y46*%
G04 Gerber Fmt 4.6, Leading zero omitted, Abs format (unit mm)*
G04 Created by KiCad (PCBNEW 5.1.5+dfsg1-2build2) date 2020-08-24 22:09:22*
%MOMM*%
%LPD*%
G04 APERTURE LIST*
%ADD10R,3.200000X3.200000*%
%ADD11R,0.354000X1.000000*%
%ADD12R,1.000000X0.354000*%
%ADD13C,0.100000*%
%ADD14R,2.400000X2.600000*%
%ADD15R,0.750000X1.160000*%
%ADD16R,1.160000X0.750000*%
%ADD17R,2.100000X1.000000*%
%ADD18R,1.000000X2.100000*%
%ADD19R,5.100000X5.100000*%
%ADD20R,1.600000X2.100000*%
%ADD21R,3.900000X2.100000*%
%ADD22R,1.000000X0.900000*%
%ADD23C,1.624000*%
%ADD24O,1.800000X1.800000*%
%ADD25R,1.800000X1.800000*%
%ADD26R,1.600000X1.650000*%
%ADD27C,1.900000*%
%ADD28C,1.508000*%
%ADD29R,0.500000X1.450000*%
%ADD30C,4.600000*%
G04 APERTURE END LIST*
D10*
%TO.C,U2*%
X204800000Y-84600000D03*
D11*
X203300000Y-82010000D03*
X203800000Y-82010000D03*
X204300000Y-82010000D03*
X204800000Y-82010000D03*
X205300000Y-82010000D03*
X205800000Y-82010000D03*
X206300000Y-82010000D03*
D12*
X207390000Y-83100000D03*
X207390000Y-83600000D03*
X207390000Y-84100000D03*
X207390000Y-84600000D03*
X207390000Y-85100000D03*
X207390000Y-85600000D03*
X207390000Y-86100000D03*
D11*
X206300000Y-87190000D03*
X205800000Y-87190000D03*
X205300000Y-87190000D03*
X204800000Y-87190000D03*
X204300000Y-87190000D03*
X203800000Y-87190000D03*
X203300000Y-87190000D03*
D12*
X202210000Y-86100000D03*
X202210000Y-85600000D03*
X202210000Y-85100000D03*
X202210000Y-84600000D03*
X202210000Y-84100000D03*
X202210000Y-83600000D03*
X202210000Y-83100000D03*
%TD*%
D13*
%TO.C,R15*%
G36*
X201674408Y-87930831D02*
G01*
X201691153Y-87933315D01*
X201707574Y-87937428D01*
X201723513Y-87943131D01*
X201738816Y-87950369D01*
X201753336Y-87959071D01*
X201766933Y-87969156D01*
X201779476Y-87980524D01*
X201790844Y-87993067D01*
X201800929Y-88006664D01*
X201809631Y-88021184D01*
X201816869Y-88036487D01*
X201822572Y-88052426D01*
X201826685Y-88068847D01*
X201829169Y-88085592D01*
X201830000Y-88102500D01*
X201830000Y-88497500D01*
X201829169Y-88514408D01*
X201826685Y-88531153D01*
X201822572Y-88547574D01*
X201816869Y-88563513D01*
X201809631Y-88578816D01*
X201800929Y-88593336D01*
X201790844Y-88606933D01*
X201779476Y-88619476D01*
X201766933Y-88630844D01*
X201753336Y-88640929D01*
X201738816Y-88649631D01*
X201723513Y-88656869D01*
X201707574Y-88662572D01*
X201691153Y-88666685D01*
X201674408Y-88669169D01*
X201657500Y-88670000D01*
X201312500Y-88670000D01*
X201295592Y-88669169D01*
X201278847Y-88666685D01*
X201262426Y-88662572D01*
X201246487Y-88656869D01*
X201231184Y-88649631D01*
X201216664Y-88640929D01*
X201203067Y-88630844D01*
X201190524Y-88619476D01*
X201179156Y-88606933D01*
X201169071Y-88593336D01*
X201160369Y-88578816D01*
X201153131Y-88563513D01*
X201147428Y-88547574D01*
X201143315Y-88531153D01*
X201140831Y-88514408D01*
X201140000Y-88497500D01*
X201140000Y-88102500D01*
X201140831Y-88085592D01*
X201143315Y-88068847D01*
X201147428Y-88052426D01*
X201153131Y-88036487D01*
X201160369Y-88021184D01*
X201169071Y-88006664D01*
X201179156Y-87993067D01*
X201190524Y-87980524D01*
X201203067Y-87969156D01*
X201216664Y-87959071D01*
X201231184Y-87950369D01*
X201246487Y-87943131D01*
X201262426Y-87937428D01*
X201278847Y-87933315D01*
X201295592Y-87930831D01*
X201312500Y-87930000D01*
X201657500Y-87930000D01*
X201674408Y-87930831D01*
G37*
G36*
X200704408Y-87930831D02*
G01*
X200721153Y-87933315D01*
X200737574Y-87937428D01*
X200753513Y-87943131D01*
X200768816Y-87950369D01*
X200783336Y-87959071D01*
X200796933Y-87969156D01*
X200809476Y-87980524D01*
X200820844Y-87993067D01*
X200830929Y-88006664D01*
X200839631Y-88021184D01*
X200846869Y-88036487D01*
X200852572Y-88052426D01*
X200856685Y-88068847D01*
X200859169Y-88085592D01*
X200860000Y-88102500D01*
X200860000Y-88497500D01*
X200859169Y-88514408D01*
X200856685Y-88531153D01*
X200852572Y-88547574D01*
X200846869Y-88563513D01*
X200839631Y-88578816D01*
X200830929Y-88593336D01*
X200820844Y-88606933D01*
X200809476Y-88619476D01*
X200796933Y-88630844D01*
X200783336Y-88640929D01*
X200768816Y-88649631D01*
X200753513Y-88656869D01*
X200737574Y-88662572D01*
X200721153Y-88666685D01*
X200704408Y-88669169D01*
X200687500Y-88670000D01*
X200342500Y-88670000D01*
X200325592Y-88669169D01*
X200308847Y-88666685D01*
X200292426Y-88662572D01*
X200276487Y-88656869D01*
X200261184Y-88649631D01*
X200246664Y-88640929D01*
X200233067Y-88630844D01*
X200220524Y-88619476D01*
X200209156Y-88606933D01*
X200199071Y-88593336D01*
X200190369Y-88578816D01*
X200183131Y-88563513D01*
X200177428Y-88547574D01*
X200173315Y-88531153D01*
X200170831Y-88514408D01*
X200170000Y-88497500D01*
X200170000Y-88102500D01*
X200170831Y-88085592D01*
X200173315Y-88068847D01*
X200177428Y-88052426D01*
X200183131Y-88036487D01*
X200190369Y-88021184D01*
X200199071Y-88006664D01*
X200209156Y-87993067D01*
X200220524Y-87980524D01*
X200233067Y-87969156D01*
X200246664Y-87959071D01*
X200261184Y-87950369D01*
X200276487Y-87943131D01*
X200292426Y-87937428D01*
X200308847Y-87933315D01*
X200325592Y-87930831D01*
X200342500Y-87930000D01*
X200687500Y-87930000D01*
X200704408Y-87930831D01*
G37*
%TD*%
D14*
%TO.C,D1*%
X188200000Y-63450000D03*
X188200000Y-59150000D03*
%TD*%
D13*
%TO.C,R14*%
G36*
X223314408Y-85140831D02*
G01*
X223331153Y-85143315D01*
X223347574Y-85147428D01*
X223363513Y-85153131D01*
X223378816Y-85160369D01*
X223393336Y-85169071D01*
X223406933Y-85179156D01*
X223419476Y-85190524D01*
X223430844Y-85203067D01*
X223440929Y-85216664D01*
X223449631Y-85231184D01*
X223456869Y-85246487D01*
X223462572Y-85262426D01*
X223466685Y-85278847D01*
X223469169Y-85295592D01*
X223470000Y-85312500D01*
X223470000Y-85657500D01*
X223469169Y-85674408D01*
X223466685Y-85691153D01*
X223462572Y-85707574D01*
X223456869Y-85723513D01*
X223449631Y-85738816D01*
X223440929Y-85753336D01*
X223430844Y-85766933D01*
X223419476Y-85779476D01*
X223406933Y-85790844D01*
X223393336Y-85800929D01*
X223378816Y-85809631D01*
X223363513Y-85816869D01*
X223347574Y-85822572D01*
X223331153Y-85826685D01*
X223314408Y-85829169D01*
X223297500Y-85830000D01*
X222902500Y-85830000D01*
X222885592Y-85829169D01*
X222868847Y-85826685D01*
X222852426Y-85822572D01*
X222836487Y-85816869D01*
X222821184Y-85809631D01*
X222806664Y-85800929D01*
X222793067Y-85790844D01*
X222780524Y-85779476D01*
X222769156Y-85766933D01*
X222759071Y-85753336D01*
X222750369Y-85738816D01*
X222743131Y-85723513D01*
X222737428Y-85707574D01*
X222733315Y-85691153D01*
X222730831Y-85674408D01*
X222730000Y-85657500D01*
X222730000Y-85312500D01*
X222730831Y-85295592D01*
X222733315Y-85278847D01*
X222737428Y-85262426D01*
X222743131Y-85246487D01*
X222750369Y-85231184D01*
X222759071Y-85216664D01*
X222769156Y-85203067D01*
X222780524Y-85190524D01*
X222793067Y-85179156D01*
X222806664Y-85169071D01*
X222821184Y-85160369D01*
X222836487Y-85153131D01*
X222852426Y-85147428D01*
X222868847Y-85143315D01*
X222885592Y-85140831D01*
X222902500Y-85140000D01*
X223297500Y-85140000D01*
X223314408Y-85140831D01*
G37*
G36*
X223314408Y-84170831D02*
G01*
X223331153Y-84173315D01*
X223347574Y-84177428D01*
X223363513Y-84183131D01*
X223378816Y-84190369D01*
X223393336Y-84199071D01*
X223406933Y-84209156D01*
X223419476Y-84220524D01*
X223430844Y-84233067D01*
X223440929Y-84246664D01*
X223449631Y-84261184D01*
X223456869Y-84276487D01*
X223462572Y-84292426D01*
X223466685Y-84308847D01*
X223469169Y-84325592D01*
X223470000Y-84342500D01*
X223470000Y-84687500D01*
X223469169Y-84704408D01*
X223466685Y-84721153D01*
X223462572Y-84737574D01*
X223456869Y-84753513D01*
X223449631Y-84768816D01*
X223440929Y-84783336D01*
X223430844Y-84796933D01*
X223419476Y-84809476D01*
X223406933Y-84820844D01*
X223393336Y-84830929D01*
X223378816Y-84839631D01*
X223363513Y-84846869D01*
X223347574Y-84852572D01*
X223331153Y-84856685D01*
X223314408Y-84859169D01*
X223297500Y-84860000D01*
X222902500Y-84860000D01*
X222885592Y-84859169D01*
X222868847Y-84856685D01*
X222852426Y-84852572D01*
X222836487Y-84846869D01*
X222821184Y-84839631D01*
X222806664Y-84830929D01*
X222793067Y-84820844D01*
X222780524Y-84809476D01*
X222769156Y-84796933D01*
X222759071Y-84783336D01*
X222750369Y-84768816D01*
X222743131Y-84753513D01*
X222737428Y-84737574D01*
X222733315Y-84721153D01*
X222730831Y-84704408D01*
X222730000Y-84687500D01*
X222730000Y-84342500D01*
X222730831Y-84325592D01*
X222733315Y-84308847D01*
X222737428Y-84292426D01*
X222743131Y-84276487D01*
X222750369Y-84261184D01*
X222759071Y-84246664D01*
X222769156Y-84233067D01*
X222780524Y-84220524D01*
X222793067Y-84209156D01*
X222806664Y-84199071D01*
X222821184Y-84190369D01*
X222836487Y-84183131D01*
X222852426Y-84177428D01*
X222868847Y-84173315D01*
X222885592Y-84170831D01*
X222902500Y-84170000D01*
X223297500Y-84170000D01*
X223314408Y-84170831D01*
G37*
%TD*%
D15*
%TO.C,U13*%
X188500000Y-69400000D03*
X187550000Y-69400000D03*
X189450000Y-69400000D03*
X189450000Y-71600000D03*
X188500000Y-71600000D03*
X187550000Y-71600000D03*
%TD*%
%TO.C,U12*%
X188400000Y-82400000D03*
X187450000Y-82400000D03*
X189350000Y-82400000D03*
X189350000Y-84600000D03*
X188400000Y-84600000D03*
X187450000Y-84600000D03*
%TD*%
%TO.C,U11*%
X188500000Y-94400000D03*
X187550000Y-94400000D03*
X189450000Y-94400000D03*
X189450000Y-96600000D03*
X188500000Y-96600000D03*
X187550000Y-96600000D03*
%TD*%
D16*
%TO.C,U10*%
X194900000Y-100500000D03*
X194900000Y-101450000D03*
X194900000Y-99550000D03*
X197100000Y-99550000D03*
X197100000Y-100500000D03*
X197100000Y-101450000D03*
%TD*%
%TO.C,U9*%
X206900000Y-100500000D03*
X206900000Y-101450000D03*
X206900000Y-99550000D03*
X209100000Y-99550000D03*
X209100000Y-100500000D03*
X209100000Y-101450000D03*
%TD*%
%TO.C,U8*%
X219760000Y-100500000D03*
X219760000Y-101450000D03*
X219760000Y-99550000D03*
X221960000Y-99550000D03*
X221960000Y-100500000D03*
X221960000Y-101450000D03*
%TD*%
%TO.C,U7*%
X231400000Y-100500000D03*
X231400000Y-101450000D03*
X231400000Y-99550000D03*
X233600000Y-99550000D03*
X233600000Y-100500000D03*
X233600000Y-101450000D03*
%TD*%
D15*
%TO.C,U6*%
X237500000Y-93600000D03*
X238450000Y-93600000D03*
X236550000Y-93600000D03*
X236550000Y-91400000D03*
X237500000Y-91400000D03*
X238450000Y-91400000D03*
%TD*%
%TO.C,U5*%
X237500000Y-80600000D03*
X238450000Y-80600000D03*
X236550000Y-80600000D03*
X236550000Y-78400000D03*
X237500000Y-78400000D03*
X238450000Y-78400000D03*
%TD*%
%TO.C,U4*%
X237500000Y-64100000D03*
X238450000Y-64100000D03*
X236550000Y-64100000D03*
X236550000Y-61900000D03*
X237500000Y-61900000D03*
X238450000Y-61900000D03*
%TD*%
D17*
%TO.C,U3*%
X230500000Y-59745000D03*
X230500000Y-61015000D03*
X230500000Y-62285000D03*
X230500000Y-63555000D03*
X230500000Y-64825000D03*
X230500000Y-66095000D03*
X230500000Y-67365000D03*
X230500000Y-68635000D03*
X230500000Y-69905000D03*
X230500000Y-71175000D03*
X230500000Y-72445000D03*
X230500000Y-73715000D03*
X230500000Y-74985000D03*
X230500000Y-76255000D03*
D18*
X227715000Y-77255000D03*
X226445000Y-77255000D03*
X225175000Y-77255000D03*
X223905000Y-77255000D03*
X222635000Y-77255000D03*
X221365000Y-77255000D03*
X220095000Y-77255000D03*
X218825000Y-77255000D03*
X217555000Y-77255000D03*
X216285000Y-77255000D03*
D17*
X213500000Y-76255000D03*
X213500000Y-74985000D03*
X213500000Y-73715000D03*
X213500000Y-72445000D03*
X213500000Y-71175000D03*
X213500000Y-69905000D03*
X213500000Y-68635000D03*
X213500000Y-67365000D03*
X213500000Y-66095000D03*
X213500000Y-64825000D03*
X213500000Y-63555000D03*
X213500000Y-62285000D03*
X213500000Y-61015000D03*
X213500000Y-59745000D03*
D19*
X221000000Y-67245000D03*
%TD*%
D20*
%TO.C,U1*%
X206800000Y-67850000D03*
X202200000Y-67850000D03*
X204500000Y-67850000D03*
D21*
X204500000Y-74150000D03*
%TD*%
D20*
%TO.C,SW1*%
X193650000Y-70800000D03*
X193650000Y-63800000D03*
X198150000Y-70800000D03*
X198150000Y-63800000D03*
%TD*%
D13*
%TO.C,R13*%
G36*
X190831465Y-65576300D02*
G01*
X190857674Y-65580188D01*
X190883377Y-65586626D01*
X190908325Y-65595553D01*
X190932277Y-65606881D01*
X190955004Y-65620503D01*
X190976286Y-65636287D01*
X190995919Y-65654081D01*
X191013713Y-65673714D01*
X191029497Y-65694996D01*
X191043119Y-65717723D01*
X191054447Y-65741675D01*
X191063374Y-65766623D01*
X191069812Y-65792326D01*
X191073700Y-65818535D01*
X191075000Y-65845000D01*
X191075000Y-67155000D01*
X191073700Y-67181465D01*
X191069812Y-67207674D01*
X191063374Y-67233377D01*
X191054447Y-67258325D01*
X191043119Y-67282277D01*
X191029497Y-67305004D01*
X191013713Y-67326286D01*
X190995919Y-67345919D01*
X190976286Y-67363713D01*
X190955004Y-67379497D01*
X190932277Y-67393119D01*
X190908325Y-67404447D01*
X190883377Y-67413374D01*
X190857674Y-67419812D01*
X190831465Y-67423700D01*
X190805000Y-67425000D01*
X189995000Y-67425000D01*
X189968535Y-67423700D01*
X189942326Y-67419812D01*
X189916623Y-67413374D01*
X189891675Y-67404447D01*
X189867723Y-67393119D01*
X189844996Y-67379497D01*
X189823714Y-67363713D01*
X189804081Y-67345919D01*
X189786287Y-67326286D01*
X189770503Y-67305004D01*
X189756881Y-67282277D01*
X189745553Y-67258325D01*
X189736626Y-67233377D01*
X189730188Y-67207674D01*
X189726300Y-67181465D01*
X189725000Y-67155000D01*
X189725000Y-65845000D01*
X189726300Y-65818535D01*
X189730188Y-65792326D01*
X189736626Y-65766623D01*
X189745553Y-65741675D01*
X189756881Y-65717723D01*
X189770503Y-65694996D01*
X189786287Y-65673714D01*
X189804081Y-65654081D01*
X189823714Y-65636287D01*
X189844996Y-65620503D01*
X189867723Y-65606881D01*
X189891675Y-65595553D01*
X189916623Y-65586626D01*
X189942326Y-65580188D01*
X189968535Y-65576300D01*
X189995000Y-65575000D01*
X190805000Y-65575000D01*
X190831465Y-65576300D01*
G37*
G36*
X188031465Y-65576300D02*
G01*
X188057674Y-65580188D01*
X188083377Y-65586626D01*
X188108325Y-65595553D01*
X188132277Y-65606881D01*
X188155004Y-65620503D01*
X188176286Y-65636287D01*
X188195919Y-65654081D01*
X188213713Y-65673714D01*
X188229497Y-65694996D01*
X188243119Y-65717723D01*
X188254447Y-65741675D01*
X188263374Y-65766623D01*
X188269812Y-65792326D01*
X188273700Y-65818535D01*
X188275000Y-65845000D01*
X188275000Y-67155000D01*
X188273700Y-67181465D01*
X188269812Y-67207674D01*
X188263374Y-67233377D01*
X188254447Y-67258325D01*
X188243119Y-67282277D01*
X188229497Y-67305004D01*
X188213713Y-67326286D01*
X188195919Y-67345919D01*
X188176286Y-67363713D01*
X188155004Y-67379497D01*
X188132277Y-67393119D01*
X188108325Y-67404447D01*
X188083377Y-67413374D01*
X188057674Y-67419812D01*
X188031465Y-67423700D01*
X188005000Y-67425000D01*
X187195000Y-67425000D01*
X187168535Y-67423700D01*
X187142326Y-67419812D01*
X187116623Y-67413374D01*
X187091675Y-67404447D01*
X187067723Y-67393119D01*
X187044996Y-67379497D01*
X187023714Y-67363713D01*
X187004081Y-67345919D01*
X186986287Y-67326286D01*
X186970503Y-67305004D01*
X186956881Y-67282277D01*
X186945553Y-67258325D01*
X186936626Y-67233377D01*
X186930188Y-67207674D01*
X186926300Y-67181465D01*
X186925000Y-67155000D01*
X186925000Y-65845000D01*
X186926300Y-65818535D01*
X186930188Y-65792326D01*
X186936626Y-65766623D01*
X186945553Y-65741675D01*
X186956881Y-65717723D01*
X186970503Y-65694996D01*
X186986287Y-65673714D01*
X187004081Y-65654081D01*
X187023714Y-65636287D01*
X187044996Y-65620503D01*
X187067723Y-65606881D01*
X187091675Y-65595553D01*
X187116623Y-65586626D01*
X187142326Y-65580188D01*
X187168535Y-65576300D01*
X187195000Y-65575000D01*
X188005000Y-65575000D01*
X188031465Y-65576300D01*
G37*
%TD*%
%TO.C,R12*%
G36*
X190831465Y-78576300D02*
G01*
X190857674Y-78580188D01*
X190883377Y-78586626D01*
X190908325Y-78595553D01*
X190932277Y-78606881D01*
X190955004Y-78620503D01*
X190976286Y-78636287D01*
X190995919Y-78654081D01*
X191013713Y-78673714D01*
X191029497Y-78694996D01*
X191043119Y-78717723D01*
X191054447Y-78741675D01*
X191063374Y-78766623D01*
X191069812Y-78792326D01*
X191073700Y-78818535D01*
X191075000Y-78845000D01*
X191075000Y-80155000D01*
X191073700Y-80181465D01*
X191069812Y-80207674D01*
X191063374Y-80233377D01*
X191054447Y-80258325D01*
X191043119Y-80282277D01*
X191029497Y-80305004D01*
X191013713Y-80326286D01*
X190995919Y-80345919D01*
X190976286Y-80363713D01*
X190955004Y-80379497D01*
X190932277Y-80393119D01*
X190908325Y-80404447D01*
X190883377Y-80413374D01*
X190857674Y-80419812D01*
X190831465Y-80423700D01*
X190805000Y-80425000D01*
X189995000Y-80425000D01*
X189968535Y-80423700D01*
X189942326Y-80419812D01*
X189916623Y-80413374D01*
X189891675Y-80404447D01*
X189867723Y-80393119D01*
X189844996Y-80379497D01*
X189823714Y-80363713D01*
X189804081Y-80345919D01*
X189786287Y-80326286D01*
X189770503Y-80305004D01*
X189756881Y-80282277D01*
X189745553Y-80258325D01*
X189736626Y-80233377D01*
X189730188Y-80207674D01*
X189726300Y-80181465D01*
X189725000Y-80155000D01*
X189725000Y-78845000D01*
X189726300Y-78818535D01*
X189730188Y-78792326D01*
X189736626Y-78766623D01*
X189745553Y-78741675D01*
X189756881Y-78717723D01*
X189770503Y-78694996D01*
X189786287Y-78673714D01*
X189804081Y-78654081D01*
X189823714Y-78636287D01*
X189844996Y-78620503D01*
X189867723Y-78606881D01*
X189891675Y-78595553D01*
X189916623Y-78586626D01*
X189942326Y-78580188D01*
X189968535Y-78576300D01*
X189995000Y-78575000D01*
X190805000Y-78575000D01*
X190831465Y-78576300D01*
G37*
G36*
X188031465Y-78576300D02*
G01*
X188057674Y-78580188D01*
X188083377Y-78586626D01*
X188108325Y-78595553D01*
X188132277Y-78606881D01*
X188155004Y-78620503D01*
X188176286Y-78636287D01*
X188195919Y-78654081D01*
X188213713Y-78673714D01*
X188229497Y-78694996D01*
X188243119Y-78717723D01*
X188254447Y-78741675D01*
X188263374Y-78766623D01*
X188269812Y-78792326D01*
X188273700Y-78818535D01*
X188275000Y-78845000D01*
X188275000Y-80155000D01*
X188273700Y-80181465D01*
X188269812Y-80207674D01*
X188263374Y-80233377D01*
X188254447Y-80258325D01*
X188243119Y-80282277D01*
X188229497Y-80305004D01*
X188213713Y-80326286D01*
X188195919Y-80345919D01*
X188176286Y-80363713D01*
X188155004Y-80379497D01*
X188132277Y-80393119D01*
X188108325Y-80404447D01*
X188083377Y-80413374D01*
X188057674Y-80419812D01*
X188031465Y-80423700D01*
X188005000Y-80425000D01*
X187195000Y-80425000D01*
X187168535Y-80423700D01*
X187142326Y-80419812D01*
X187116623Y-80413374D01*
X187091675Y-80404447D01*
X187067723Y-80393119D01*
X187044996Y-80379497D01*
X187023714Y-80363713D01*
X187004081Y-80345919D01*
X186986287Y-80326286D01*
X186970503Y-80305004D01*
X186956881Y-80282277D01*
X186945553Y-80258325D01*
X186936626Y-80233377D01*
X186930188Y-80207674D01*
X186926300Y-80181465D01*
X186925000Y-80155000D01*
X186925000Y-78845000D01*
X186926300Y-78818535D01*
X186930188Y-78792326D01*
X186936626Y-78766623D01*
X186945553Y-78741675D01*
X186956881Y-78717723D01*
X186970503Y-78694996D01*
X186986287Y-78673714D01*
X187004081Y-78654081D01*
X187023714Y-78636287D01*
X187044996Y-78620503D01*
X187067723Y-78606881D01*
X187091675Y-78595553D01*
X187116623Y-78586626D01*
X187142326Y-78580188D01*
X187168535Y-78576300D01*
X187195000Y-78575000D01*
X188005000Y-78575000D01*
X188031465Y-78576300D01*
G37*
%TD*%
%TO.C,R11*%
G36*
X190831465Y-90576300D02*
G01*
X190857674Y-90580188D01*
X190883377Y-90586626D01*
X190908325Y-90595553D01*
X190932277Y-90606881D01*
X190955004Y-90620503D01*
X190976286Y-90636287D01*
X190995919Y-90654081D01*
X191013713Y-90673714D01*
X191029497Y-90694996D01*
X191043119Y-90717723D01*
X191054447Y-90741675D01*
X191063374Y-90766623D01*
X191069812Y-90792326D01*
X191073700Y-90818535D01*
X191075000Y-90845000D01*
X191075000Y-92155000D01*
X191073700Y-92181465D01*
X191069812Y-92207674D01*
X191063374Y-92233377D01*
X191054447Y-92258325D01*
X191043119Y-92282277D01*
X191029497Y-92305004D01*
X191013713Y-92326286D01*
X190995919Y-92345919D01*
X190976286Y-92363713D01*
X190955004Y-92379497D01*
X190932277Y-92393119D01*
X190908325Y-92404447D01*
X190883377Y-92413374D01*
X190857674Y-92419812D01*
X190831465Y-92423700D01*
X190805000Y-92425000D01*
X189995000Y-92425000D01*
X189968535Y-92423700D01*
X189942326Y-92419812D01*
X189916623Y-92413374D01*
X189891675Y-92404447D01*
X189867723Y-92393119D01*
X189844996Y-92379497D01*
X189823714Y-92363713D01*
X189804081Y-92345919D01*
X189786287Y-92326286D01*
X189770503Y-92305004D01*
X189756881Y-92282277D01*
X189745553Y-92258325D01*
X189736626Y-92233377D01*
X189730188Y-92207674D01*
X189726300Y-92181465D01*
X189725000Y-92155000D01*
X189725000Y-90845000D01*
X189726300Y-90818535D01*
X189730188Y-90792326D01*
X189736626Y-90766623D01*
X189745553Y-90741675D01*
X189756881Y-90717723D01*
X189770503Y-90694996D01*
X189786287Y-90673714D01*
X189804081Y-90654081D01*
X189823714Y-90636287D01*
X189844996Y-90620503D01*
X189867723Y-90606881D01*
X189891675Y-90595553D01*
X189916623Y-90586626D01*
X189942326Y-90580188D01*
X189968535Y-90576300D01*
X189995000Y-90575000D01*
X190805000Y-90575000D01*
X190831465Y-90576300D01*
G37*
G36*
X188031465Y-90576300D02*
G01*
X188057674Y-90580188D01*
X188083377Y-90586626D01*
X188108325Y-90595553D01*
X188132277Y-90606881D01*
X188155004Y-90620503D01*
X188176286Y-90636287D01*
X188195919Y-90654081D01*
X188213713Y-90673714D01*
X188229497Y-90694996D01*
X188243119Y-90717723D01*
X188254447Y-90741675D01*
X188263374Y-90766623D01*
X188269812Y-90792326D01*
X188273700Y-90818535D01*
X188275000Y-90845000D01*
X188275000Y-92155000D01*
X188273700Y-92181465D01*
X188269812Y-92207674D01*
X188263374Y-92233377D01*
X188254447Y-92258325D01*
X188243119Y-92282277D01*
X188229497Y-92305004D01*
X188213713Y-92326286D01*
X188195919Y-92345919D01*
X188176286Y-92363713D01*
X188155004Y-92379497D01*
X188132277Y-92393119D01*
X188108325Y-92404447D01*
X188083377Y-92413374D01*
X188057674Y-92419812D01*
X188031465Y-92423700D01*
X188005000Y-92425000D01*
X187195000Y-92425000D01*
X187168535Y-92423700D01*
X187142326Y-92419812D01*
X187116623Y-92413374D01*
X187091675Y-92404447D01*
X187067723Y-92393119D01*
X187044996Y-92379497D01*
X187023714Y-92363713D01*
X187004081Y-92345919D01*
X186986287Y-92326286D01*
X186970503Y-92305004D01*
X186956881Y-92282277D01*
X186945553Y-92258325D01*
X186936626Y-92233377D01*
X186930188Y-92207674D01*
X186926300Y-92181465D01*
X186925000Y-92155000D01*
X186925000Y-90845000D01*
X186926300Y-90818535D01*
X186930188Y-90792326D01*
X186936626Y-90766623D01*
X186945553Y-90741675D01*
X186956881Y-90717723D01*
X186970503Y-90694996D01*
X186986287Y-90673714D01*
X187004081Y-90654081D01*
X187023714Y-90636287D01*
X187044996Y-90620503D01*
X187067723Y-90606881D01*
X187091675Y-90595553D01*
X187116623Y-90586626D01*
X187142326Y-90580188D01*
X187168535Y-90576300D01*
X187195000Y-90575000D01*
X188005000Y-90575000D01*
X188031465Y-90576300D01*
G37*
%TD*%
%TO.C,R10*%
G36*
X192681465Y-97926300D02*
G01*
X192707674Y-97930188D01*
X192733377Y-97936626D01*
X192758325Y-97945553D01*
X192782277Y-97956881D01*
X192805004Y-97970503D01*
X192826286Y-97986287D01*
X192845919Y-98004081D01*
X192863713Y-98023714D01*
X192879497Y-98044996D01*
X192893119Y-98067723D01*
X192904447Y-98091675D01*
X192913374Y-98116623D01*
X192919812Y-98142326D01*
X192923700Y-98168535D01*
X192925000Y-98195000D01*
X192925000Y-99005000D01*
X192923700Y-99031465D01*
X192919812Y-99057674D01*
X192913374Y-99083377D01*
X192904447Y-99108325D01*
X192893119Y-99132277D01*
X192879497Y-99155004D01*
X192863713Y-99176286D01*
X192845919Y-99195919D01*
X192826286Y-99213713D01*
X192805004Y-99229497D01*
X192782277Y-99243119D01*
X192758325Y-99254447D01*
X192733377Y-99263374D01*
X192707674Y-99269812D01*
X192681465Y-99273700D01*
X192655000Y-99275000D01*
X191345000Y-99275000D01*
X191318535Y-99273700D01*
X191292326Y-99269812D01*
X191266623Y-99263374D01*
X191241675Y-99254447D01*
X191217723Y-99243119D01*
X191194996Y-99229497D01*
X191173714Y-99213713D01*
X191154081Y-99195919D01*
X191136287Y-99176286D01*
X191120503Y-99155004D01*
X191106881Y-99132277D01*
X191095553Y-99108325D01*
X191086626Y-99083377D01*
X191080188Y-99057674D01*
X191076300Y-99031465D01*
X191075000Y-99005000D01*
X191075000Y-98195000D01*
X191076300Y-98168535D01*
X191080188Y-98142326D01*
X191086626Y-98116623D01*
X191095553Y-98091675D01*
X191106881Y-98067723D01*
X191120503Y-98044996D01*
X191136287Y-98023714D01*
X191154081Y-98004081D01*
X191173714Y-97986287D01*
X191194996Y-97970503D01*
X191217723Y-97956881D01*
X191241675Y-97945553D01*
X191266623Y-97936626D01*
X191292326Y-97930188D01*
X191318535Y-97926300D01*
X191345000Y-97925000D01*
X192655000Y-97925000D01*
X192681465Y-97926300D01*
G37*
G36*
X192681465Y-100726300D02*
G01*
X192707674Y-100730188D01*
X192733377Y-100736626D01*
X192758325Y-100745553D01*
X192782277Y-100756881D01*
X192805004Y-100770503D01*
X192826286Y-100786287D01*
X192845919Y-100804081D01*
X192863713Y-100823714D01*
X192879497Y-100844996D01*
X192893119Y-100867723D01*
X192904447Y-100891675D01*
X192913374Y-100916623D01*
X192919812Y-100942326D01*
X192923700Y-100968535D01*
X192925000Y-100995000D01*
X192925000Y-101805000D01*
X192923700Y-101831465D01*
X192919812Y-101857674D01*
X192913374Y-101883377D01*
X192904447Y-101908325D01*
X192893119Y-101932277D01*
X192879497Y-101955004D01*
X192863713Y-101976286D01*
X192845919Y-101995919D01*
X192826286Y-102013713D01*
X192805004Y-102029497D01*
X192782277Y-102043119D01*
X192758325Y-102054447D01*
X192733377Y-102063374D01*
X192707674Y-102069812D01*
X192681465Y-102073700D01*
X192655000Y-102075000D01*
X191345000Y-102075000D01*
X191318535Y-102073700D01*
X191292326Y-102069812D01*
X191266623Y-102063374D01*
X191241675Y-102054447D01*
X191217723Y-102043119D01*
X191194996Y-102029497D01*
X191173714Y-102013713D01*
X191154081Y-101995919D01*
X191136287Y-101976286D01*
X191120503Y-101955004D01*
X191106881Y-101932277D01*
X191095553Y-101908325D01*
X191086626Y-101883377D01*
X191080188Y-101857674D01*
X191076300Y-101831465D01*
X191075000Y-101805000D01*
X191075000Y-100995000D01*
X191076300Y-100968535D01*
X191080188Y-100942326D01*
X191086626Y-100916623D01*
X191095553Y-100891675D01*
X191106881Y-100867723D01*
X191120503Y-100844996D01*
X191136287Y-100823714D01*
X191154081Y-100804081D01*
X191173714Y-100786287D01*
X191194996Y-100770503D01*
X191217723Y-100756881D01*
X191241675Y-100745553D01*
X191266623Y-100736626D01*
X191292326Y-100730188D01*
X191318535Y-100726300D01*
X191345000Y-100725000D01*
X192655000Y-100725000D01*
X192681465Y-100726300D01*
G37*
%TD*%
%TO.C,R9*%
G36*
X204681465Y-97926300D02*
G01*
X204707674Y-97930188D01*
X204733377Y-97936626D01*
X204758325Y-97945553D01*
X204782277Y-97956881D01*
X204805004Y-97970503D01*
X204826286Y-97986287D01*
X204845919Y-98004081D01*
X204863713Y-98023714D01*
X204879497Y-98044996D01*
X204893119Y-98067723D01*
X204904447Y-98091675D01*
X204913374Y-98116623D01*
X204919812Y-98142326D01*
X204923700Y-98168535D01*
X204925000Y-98195000D01*
X204925000Y-99005000D01*
X204923700Y-99031465D01*
X204919812Y-99057674D01*
X204913374Y-99083377D01*
X204904447Y-99108325D01*
X204893119Y-99132277D01*
X204879497Y-99155004D01*
X204863713Y-99176286D01*
X204845919Y-99195919D01*
X204826286Y-99213713D01*
X204805004Y-99229497D01*
X204782277Y-99243119D01*
X204758325Y-99254447D01*
X204733377Y-99263374D01*
X204707674Y-99269812D01*
X204681465Y-99273700D01*
X204655000Y-99275000D01*
X203345000Y-99275000D01*
X203318535Y-99273700D01*
X203292326Y-99269812D01*
X203266623Y-99263374D01*
X203241675Y-99254447D01*
X203217723Y-99243119D01*
X203194996Y-99229497D01*
X203173714Y-99213713D01*
X203154081Y-99195919D01*
X203136287Y-99176286D01*
X203120503Y-99155004D01*
X203106881Y-99132277D01*
X203095553Y-99108325D01*
X203086626Y-99083377D01*
X203080188Y-99057674D01*
X203076300Y-99031465D01*
X203075000Y-99005000D01*
X203075000Y-98195000D01*
X203076300Y-98168535D01*
X203080188Y-98142326D01*
X203086626Y-98116623D01*
X203095553Y-98091675D01*
X203106881Y-98067723D01*
X203120503Y-98044996D01*
X203136287Y-98023714D01*
X203154081Y-98004081D01*
X203173714Y-97986287D01*
X203194996Y-97970503D01*
X203217723Y-97956881D01*
X203241675Y-97945553D01*
X203266623Y-97936626D01*
X203292326Y-97930188D01*
X203318535Y-97926300D01*
X203345000Y-97925000D01*
X204655000Y-97925000D01*
X204681465Y-97926300D01*
G37*
G36*
X204681465Y-100726300D02*
G01*
X204707674Y-100730188D01*
X204733377Y-100736626D01*
X204758325Y-100745553D01*
X204782277Y-100756881D01*
X204805004Y-100770503D01*
X204826286Y-100786287D01*
X204845919Y-100804081D01*
X204863713Y-100823714D01*
X204879497Y-100844996D01*
X204893119Y-100867723D01*
X204904447Y-100891675D01*
X204913374Y-100916623D01*
X204919812Y-100942326D01*
X204923700Y-100968535D01*
X204925000Y-100995000D01*
X204925000Y-101805000D01*
X204923700Y-101831465D01*
X204919812Y-101857674D01*
X204913374Y-101883377D01*
X204904447Y-101908325D01*
X204893119Y-101932277D01*
X204879497Y-101955004D01*
X204863713Y-101976286D01*
X204845919Y-101995919D01*
X204826286Y-102013713D01*
X204805004Y-102029497D01*
X204782277Y-102043119D01*
X204758325Y-102054447D01*
X204733377Y-102063374D01*
X204707674Y-102069812D01*
X204681465Y-102073700D01*
X204655000Y-102075000D01*
X203345000Y-102075000D01*
X203318535Y-102073700D01*
X203292326Y-102069812D01*
X203266623Y-102063374D01*
X203241675Y-102054447D01*
X203217723Y-102043119D01*
X203194996Y-102029497D01*
X203173714Y-102013713D01*
X203154081Y-101995919D01*
X203136287Y-101976286D01*
X203120503Y-101955004D01*
X203106881Y-101932277D01*
X203095553Y-101908325D01*
X203086626Y-101883377D01*
X203080188Y-101857674D01*
X203076300Y-101831465D01*
X203075000Y-101805000D01*
X203075000Y-100995000D01*
X203076300Y-100968535D01*
X203080188Y-100942326D01*
X203086626Y-100916623D01*
X203095553Y-100891675D01*
X203106881Y-100867723D01*
X203120503Y-100844996D01*
X203136287Y-100823714D01*
X203154081Y-100804081D01*
X203173714Y-100786287D01*
X203194996Y-100770503D01*
X203217723Y-100756881D01*
X203241675Y-100745553D01*
X203266623Y-100736626D01*
X203292326Y-100730188D01*
X203318535Y-100726300D01*
X203345000Y-100725000D01*
X204655000Y-100725000D01*
X204681465Y-100726300D01*
G37*
%TD*%
%TO.C,R8*%
G36*
X217681465Y-97926300D02*
G01*
X217707674Y-97930188D01*
X217733377Y-97936626D01*
X217758325Y-97945553D01*
X217782277Y-97956881D01*
X217805004Y-97970503D01*
X217826286Y-97986287D01*
X217845919Y-98004081D01*
X217863713Y-98023714D01*
X217879497Y-98044996D01*
X217893119Y-98067723D01*
X217904447Y-98091675D01*
X217913374Y-98116623D01*
X217919812Y-98142326D01*
X217923700Y-98168535D01*
X217925000Y-98195000D01*
X217925000Y-99005000D01*
X217923700Y-99031465D01*
X217919812Y-99057674D01*
X217913374Y-99083377D01*
X217904447Y-99108325D01*
X217893119Y-99132277D01*
X217879497Y-99155004D01*
X217863713Y-99176286D01*
X217845919Y-99195919D01*
X217826286Y-99213713D01*
X217805004Y-99229497D01*
X217782277Y-99243119D01*
X217758325Y-99254447D01*
X217733377Y-99263374D01*
X217707674Y-99269812D01*
X217681465Y-99273700D01*
X217655000Y-99275000D01*
X216345000Y-99275000D01*
X216318535Y-99273700D01*
X216292326Y-99269812D01*
X216266623Y-99263374D01*
X216241675Y-99254447D01*
X216217723Y-99243119D01*
X216194996Y-99229497D01*
X216173714Y-99213713D01*
X216154081Y-99195919D01*
X216136287Y-99176286D01*
X216120503Y-99155004D01*
X216106881Y-99132277D01*
X216095553Y-99108325D01*
X216086626Y-99083377D01*
X216080188Y-99057674D01*
X216076300Y-99031465D01*
X216075000Y-99005000D01*
X216075000Y-98195000D01*
X216076300Y-98168535D01*
X216080188Y-98142326D01*
X216086626Y-98116623D01*
X216095553Y-98091675D01*
X216106881Y-98067723D01*
X216120503Y-98044996D01*
X216136287Y-98023714D01*
X216154081Y-98004081D01*
X216173714Y-97986287D01*
X216194996Y-97970503D01*
X216217723Y-97956881D01*
X216241675Y-97945553D01*
X216266623Y-97936626D01*
X216292326Y-97930188D01*
X216318535Y-97926300D01*
X216345000Y-97925000D01*
X217655000Y-97925000D01*
X217681465Y-97926300D01*
G37*
G36*
X217681465Y-100726300D02*
G01*
X217707674Y-100730188D01*
X217733377Y-100736626D01*
X217758325Y-100745553D01*
X217782277Y-100756881D01*
X217805004Y-100770503D01*
X217826286Y-100786287D01*
X217845919Y-100804081D01*
X217863713Y-100823714D01*
X217879497Y-100844996D01*
X217893119Y-100867723D01*
X217904447Y-100891675D01*
X217913374Y-100916623D01*
X217919812Y-100942326D01*
X217923700Y-100968535D01*
X217925000Y-100995000D01*
X217925000Y-101805000D01*
X217923700Y-101831465D01*
X217919812Y-101857674D01*
X217913374Y-101883377D01*
X217904447Y-101908325D01*
X217893119Y-101932277D01*
X217879497Y-101955004D01*
X217863713Y-101976286D01*
X217845919Y-101995919D01*
X217826286Y-102013713D01*
X217805004Y-102029497D01*
X217782277Y-102043119D01*
X217758325Y-102054447D01*
X217733377Y-102063374D01*
X217707674Y-102069812D01*
X217681465Y-102073700D01*
X217655000Y-102075000D01*
X216345000Y-102075000D01*
X216318535Y-102073700D01*
X216292326Y-102069812D01*
X216266623Y-102063374D01*
X216241675Y-102054447D01*
X216217723Y-102043119D01*
X216194996Y-102029497D01*
X216173714Y-102013713D01*
X216154081Y-101995919D01*
X216136287Y-101976286D01*
X216120503Y-101955004D01*
X216106881Y-101932277D01*
X216095553Y-101908325D01*
X216086626Y-101883377D01*
X216080188Y-101857674D01*
X216076300Y-101831465D01*
X216075000Y-101805000D01*
X216075000Y-100995000D01*
X216076300Y-100968535D01*
X216080188Y-100942326D01*
X216086626Y-100916623D01*
X216095553Y-100891675D01*
X216106881Y-100867723D01*
X216120503Y-100844996D01*
X216136287Y-100823714D01*
X216154081Y-100804081D01*
X216173714Y-100786287D01*
X216194996Y-100770503D01*
X216217723Y-100756881D01*
X216241675Y-100745553D01*
X216266623Y-100736626D01*
X216292326Y-100730188D01*
X216318535Y-100726300D01*
X216345000Y-100725000D01*
X217655000Y-100725000D01*
X217681465Y-100726300D01*
G37*
%TD*%
%TO.C,R7*%
G36*
X229381465Y-97926300D02*
G01*
X229407674Y-97930188D01*
X229433377Y-97936626D01*
X229458325Y-97945553D01*
X229482277Y-97956881D01*
X229505004Y-97970503D01*
X229526286Y-97986287D01*
X229545919Y-98004081D01*
X229563713Y-98023714D01*
X229579497Y-98044996D01*
X229593119Y-98067723D01*
X229604447Y-98091675D01*
X229613374Y-98116623D01*
X229619812Y-98142326D01*
X229623700Y-98168535D01*
X229625000Y-98195000D01*
X229625000Y-99005000D01*
X229623700Y-99031465D01*
X229619812Y-99057674D01*
X229613374Y-99083377D01*
X229604447Y-99108325D01*
X229593119Y-99132277D01*
X229579497Y-99155004D01*
X229563713Y-99176286D01*
X229545919Y-99195919D01*
X229526286Y-99213713D01*
X229505004Y-99229497D01*
X229482277Y-99243119D01*
X229458325Y-99254447D01*
X229433377Y-99263374D01*
X229407674Y-99269812D01*
X229381465Y-99273700D01*
X229355000Y-99275000D01*
X228045000Y-99275000D01*
X228018535Y-99273700D01*
X227992326Y-99269812D01*
X227966623Y-99263374D01*
X227941675Y-99254447D01*
X227917723Y-99243119D01*
X227894996Y-99229497D01*
X227873714Y-99213713D01*
X227854081Y-99195919D01*
X227836287Y-99176286D01*
X227820503Y-99155004D01*
X227806881Y-99132277D01*
X227795553Y-99108325D01*
X227786626Y-99083377D01*
X227780188Y-99057674D01*
X227776300Y-99031465D01*
X227775000Y-99005000D01*
X227775000Y-98195000D01*
X227776300Y-98168535D01*
X227780188Y-98142326D01*
X227786626Y-98116623D01*
X227795553Y-98091675D01*
X227806881Y-98067723D01*
X227820503Y-98044996D01*
X227836287Y-98023714D01*
X227854081Y-98004081D01*
X227873714Y-97986287D01*
X227894996Y-97970503D01*
X227917723Y-97956881D01*
X227941675Y-97945553D01*
X227966623Y-97936626D01*
X227992326Y-97930188D01*
X228018535Y-97926300D01*
X228045000Y-97925000D01*
X229355000Y-97925000D01*
X229381465Y-97926300D01*
G37*
G36*
X229381465Y-100726300D02*
G01*
X229407674Y-100730188D01*
X229433377Y-100736626D01*
X229458325Y-100745553D01*
X229482277Y-100756881D01*
X229505004Y-100770503D01*
X229526286Y-100786287D01*
X229545919Y-100804081D01*
X229563713Y-100823714D01*
X229579497Y-100844996D01*
X229593119Y-100867723D01*
X229604447Y-100891675D01*
X229613374Y-100916623D01*
X229619812Y-100942326D01*
X229623700Y-100968535D01*
X229625000Y-100995000D01*
X229625000Y-101805000D01*
X229623700Y-101831465D01*
X229619812Y-101857674D01*
X229613374Y-101883377D01*
X229604447Y-101908325D01*
X229593119Y-101932277D01*
X229579497Y-101955004D01*
X229563713Y-101976286D01*
X229545919Y-101995919D01*
X229526286Y-102013713D01*
X229505004Y-102029497D01*
X229482277Y-102043119D01*
X229458325Y-102054447D01*
X229433377Y-102063374D01*
X229407674Y-102069812D01*
X229381465Y-102073700D01*
X229355000Y-102075000D01*
X228045000Y-102075000D01*
X228018535Y-102073700D01*
X227992326Y-102069812D01*
X227966623Y-102063374D01*
X227941675Y-102054447D01*
X227917723Y-102043119D01*
X227894996Y-102029497D01*
X227873714Y-102013713D01*
X227854081Y-101995919D01*
X227836287Y-101976286D01*
X227820503Y-101955004D01*
X227806881Y-101932277D01*
X227795553Y-101908325D01*
X227786626Y-101883377D01*
X227780188Y-101857674D01*
X227776300Y-101831465D01*
X227775000Y-101805000D01*
X227775000Y-100995000D01*
X227776300Y-100968535D01*
X227780188Y-100942326D01*
X227786626Y-100916623D01*
X227795553Y-100891675D01*
X227806881Y-100867723D01*
X227820503Y-100844996D01*
X227836287Y-100823714D01*
X227854081Y-100804081D01*
X227873714Y-100786287D01*
X227894996Y-100770503D01*
X227917723Y-100756881D01*
X227941675Y-100745553D01*
X227966623Y-100736626D01*
X227992326Y-100730188D01*
X228018535Y-100726300D01*
X228045000Y-100725000D01*
X229355000Y-100725000D01*
X229381465Y-100726300D01*
G37*
%TD*%
%TO.C,R6*%
G36*
X236031465Y-95076300D02*
G01*
X236057674Y-95080188D01*
X236083377Y-95086626D01*
X236108325Y-95095553D01*
X236132277Y-95106881D01*
X236155004Y-95120503D01*
X236176286Y-95136287D01*
X236195919Y-95154081D01*
X236213713Y-95173714D01*
X236229497Y-95194996D01*
X236243119Y-95217723D01*
X236254447Y-95241675D01*
X236263374Y-95266623D01*
X236269812Y-95292326D01*
X236273700Y-95318535D01*
X236275000Y-95345000D01*
X236275000Y-96655000D01*
X236273700Y-96681465D01*
X236269812Y-96707674D01*
X236263374Y-96733377D01*
X236254447Y-96758325D01*
X236243119Y-96782277D01*
X236229497Y-96805004D01*
X236213713Y-96826286D01*
X236195919Y-96845919D01*
X236176286Y-96863713D01*
X236155004Y-96879497D01*
X236132277Y-96893119D01*
X236108325Y-96904447D01*
X236083377Y-96913374D01*
X236057674Y-96919812D01*
X236031465Y-96923700D01*
X236005000Y-96925000D01*
X235195000Y-96925000D01*
X235168535Y-96923700D01*
X235142326Y-96919812D01*
X235116623Y-96913374D01*
X235091675Y-96904447D01*
X235067723Y-96893119D01*
X235044996Y-96879497D01*
X235023714Y-96863713D01*
X235004081Y-96845919D01*
X234986287Y-96826286D01*
X234970503Y-96805004D01*
X234956881Y-96782277D01*
X234945553Y-96758325D01*
X234936626Y-96733377D01*
X234930188Y-96707674D01*
X234926300Y-96681465D01*
X234925000Y-96655000D01*
X234925000Y-95345000D01*
X234926300Y-95318535D01*
X234930188Y-95292326D01*
X234936626Y-95266623D01*
X234945553Y-95241675D01*
X234956881Y-95217723D01*
X234970503Y-95194996D01*
X234986287Y-95173714D01*
X235004081Y-95154081D01*
X235023714Y-95136287D01*
X235044996Y-95120503D01*
X235067723Y-95106881D01*
X235091675Y-95095553D01*
X235116623Y-95086626D01*
X235142326Y-95080188D01*
X235168535Y-95076300D01*
X235195000Y-95075000D01*
X236005000Y-95075000D01*
X236031465Y-95076300D01*
G37*
G36*
X238831465Y-95076300D02*
G01*
X238857674Y-95080188D01*
X238883377Y-95086626D01*
X238908325Y-95095553D01*
X238932277Y-95106881D01*
X238955004Y-95120503D01*
X238976286Y-95136287D01*
X238995919Y-95154081D01*
X239013713Y-95173714D01*
X239029497Y-95194996D01*
X239043119Y-95217723D01*
X239054447Y-95241675D01*
X239063374Y-95266623D01*
X239069812Y-95292326D01*
X239073700Y-95318535D01*
X239075000Y-95345000D01*
X239075000Y-96655000D01*
X239073700Y-96681465D01*
X239069812Y-96707674D01*
X239063374Y-96733377D01*
X239054447Y-96758325D01*
X239043119Y-96782277D01*
X239029497Y-96805004D01*
X239013713Y-96826286D01*
X238995919Y-96845919D01*
X238976286Y-96863713D01*
X238955004Y-96879497D01*
X238932277Y-96893119D01*
X238908325Y-96904447D01*
X238883377Y-96913374D01*
X238857674Y-96919812D01*
X238831465Y-96923700D01*
X238805000Y-96925000D01*
X237995000Y-96925000D01*
X237968535Y-96923700D01*
X237942326Y-96919812D01*
X237916623Y-96913374D01*
X237891675Y-96904447D01*
X237867723Y-96893119D01*
X237844996Y-96879497D01*
X237823714Y-96863713D01*
X237804081Y-96845919D01*
X237786287Y-96826286D01*
X237770503Y-96805004D01*
X237756881Y-96782277D01*
X237745553Y-96758325D01*
X237736626Y-96733377D01*
X237730188Y-96707674D01*
X237726300Y-96681465D01*
X237725000Y-96655000D01*
X237725000Y-95345000D01*
X237726300Y-95318535D01*
X237730188Y-95292326D01*
X237736626Y-95266623D01*
X237745553Y-95241675D01*
X237756881Y-95217723D01*
X237770503Y-95194996D01*
X237786287Y-95173714D01*
X237804081Y-95154081D01*
X237823714Y-95136287D01*
X237844996Y-95120503D01*
X237867723Y-95106881D01*
X237891675Y-95095553D01*
X237916623Y-95086626D01*
X237942326Y-95080188D01*
X237968535Y-95076300D01*
X237995000Y-95075000D01*
X238805000Y-95075000D01*
X238831465Y-95076300D01*
G37*
%TD*%
%TO.C,R5*%
G36*
X236031465Y-82036300D02*
G01*
X236057674Y-82040188D01*
X236083377Y-82046626D01*
X236108325Y-82055553D01*
X236132277Y-82066881D01*
X236155004Y-82080503D01*
X236176286Y-82096287D01*
X236195919Y-82114081D01*
X236213713Y-82133714D01*
X236229497Y-82154996D01*
X236243119Y-82177723D01*
X236254447Y-82201675D01*
X236263374Y-82226623D01*
X236269812Y-82252326D01*
X236273700Y-82278535D01*
X236275000Y-82305000D01*
X236275000Y-83615000D01*
X236273700Y-83641465D01*
X236269812Y-83667674D01*
X236263374Y-83693377D01*
X236254447Y-83718325D01*
X236243119Y-83742277D01*
X236229497Y-83765004D01*
X236213713Y-83786286D01*
X236195919Y-83805919D01*
X236176286Y-83823713D01*
X236155004Y-83839497D01*
X236132277Y-83853119D01*
X236108325Y-83864447D01*
X236083377Y-83873374D01*
X236057674Y-83879812D01*
X236031465Y-83883700D01*
X236005000Y-83885000D01*
X235195000Y-83885000D01*
X235168535Y-83883700D01*
X235142326Y-83879812D01*
X235116623Y-83873374D01*
X235091675Y-83864447D01*
X235067723Y-83853119D01*
X235044996Y-83839497D01*
X235023714Y-83823713D01*
X235004081Y-83805919D01*
X234986287Y-83786286D01*
X234970503Y-83765004D01*
X234956881Y-83742277D01*
X234945553Y-83718325D01*
X234936626Y-83693377D01*
X234930188Y-83667674D01*
X234926300Y-83641465D01*
X234925000Y-83615000D01*
X234925000Y-82305000D01*
X234926300Y-82278535D01*
X234930188Y-82252326D01*
X234936626Y-82226623D01*
X234945553Y-82201675D01*
X234956881Y-82177723D01*
X234970503Y-82154996D01*
X234986287Y-82133714D01*
X235004081Y-82114081D01*
X235023714Y-82096287D01*
X235044996Y-82080503D01*
X235067723Y-82066881D01*
X235091675Y-82055553D01*
X235116623Y-82046626D01*
X235142326Y-82040188D01*
X235168535Y-82036300D01*
X235195000Y-82035000D01*
X236005000Y-82035000D01*
X236031465Y-82036300D01*
G37*
G36*
X238831465Y-82036300D02*
G01*
X238857674Y-82040188D01*
X238883377Y-82046626D01*
X238908325Y-82055553D01*
X238932277Y-82066881D01*
X238955004Y-82080503D01*
X238976286Y-82096287D01*
X238995919Y-82114081D01*
X239013713Y-82133714D01*
X239029497Y-82154996D01*
X239043119Y-82177723D01*
X239054447Y-82201675D01*
X239063374Y-82226623D01*
X239069812Y-82252326D01*
X239073700Y-82278535D01*
X239075000Y-82305000D01*
X239075000Y-83615000D01*
X239073700Y-83641465D01*
X239069812Y-83667674D01*
X239063374Y-83693377D01*
X239054447Y-83718325D01*
X239043119Y-83742277D01*
X239029497Y-83765004D01*
X239013713Y-83786286D01*
X238995919Y-83805919D01*
X238976286Y-83823713D01*
X238955004Y-83839497D01*
X238932277Y-83853119D01*
X238908325Y-83864447D01*
X238883377Y-83873374D01*
X238857674Y-83879812D01*
X238831465Y-83883700D01*
X238805000Y-83885000D01*
X237995000Y-83885000D01*
X237968535Y-83883700D01*
X237942326Y-83879812D01*
X237916623Y-83873374D01*
X237891675Y-83864447D01*
X237867723Y-83853119D01*
X237844996Y-83839497D01*
X237823714Y-83823713D01*
X237804081Y-83805919D01*
X237786287Y-83786286D01*
X237770503Y-83765004D01*
X237756881Y-83742277D01*
X237745553Y-83718325D01*
X237736626Y-83693377D01*
X237730188Y-83667674D01*
X237726300Y-83641465D01*
X237725000Y-83615000D01*
X237725000Y-82305000D01*
X237726300Y-82278535D01*
X237730188Y-82252326D01*
X237736626Y-82226623D01*
X237745553Y-82201675D01*
X237756881Y-82177723D01*
X237770503Y-82154996D01*
X237786287Y-82133714D01*
X237804081Y-82114081D01*
X237823714Y-82096287D01*
X237844996Y-82080503D01*
X237867723Y-82066881D01*
X237891675Y-82055553D01*
X237916623Y-82046626D01*
X237942326Y-82040188D01*
X237968535Y-82036300D01*
X237995000Y-82035000D01*
X238805000Y-82035000D01*
X238831465Y-82036300D01*
G37*
%TD*%
%TO.C,R4*%
G36*
X236031465Y-67076300D02*
G01*
X236057674Y-67080188D01*
X236083377Y-67086626D01*
X236108325Y-67095553D01*
X236132277Y-67106881D01*
X236155004Y-67120503D01*
X236176286Y-67136287D01*
X236195919Y-67154081D01*
X236213713Y-67173714D01*
X236229497Y-67194996D01*
X236243119Y-67217723D01*
X236254447Y-67241675D01*
X236263374Y-67266623D01*
X236269812Y-67292326D01*
X236273700Y-67318535D01*
X236275000Y-67345000D01*
X236275000Y-68655000D01*
X236273700Y-68681465D01*
X236269812Y-68707674D01*
X236263374Y-68733377D01*
X236254447Y-68758325D01*
X236243119Y-68782277D01*
X236229497Y-68805004D01*
X236213713Y-68826286D01*
X236195919Y-68845919D01*
X236176286Y-68863713D01*
X236155004Y-68879497D01*
X236132277Y-68893119D01*
X236108325Y-68904447D01*
X236083377Y-68913374D01*
X236057674Y-68919812D01*
X236031465Y-68923700D01*
X236005000Y-68925000D01*
X235195000Y-68925000D01*
X235168535Y-68923700D01*
X235142326Y-68919812D01*
X235116623Y-68913374D01*
X235091675Y-68904447D01*
X235067723Y-68893119D01*
X235044996Y-68879497D01*
X235023714Y-68863713D01*
X235004081Y-68845919D01*
X234986287Y-68826286D01*
X234970503Y-68805004D01*
X234956881Y-68782277D01*
X234945553Y-68758325D01*
X234936626Y-68733377D01*
X234930188Y-68707674D01*
X234926300Y-68681465D01*
X234925000Y-68655000D01*
X234925000Y-67345000D01*
X234926300Y-67318535D01*
X234930188Y-67292326D01*
X234936626Y-67266623D01*
X234945553Y-67241675D01*
X234956881Y-67217723D01*
X234970503Y-67194996D01*
X234986287Y-67173714D01*
X235004081Y-67154081D01*
X235023714Y-67136287D01*
X235044996Y-67120503D01*
X235067723Y-67106881D01*
X235091675Y-67095553D01*
X235116623Y-67086626D01*
X235142326Y-67080188D01*
X235168535Y-67076300D01*
X235195000Y-67075000D01*
X236005000Y-67075000D01*
X236031465Y-67076300D01*
G37*
G36*
X238831465Y-67076300D02*
G01*
X238857674Y-67080188D01*
X238883377Y-67086626D01*
X238908325Y-67095553D01*
X238932277Y-67106881D01*
X238955004Y-67120503D01*
X238976286Y-67136287D01*
X238995919Y-67154081D01*
X239013713Y-67173714D01*
X239029497Y-67194996D01*
X239043119Y-67217723D01*
X239054447Y-67241675D01*
X239063374Y-67266623D01*
X239069812Y-67292326D01*
X239073700Y-67318535D01*
X239075000Y-67345000D01*
X239075000Y-68655000D01*
X239073700Y-68681465D01*
X239069812Y-68707674D01*
X239063374Y-68733377D01*
X239054447Y-68758325D01*
X239043119Y-68782277D01*
X239029497Y-68805004D01*
X239013713Y-68826286D01*
X238995919Y-68845919D01*
X238976286Y-68863713D01*
X238955004Y-68879497D01*
X238932277Y-68893119D01*
X238908325Y-68904447D01*
X238883377Y-68913374D01*
X238857674Y-68919812D01*
X238831465Y-68923700D01*
X238805000Y-68925000D01*
X237995000Y-68925000D01*
X237968535Y-68923700D01*
X237942326Y-68919812D01*
X237916623Y-68913374D01*
X237891675Y-68904447D01*
X237867723Y-68893119D01*
X237844996Y-68879497D01*
X237823714Y-68863713D01*
X237804081Y-68845919D01*
X237786287Y-68826286D01*
X237770503Y-68805004D01*
X237756881Y-68782277D01*
X237745553Y-68758325D01*
X237736626Y-68733377D01*
X237730188Y-68707674D01*
X237726300Y-68681465D01*
X237725000Y-68655000D01*
X237725000Y-67345000D01*
X237726300Y-67318535D01*
X237730188Y-67292326D01*
X237736626Y-67266623D01*
X237745553Y-67241675D01*
X237756881Y-67217723D01*
X237770503Y-67194996D01*
X237786287Y-67173714D01*
X237804081Y-67154081D01*
X237823714Y-67136287D01*
X237844996Y-67120503D01*
X237867723Y-67106881D01*
X237891675Y-67095553D01*
X237916623Y-67086626D01*
X237942326Y-67080188D01*
X237968535Y-67076300D01*
X237995000Y-67075000D01*
X238805000Y-67075000D01*
X238831465Y-67076300D01*
G37*
%TD*%
%TO.C,R3*%
G36*
X204714408Y-78140831D02*
G01*
X204731153Y-78143315D01*
X204747574Y-78147428D01*
X204763513Y-78153131D01*
X204778816Y-78160369D01*
X204793336Y-78169071D01*
X204806933Y-78179156D01*
X204819476Y-78190524D01*
X204830844Y-78203067D01*
X204840929Y-78216664D01*
X204849631Y-78231184D01*
X204856869Y-78246487D01*
X204862572Y-78262426D01*
X204866685Y-78278847D01*
X204869169Y-78295592D01*
X204870000Y-78312500D01*
X204870000Y-78657500D01*
X204869169Y-78674408D01*
X204866685Y-78691153D01*
X204862572Y-78707574D01*
X204856869Y-78723513D01*
X204849631Y-78738816D01*
X204840929Y-78753336D01*
X204830844Y-78766933D01*
X204819476Y-78779476D01*
X204806933Y-78790844D01*
X204793336Y-78800929D01*
X204778816Y-78809631D01*
X204763513Y-78816869D01*
X204747574Y-78822572D01*
X204731153Y-78826685D01*
X204714408Y-78829169D01*
X204697500Y-78830000D01*
X204302500Y-78830000D01*
X204285592Y-78829169D01*
X204268847Y-78826685D01*
X204252426Y-78822572D01*
X204236487Y-78816869D01*
X204221184Y-78809631D01*
X204206664Y-78800929D01*
X204193067Y-78790844D01*
X204180524Y-78779476D01*
X204169156Y-78766933D01*
X204159071Y-78753336D01*
X204150369Y-78738816D01*
X204143131Y-78723513D01*
X204137428Y-78707574D01*
X204133315Y-78691153D01*
X204130831Y-78674408D01*
X204130000Y-78657500D01*
X204130000Y-78312500D01*
X204130831Y-78295592D01*
X204133315Y-78278847D01*
X204137428Y-78262426D01*
X204143131Y-78246487D01*
X204150369Y-78231184D01*
X204159071Y-78216664D01*
X204169156Y-78203067D01*
X204180524Y-78190524D01*
X204193067Y-78179156D01*
X204206664Y-78169071D01*
X204221184Y-78160369D01*
X204236487Y-78153131D01*
X204252426Y-78147428D01*
X204268847Y-78143315D01*
X204285592Y-78140831D01*
X204302500Y-78140000D01*
X204697500Y-78140000D01*
X204714408Y-78140831D01*
G37*
G36*
X204714408Y-77170831D02*
G01*
X204731153Y-77173315D01*
X204747574Y-77177428D01*
X204763513Y-77183131D01*
X204778816Y-77190369D01*
X204793336Y-77199071D01*
X204806933Y-77209156D01*
X204819476Y-77220524D01*
X204830844Y-77233067D01*
X204840929Y-77246664D01*
X204849631Y-77261184D01*
X204856869Y-77276487D01*
X204862572Y-77292426D01*
X204866685Y-77308847D01*
X204869169Y-77325592D01*
X204870000Y-77342500D01*
X204870000Y-77687500D01*
X204869169Y-77704408D01*
X204866685Y-77721153D01*
X204862572Y-77737574D01*
X204856869Y-77753513D01*
X204849631Y-77768816D01*
X204840929Y-77783336D01*
X204830844Y-77796933D01*
X204819476Y-77809476D01*
X204806933Y-77820844D01*
X204793336Y-77830929D01*
X204778816Y-77839631D01*
X204763513Y-77846869D01*
X204747574Y-77852572D01*
X204731153Y-77856685D01*
X204714408Y-77859169D01*
X204697500Y-77860000D01*
X204302500Y-77860000D01*
X204285592Y-77859169D01*
X204268847Y-77856685D01*
X204252426Y-77852572D01*
X204236487Y-77846869D01*
X204221184Y-77839631D01*
X204206664Y-77830929D01*
X204193067Y-77820844D01*
X204180524Y-77809476D01*
X204169156Y-77796933D01*
X204159071Y-77783336D01*
X204150369Y-77768816D01*
X204143131Y-77753513D01*
X204137428Y-77737574D01*
X204133315Y-77721153D01*
X204130831Y-77704408D01*
X204130000Y-77687500D01*
X204130000Y-77342500D01*
X204130831Y-77325592D01*
X204133315Y-77308847D01*
X204137428Y-77292426D01*
X204143131Y-77276487D01*
X204150369Y-77261184D01*
X204159071Y-77246664D01*
X204169156Y-77233067D01*
X204180524Y-77220524D01*
X204193067Y-77209156D01*
X204206664Y-77199071D01*
X204221184Y-77190369D01*
X204236487Y-77183131D01*
X204252426Y-77177428D01*
X204268847Y-77173315D01*
X204285592Y-77170831D01*
X204302500Y-77170000D01*
X204697500Y-77170000D01*
X204714408Y-77170831D01*
G37*
%TD*%
%TO.C,R2*%
G36*
X199674408Y-81130831D02*
G01*
X199691153Y-81133315D01*
X199707574Y-81137428D01*
X199723513Y-81143131D01*
X199738816Y-81150369D01*
X199753336Y-81159071D01*
X199766933Y-81169156D01*
X199779476Y-81180524D01*
X199790844Y-81193067D01*
X199800929Y-81206664D01*
X199809631Y-81221184D01*
X199816869Y-81236487D01*
X199822572Y-81252426D01*
X199826685Y-81268847D01*
X199829169Y-81285592D01*
X199830000Y-81302500D01*
X199830000Y-81697500D01*
X199829169Y-81714408D01*
X199826685Y-81731153D01*
X199822572Y-81747574D01*
X199816869Y-81763513D01*
X199809631Y-81778816D01*
X199800929Y-81793336D01*
X199790844Y-81806933D01*
X199779476Y-81819476D01*
X199766933Y-81830844D01*
X199753336Y-81840929D01*
X199738816Y-81849631D01*
X199723513Y-81856869D01*
X199707574Y-81862572D01*
X199691153Y-81866685D01*
X199674408Y-81869169D01*
X199657500Y-81870000D01*
X199312500Y-81870000D01*
X199295592Y-81869169D01*
X199278847Y-81866685D01*
X199262426Y-81862572D01*
X199246487Y-81856869D01*
X199231184Y-81849631D01*
X199216664Y-81840929D01*
X199203067Y-81830844D01*
X199190524Y-81819476D01*
X199179156Y-81806933D01*
X199169071Y-81793336D01*
X199160369Y-81778816D01*
X199153131Y-81763513D01*
X199147428Y-81747574D01*
X199143315Y-81731153D01*
X199140831Y-81714408D01*
X199140000Y-81697500D01*
X199140000Y-81302500D01*
X199140831Y-81285592D01*
X199143315Y-81268847D01*
X199147428Y-81252426D01*
X199153131Y-81236487D01*
X199160369Y-81221184D01*
X199169071Y-81206664D01*
X199179156Y-81193067D01*
X199190524Y-81180524D01*
X199203067Y-81169156D01*
X199216664Y-81159071D01*
X199231184Y-81150369D01*
X199246487Y-81143131D01*
X199262426Y-81137428D01*
X199278847Y-81133315D01*
X199295592Y-81130831D01*
X199312500Y-81130000D01*
X199657500Y-81130000D01*
X199674408Y-81130831D01*
G37*
G36*
X198704408Y-81130831D02*
G01*
X198721153Y-81133315D01*
X198737574Y-81137428D01*
X198753513Y-81143131D01*
X198768816Y-81150369D01*
X198783336Y-81159071D01*
X198796933Y-81169156D01*
X198809476Y-81180524D01*
X198820844Y-81193067D01*
X198830929Y-81206664D01*
X198839631Y-81221184D01*
X198846869Y-81236487D01*
X198852572Y-81252426D01*
X198856685Y-81268847D01*
X198859169Y-81285592D01*
X198860000Y-81302500D01*
X198860000Y-81697500D01*
X198859169Y-81714408D01*
X198856685Y-81731153D01*
X198852572Y-81747574D01*
X198846869Y-81763513D01*
X198839631Y-81778816D01*
X198830929Y-81793336D01*
X198820844Y-81806933D01*
X198809476Y-81819476D01*
X198796933Y-81830844D01*
X198783336Y-81840929D01*
X198768816Y-81849631D01*
X198753513Y-81856869D01*
X198737574Y-81862572D01*
X198721153Y-81866685D01*
X198704408Y-81869169D01*
X198687500Y-81870000D01*
X198342500Y-81870000D01*
X198325592Y-81869169D01*
X198308847Y-81866685D01*
X198292426Y-81862572D01*
X198276487Y-81856869D01*
X198261184Y-81849631D01*
X198246664Y-81840929D01*
X198233067Y-81830844D01*
X198220524Y-81819476D01*
X198209156Y-81806933D01*
X198199071Y-81793336D01*
X198190369Y-81778816D01*
X198183131Y-81763513D01*
X198177428Y-81747574D01*
X198173315Y-81731153D01*
X198170831Y-81714408D01*
X198170000Y-81697500D01*
X198170000Y-81302500D01*
X198170831Y-81285592D01*
X198173315Y-81268847D01*
X198177428Y-81252426D01*
X198183131Y-81236487D01*
X198190369Y-81221184D01*
X198199071Y-81206664D01*
X198209156Y-81193067D01*
X198220524Y-81180524D01*
X198233067Y-81169156D01*
X198246664Y-81159071D01*
X198261184Y-81150369D01*
X198276487Y-81143131D01*
X198292426Y-81137428D01*
X198308847Y-81133315D01*
X198325592Y-81130831D01*
X198342500Y-81130000D01*
X198687500Y-81130000D01*
X198704408Y-81130831D01*
G37*
%TD*%
%TO.C,R1*%
G36*
X195704408Y-75130831D02*
G01*
X195721153Y-75133315D01*
X195737574Y-75137428D01*
X195753513Y-75143131D01*
X195768816Y-75150369D01*
X195783336Y-75159071D01*
X195796933Y-75169156D01*
X195809476Y-75180524D01*
X195820844Y-75193067D01*
X195830929Y-75206664D01*
X195839631Y-75221184D01*
X195846869Y-75236487D01*
X195852572Y-75252426D01*
X195856685Y-75268847D01*
X195859169Y-75285592D01*
X195860000Y-75302500D01*
X195860000Y-75697500D01*
X195859169Y-75714408D01*
X195856685Y-75731153D01*
X195852572Y-75747574D01*
X195846869Y-75763513D01*
X195839631Y-75778816D01*
X195830929Y-75793336D01*
X195820844Y-75806933D01*
X195809476Y-75819476D01*
X195796933Y-75830844D01*
X195783336Y-75840929D01*
X195768816Y-75849631D01*
X195753513Y-75856869D01*
X195737574Y-75862572D01*
X195721153Y-75866685D01*
X195704408Y-75869169D01*
X195687500Y-75870000D01*
X195342500Y-75870000D01*
X195325592Y-75869169D01*
X195308847Y-75866685D01*
X195292426Y-75862572D01*
X195276487Y-75856869D01*
X195261184Y-75849631D01*
X195246664Y-75840929D01*
X195233067Y-75830844D01*
X195220524Y-75819476D01*
X195209156Y-75806933D01*
X195199071Y-75793336D01*
X195190369Y-75778816D01*
X195183131Y-75763513D01*
X195177428Y-75747574D01*
X195173315Y-75731153D01*
X195170831Y-75714408D01*
X195170000Y-75697500D01*
X195170000Y-75302500D01*
X195170831Y-75285592D01*
X195173315Y-75268847D01*
X195177428Y-75252426D01*
X195183131Y-75236487D01*
X195190369Y-75221184D01*
X195199071Y-75206664D01*
X195209156Y-75193067D01*
X195220524Y-75180524D01*
X195233067Y-75169156D01*
X195246664Y-75159071D01*
X195261184Y-75150369D01*
X195276487Y-75143131D01*
X195292426Y-75137428D01*
X195308847Y-75133315D01*
X195325592Y-75130831D01*
X195342500Y-75130000D01*
X195687500Y-75130000D01*
X195704408Y-75130831D01*
G37*
G36*
X196674408Y-75130831D02*
G01*
X196691153Y-75133315D01*
X196707574Y-75137428D01*
X196723513Y-75143131D01*
X196738816Y-75150369D01*
X196753336Y-75159071D01*
X196766933Y-75169156D01*
X196779476Y-75180524D01*
X196790844Y-75193067D01*
X196800929Y-75206664D01*
X196809631Y-75221184D01*
X196816869Y-75236487D01*
X196822572Y-75252426D01*
X196826685Y-75268847D01*
X196829169Y-75285592D01*
X196830000Y-75302500D01*
X196830000Y-75697500D01*
X196829169Y-75714408D01*
X196826685Y-75731153D01*
X196822572Y-75747574D01*
X196816869Y-75763513D01*
X196809631Y-75778816D01*
X196800929Y-75793336D01*
X196790844Y-75806933D01*
X196779476Y-75819476D01*
X196766933Y-75830844D01*
X196753336Y-75840929D01*
X196738816Y-75849631D01*
X196723513Y-75856869D01*
X196707574Y-75862572D01*
X196691153Y-75866685D01*
X196674408Y-75869169D01*
X196657500Y-75870000D01*
X196312500Y-75870000D01*
X196295592Y-75869169D01*
X196278847Y-75866685D01*
X196262426Y-75862572D01*
X196246487Y-75856869D01*
X196231184Y-75849631D01*
X196216664Y-75840929D01*
X196203067Y-75830844D01*
X196190524Y-75819476D01*
X196179156Y-75806933D01*
X196169071Y-75793336D01*
X196160369Y-75778816D01*
X196153131Y-75763513D01*
X196147428Y-75747574D01*
X196143315Y-75731153D01*
X196140831Y-75714408D01*
X196140000Y-75697500D01*
X196140000Y-75302500D01*
X196140831Y-75285592D01*
X196143315Y-75268847D01*
X196147428Y-75252426D01*
X196153131Y-75236487D01*
X196160369Y-75221184D01*
X196169071Y-75206664D01*
X196179156Y-75193067D01*
X196190524Y-75180524D01*
X196203067Y-75169156D01*
X196216664Y-75159071D01*
X196231184Y-75150369D01*
X196246487Y-75143131D01*
X196262426Y-75137428D01*
X196278847Y-75133315D01*
X196295592Y-75130831D01*
X196312500Y-75130000D01*
X196657500Y-75130000D01*
X196674408Y-75130831D01*
G37*
%TD*%
D22*
%TO.C,Q2*%
X195500000Y-78500000D03*
X197500000Y-77550000D03*
X197500000Y-79450000D03*
%TD*%
%TO.C,Q1*%
X202500000Y-78500000D03*
X200500000Y-79450000D03*
X200500000Y-77550000D03*
%TD*%
D23*
%TO.C,J12*%
X182000000Y-72000000D03*
X182000000Y-67000000D03*
%TD*%
%TO.C,J11*%
X182000000Y-85000000D03*
X182000000Y-80000000D03*
%TD*%
%TO.C,J10*%
X182000000Y-98000000D03*
X182000000Y-93000000D03*
%TD*%
%TO.C,J9*%
X196000000Y-107000000D03*
X191000000Y-107000000D03*
%TD*%
%TO.C,J8*%
X209000000Y-107000000D03*
X204000000Y-107000000D03*
%TD*%
%TO.C,J7*%
X222000000Y-107000000D03*
X217000000Y-107000000D03*
%TD*%
%TO.C,J6*%
X235000000Y-107000000D03*
X230000000Y-107000000D03*
%TD*%
%TO.C,J5*%
X244000000Y-93000000D03*
X244000000Y-98000000D03*
%TD*%
%TO.C,J4*%
X244000000Y-80000000D03*
X244000000Y-85000000D03*
%TD*%
%TO.C,J3*%
X244000000Y-67000000D03*
X244000000Y-72000000D03*
%TD*%
D24*
%TO.C,J2*%
X203000000Y-64160000D03*
X203000000Y-61620000D03*
X203000000Y-59080000D03*
X203000000Y-56540000D03*
D25*
X203000000Y-54000000D03*
%TD*%
D26*
%TO.C,J1*%
X190950000Y-53400000D03*
X197050000Y-53400000D03*
X193000000Y-53400000D03*
X195000000Y-53400000D03*
D27*
X190500000Y-53400000D03*
X197500000Y-53400000D03*
D28*
X191500000Y-56100000D03*
X196500000Y-56100000D03*
D29*
X192700000Y-56075000D03*
X193350000Y-56075000D03*
X194000000Y-56075000D03*
X194650000Y-56075000D03*
X195300000Y-56075000D03*
%TD*%
D30*
%TO.C,H4*%
X245500000Y-108500000D03*
%TD*%
%TO.C,H3*%
X245500000Y-57000000D03*
%TD*%
%TO.C,H2*%
X180500000Y-108500000D03*
%TD*%
%TO.C,H1*%
X180500000Y-57000000D03*
%TD*%
D13*
%TO.C,D2*%
G36*
X221805142Y-83226174D02*
G01*
X221828803Y-83229684D01*
X221852007Y-83235496D01*
X221874529Y-83243554D01*
X221896153Y-83253782D01*
X221916670Y-83266079D01*
X221935883Y-83280329D01*
X221953607Y-83296393D01*
X221969671Y-83314117D01*
X221983921Y-83333330D01*
X221996218Y-83353847D01*
X222006446Y-83375471D01*
X222014504Y-83397993D01*
X222020316Y-83421197D01*
X222023826Y-83444858D01*
X222025000Y-83468750D01*
X222025000Y-83956250D01*
X222023826Y-83980142D01*
X222020316Y-84003803D01*
X222014504Y-84027007D01*
X222006446Y-84049529D01*
X221996218Y-84071153D01*
X221983921Y-84091670D01*
X221969671Y-84110883D01*
X221953607Y-84128607D01*
X221935883Y-84144671D01*
X221916670Y-84158921D01*
X221896153Y-84171218D01*
X221874529Y-84181446D01*
X221852007Y-84189504D01*
X221828803Y-84195316D01*
X221805142Y-84198826D01*
X221781250Y-84200000D01*
X221218750Y-84200000D01*
X221194858Y-84198826D01*
X221171197Y-84195316D01*
X221147993Y-84189504D01*
X221125471Y-84181446D01*
X221103847Y-84171218D01*
X221083330Y-84158921D01*
X221064117Y-84144671D01*
X221046393Y-84128607D01*
X221030329Y-84110883D01*
X221016079Y-84091670D01*
X221003782Y-84071153D01*
X220993554Y-84049529D01*
X220985496Y-84027007D01*
X220979684Y-84003803D01*
X220976174Y-83980142D01*
X220975000Y-83956250D01*
X220975000Y-83468750D01*
X220976174Y-83444858D01*
X220979684Y-83421197D01*
X220985496Y-83397993D01*
X220993554Y-83375471D01*
X221003782Y-83353847D01*
X221016079Y-83333330D01*
X221030329Y-83314117D01*
X221046393Y-83296393D01*
X221064117Y-83280329D01*
X221083330Y-83266079D01*
X221103847Y-83253782D01*
X221125471Y-83243554D01*
X221147993Y-83235496D01*
X221171197Y-83229684D01*
X221194858Y-83226174D01*
X221218750Y-83225000D01*
X221781250Y-83225000D01*
X221805142Y-83226174D01*
G37*
G36*
X221805142Y-84801174D02*
G01*
X221828803Y-84804684D01*
X221852007Y-84810496D01*
X221874529Y-84818554D01*
X221896153Y-84828782D01*
X221916670Y-84841079D01*
X221935883Y-84855329D01*
X221953607Y-84871393D01*
X221969671Y-84889117D01*
X221983921Y-84908330D01*
X221996218Y-84928847D01*
X222006446Y-84950471D01*
X222014504Y-84972993D01*
X222020316Y-84996197D01*
X222023826Y-85019858D01*
X222025000Y-85043750D01*
X222025000Y-85531250D01*
X222023826Y-85555142D01*
X222020316Y-85578803D01*
X222014504Y-85602007D01*
X222006446Y-85624529D01*
X221996218Y-85646153D01*
X221983921Y-85666670D01*
X221969671Y-85685883D01*
X221953607Y-85703607D01*
X221935883Y-85719671D01*
X221916670Y-85733921D01*
X221896153Y-85746218D01*
X221874529Y-85756446D01*
X221852007Y-85764504D01*
X221828803Y-85770316D01*
X221805142Y-85773826D01*
X221781250Y-85775000D01*
X221218750Y-85775000D01*
X221194858Y-85773826D01*
X221171197Y-85770316D01*
X221147993Y-85764504D01*
X221125471Y-85756446D01*
X221103847Y-85746218D01*
X221083330Y-85733921D01*
X221064117Y-85719671D01*
X221046393Y-85703607D01*
X221030329Y-85685883D01*
X221016079Y-85666670D01*
X221003782Y-85646153D01*
X220993554Y-85624529D01*
X220985496Y-85602007D01*
X220979684Y-85578803D01*
X220976174Y-85555142D01*
X220975000Y-85531250D01*
X220975000Y-85043750D01*
X220976174Y-85019858D01*
X220979684Y-84996197D01*
X220985496Y-84972993D01*
X220993554Y-84950471D01*
X221003782Y-84928847D01*
X221016079Y-84908330D01*
X221030329Y-84889117D01*
X221046393Y-84871393D01*
X221064117Y-84855329D01*
X221083330Y-84841079D01*
X221103847Y-84828782D01*
X221125471Y-84818554D01*
X221147993Y-84810496D01*
X221171197Y-84804684D01*
X221194858Y-84801174D01*
X221218750Y-84800000D01*
X221781250Y-84800000D01*
X221805142Y-84801174D01*
G37*
%TD*%
%TO.C,C17*%
G36*
X191714408Y-70140831D02*
G01*
X191731153Y-70143315D01*
X191747574Y-70147428D01*
X191763513Y-70153131D01*
X191778816Y-70160369D01*
X191793336Y-70169071D01*
X191806933Y-70179156D01*
X191819476Y-70190524D01*
X191830844Y-70203067D01*
X191840929Y-70216664D01*
X191849631Y-70231184D01*
X191856869Y-70246487D01*
X191862572Y-70262426D01*
X191866685Y-70278847D01*
X191869169Y-70295592D01*
X191870000Y-70312500D01*
X191870000Y-70657500D01*
X191869169Y-70674408D01*
X191866685Y-70691153D01*
X191862572Y-70707574D01*
X191856869Y-70723513D01*
X191849631Y-70738816D01*
X191840929Y-70753336D01*
X191830844Y-70766933D01*
X191819476Y-70779476D01*
X191806933Y-70790844D01*
X191793336Y-70800929D01*
X191778816Y-70809631D01*
X191763513Y-70816869D01*
X191747574Y-70822572D01*
X191731153Y-70826685D01*
X191714408Y-70829169D01*
X191697500Y-70830000D01*
X191302500Y-70830000D01*
X191285592Y-70829169D01*
X191268847Y-70826685D01*
X191252426Y-70822572D01*
X191236487Y-70816869D01*
X191221184Y-70809631D01*
X191206664Y-70800929D01*
X191193067Y-70790844D01*
X191180524Y-70779476D01*
X191169156Y-70766933D01*
X191159071Y-70753336D01*
X191150369Y-70738816D01*
X191143131Y-70723513D01*
X191137428Y-70707574D01*
X191133315Y-70691153D01*
X191130831Y-70674408D01*
X191130000Y-70657500D01*
X191130000Y-70312500D01*
X191130831Y-70295592D01*
X191133315Y-70278847D01*
X191137428Y-70262426D01*
X191143131Y-70246487D01*
X191150369Y-70231184D01*
X191159071Y-70216664D01*
X191169156Y-70203067D01*
X191180524Y-70190524D01*
X191193067Y-70179156D01*
X191206664Y-70169071D01*
X191221184Y-70160369D01*
X191236487Y-70153131D01*
X191252426Y-70147428D01*
X191268847Y-70143315D01*
X191285592Y-70140831D01*
X191302500Y-70140000D01*
X191697500Y-70140000D01*
X191714408Y-70140831D01*
G37*
G36*
X191714408Y-69170831D02*
G01*
X191731153Y-69173315D01*
X191747574Y-69177428D01*
X191763513Y-69183131D01*
X191778816Y-69190369D01*
X191793336Y-69199071D01*
X191806933Y-69209156D01*
X191819476Y-69220524D01*
X191830844Y-69233067D01*
X191840929Y-69246664D01*
X191849631Y-69261184D01*
X191856869Y-69276487D01*
X191862572Y-69292426D01*
X191866685Y-69308847D01*
X191869169Y-69325592D01*
X191870000Y-69342500D01*
X191870000Y-69687500D01*
X191869169Y-69704408D01*
X191866685Y-69721153D01*
X191862572Y-69737574D01*
X191856869Y-69753513D01*
X191849631Y-69768816D01*
X191840929Y-69783336D01*
X191830844Y-69796933D01*
X191819476Y-69809476D01*
X191806933Y-69820844D01*
X191793336Y-69830929D01*
X191778816Y-69839631D01*
X191763513Y-69846869D01*
X191747574Y-69852572D01*
X191731153Y-69856685D01*
X191714408Y-69859169D01*
X191697500Y-69860000D01*
X191302500Y-69860000D01*
X191285592Y-69859169D01*
X191268847Y-69856685D01*
X191252426Y-69852572D01*
X191236487Y-69846869D01*
X191221184Y-69839631D01*
X191206664Y-69830929D01*
X191193067Y-69820844D01*
X191180524Y-69809476D01*
X191169156Y-69796933D01*
X191159071Y-69783336D01*
X191150369Y-69768816D01*
X191143131Y-69753513D01*
X191137428Y-69737574D01*
X191133315Y-69721153D01*
X191130831Y-69704408D01*
X191130000Y-69687500D01*
X191130000Y-69342500D01*
X191130831Y-69325592D01*
X191133315Y-69308847D01*
X191137428Y-69292426D01*
X191143131Y-69276487D01*
X191150369Y-69261184D01*
X191159071Y-69246664D01*
X191169156Y-69233067D01*
X191180524Y-69220524D01*
X191193067Y-69209156D01*
X191206664Y-69199071D01*
X191221184Y-69190369D01*
X191236487Y-69183131D01*
X191252426Y-69177428D01*
X191268847Y-69173315D01*
X191285592Y-69170831D01*
X191302500Y-69170000D01*
X191697500Y-69170000D01*
X191714408Y-69170831D01*
G37*
%TD*%
%TO.C,C16*%
G36*
X191714408Y-83140831D02*
G01*
X191731153Y-83143315D01*
X191747574Y-83147428D01*
X191763513Y-83153131D01*
X191778816Y-83160369D01*
X191793336Y-83169071D01*
X191806933Y-83179156D01*
X191819476Y-83190524D01*
X191830844Y-83203067D01*
X191840929Y-83216664D01*
X191849631Y-83231184D01*
X191856869Y-83246487D01*
X191862572Y-83262426D01*
X191866685Y-83278847D01*
X191869169Y-83295592D01*
X191870000Y-83312500D01*
X191870000Y-83657500D01*
X191869169Y-83674408D01*
X191866685Y-83691153D01*
X191862572Y-83707574D01*
X191856869Y-83723513D01*
X191849631Y-83738816D01*
X191840929Y-83753336D01*
X191830844Y-83766933D01*
X191819476Y-83779476D01*
X191806933Y-83790844D01*
X191793336Y-83800929D01*
X191778816Y-83809631D01*
X191763513Y-83816869D01*
X191747574Y-83822572D01*
X191731153Y-83826685D01*
X191714408Y-83829169D01*
X191697500Y-83830000D01*
X191302500Y-83830000D01*
X191285592Y-83829169D01*
X191268847Y-83826685D01*
X191252426Y-83822572D01*
X191236487Y-83816869D01*
X191221184Y-83809631D01*
X191206664Y-83800929D01*
X191193067Y-83790844D01*
X191180524Y-83779476D01*
X191169156Y-83766933D01*
X191159071Y-83753336D01*
X191150369Y-83738816D01*
X191143131Y-83723513D01*
X191137428Y-83707574D01*
X191133315Y-83691153D01*
X191130831Y-83674408D01*
X191130000Y-83657500D01*
X191130000Y-83312500D01*
X191130831Y-83295592D01*
X191133315Y-83278847D01*
X191137428Y-83262426D01*
X191143131Y-83246487D01*
X191150369Y-83231184D01*
X191159071Y-83216664D01*
X191169156Y-83203067D01*
X191180524Y-83190524D01*
X191193067Y-83179156D01*
X191206664Y-83169071D01*
X191221184Y-83160369D01*
X191236487Y-83153131D01*
X191252426Y-83147428D01*
X191268847Y-83143315D01*
X191285592Y-83140831D01*
X191302500Y-83140000D01*
X191697500Y-83140000D01*
X191714408Y-83140831D01*
G37*
G36*
X191714408Y-82170831D02*
G01*
X191731153Y-82173315D01*
X191747574Y-82177428D01*
X191763513Y-82183131D01*
X191778816Y-82190369D01*
X191793336Y-82199071D01*
X191806933Y-82209156D01*
X191819476Y-82220524D01*
X191830844Y-82233067D01*
X191840929Y-82246664D01*
X191849631Y-82261184D01*
X191856869Y-82276487D01*
X191862572Y-82292426D01*
X191866685Y-82308847D01*
X191869169Y-82325592D01*
X191870000Y-82342500D01*
X191870000Y-82687500D01*
X191869169Y-82704408D01*
X191866685Y-82721153D01*
X191862572Y-82737574D01*
X191856869Y-82753513D01*
X191849631Y-82768816D01*
X191840929Y-82783336D01*
X191830844Y-82796933D01*
X191819476Y-82809476D01*
X191806933Y-82820844D01*
X191793336Y-82830929D01*
X191778816Y-82839631D01*
X191763513Y-82846869D01*
X191747574Y-82852572D01*
X191731153Y-82856685D01*
X191714408Y-82859169D01*
X191697500Y-82860000D01*
X191302500Y-82860000D01*
X191285592Y-82859169D01*
X191268847Y-82856685D01*
X191252426Y-82852572D01*
X191236487Y-82846869D01*
X191221184Y-82839631D01*
X191206664Y-82830929D01*
X191193067Y-82820844D01*
X191180524Y-82809476D01*
X191169156Y-82796933D01*
X191159071Y-82783336D01*
X191150369Y-82768816D01*
X191143131Y-82753513D01*
X191137428Y-82737574D01*
X191133315Y-82721153D01*
X191130831Y-82704408D01*
X191130000Y-82687500D01*
X191130000Y-82342500D01*
X191130831Y-82325592D01*
X191133315Y-82308847D01*
X191137428Y-82292426D01*
X191143131Y-82276487D01*
X191150369Y-82261184D01*
X191159071Y-82246664D01*
X191169156Y-82233067D01*
X191180524Y-82220524D01*
X191193067Y-82209156D01*
X191206664Y-82199071D01*
X191221184Y-82190369D01*
X191236487Y-82183131D01*
X191252426Y-82177428D01*
X191268847Y-82173315D01*
X191285592Y-82170831D01*
X191302500Y-82170000D01*
X191697500Y-82170000D01*
X191714408Y-82170831D01*
G37*
%TD*%
%TO.C,C15*%
G36*
X191714408Y-95125831D02*
G01*
X191731153Y-95128315D01*
X191747574Y-95132428D01*
X191763513Y-95138131D01*
X191778816Y-95145369D01*
X191793336Y-95154071D01*
X191806933Y-95164156D01*
X191819476Y-95175524D01*
X191830844Y-95188067D01*
X191840929Y-95201664D01*
X191849631Y-95216184D01*
X191856869Y-95231487D01*
X191862572Y-95247426D01*
X191866685Y-95263847D01*
X191869169Y-95280592D01*
X191870000Y-95297500D01*
X191870000Y-95642500D01*
X191869169Y-95659408D01*
X191866685Y-95676153D01*
X191862572Y-95692574D01*
X191856869Y-95708513D01*
X191849631Y-95723816D01*
X191840929Y-95738336D01*
X191830844Y-95751933D01*
X191819476Y-95764476D01*
X191806933Y-95775844D01*
X191793336Y-95785929D01*
X191778816Y-95794631D01*
X191763513Y-95801869D01*
X191747574Y-95807572D01*
X191731153Y-95811685D01*
X191714408Y-95814169D01*
X191697500Y-95815000D01*
X191302500Y-95815000D01*
X191285592Y-95814169D01*
X191268847Y-95811685D01*
X191252426Y-95807572D01*
X191236487Y-95801869D01*
X191221184Y-95794631D01*
X191206664Y-95785929D01*
X191193067Y-95775844D01*
X191180524Y-95764476D01*
X191169156Y-95751933D01*
X191159071Y-95738336D01*
X191150369Y-95723816D01*
X191143131Y-95708513D01*
X191137428Y-95692574D01*
X191133315Y-95676153D01*
X191130831Y-95659408D01*
X191130000Y-95642500D01*
X191130000Y-95297500D01*
X191130831Y-95280592D01*
X191133315Y-95263847D01*
X191137428Y-95247426D01*
X191143131Y-95231487D01*
X191150369Y-95216184D01*
X191159071Y-95201664D01*
X191169156Y-95188067D01*
X191180524Y-95175524D01*
X191193067Y-95164156D01*
X191206664Y-95154071D01*
X191221184Y-95145369D01*
X191236487Y-95138131D01*
X191252426Y-95132428D01*
X191268847Y-95128315D01*
X191285592Y-95125831D01*
X191302500Y-95125000D01*
X191697500Y-95125000D01*
X191714408Y-95125831D01*
G37*
G36*
X191714408Y-94155831D02*
G01*
X191731153Y-94158315D01*
X191747574Y-94162428D01*
X191763513Y-94168131D01*
X191778816Y-94175369D01*
X191793336Y-94184071D01*
X191806933Y-94194156D01*
X191819476Y-94205524D01*
X191830844Y-94218067D01*
X191840929Y-94231664D01*
X191849631Y-94246184D01*
X191856869Y-94261487D01*
X191862572Y-94277426D01*
X191866685Y-94293847D01*
X191869169Y-94310592D01*
X191870000Y-94327500D01*
X191870000Y-94672500D01*
X191869169Y-94689408D01*
X191866685Y-94706153D01*
X191862572Y-94722574D01*
X191856869Y-94738513D01*
X191849631Y-94753816D01*
X191840929Y-94768336D01*
X191830844Y-94781933D01*
X191819476Y-94794476D01*
X191806933Y-94805844D01*
X191793336Y-94815929D01*
X191778816Y-94824631D01*
X191763513Y-94831869D01*
X191747574Y-94837572D01*
X191731153Y-94841685D01*
X191714408Y-94844169D01*
X191697500Y-94845000D01*
X191302500Y-94845000D01*
X191285592Y-94844169D01*
X191268847Y-94841685D01*
X191252426Y-94837572D01*
X191236487Y-94831869D01*
X191221184Y-94824631D01*
X191206664Y-94815929D01*
X191193067Y-94805844D01*
X191180524Y-94794476D01*
X191169156Y-94781933D01*
X191159071Y-94768336D01*
X191150369Y-94753816D01*
X191143131Y-94738513D01*
X191137428Y-94722574D01*
X191133315Y-94706153D01*
X191130831Y-94689408D01*
X191130000Y-94672500D01*
X191130000Y-94327500D01*
X191130831Y-94310592D01*
X191133315Y-94293847D01*
X191137428Y-94277426D01*
X191143131Y-94261487D01*
X191150369Y-94246184D01*
X191159071Y-94231664D01*
X191169156Y-94218067D01*
X191180524Y-94205524D01*
X191193067Y-94194156D01*
X191206664Y-94184071D01*
X191221184Y-94175369D01*
X191236487Y-94168131D01*
X191252426Y-94162428D01*
X191268847Y-94158315D01*
X191285592Y-94155831D01*
X191302500Y-94155000D01*
X191697500Y-94155000D01*
X191714408Y-94155831D01*
G37*
%TD*%
%TO.C,C14*%
G36*
X197174408Y-97130831D02*
G01*
X197191153Y-97133315D01*
X197207574Y-97137428D01*
X197223513Y-97143131D01*
X197238816Y-97150369D01*
X197253336Y-97159071D01*
X197266933Y-97169156D01*
X197279476Y-97180524D01*
X197290844Y-97193067D01*
X197300929Y-97206664D01*
X197309631Y-97221184D01*
X197316869Y-97236487D01*
X197322572Y-97252426D01*
X197326685Y-97268847D01*
X197329169Y-97285592D01*
X197330000Y-97302500D01*
X197330000Y-97697500D01*
X197329169Y-97714408D01*
X197326685Y-97731153D01*
X197322572Y-97747574D01*
X197316869Y-97763513D01*
X197309631Y-97778816D01*
X197300929Y-97793336D01*
X197290844Y-97806933D01*
X197279476Y-97819476D01*
X197266933Y-97830844D01*
X197253336Y-97840929D01*
X197238816Y-97849631D01*
X197223513Y-97856869D01*
X197207574Y-97862572D01*
X197191153Y-97866685D01*
X197174408Y-97869169D01*
X197157500Y-97870000D01*
X196812500Y-97870000D01*
X196795592Y-97869169D01*
X196778847Y-97866685D01*
X196762426Y-97862572D01*
X196746487Y-97856869D01*
X196731184Y-97849631D01*
X196716664Y-97840929D01*
X196703067Y-97830844D01*
X196690524Y-97819476D01*
X196679156Y-97806933D01*
X196669071Y-97793336D01*
X196660369Y-97778816D01*
X196653131Y-97763513D01*
X196647428Y-97747574D01*
X196643315Y-97731153D01*
X196640831Y-97714408D01*
X196640000Y-97697500D01*
X196640000Y-97302500D01*
X196640831Y-97285592D01*
X196643315Y-97268847D01*
X196647428Y-97252426D01*
X196653131Y-97236487D01*
X196660369Y-97221184D01*
X196669071Y-97206664D01*
X196679156Y-97193067D01*
X196690524Y-97180524D01*
X196703067Y-97169156D01*
X196716664Y-97159071D01*
X196731184Y-97150369D01*
X196746487Y-97143131D01*
X196762426Y-97137428D01*
X196778847Y-97133315D01*
X196795592Y-97130831D01*
X196812500Y-97130000D01*
X197157500Y-97130000D01*
X197174408Y-97130831D01*
G37*
G36*
X196204408Y-97130831D02*
G01*
X196221153Y-97133315D01*
X196237574Y-97137428D01*
X196253513Y-97143131D01*
X196268816Y-97150369D01*
X196283336Y-97159071D01*
X196296933Y-97169156D01*
X196309476Y-97180524D01*
X196320844Y-97193067D01*
X196330929Y-97206664D01*
X196339631Y-97221184D01*
X196346869Y-97236487D01*
X196352572Y-97252426D01*
X196356685Y-97268847D01*
X196359169Y-97285592D01*
X196360000Y-97302500D01*
X196360000Y-97697500D01*
X196359169Y-97714408D01*
X196356685Y-97731153D01*
X196352572Y-97747574D01*
X196346869Y-97763513D01*
X196339631Y-97778816D01*
X196330929Y-97793336D01*
X196320844Y-97806933D01*
X196309476Y-97819476D01*
X196296933Y-97830844D01*
X196283336Y-97840929D01*
X196268816Y-97849631D01*
X196253513Y-97856869D01*
X196237574Y-97862572D01*
X196221153Y-97866685D01*
X196204408Y-97869169D01*
X196187500Y-97870000D01*
X195842500Y-97870000D01*
X195825592Y-97869169D01*
X195808847Y-97866685D01*
X195792426Y-97862572D01*
X195776487Y-97856869D01*
X195761184Y-97849631D01*
X195746664Y-97840929D01*
X195733067Y-97830844D01*
X195720524Y-97819476D01*
X195709156Y-97806933D01*
X195699071Y-97793336D01*
X195690369Y-97778816D01*
X195683131Y-97763513D01*
X195677428Y-97747574D01*
X195673315Y-97731153D01*
X195670831Y-97714408D01*
X195670000Y-97697500D01*
X195670000Y-97302500D01*
X195670831Y-97285592D01*
X195673315Y-97268847D01*
X195677428Y-97252426D01*
X195683131Y-97236487D01*
X195690369Y-97221184D01*
X195699071Y-97206664D01*
X195709156Y-97193067D01*
X195720524Y-97180524D01*
X195733067Y-97169156D01*
X195746664Y-97159071D01*
X195761184Y-97150369D01*
X195776487Y-97143131D01*
X195792426Y-97137428D01*
X195808847Y-97133315D01*
X195825592Y-97130831D01*
X195842500Y-97130000D01*
X196187500Y-97130000D01*
X196204408Y-97130831D01*
G37*
%TD*%
%TO.C,C13*%
G36*
X209174408Y-97130831D02*
G01*
X209191153Y-97133315D01*
X209207574Y-97137428D01*
X209223513Y-97143131D01*
X209238816Y-97150369D01*
X209253336Y-97159071D01*
X209266933Y-97169156D01*
X209279476Y-97180524D01*
X209290844Y-97193067D01*
X209300929Y-97206664D01*
X209309631Y-97221184D01*
X209316869Y-97236487D01*
X209322572Y-97252426D01*
X209326685Y-97268847D01*
X209329169Y-97285592D01*
X209330000Y-97302500D01*
X209330000Y-97697500D01*
X209329169Y-97714408D01*
X209326685Y-97731153D01*
X209322572Y-97747574D01*
X209316869Y-97763513D01*
X209309631Y-97778816D01*
X209300929Y-97793336D01*
X209290844Y-97806933D01*
X209279476Y-97819476D01*
X209266933Y-97830844D01*
X209253336Y-97840929D01*
X209238816Y-97849631D01*
X209223513Y-97856869D01*
X209207574Y-97862572D01*
X209191153Y-97866685D01*
X209174408Y-97869169D01*
X209157500Y-97870000D01*
X208812500Y-97870000D01*
X208795592Y-97869169D01*
X208778847Y-97866685D01*
X208762426Y-97862572D01*
X208746487Y-97856869D01*
X208731184Y-97849631D01*
X208716664Y-97840929D01*
X208703067Y-97830844D01*
X208690524Y-97819476D01*
X208679156Y-97806933D01*
X208669071Y-97793336D01*
X208660369Y-97778816D01*
X208653131Y-97763513D01*
X208647428Y-97747574D01*
X208643315Y-97731153D01*
X208640831Y-97714408D01*
X208640000Y-97697500D01*
X208640000Y-97302500D01*
X208640831Y-97285592D01*
X208643315Y-97268847D01*
X208647428Y-97252426D01*
X208653131Y-97236487D01*
X208660369Y-97221184D01*
X208669071Y-97206664D01*
X208679156Y-97193067D01*
X208690524Y-97180524D01*
X208703067Y-97169156D01*
X208716664Y-97159071D01*
X208731184Y-97150369D01*
X208746487Y-97143131D01*
X208762426Y-97137428D01*
X208778847Y-97133315D01*
X208795592Y-97130831D01*
X208812500Y-97130000D01*
X209157500Y-97130000D01*
X209174408Y-97130831D01*
G37*
G36*
X208204408Y-97130831D02*
G01*
X208221153Y-97133315D01*
X208237574Y-97137428D01*
X208253513Y-97143131D01*
X208268816Y-97150369D01*
X208283336Y-97159071D01*
X208296933Y-97169156D01*
X208309476Y-97180524D01*
X208320844Y-97193067D01*
X208330929Y-97206664D01*
X208339631Y-97221184D01*
X208346869Y-97236487D01*
X208352572Y-97252426D01*
X208356685Y-97268847D01*
X208359169Y-97285592D01*
X208360000Y-97302500D01*
X208360000Y-97697500D01*
X208359169Y-97714408D01*
X208356685Y-97731153D01*
X208352572Y-97747574D01*
X208346869Y-97763513D01*
X208339631Y-97778816D01*
X208330929Y-97793336D01*
X208320844Y-97806933D01*
X208309476Y-97819476D01*
X208296933Y-97830844D01*
X208283336Y-97840929D01*
X208268816Y-97849631D01*
X208253513Y-97856869D01*
X208237574Y-97862572D01*
X208221153Y-97866685D01*
X208204408Y-97869169D01*
X208187500Y-97870000D01*
X207842500Y-97870000D01*
X207825592Y-97869169D01*
X207808847Y-97866685D01*
X207792426Y-97862572D01*
X207776487Y-97856869D01*
X207761184Y-97849631D01*
X207746664Y-97840929D01*
X207733067Y-97830844D01*
X207720524Y-97819476D01*
X207709156Y-97806933D01*
X207699071Y-97793336D01*
X207690369Y-97778816D01*
X207683131Y-97763513D01*
X207677428Y-97747574D01*
X207673315Y-97731153D01*
X207670831Y-97714408D01*
X207670000Y-97697500D01*
X207670000Y-97302500D01*
X207670831Y-97285592D01*
X207673315Y-97268847D01*
X207677428Y-97252426D01*
X207683131Y-97236487D01*
X207690369Y-97221184D01*
X207699071Y-97206664D01*
X207709156Y-97193067D01*
X207720524Y-97180524D01*
X207733067Y-97169156D01*
X207746664Y-97159071D01*
X207761184Y-97150369D01*
X207776487Y-97143131D01*
X207792426Y-97137428D01*
X207808847Y-97133315D01*
X207825592Y-97130831D01*
X207842500Y-97130000D01*
X208187500Y-97130000D01*
X208204408Y-97130831D01*
G37*
%TD*%
%TO.C,C12*%
G36*
X221674408Y-97130831D02*
G01*
X221691153Y-97133315D01*
X221707574Y-97137428D01*
X221723513Y-97143131D01*
X221738816Y-97150369D01*
X221753336Y-97159071D01*
X221766933Y-97169156D01*
X221779476Y-97180524D01*
X221790844Y-97193067D01*
X221800929Y-97206664D01*
X221809631Y-97221184D01*
X221816869Y-97236487D01*
X221822572Y-97252426D01*
X221826685Y-97268847D01*
X221829169Y-97285592D01*
X221830000Y-97302500D01*
X221830000Y-97697500D01*
X221829169Y-97714408D01*
X221826685Y-97731153D01*
X221822572Y-97747574D01*
X221816869Y-97763513D01*
X221809631Y-97778816D01*
X221800929Y-97793336D01*
X221790844Y-97806933D01*
X221779476Y-97819476D01*
X221766933Y-97830844D01*
X221753336Y-97840929D01*
X221738816Y-97849631D01*
X221723513Y-97856869D01*
X221707574Y-97862572D01*
X221691153Y-97866685D01*
X221674408Y-97869169D01*
X221657500Y-97870000D01*
X221312500Y-97870000D01*
X221295592Y-97869169D01*
X221278847Y-97866685D01*
X221262426Y-97862572D01*
X221246487Y-97856869D01*
X221231184Y-97849631D01*
X221216664Y-97840929D01*
X221203067Y-97830844D01*
X221190524Y-97819476D01*
X221179156Y-97806933D01*
X221169071Y-97793336D01*
X221160369Y-97778816D01*
X221153131Y-97763513D01*
X221147428Y-97747574D01*
X221143315Y-97731153D01*
X221140831Y-97714408D01*
X221140000Y-97697500D01*
X221140000Y-97302500D01*
X221140831Y-97285592D01*
X221143315Y-97268847D01*
X221147428Y-97252426D01*
X221153131Y-97236487D01*
X221160369Y-97221184D01*
X221169071Y-97206664D01*
X221179156Y-97193067D01*
X221190524Y-97180524D01*
X221203067Y-97169156D01*
X221216664Y-97159071D01*
X221231184Y-97150369D01*
X221246487Y-97143131D01*
X221262426Y-97137428D01*
X221278847Y-97133315D01*
X221295592Y-97130831D01*
X221312500Y-97130000D01*
X221657500Y-97130000D01*
X221674408Y-97130831D01*
G37*
G36*
X220704408Y-97130831D02*
G01*
X220721153Y-97133315D01*
X220737574Y-97137428D01*
X220753513Y-97143131D01*
X220768816Y-97150369D01*
X220783336Y-97159071D01*
X220796933Y-97169156D01*
X220809476Y-97180524D01*
X220820844Y-97193067D01*
X220830929Y-97206664D01*
X220839631Y-97221184D01*
X220846869Y-97236487D01*
X220852572Y-97252426D01*
X220856685Y-97268847D01*
X220859169Y-97285592D01*
X220860000Y-97302500D01*
X220860000Y-97697500D01*
X220859169Y-97714408D01*
X220856685Y-97731153D01*
X220852572Y-97747574D01*
X220846869Y-97763513D01*
X220839631Y-97778816D01*
X220830929Y-97793336D01*
X220820844Y-97806933D01*
X220809476Y-97819476D01*
X220796933Y-97830844D01*
X220783336Y-97840929D01*
X220768816Y-97849631D01*
X220753513Y-97856869D01*
X220737574Y-97862572D01*
X220721153Y-97866685D01*
X220704408Y-97869169D01*
X220687500Y-97870000D01*
X220342500Y-97870000D01*
X220325592Y-97869169D01*
X220308847Y-97866685D01*
X220292426Y-97862572D01*
X220276487Y-97856869D01*
X220261184Y-97849631D01*
X220246664Y-97840929D01*
X220233067Y-97830844D01*
X220220524Y-97819476D01*
X220209156Y-97806933D01*
X220199071Y-97793336D01*
X220190369Y-97778816D01*
X220183131Y-97763513D01*
X220177428Y-97747574D01*
X220173315Y-97731153D01*
X220170831Y-97714408D01*
X220170000Y-97697500D01*
X220170000Y-97302500D01*
X220170831Y-97285592D01*
X220173315Y-97268847D01*
X220177428Y-97252426D01*
X220183131Y-97236487D01*
X220190369Y-97221184D01*
X220199071Y-97206664D01*
X220209156Y-97193067D01*
X220220524Y-97180524D01*
X220233067Y-97169156D01*
X220246664Y-97159071D01*
X220261184Y-97150369D01*
X220276487Y-97143131D01*
X220292426Y-97137428D01*
X220308847Y-97133315D01*
X220325592Y-97130831D01*
X220342500Y-97130000D01*
X220687500Y-97130000D01*
X220704408Y-97130831D01*
G37*
%TD*%
%TO.C,C11*%
G36*
X233174408Y-97130831D02*
G01*
X233191153Y-97133315D01*
X233207574Y-97137428D01*
X233223513Y-97143131D01*
X233238816Y-97150369D01*
X233253336Y-97159071D01*
X233266933Y-97169156D01*
X233279476Y-97180524D01*
X233290844Y-97193067D01*
X233300929Y-97206664D01*
X233309631Y-97221184D01*
X233316869Y-97236487D01*
X233322572Y-97252426D01*
X233326685Y-97268847D01*
X233329169Y-97285592D01*
X233330000Y-97302500D01*
X233330000Y-97697500D01*
X233329169Y-97714408D01*
X233326685Y-97731153D01*
X233322572Y-97747574D01*
X233316869Y-97763513D01*
X233309631Y-97778816D01*
X233300929Y-97793336D01*
X233290844Y-97806933D01*
X233279476Y-97819476D01*
X233266933Y-97830844D01*
X233253336Y-97840929D01*
X233238816Y-97849631D01*
X233223513Y-97856869D01*
X233207574Y-97862572D01*
X233191153Y-97866685D01*
X233174408Y-97869169D01*
X233157500Y-97870000D01*
X232812500Y-97870000D01*
X232795592Y-97869169D01*
X232778847Y-97866685D01*
X232762426Y-97862572D01*
X232746487Y-97856869D01*
X232731184Y-97849631D01*
X232716664Y-97840929D01*
X232703067Y-97830844D01*
X232690524Y-97819476D01*
X232679156Y-97806933D01*
X232669071Y-97793336D01*
X232660369Y-97778816D01*
X232653131Y-97763513D01*
X232647428Y-97747574D01*
X232643315Y-97731153D01*
X232640831Y-97714408D01*
X232640000Y-97697500D01*
X232640000Y-97302500D01*
X232640831Y-97285592D01*
X232643315Y-97268847D01*
X232647428Y-97252426D01*
X232653131Y-97236487D01*
X232660369Y-97221184D01*
X232669071Y-97206664D01*
X232679156Y-97193067D01*
X232690524Y-97180524D01*
X232703067Y-97169156D01*
X232716664Y-97159071D01*
X232731184Y-97150369D01*
X232746487Y-97143131D01*
X232762426Y-97137428D01*
X232778847Y-97133315D01*
X232795592Y-97130831D01*
X232812500Y-97130000D01*
X233157500Y-97130000D01*
X233174408Y-97130831D01*
G37*
G36*
X232204408Y-97130831D02*
G01*
X232221153Y-97133315D01*
X232237574Y-97137428D01*
X232253513Y-97143131D01*
X232268816Y-97150369D01*
X232283336Y-97159071D01*
X232296933Y-97169156D01*
X232309476Y-97180524D01*
X232320844Y-97193067D01*
X232330929Y-97206664D01*
X232339631Y-97221184D01*
X232346869Y-97236487D01*
X232352572Y-97252426D01*
X232356685Y-97268847D01*
X232359169Y-97285592D01*
X232360000Y-97302500D01*
X232360000Y-97697500D01*
X232359169Y-97714408D01*
X232356685Y-97731153D01*
X232352572Y-97747574D01*
X232346869Y-97763513D01*
X232339631Y-97778816D01*
X232330929Y-97793336D01*
X232320844Y-97806933D01*
X232309476Y-97819476D01*
X232296933Y-97830844D01*
X232283336Y-97840929D01*
X232268816Y-97849631D01*
X232253513Y-97856869D01*
X232237574Y-97862572D01*
X232221153Y-97866685D01*
X232204408Y-97869169D01*
X232187500Y-97870000D01*
X231842500Y-97870000D01*
X231825592Y-97869169D01*
X231808847Y-97866685D01*
X231792426Y-97862572D01*
X231776487Y-97856869D01*
X231761184Y-97849631D01*
X231746664Y-97840929D01*
X231733067Y-97830844D01*
X231720524Y-97819476D01*
X231709156Y-97806933D01*
X231699071Y-97793336D01*
X231690369Y-97778816D01*
X231683131Y-97763513D01*
X231677428Y-97747574D01*
X231673315Y-97731153D01*
X231670831Y-97714408D01*
X231670000Y-97697500D01*
X231670000Y-97302500D01*
X231670831Y-97285592D01*
X231673315Y-97268847D01*
X231677428Y-97252426D01*
X231683131Y-97236487D01*
X231690369Y-97221184D01*
X231699071Y-97206664D01*
X231709156Y-97193067D01*
X231720524Y-97180524D01*
X231733067Y-97169156D01*
X231746664Y-97159071D01*
X231761184Y-97150369D01*
X231776487Y-97143131D01*
X231792426Y-97137428D01*
X231808847Y-97133315D01*
X231825592Y-97130831D01*
X231842500Y-97130000D01*
X232187500Y-97130000D01*
X232204408Y-97130831D01*
G37*
%TD*%
%TO.C,C10*%
G36*
X234914408Y-91670831D02*
G01*
X234931153Y-91673315D01*
X234947574Y-91677428D01*
X234963513Y-91683131D01*
X234978816Y-91690369D01*
X234993336Y-91699071D01*
X235006933Y-91709156D01*
X235019476Y-91720524D01*
X235030844Y-91733067D01*
X235040929Y-91746664D01*
X235049631Y-91761184D01*
X235056869Y-91776487D01*
X235062572Y-91792426D01*
X235066685Y-91808847D01*
X235069169Y-91825592D01*
X235070000Y-91842500D01*
X235070000Y-92187500D01*
X235069169Y-92204408D01*
X235066685Y-92221153D01*
X235062572Y-92237574D01*
X235056869Y-92253513D01*
X235049631Y-92268816D01*
X235040929Y-92283336D01*
X235030844Y-92296933D01*
X235019476Y-92309476D01*
X235006933Y-92320844D01*
X234993336Y-92330929D01*
X234978816Y-92339631D01*
X234963513Y-92346869D01*
X234947574Y-92352572D01*
X234931153Y-92356685D01*
X234914408Y-92359169D01*
X234897500Y-92360000D01*
X234502500Y-92360000D01*
X234485592Y-92359169D01*
X234468847Y-92356685D01*
X234452426Y-92352572D01*
X234436487Y-92346869D01*
X234421184Y-92339631D01*
X234406664Y-92330929D01*
X234393067Y-92320844D01*
X234380524Y-92309476D01*
X234369156Y-92296933D01*
X234359071Y-92283336D01*
X234350369Y-92268816D01*
X234343131Y-92253513D01*
X234337428Y-92237574D01*
X234333315Y-92221153D01*
X234330831Y-92204408D01*
X234330000Y-92187500D01*
X234330000Y-91842500D01*
X234330831Y-91825592D01*
X234333315Y-91808847D01*
X234337428Y-91792426D01*
X234343131Y-91776487D01*
X234350369Y-91761184D01*
X234359071Y-91746664D01*
X234369156Y-91733067D01*
X234380524Y-91720524D01*
X234393067Y-91709156D01*
X234406664Y-91699071D01*
X234421184Y-91690369D01*
X234436487Y-91683131D01*
X234452426Y-91677428D01*
X234468847Y-91673315D01*
X234485592Y-91670831D01*
X234502500Y-91670000D01*
X234897500Y-91670000D01*
X234914408Y-91670831D01*
G37*
G36*
X234914408Y-92640831D02*
G01*
X234931153Y-92643315D01*
X234947574Y-92647428D01*
X234963513Y-92653131D01*
X234978816Y-92660369D01*
X234993336Y-92669071D01*
X235006933Y-92679156D01*
X235019476Y-92690524D01*
X235030844Y-92703067D01*
X235040929Y-92716664D01*
X235049631Y-92731184D01*
X235056869Y-92746487D01*
X235062572Y-92762426D01*
X235066685Y-92778847D01*
X235069169Y-92795592D01*
X235070000Y-92812500D01*
X235070000Y-93157500D01*
X235069169Y-93174408D01*
X235066685Y-93191153D01*
X235062572Y-93207574D01*
X235056869Y-93223513D01*
X235049631Y-93238816D01*
X235040929Y-93253336D01*
X235030844Y-93266933D01*
X235019476Y-93279476D01*
X235006933Y-93290844D01*
X234993336Y-93300929D01*
X234978816Y-93309631D01*
X234963513Y-93316869D01*
X234947574Y-93322572D01*
X234931153Y-93326685D01*
X234914408Y-93329169D01*
X234897500Y-93330000D01*
X234502500Y-93330000D01*
X234485592Y-93329169D01*
X234468847Y-93326685D01*
X234452426Y-93322572D01*
X234436487Y-93316869D01*
X234421184Y-93309631D01*
X234406664Y-93300929D01*
X234393067Y-93290844D01*
X234380524Y-93279476D01*
X234369156Y-93266933D01*
X234359071Y-93253336D01*
X234350369Y-93238816D01*
X234343131Y-93223513D01*
X234337428Y-93207574D01*
X234333315Y-93191153D01*
X234330831Y-93174408D01*
X234330000Y-93157500D01*
X234330000Y-92812500D01*
X234330831Y-92795592D01*
X234333315Y-92778847D01*
X234337428Y-92762426D01*
X234343131Y-92746487D01*
X234350369Y-92731184D01*
X234359071Y-92716664D01*
X234369156Y-92703067D01*
X234380524Y-92690524D01*
X234393067Y-92679156D01*
X234406664Y-92669071D01*
X234421184Y-92660369D01*
X234436487Y-92653131D01*
X234452426Y-92647428D01*
X234468847Y-92643315D01*
X234485592Y-92640831D01*
X234502500Y-92640000D01*
X234897500Y-92640000D01*
X234914408Y-92640831D01*
G37*
%TD*%
%TO.C,C9*%
G36*
X234914408Y-78670831D02*
G01*
X234931153Y-78673315D01*
X234947574Y-78677428D01*
X234963513Y-78683131D01*
X234978816Y-78690369D01*
X234993336Y-78699071D01*
X235006933Y-78709156D01*
X235019476Y-78720524D01*
X235030844Y-78733067D01*
X235040929Y-78746664D01*
X235049631Y-78761184D01*
X235056869Y-78776487D01*
X235062572Y-78792426D01*
X235066685Y-78808847D01*
X235069169Y-78825592D01*
X235070000Y-78842500D01*
X235070000Y-79187500D01*
X235069169Y-79204408D01*
X235066685Y-79221153D01*
X235062572Y-79237574D01*
X235056869Y-79253513D01*
X235049631Y-79268816D01*
X235040929Y-79283336D01*
X235030844Y-79296933D01*
X235019476Y-79309476D01*
X235006933Y-79320844D01*
X234993336Y-79330929D01*
X234978816Y-79339631D01*
X234963513Y-79346869D01*
X234947574Y-79352572D01*
X234931153Y-79356685D01*
X234914408Y-79359169D01*
X234897500Y-79360000D01*
X234502500Y-79360000D01*
X234485592Y-79359169D01*
X234468847Y-79356685D01*
X234452426Y-79352572D01*
X234436487Y-79346869D01*
X234421184Y-79339631D01*
X234406664Y-79330929D01*
X234393067Y-79320844D01*
X234380524Y-79309476D01*
X234369156Y-79296933D01*
X234359071Y-79283336D01*
X234350369Y-79268816D01*
X234343131Y-79253513D01*
X234337428Y-79237574D01*
X234333315Y-79221153D01*
X234330831Y-79204408D01*
X234330000Y-79187500D01*
X234330000Y-78842500D01*
X234330831Y-78825592D01*
X234333315Y-78808847D01*
X234337428Y-78792426D01*
X234343131Y-78776487D01*
X234350369Y-78761184D01*
X234359071Y-78746664D01*
X234369156Y-78733067D01*
X234380524Y-78720524D01*
X234393067Y-78709156D01*
X234406664Y-78699071D01*
X234421184Y-78690369D01*
X234436487Y-78683131D01*
X234452426Y-78677428D01*
X234468847Y-78673315D01*
X234485592Y-78670831D01*
X234502500Y-78670000D01*
X234897500Y-78670000D01*
X234914408Y-78670831D01*
G37*
G36*
X234914408Y-79640831D02*
G01*
X234931153Y-79643315D01*
X234947574Y-79647428D01*
X234963513Y-79653131D01*
X234978816Y-79660369D01*
X234993336Y-79669071D01*
X235006933Y-79679156D01*
X235019476Y-79690524D01*
X235030844Y-79703067D01*
X235040929Y-79716664D01*
X235049631Y-79731184D01*
X235056869Y-79746487D01*
X235062572Y-79762426D01*
X235066685Y-79778847D01*
X235069169Y-79795592D01*
X235070000Y-79812500D01*
X235070000Y-80157500D01*
X235069169Y-80174408D01*
X235066685Y-80191153D01*
X235062572Y-80207574D01*
X235056869Y-80223513D01*
X235049631Y-80238816D01*
X235040929Y-80253336D01*
X235030844Y-80266933D01*
X235019476Y-80279476D01*
X235006933Y-80290844D01*
X234993336Y-80300929D01*
X234978816Y-80309631D01*
X234963513Y-80316869D01*
X234947574Y-80322572D01*
X234931153Y-80326685D01*
X234914408Y-80329169D01*
X234897500Y-80330000D01*
X234502500Y-80330000D01*
X234485592Y-80329169D01*
X234468847Y-80326685D01*
X234452426Y-80322572D01*
X234436487Y-80316869D01*
X234421184Y-80309631D01*
X234406664Y-80300929D01*
X234393067Y-80290844D01*
X234380524Y-80279476D01*
X234369156Y-80266933D01*
X234359071Y-80253336D01*
X234350369Y-80238816D01*
X234343131Y-80223513D01*
X234337428Y-80207574D01*
X234333315Y-80191153D01*
X234330831Y-80174408D01*
X234330000Y-80157500D01*
X234330000Y-79812500D01*
X234330831Y-79795592D01*
X234333315Y-79778847D01*
X234337428Y-79762426D01*
X234343131Y-79746487D01*
X234350369Y-79731184D01*
X234359071Y-79716664D01*
X234369156Y-79703067D01*
X234380524Y-79690524D01*
X234393067Y-79679156D01*
X234406664Y-79669071D01*
X234421184Y-79660369D01*
X234436487Y-79653131D01*
X234452426Y-79647428D01*
X234468847Y-79643315D01*
X234485592Y-79640831D01*
X234502500Y-79640000D01*
X234897500Y-79640000D01*
X234914408Y-79640831D01*
G37*
%TD*%
%TO.C,C8*%
G36*
X236704408Y-65630831D02*
G01*
X236721153Y-65633315D01*
X236737574Y-65637428D01*
X236753513Y-65643131D01*
X236768816Y-65650369D01*
X236783336Y-65659071D01*
X236796933Y-65669156D01*
X236809476Y-65680524D01*
X236820844Y-65693067D01*
X236830929Y-65706664D01*
X236839631Y-65721184D01*
X236846869Y-65736487D01*
X236852572Y-65752426D01*
X236856685Y-65768847D01*
X236859169Y-65785592D01*
X236860000Y-65802500D01*
X236860000Y-66197500D01*
X236859169Y-66214408D01*
X236856685Y-66231153D01*
X236852572Y-66247574D01*
X236846869Y-66263513D01*
X236839631Y-66278816D01*
X236830929Y-66293336D01*
X236820844Y-66306933D01*
X236809476Y-66319476D01*
X236796933Y-66330844D01*
X236783336Y-66340929D01*
X236768816Y-66349631D01*
X236753513Y-66356869D01*
X236737574Y-66362572D01*
X236721153Y-66366685D01*
X236704408Y-66369169D01*
X236687500Y-66370000D01*
X236342500Y-66370000D01*
X236325592Y-66369169D01*
X236308847Y-66366685D01*
X236292426Y-66362572D01*
X236276487Y-66356869D01*
X236261184Y-66349631D01*
X236246664Y-66340929D01*
X236233067Y-66330844D01*
X236220524Y-66319476D01*
X236209156Y-66306933D01*
X236199071Y-66293336D01*
X236190369Y-66278816D01*
X236183131Y-66263513D01*
X236177428Y-66247574D01*
X236173315Y-66231153D01*
X236170831Y-66214408D01*
X236170000Y-66197500D01*
X236170000Y-65802500D01*
X236170831Y-65785592D01*
X236173315Y-65768847D01*
X236177428Y-65752426D01*
X236183131Y-65736487D01*
X236190369Y-65721184D01*
X236199071Y-65706664D01*
X236209156Y-65693067D01*
X236220524Y-65680524D01*
X236233067Y-65669156D01*
X236246664Y-65659071D01*
X236261184Y-65650369D01*
X236276487Y-65643131D01*
X236292426Y-65637428D01*
X236308847Y-65633315D01*
X236325592Y-65630831D01*
X236342500Y-65630000D01*
X236687500Y-65630000D01*
X236704408Y-65630831D01*
G37*
G36*
X237674408Y-65630831D02*
G01*
X237691153Y-65633315D01*
X237707574Y-65637428D01*
X237723513Y-65643131D01*
X237738816Y-65650369D01*
X237753336Y-65659071D01*
X237766933Y-65669156D01*
X237779476Y-65680524D01*
X237790844Y-65693067D01*
X237800929Y-65706664D01*
X237809631Y-65721184D01*
X237816869Y-65736487D01*
X237822572Y-65752426D01*
X237826685Y-65768847D01*
X237829169Y-65785592D01*
X237830000Y-65802500D01*
X237830000Y-66197500D01*
X237829169Y-66214408D01*
X237826685Y-66231153D01*
X237822572Y-66247574D01*
X237816869Y-66263513D01*
X237809631Y-66278816D01*
X237800929Y-66293336D01*
X237790844Y-66306933D01*
X237779476Y-66319476D01*
X237766933Y-66330844D01*
X237753336Y-66340929D01*
X237738816Y-66349631D01*
X237723513Y-66356869D01*
X237707574Y-66362572D01*
X237691153Y-66366685D01*
X237674408Y-66369169D01*
X237657500Y-66370000D01*
X237312500Y-66370000D01*
X237295592Y-66369169D01*
X237278847Y-66366685D01*
X237262426Y-66362572D01*
X237246487Y-66356869D01*
X237231184Y-66349631D01*
X237216664Y-66340929D01*
X237203067Y-66330844D01*
X237190524Y-66319476D01*
X237179156Y-66306933D01*
X237169071Y-66293336D01*
X237160369Y-66278816D01*
X237153131Y-66263513D01*
X237147428Y-66247574D01*
X237143315Y-66231153D01*
X237140831Y-66214408D01*
X237140000Y-66197500D01*
X237140000Y-65802500D01*
X237140831Y-65785592D01*
X237143315Y-65768847D01*
X237147428Y-65752426D01*
X237153131Y-65736487D01*
X237160369Y-65721184D01*
X237169071Y-65706664D01*
X237179156Y-65693067D01*
X237190524Y-65680524D01*
X237203067Y-65669156D01*
X237216664Y-65659071D01*
X237231184Y-65650369D01*
X237246487Y-65643131D01*
X237262426Y-65637428D01*
X237278847Y-65633315D01*
X237295592Y-65630831D01*
X237312500Y-65630000D01*
X237657500Y-65630000D01*
X237674408Y-65630831D01*
G37*
%TD*%
%TO.C,C7*%
G36*
X206714408Y-59670831D02*
G01*
X206731153Y-59673315D01*
X206747574Y-59677428D01*
X206763513Y-59683131D01*
X206778816Y-59690369D01*
X206793336Y-59699071D01*
X206806933Y-59709156D01*
X206819476Y-59720524D01*
X206830844Y-59733067D01*
X206840929Y-59746664D01*
X206849631Y-59761184D01*
X206856869Y-59776487D01*
X206862572Y-59792426D01*
X206866685Y-59808847D01*
X206869169Y-59825592D01*
X206870000Y-59842500D01*
X206870000Y-60187500D01*
X206869169Y-60204408D01*
X206866685Y-60221153D01*
X206862572Y-60237574D01*
X206856869Y-60253513D01*
X206849631Y-60268816D01*
X206840929Y-60283336D01*
X206830844Y-60296933D01*
X206819476Y-60309476D01*
X206806933Y-60320844D01*
X206793336Y-60330929D01*
X206778816Y-60339631D01*
X206763513Y-60346869D01*
X206747574Y-60352572D01*
X206731153Y-60356685D01*
X206714408Y-60359169D01*
X206697500Y-60360000D01*
X206302500Y-60360000D01*
X206285592Y-60359169D01*
X206268847Y-60356685D01*
X206252426Y-60352572D01*
X206236487Y-60346869D01*
X206221184Y-60339631D01*
X206206664Y-60330929D01*
X206193067Y-60320844D01*
X206180524Y-60309476D01*
X206169156Y-60296933D01*
X206159071Y-60283336D01*
X206150369Y-60268816D01*
X206143131Y-60253513D01*
X206137428Y-60237574D01*
X206133315Y-60221153D01*
X206130831Y-60204408D01*
X206130000Y-60187500D01*
X206130000Y-59842500D01*
X206130831Y-59825592D01*
X206133315Y-59808847D01*
X206137428Y-59792426D01*
X206143131Y-59776487D01*
X206150369Y-59761184D01*
X206159071Y-59746664D01*
X206169156Y-59733067D01*
X206180524Y-59720524D01*
X206193067Y-59709156D01*
X206206664Y-59699071D01*
X206221184Y-59690369D01*
X206236487Y-59683131D01*
X206252426Y-59677428D01*
X206268847Y-59673315D01*
X206285592Y-59670831D01*
X206302500Y-59670000D01*
X206697500Y-59670000D01*
X206714408Y-59670831D01*
G37*
G36*
X206714408Y-60640831D02*
G01*
X206731153Y-60643315D01*
X206747574Y-60647428D01*
X206763513Y-60653131D01*
X206778816Y-60660369D01*
X206793336Y-60669071D01*
X206806933Y-60679156D01*
X206819476Y-60690524D01*
X206830844Y-60703067D01*
X206840929Y-60716664D01*
X206849631Y-60731184D01*
X206856869Y-60746487D01*
X206862572Y-60762426D01*
X206866685Y-60778847D01*
X206869169Y-60795592D01*
X206870000Y-60812500D01*
X206870000Y-61157500D01*
X206869169Y-61174408D01*
X206866685Y-61191153D01*
X206862572Y-61207574D01*
X206856869Y-61223513D01*
X206849631Y-61238816D01*
X206840929Y-61253336D01*
X206830844Y-61266933D01*
X206819476Y-61279476D01*
X206806933Y-61290844D01*
X206793336Y-61300929D01*
X206778816Y-61309631D01*
X206763513Y-61316869D01*
X206747574Y-61322572D01*
X206731153Y-61326685D01*
X206714408Y-61329169D01*
X206697500Y-61330000D01*
X206302500Y-61330000D01*
X206285592Y-61329169D01*
X206268847Y-61326685D01*
X206252426Y-61322572D01*
X206236487Y-61316869D01*
X206221184Y-61309631D01*
X206206664Y-61300929D01*
X206193067Y-61290844D01*
X206180524Y-61279476D01*
X206169156Y-61266933D01*
X206159071Y-61253336D01*
X206150369Y-61238816D01*
X206143131Y-61223513D01*
X206137428Y-61207574D01*
X206133315Y-61191153D01*
X206130831Y-61174408D01*
X206130000Y-61157500D01*
X206130000Y-60812500D01*
X206130831Y-60795592D01*
X206133315Y-60778847D01*
X206137428Y-60762426D01*
X206143131Y-60746487D01*
X206150369Y-60731184D01*
X206159071Y-60716664D01*
X206169156Y-60703067D01*
X206180524Y-60690524D01*
X206193067Y-60679156D01*
X206206664Y-60669071D01*
X206221184Y-60660369D01*
X206236487Y-60653131D01*
X206252426Y-60647428D01*
X206268847Y-60643315D01*
X206285592Y-60640831D01*
X206302500Y-60640000D01*
X206697500Y-60640000D01*
X206714408Y-60640831D01*
G37*
%TD*%
%TO.C,C6*%
G36*
X208305142Y-59226174D02*
G01*
X208328803Y-59229684D01*
X208352007Y-59235496D01*
X208374529Y-59243554D01*
X208396153Y-59253782D01*
X208416670Y-59266079D01*
X208435883Y-59280329D01*
X208453607Y-59296393D01*
X208469671Y-59314117D01*
X208483921Y-59333330D01*
X208496218Y-59353847D01*
X208506446Y-59375471D01*
X208514504Y-59397993D01*
X208520316Y-59421197D01*
X208523826Y-59444858D01*
X208525000Y-59468750D01*
X208525000Y-59956250D01*
X208523826Y-59980142D01*
X208520316Y-60003803D01*
X208514504Y-60027007D01*
X208506446Y-60049529D01*
X208496218Y-60071153D01*
X208483921Y-60091670D01*
X208469671Y-60110883D01*
X208453607Y-60128607D01*
X208435883Y-60144671D01*
X208416670Y-60158921D01*
X208396153Y-60171218D01*
X208374529Y-60181446D01*
X208352007Y-60189504D01*
X208328803Y-60195316D01*
X208305142Y-60198826D01*
X208281250Y-60200000D01*
X207718750Y-60200000D01*
X207694858Y-60198826D01*
X207671197Y-60195316D01*
X207647993Y-60189504D01*
X207625471Y-60181446D01*
X207603847Y-60171218D01*
X207583330Y-60158921D01*
X207564117Y-60144671D01*
X207546393Y-60128607D01*
X207530329Y-60110883D01*
X207516079Y-60091670D01*
X207503782Y-60071153D01*
X207493554Y-60049529D01*
X207485496Y-60027007D01*
X207479684Y-60003803D01*
X207476174Y-59980142D01*
X207475000Y-59956250D01*
X207475000Y-59468750D01*
X207476174Y-59444858D01*
X207479684Y-59421197D01*
X207485496Y-59397993D01*
X207493554Y-59375471D01*
X207503782Y-59353847D01*
X207516079Y-59333330D01*
X207530329Y-59314117D01*
X207546393Y-59296393D01*
X207564117Y-59280329D01*
X207583330Y-59266079D01*
X207603847Y-59253782D01*
X207625471Y-59243554D01*
X207647993Y-59235496D01*
X207671197Y-59229684D01*
X207694858Y-59226174D01*
X207718750Y-59225000D01*
X208281250Y-59225000D01*
X208305142Y-59226174D01*
G37*
G36*
X208305142Y-60801174D02*
G01*
X208328803Y-60804684D01*
X208352007Y-60810496D01*
X208374529Y-60818554D01*
X208396153Y-60828782D01*
X208416670Y-60841079D01*
X208435883Y-60855329D01*
X208453607Y-60871393D01*
X208469671Y-60889117D01*
X208483921Y-60908330D01*
X208496218Y-60928847D01*
X208506446Y-60950471D01*
X208514504Y-60972993D01*
X208520316Y-60996197D01*
X208523826Y-61019858D01*
X208525000Y-61043750D01*
X208525000Y-61531250D01*
X208523826Y-61555142D01*
X208520316Y-61578803D01*
X208514504Y-61602007D01*
X208506446Y-61624529D01*
X208496218Y-61646153D01*
X208483921Y-61666670D01*
X208469671Y-61685883D01*
X208453607Y-61703607D01*
X208435883Y-61719671D01*
X208416670Y-61733921D01*
X208396153Y-61746218D01*
X208374529Y-61756446D01*
X208352007Y-61764504D01*
X208328803Y-61770316D01*
X208305142Y-61773826D01*
X208281250Y-61775000D01*
X207718750Y-61775000D01*
X207694858Y-61773826D01*
X207671197Y-61770316D01*
X207647993Y-61764504D01*
X207625471Y-61756446D01*
X207603847Y-61746218D01*
X207583330Y-61733921D01*
X207564117Y-61719671D01*
X207546393Y-61703607D01*
X207530329Y-61685883D01*
X207516079Y-61666670D01*
X207503782Y-61646153D01*
X207493554Y-61624529D01*
X207485496Y-61602007D01*
X207479684Y-61578803D01*
X207476174Y-61555142D01*
X207475000Y-61531250D01*
X207475000Y-61043750D01*
X207476174Y-61019858D01*
X207479684Y-60996197D01*
X207485496Y-60972993D01*
X207493554Y-60950471D01*
X207503782Y-60928847D01*
X207516079Y-60908330D01*
X207530329Y-60889117D01*
X207546393Y-60871393D01*
X207564117Y-60855329D01*
X207583330Y-60841079D01*
X207603847Y-60828782D01*
X207625471Y-60818554D01*
X207647993Y-60810496D01*
X207671197Y-60804684D01*
X207694858Y-60801174D01*
X207718750Y-60800000D01*
X208281250Y-60800000D01*
X208305142Y-60801174D01*
G37*
%TD*%
%TO.C,C5*%
G36*
X191705142Y-62226174D02*
G01*
X191728803Y-62229684D01*
X191752007Y-62235496D01*
X191774529Y-62243554D01*
X191796153Y-62253782D01*
X191816670Y-62266079D01*
X191835883Y-62280329D01*
X191853607Y-62296393D01*
X191869671Y-62314117D01*
X191883921Y-62333330D01*
X191896218Y-62353847D01*
X191906446Y-62375471D01*
X191914504Y-62397993D01*
X191920316Y-62421197D01*
X191923826Y-62444858D01*
X191925000Y-62468750D01*
X191925000Y-62956250D01*
X191923826Y-62980142D01*
X191920316Y-63003803D01*
X191914504Y-63027007D01*
X191906446Y-63049529D01*
X191896218Y-63071153D01*
X191883921Y-63091670D01*
X191869671Y-63110883D01*
X191853607Y-63128607D01*
X191835883Y-63144671D01*
X191816670Y-63158921D01*
X191796153Y-63171218D01*
X191774529Y-63181446D01*
X191752007Y-63189504D01*
X191728803Y-63195316D01*
X191705142Y-63198826D01*
X191681250Y-63200000D01*
X191118750Y-63200000D01*
X191094858Y-63198826D01*
X191071197Y-63195316D01*
X191047993Y-63189504D01*
X191025471Y-63181446D01*
X191003847Y-63171218D01*
X190983330Y-63158921D01*
X190964117Y-63144671D01*
X190946393Y-63128607D01*
X190930329Y-63110883D01*
X190916079Y-63091670D01*
X190903782Y-63071153D01*
X190893554Y-63049529D01*
X190885496Y-63027007D01*
X190879684Y-63003803D01*
X190876174Y-62980142D01*
X190875000Y-62956250D01*
X190875000Y-62468750D01*
X190876174Y-62444858D01*
X190879684Y-62421197D01*
X190885496Y-62397993D01*
X190893554Y-62375471D01*
X190903782Y-62353847D01*
X190916079Y-62333330D01*
X190930329Y-62314117D01*
X190946393Y-62296393D01*
X190964117Y-62280329D01*
X190983330Y-62266079D01*
X191003847Y-62253782D01*
X191025471Y-62243554D01*
X191047993Y-62235496D01*
X191071197Y-62229684D01*
X191094858Y-62226174D01*
X191118750Y-62225000D01*
X191681250Y-62225000D01*
X191705142Y-62226174D01*
G37*
G36*
X191705142Y-63801174D02*
G01*
X191728803Y-63804684D01*
X191752007Y-63810496D01*
X191774529Y-63818554D01*
X191796153Y-63828782D01*
X191816670Y-63841079D01*
X191835883Y-63855329D01*
X191853607Y-63871393D01*
X191869671Y-63889117D01*
X191883921Y-63908330D01*
X191896218Y-63928847D01*
X191906446Y-63950471D01*
X191914504Y-63972993D01*
X191920316Y-63996197D01*
X191923826Y-64019858D01*
X191925000Y-64043750D01*
X191925000Y-64531250D01*
X191923826Y-64555142D01*
X191920316Y-64578803D01*
X191914504Y-64602007D01*
X191906446Y-64624529D01*
X191896218Y-64646153D01*
X191883921Y-64666670D01*
X191869671Y-64685883D01*
X191853607Y-64703607D01*
X191835883Y-64719671D01*
X191816670Y-64733921D01*
X191796153Y-64746218D01*
X191774529Y-64756446D01*
X191752007Y-64764504D01*
X191728803Y-64770316D01*
X191705142Y-64773826D01*
X191681250Y-64775000D01*
X191118750Y-64775000D01*
X191094858Y-64773826D01*
X191071197Y-64770316D01*
X191047993Y-64764504D01*
X191025471Y-64756446D01*
X191003847Y-64746218D01*
X190983330Y-64733921D01*
X190964117Y-64719671D01*
X190946393Y-64703607D01*
X190930329Y-64685883D01*
X190916079Y-64666670D01*
X190903782Y-64646153D01*
X190893554Y-64624529D01*
X190885496Y-64602007D01*
X190879684Y-64578803D01*
X190876174Y-64555142D01*
X190875000Y-64531250D01*
X190875000Y-64043750D01*
X190876174Y-64019858D01*
X190879684Y-63996197D01*
X190885496Y-63972993D01*
X190893554Y-63950471D01*
X190903782Y-63928847D01*
X190916079Y-63908330D01*
X190930329Y-63889117D01*
X190946393Y-63871393D01*
X190964117Y-63855329D01*
X190983330Y-63841079D01*
X191003847Y-63828782D01*
X191025471Y-63818554D01*
X191047993Y-63810496D01*
X191071197Y-63804684D01*
X191094858Y-63801174D01*
X191118750Y-63800000D01*
X191681250Y-63800000D01*
X191705142Y-63801174D01*
G37*
%TD*%
%TO.C,C4*%
G36*
X207555142Y-64976174D02*
G01*
X207578803Y-64979684D01*
X207602007Y-64985496D01*
X207624529Y-64993554D01*
X207646153Y-65003782D01*
X207666670Y-65016079D01*
X207685883Y-65030329D01*
X207703607Y-65046393D01*
X207719671Y-65064117D01*
X207733921Y-65083330D01*
X207746218Y-65103847D01*
X207756446Y-65125471D01*
X207764504Y-65147993D01*
X207770316Y-65171197D01*
X207773826Y-65194858D01*
X207775000Y-65218750D01*
X207775000Y-65781250D01*
X207773826Y-65805142D01*
X207770316Y-65828803D01*
X207764504Y-65852007D01*
X207756446Y-65874529D01*
X207746218Y-65896153D01*
X207733921Y-65916670D01*
X207719671Y-65935883D01*
X207703607Y-65953607D01*
X207685883Y-65969671D01*
X207666670Y-65983921D01*
X207646153Y-65996218D01*
X207624529Y-66006446D01*
X207602007Y-66014504D01*
X207578803Y-66020316D01*
X207555142Y-66023826D01*
X207531250Y-66025000D01*
X207043750Y-66025000D01*
X207019858Y-66023826D01*
X206996197Y-66020316D01*
X206972993Y-66014504D01*
X206950471Y-66006446D01*
X206928847Y-65996218D01*
X206908330Y-65983921D01*
X206889117Y-65969671D01*
X206871393Y-65953607D01*
X206855329Y-65935883D01*
X206841079Y-65916670D01*
X206828782Y-65896153D01*
X206818554Y-65874529D01*
X206810496Y-65852007D01*
X206804684Y-65828803D01*
X206801174Y-65805142D01*
X206800000Y-65781250D01*
X206800000Y-65218750D01*
X206801174Y-65194858D01*
X206804684Y-65171197D01*
X206810496Y-65147993D01*
X206818554Y-65125471D01*
X206828782Y-65103847D01*
X206841079Y-65083330D01*
X206855329Y-65064117D01*
X206871393Y-65046393D01*
X206889117Y-65030329D01*
X206908330Y-65016079D01*
X206928847Y-65003782D01*
X206950471Y-64993554D01*
X206972993Y-64985496D01*
X206996197Y-64979684D01*
X207019858Y-64976174D01*
X207043750Y-64975000D01*
X207531250Y-64975000D01*
X207555142Y-64976174D01*
G37*
G36*
X205980142Y-64976174D02*
G01*
X206003803Y-64979684D01*
X206027007Y-64985496D01*
X206049529Y-64993554D01*
X206071153Y-65003782D01*
X206091670Y-65016079D01*
X206110883Y-65030329D01*
X206128607Y-65046393D01*
X206144671Y-65064117D01*
X206158921Y-65083330D01*
X206171218Y-65103847D01*
X206181446Y-65125471D01*
X206189504Y-65147993D01*
X206195316Y-65171197D01*
X206198826Y-65194858D01*
X206200000Y-65218750D01*
X206200000Y-65781250D01*
X206198826Y-65805142D01*
X206195316Y-65828803D01*
X206189504Y-65852007D01*
X206181446Y-65874529D01*
X206171218Y-65896153D01*
X206158921Y-65916670D01*
X206144671Y-65935883D01*
X206128607Y-65953607D01*
X206110883Y-65969671D01*
X206091670Y-65983921D01*
X206071153Y-65996218D01*
X206049529Y-66006446D01*
X206027007Y-66014504D01*
X206003803Y-66020316D01*
X205980142Y-66023826D01*
X205956250Y-66025000D01*
X205468750Y-66025000D01*
X205444858Y-66023826D01*
X205421197Y-66020316D01*
X205397993Y-66014504D01*
X205375471Y-66006446D01*
X205353847Y-65996218D01*
X205333330Y-65983921D01*
X205314117Y-65969671D01*
X205296393Y-65953607D01*
X205280329Y-65935883D01*
X205266079Y-65916670D01*
X205253782Y-65896153D01*
X205243554Y-65874529D01*
X205235496Y-65852007D01*
X205229684Y-65828803D01*
X205226174Y-65805142D01*
X205225000Y-65781250D01*
X205225000Y-65218750D01*
X205226174Y-65194858D01*
X205229684Y-65171197D01*
X205235496Y-65147993D01*
X205243554Y-65125471D01*
X205253782Y-65103847D01*
X205266079Y-65083330D01*
X205280329Y-65064117D01*
X205296393Y-65046393D01*
X205314117Y-65030329D01*
X205333330Y-65016079D01*
X205353847Y-65003782D01*
X205375471Y-64993554D01*
X205397993Y-64985496D01*
X205421197Y-64979684D01*
X205444858Y-64976174D01*
X205468750Y-64975000D01*
X205956250Y-64975000D01*
X205980142Y-64976174D01*
G37*
%TD*%
%TO.C,C2*%
G36*
X199914408Y-83170831D02*
G01*
X199931153Y-83173315D01*
X199947574Y-83177428D01*
X199963513Y-83183131D01*
X199978816Y-83190369D01*
X199993336Y-83199071D01*
X200006933Y-83209156D01*
X200019476Y-83220524D01*
X200030844Y-83233067D01*
X200040929Y-83246664D01*
X200049631Y-83261184D01*
X200056869Y-83276487D01*
X200062572Y-83292426D01*
X200066685Y-83308847D01*
X200069169Y-83325592D01*
X200070000Y-83342500D01*
X200070000Y-83687500D01*
X200069169Y-83704408D01*
X200066685Y-83721153D01*
X200062572Y-83737574D01*
X200056869Y-83753513D01*
X200049631Y-83768816D01*
X200040929Y-83783336D01*
X200030844Y-83796933D01*
X200019476Y-83809476D01*
X200006933Y-83820844D01*
X199993336Y-83830929D01*
X199978816Y-83839631D01*
X199963513Y-83846869D01*
X199947574Y-83852572D01*
X199931153Y-83856685D01*
X199914408Y-83859169D01*
X199897500Y-83860000D01*
X199502500Y-83860000D01*
X199485592Y-83859169D01*
X199468847Y-83856685D01*
X199452426Y-83852572D01*
X199436487Y-83846869D01*
X199421184Y-83839631D01*
X199406664Y-83830929D01*
X199393067Y-83820844D01*
X199380524Y-83809476D01*
X199369156Y-83796933D01*
X199359071Y-83783336D01*
X199350369Y-83768816D01*
X199343131Y-83753513D01*
X199337428Y-83737574D01*
X199333315Y-83721153D01*
X199330831Y-83704408D01*
X199330000Y-83687500D01*
X199330000Y-83342500D01*
X199330831Y-83325592D01*
X199333315Y-83308847D01*
X199337428Y-83292426D01*
X199343131Y-83276487D01*
X199350369Y-83261184D01*
X199359071Y-83246664D01*
X199369156Y-83233067D01*
X199380524Y-83220524D01*
X199393067Y-83209156D01*
X199406664Y-83199071D01*
X199421184Y-83190369D01*
X199436487Y-83183131D01*
X199452426Y-83177428D01*
X199468847Y-83173315D01*
X199485592Y-83170831D01*
X199502500Y-83170000D01*
X199897500Y-83170000D01*
X199914408Y-83170831D01*
G37*
G36*
X199914408Y-84140831D02*
G01*
X199931153Y-84143315D01*
X199947574Y-84147428D01*
X199963513Y-84153131D01*
X199978816Y-84160369D01*
X199993336Y-84169071D01*
X200006933Y-84179156D01*
X200019476Y-84190524D01*
X200030844Y-84203067D01*
X200040929Y-84216664D01*
X200049631Y-84231184D01*
X200056869Y-84246487D01*
X200062572Y-84262426D01*
X200066685Y-84278847D01*
X200069169Y-84295592D01*
X200070000Y-84312500D01*
X200070000Y-84657500D01*
X200069169Y-84674408D01*
X200066685Y-84691153D01*
X200062572Y-84707574D01*
X200056869Y-84723513D01*
X200049631Y-84738816D01*
X200040929Y-84753336D01*
X200030844Y-84766933D01*
X200019476Y-84779476D01*
X200006933Y-84790844D01*
X199993336Y-84800929D01*
X199978816Y-84809631D01*
X199963513Y-84816869D01*
X199947574Y-84822572D01*
X199931153Y-84826685D01*
X199914408Y-84829169D01*
X199897500Y-84830000D01*
X199502500Y-84830000D01*
X199485592Y-84829169D01*
X199468847Y-84826685D01*
X199452426Y-84822572D01*
X199436487Y-84816869D01*
X199421184Y-84809631D01*
X199406664Y-84800929D01*
X199393067Y-84790844D01*
X199380524Y-84779476D01*
X199369156Y-84766933D01*
X199359071Y-84753336D01*
X199350369Y-84738816D01*
X199343131Y-84723513D01*
X199337428Y-84707574D01*
X199333315Y-84691153D01*
X199330831Y-84674408D01*
X199330000Y-84657500D01*
X199330000Y-84312500D01*
X199330831Y-84295592D01*
X199333315Y-84278847D01*
X199337428Y-84262426D01*
X199343131Y-84246487D01*
X199350369Y-84231184D01*
X199359071Y-84216664D01*
X199369156Y-84203067D01*
X199380524Y-84190524D01*
X199393067Y-84179156D01*
X199406664Y-84169071D01*
X199421184Y-84160369D01*
X199436487Y-84153131D01*
X199452426Y-84147428D01*
X199468847Y-84143315D01*
X199485592Y-84140831D01*
X199502500Y-84140000D01*
X199897500Y-84140000D01*
X199914408Y-84140831D01*
G37*
%TD*%
%TO.C,C1*%
G36*
X200314408Y-69140831D02*
G01*
X200331153Y-69143315D01*
X200347574Y-69147428D01*
X200363513Y-69153131D01*
X200378816Y-69160369D01*
X200393336Y-69169071D01*
X200406933Y-69179156D01*
X200419476Y-69190524D01*
X200430844Y-69203067D01*
X200440929Y-69216664D01*
X200449631Y-69231184D01*
X200456869Y-69246487D01*
X200462572Y-69262426D01*
X200466685Y-69278847D01*
X200469169Y-69295592D01*
X200470000Y-69312500D01*
X200470000Y-69657500D01*
X200469169Y-69674408D01*
X200466685Y-69691153D01*
X200462572Y-69707574D01*
X200456869Y-69723513D01*
X200449631Y-69738816D01*
X200440929Y-69753336D01*
X200430844Y-69766933D01*
X200419476Y-69779476D01*
X200406933Y-69790844D01*
X200393336Y-69800929D01*
X200378816Y-69809631D01*
X200363513Y-69816869D01*
X200347574Y-69822572D01*
X200331153Y-69826685D01*
X200314408Y-69829169D01*
X200297500Y-69830000D01*
X199902500Y-69830000D01*
X199885592Y-69829169D01*
X199868847Y-69826685D01*
X199852426Y-69822572D01*
X199836487Y-69816869D01*
X199821184Y-69809631D01*
X199806664Y-69800929D01*
X199793067Y-69790844D01*
X199780524Y-69779476D01*
X199769156Y-69766933D01*
X199759071Y-69753336D01*
X199750369Y-69738816D01*
X199743131Y-69723513D01*
X199737428Y-69707574D01*
X199733315Y-69691153D01*
X199730831Y-69674408D01*
X199730000Y-69657500D01*
X199730000Y-69312500D01*
X199730831Y-69295592D01*
X199733315Y-69278847D01*
X199737428Y-69262426D01*
X199743131Y-69246487D01*
X199750369Y-69231184D01*
X199759071Y-69216664D01*
X199769156Y-69203067D01*
X199780524Y-69190524D01*
X199793067Y-69179156D01*
X199806664Y-69169071D01*
X199821184Y-69160369D01*
X199836487Y-69153131D01*
X199852426Y-69147428D01*
X199868847Y-69143315D01*
X199885592Y-69140831D01*
X199902500Y-69140000D01*
X200297500Y-69140000D01*
X200314408Y-69140831D01*
G37*
G36*
X200314408Y-68170831D02*
G01*
X200331153Y-68173315D01*
X200347574Y-68177428D01*
X200363513Y-68183131D01*
X200378816Y-68190369D01*
X200393336Y-68199071D01*
X200406933Y-68209156D01*
X200419476Y-68220524D01*
X200430844Y-68233067D01*
X200440929Y-68246664D01*
X200449631Y-68261184D01*
X200456869Y-68276487D01*
X200462572Y-68292426D01*
X200466685Y-68308847D01*
X200469169Y-68325592D01*
X200470000Y-68342500D01*
X200470000Y-68687500D01*
X200469169Y-68704408D01*
X200466685Y-68721153D01*
X200462572Y-68737574D01*
X200456869Y-68753513D01*
X200449631Y-68768816D01*
X200440929Y-68783336D01*
X200430844Y-68796933D01*
X200419476Y-68809476D01*
X200406933Y-68820844D01*
X200393336Y-68830929D01*
X200378816Y-68839631D01*
X200363513Y-68846869D01*
X200347574Y-68852572D01*
X200331153Y-68856685D01*
X200314408Y-68859169D01*
X200297500Y-68860000D01*
X199902500Y-68860000D01*
X199885592Y-68859169D01*
X199868847Y-68856685D01*
X199852426Y-68852572D01*
X199836487Y-68846869D01*
X199821184Y-68839631D01*
X199806664Y-68830929D01*
X199793067Y-68820844D01*
X199780524Y-68809476D01*
X199769156Y-68796933D01*
X199759071Y-68783336D01*
X199750369Y-68768816D01*
X199743131Y-68753513D01*
X199737428Y-68737574D01*
X199733315Y-68721153D01*
X199730831Y-68704408D01*
X199730000Y-68687500D01*
X199730000Y-68342500D01*
X199730831Y-68325592D01*
X199733315Y-68308847D01*
X199737428Y-68292426D01*
X199743131Y-68276487D01*
X199750369Y-68261184D01*
X199759071Y-68246664D01*
X199769156Y-68233067D01*
X199780524Y-68220524D01*
X199793067Y-68209156D01*
X199806664Y-68199071D01*
X199821184Y-68190369D01*
X199836487Y-68183131D01*
X199852426Y-68177428D01*
X199868847Y-68173315D01*
X199885592Y-68170831D01*
X199902500Y-68170000D01*
X200297500Y-68170000D01*
X200314408Y-68170831D01*
G37*
%TD*%
M02*
