%TF.GenerationSoftware,KiCad,Pcbnew,5.1.5+dfsg1-2build2*%
%TF.CreationDate,2020-08-24T22:09:22-06:00*%
%TF.ProjectId,twinkle-led-controller,7477696e-6b6c-4652-9d6c-65642d636f6e,rev?*%
%TF.SameCoordinates,Original*%
%TF.FileFunction,Legend,Top*%
%TF.FilePolarity,Positive*%
%FSLAX46Y46*%
G04 Gerber Fmt 4.6, Leading zero omitted, Abs format (unit mm)*
G04 Created by KiCad (PCBNEW 5.1.5+dfsg1-2build2) date 2020-08-24 22:09:22*
%MOMM*%
%LPD*%
G04 APERTURE LIST*
%ADD10C,0.150000*%
%ADD11C,0.300000*%
%ADD12C,0.127000*%
%ADD13C,0.120000*%
%ADD14C,0.200000*%
G04 APERTURE END LIST*
D10*
X199717142Y-63644380D02*
X199240952Y-63644380D01*
X199193333Y-64120571D01*
X199240952Y-64072952D01*
X199336190Y-64025333D01*
X199574285Y-64025333D01*
X199669523Y-64072952D01*
X199717142Y-64120571D01*
X199764761Y-64215809D01*
X199764761Y-64453904D01*
X199717142Y-64549142D01*
X199669523Y-64596761D01*
X199574285Y-64644380D01*
X199336190Y-64644380D01*
X199240952Y-64596761D01*
X199193333Y-64549142D01*
X200098095Y-63977714D02*
X200336190Y-64644380D01*
X200574285Y-63977714D01*
X198669523Y-61104380D02*
X199288571Y-61104380D01*
X198955238Y-61485333D01*
X199098095Y-61485333D01*
X199193333Y-61532952D01*
X199240952Y-61580571D01*
X199288571Y-61675809D01*
X199288571Y-61913904D01*
X199240952Y-62009142D01*
X199193333Y-62056761D01*
X199098095Y-62104380D01*
X198812380Y-62104380D01*
X198717142Y-62056761D01*
X198669523Y-62009142D01*
X199621904Y-61437714D02*
X199860000Y-62104380D01*
X200098095Y-61437714D01*
X200383809Y-61104380D02*
X201002857Y-61104380D01*
X200669523Y-61485333D01*
X200812380Y-61485333D01*
X200907619Y-61532952D01*
X200955238Y-61580571D01*
X201002857Y-61675809D01*
X201002857Y-61913904D01*
X200955238Y-62009142D01*
X200907619Y-62056761D01*
X200812380Y-62104380D01*
X200526666Y-62104380D01*
X200431428Y-62056761D01*
X200383809Y-62009142D01*
X198860000Y-59564380D02*
X198860000Y-58564380D01*
X199336190Y-59564380D02*
X199336190Y-58564380D01*
X199907619Y-59564380D01*
X199907619Y-58564380D01*
X200907619Y-59564380D02*
X200336190Y-59564380D01*
X200621904Y-59564380D02*
X200621904Y-58564380D01*
X200526666Y-58707238D01*
X200431428Y-58802476D01*
X200336190Y-58850095D01*
X198860000Y-57024380D02*
X198860000Y-56024380D01*
X199336190Y-57024380D02*
X199336190Y-56024380D01*
X199907619Y-57024380D01*
X199907619Y-56024380D01*
X200574285Y-56024380D02*
X200669523Y-56024380D01*
X200764761Y-56072000D01*
X200812380Y-56119619D01*
X200860000Y-56214857D01*
X200907619Y-56405333D01*
X200907619Y-56643428D01*
X200860000Y-56833904D01*
X200812380Y-56929142D01*
X200764761Y-56976761D01*
X200669523Y-57024380D01*
X200574285Y-57024380D01*
X200479047Y-56976761D01*
X200431428Y-56929142D01*
X200383809Y-56833904D01*
X200336190Y-56643428D01*
X200336190Y-56405333D01*
X200383809Y-56214857D01*
X200431428Y-56119619D01*
X200479047Y-56072000D01*
X200574285Y-56024380D01*
X200261904Y-53500000D02*
X200166666Y-53452380D01*
X200023809Y-53452380D01*
X199880952Y-53500000D01*
X199785714Y-53595238D01*
X199738095Y-53690476D01*
X199690476Y-53880952D01*
X199690476Y-54023809D01*
X199738095Y-54214285D01*
X199785714Y-54309523D01*
X199880952Y-54404761D01*
X200023809Y-54452380D01*
X200119047Y-54452380D01*
X200261904Y-54404761D01*
X200309523Y-54357142D01*
X200309523Y-54023809D01*
X200119047Y-54023809D01*
D11*
X194095238Y-91571428D02*
X194857142Y-91571428D01*
X194380952Y-90904761D02*
X194380952Y-92619047D01*
X194476190Y-92809523D01*
X194666666Y-92904761D01*
X194857142Y-92904761D01*
X195333333Y-91571428D02*
X195714285Y-92904761D01*
X196095238Y-91952380D01*
X196476190Y-92904761D01*
X196857142Y-91571428D01*
X197619047Y-92904761D02*
X197619047Y-91571428D01*
X197619047Y-90904761D02*
X197523809Y-91000000D01*
X197619047Y-91095238D01*
X197714285Y-91000000D01*
X197619047Y-90904761D01*
X197619047Y-91095238D01*
X198571428Y-91571428D02*
X198571428Y-92904761D01*
X198571428Y-91761904D02*
X198666666Y-91666666D01*
X198857142Y-91571428D01*
X199142857Y-91571428D01*
X199333333Y-91666666D01*
X199428571Y-91857142D01*
X199428571Y-92904761D01*
X200380952Y-92904761D02*
X200380952Y-90904761D01*
X200571428Y-92142857D02*
X201142857Y-92904761D01*
X201142857Y-91571428D02*
X200380952Y-92333333D01*
X202285714Y-92904761D02*
X202095238Y-92809523D01*
X202000000Y-92619047D01*
X202000000Y-90904761D01*
X203809523Y-92809523D02*
X203619047Y-92904761D01*
X203238095Y-92904761D01*
X203047619Y-92809523D01*
X202952380Y-92619047D01*
X202952380Y-91857142D01*
X203047619Y-91666666D01*
X203238095Y-91571428D01*
X203619047Y-91571428D01*
X203809523Y-91666666D01*
X203904761Y-91857142D01*
X203904761Y-92047619D01*
X202952380Y-92238095D01*
X206285714Y-92904761D02*
X206285714Y-90904761D01*
X206285714Y-91666666D02*
X206476190Y-91571428D01*
X206857142Y-91571428D01*
X207047619Y-91666666D01*
X207142857Y-91761904D01*
X207238095Y-91952380D01*
X207238095Y-92523809D01*
X207142857Y-92714285D01*
X207047619Y-92809523D01*
X206857142Y-92904761D01*
X206476190Y-92904761D01*
X206285714Y-92809523D01*
X208380952Y-92904761D02*
X208190476Y-92809523D01*
X208095238Y-92714285D01*
X208000000Y-92523809D01*
X208000000Y-91952380D01*
X208095238Y-91761904D01*
X208190476Y-91666666D01*
X208380952Y-91571428D01*
X208666666Y-91571428D01*
X208857142Y-91666666D01*
X208952380Y-91761904D01*
X209047619Y-91952380D01*
X209047619Y-92523809D01*
X208952380Y-92714285D01*
X208857142Y-92809523D01*
X208666666Y-92904761D01*
X208380952Y-92904761D01*
X210761904Y-92904761D02*
X210761904Y-91857142D01*
X210666666Y-91666666D01*
X210476190Y-91571428D01*
X210095238Y-91571428D01*
X209904761Y-91666666D01*
X210761904Y-92809523D02*
X210571428Y-92904761D01*
X210095238Y-92904761D01*
X209904761Y-92809523D01*
X209809523Y-92619047D01*
X209809523Y-92428571D01*
X209904761Y-92238095D01*
X210095238Y-92142857D01*
X210571428Y-92142857D01*
X210761904Y-92047619D01*
X211714285Y-92904761D02*
X211714285Y-91571428D01*
X211714285Y-91952380D02*
X211809523Y-91761904D01*
X211904761Y-91666666D01*
X212095238Y-91571428D01*
X212285714Y-91571428D01*
X213809523Y-92904761D02*
X213809523Y-90904761D01*
X213809523Y-92809523D02*
X213619047Y-92904761D01*
X213238095Y-92904761D01*
X213047619Y-92809523D01*
X212952380Y-92714285D01*
X212857142Y-92523809D01*
X212857142Y-91952380D01*
X212952380Y-91761904D01*
X213047619Y-91666666D01*
X213238095Y-91571428D01*
X213619047Y-91571428D01*
X213809523Y-91666666D01*
X216095238Y-91571428D02*
X216571428Y-92904761D01*
X217047619Y-91571428D01*
X218857142Y-92904761D02*
X217714285Y-92904761D01*
X218285714Y-92904761D02*
X218285714Y-90904761D01*
X218095238Y-91190476D01*
X217904761Y-91380952D01*
X217714285Y-91476190D01*
X219714285Y-92714285D02*
X219809523Y-92809523D01*
X219714285Y-92904761D01*
X219619047Y-92809523D01*
X219714285Y-92714285D01*
X219714285Y-92904761D01*
X221047619Y-90904761D02*
X221238095Y-90904761D01*
X221428571Y-91000000D01*
X221523809Y-91095238D01*
X221619047Y-91285714D01*
X221714285Y-91666666D01*
X221714285Y-92142857D01*
X221619047Y-92523809D01*
X221523809Y-92714285D01*
X221428571Y-92809523D01*
X221238095Y-92904761D01*
X221047619Y-92904761D01*
X220857142Y-92809523D01*
X220761904Y-92714285D01*
X220666666Y-92523809D01*
X220571428Y-92142857D01*
X220571428Y-91666666D01*
X220666666Y-91285714D01*
X220761904Y-91095238D01*
X220857142Y-91000000D01*
X221047619Y-90904761D01*
D10*
X176428571Y-66619047D02*
X176428571Y-67380952D01*
X176428571Y-71619047D02*
X176428571Y-72380952D01*
X176047619Y-72000000D02*
X176809523Y-72000000D01*
X176428571Y-79619047D02*
X176428571Y-80380952D01*
X176428571Y-84619047D02*
X176428571Y-85380952D01*
X176047619Y-85000000D02*
X176809523Y-85000000D01*
X176428571Y-92619047D02*
X176428571Y-93380952D01*
X176428571Y-97619047D02*
X176428571Y-98380952D01*
X176047619Y-98000000D02*
X176809523Y-98000000D01*
X195619047Y-112571428D02*
X196380952Y-112571428D01*
X196000000Y-112952380D02*
X196000000Y-112190476D01*
X190619047Y-112571428D02*
X191380952Y-112571428D01*
X203619047Y-112571428D02*
X204380952Y-112571428D01*
X208619047Y-112571428D02*
X209380952Y-112571428D01*
X209000000Y-112952380D02*
X209000000Y-112190476D01*
X221619047Y-112571428D02*
X222380952Y-112571428D01*
X222000000Y-112952380D02*
X222000000Y-112190476D01*
X216619047Y-112571428D02*
X217380952Y-112571428D01*
X234619047Y-112571428D02*
X235380952Y-112571428D01*
X235000000Y-112952380D02*
X235000000Y-112190476D01*
X229619047Y-112571428D02*
X230380952Y-112571428D01*
X249571428Y-98380952D02*
X249571428Y-97619047D01*
X249571428Y-93380952D02*
X249571428Y-92619047D01*
X249952380Y-93000000D02*
X249190476Y-93000000D01*
X249571428Y-80380952D02*
X249571428Y-79619047D01*
X249952380Y-80000000D02*
X249190476Y-80000000D01*
X249571428Y-85380952D02*
X249571428Y-84619047D01*
X249571428Y-72380952D02*
X249571428Y-71619047D01*
X249571428Y-67380952D02*
X249571428Y-66619047D01*
X249952380Y-67000000D02*
X249190476Y-67000000D01*
D11*
X248678571Y-69571428D02*
X248678571Y-69428571D01*
X248750000Y-69285714D01*
X248821428Y-69214285D01*
X248964285Y-69142857D01*
X249250000Y-69071428D01*
X249607142Y-69071428D01*
X249892857Y-69142857D01*
X250035714Y-69214285D01*
X250107142Y-69285714D01*
X250178571Y-69428571D01*
X250178571Y-69571428D01*
X250107142Y-69714285D01*
X250035714Y-69785714D01*
X249892857Y-69857142D01*
X249607142Y-69928571D01*
X249250000Y-69928571D01*
X248964285Y-69857142D01*
X248821428Y-69785714D01*
X248750000Y-69714285D01*
X248678571Y-69571428D01*
X250178571Y-82071428D02*
X250178571Y-82928571D01*
X250178571Y-82500000D02*
X248678571Y-82500000D01*
X248892857Y-82642857D01*
X249035714Y-82785714D01*
X249107142Y-82928571D01*
X248821428Y-95928571D02*
X248750000Y-95857142D01*
X248678571Y-95714285D01*
X248678571Y-95357142D01*
X248750000Y-95214285D01*
X248821428Y-95142857D01*
X248964285Y-95071428D01*
X249107142Y-95071428D01*
X249321428Y-95142857D01*
X250178571Y-96000000D01*
X250178571Y-95071428D01*
X232000000Y-111678571D02*
X232928571Y-111678571D01*
X232428571Y-112250000D01*
X232642857Y-112250000D01*
X232785714Y-112321428D01*
X232857142Y-112392857D01*
X232928571Y-112535714D01*
X232928571Y-112892857D01*
X232857142Y-113035714D01*
X232785714Y-113107142D01*
X232642857Y-113178571D01*
X232214285Y-113178571D01*
X232071428Y-113107142D01*
X232000000Y-113035714D01*
X219785714Y-112178571D02*
X219785714Y-113178571D01*
X219428571Y-111607142D02*
X219071428Y-112678571D01*
X220000000Y-112678571D01*
X206857142Y-111678571D02*
X206142857Y-111678571D01*
X206071428Y-112392857D01*
X206142857Y-112321428D01*
X206285714Y-112250000D01*
X206642857Y-112250000D01*
X206785714Y-112321428D01*
X206857142Y-112392857D01*
X206928571Y-112535714D01*
X206928571Y-112892857D01*
X206857142Y-113035714D01*
X206785714Y-113107142D01*
X206642857Y-113178571D01*
X206285714Y-113178571D01*
X206142857Y-113107142D01*
X206071428Y-113035714D01*
X193785714Y-111678571D02*
X193500000Y-111678571D01*
X193357142Y-111750000D01*
X193285714Y-111821428D01*
X193142857Y-112035714D01*
X193071428Y-112321428D01*
X193071428Y-112892857D01*
X193142857Y-113035714D01*
X193214285Y-113107142D01*
X193357142Y-113178571D01*
X193642857Y-113178571D01*
X193785714Y-113107142D01*
X193857142Y-113035714D01*
X193928571Y-112892857D01*
X193928571Y-112535714D01*
X193857142Y-112392857D01*
X193785714Y-112321428D01*
X193642857Y-112250000D01*
X193357142Y-112250000D01*
X193214285Y-112321428D01*
X193142857Y-112392857D01*
X193071428Y-112535714D01*
X177321428Y-95000000D02*
X177321428Y-96000000D01*
X175821428Y-95357142D01*
X176678571Y-82357142D02*
X176750000Y-82214285D01*
X176821428Y-82142857D01*
X176964285Y-82071428D01*
X177035714Y-82071428D01*
X177178571Y-82142857D01*
X177250000Y-82214285D01*
X177321428Y-82357142D01*
X177321428Y-82642857D01*
X177250000Y-82785714D01*
X177178571Y-82857142D01*
X177035714Y-82928571D01*
X176964285Y-82928571D01*
X176821428Y-82857142D01*
X176750000Y-82785714D01*
X176678571Y-82642857D01*
X176678571Y-82357142D01*
X176607142Y-82214285D01*
X176535714Y-82142857D01*
X176392857Y-82071428D01*
X176107142Y-82071428D01*
X175964285Y-82142857D01*
X175892857Y-82214285D01*
X175821428Y-82357142D01*
X175821428Y-82642857D01*
X175892857Y-82785714D01*
X175964285Y-82857142D01*
X176107142Y-82928571D01*
X176392857Y-82928571D01*
X176535714Y-82857142D01*
X176607142Y-82785714D01*
X176678571Y-82642857D01*
X175821428Y-69214285D02*
X175821428Y-69500000D01*
X175892857Y-69642857D01*
X175964285Y-69714285D01*
X176178571Y-69857142D01*
X176464285Y-69928571D01*
X177035714Y-69928571D01*
X177178571Y-69857142D01*
X177250000Y-69785714D01*
X177321428Y-69642857D01*
X177321428Y-69357142D01*
X177250000Y-69214285D01*
X177178571Y-69142857D01*
X177035714Y-69071428D01*
X176678571Y-69071428D01*
X176535714Y-69142857D01*
X176464285Y-69214285D01*
X176392857Y-69357142D01*
X176392857Y-69642857D01*
X176464285Y-69785714D01*
X176535714Y-69857142D01*
X176678571Y-69928571D01*
D12*
%TO.C,U2*%
X202050000Y-82350000D02*
G75*
G03X202050000Y-82350000I-250000J0D01*
G01*
X207300000Y-87100000D02*
X207300000Y-86350000D01*
X206550000Y-87100000D02*
X207300000Y-87100000D01*
X202300000Y-87100000D02*
X203050000Y-87100000D01*
X202300000Y-86350000D02*
X202300000Y-87100000D01*
X207300000Y-82100000D02*
X207300000Y-82850000D01*
X206550000Y-82100000D02*
X207300000Y-82100000D01*
X202300000Y-82453550D02*
X202300000Y-82850000D01*
X202653550Y-82100000D02*
X202300000Y-82453550D01*
X203050000Y-82100000D02*
X202653550Y-82100000D01*
D13*
%TO.C,D1*%
X190350000Y-57750000D02*
X190350000Y-63450000D01*
X186050000Y-57750000D02*
X186050000Y-63450000D01*
X190350000Y-57750000D02*
X186050000Y-57750000D01*
%TO.C,U13*%
X186890000Y-69600000D02*
X186890000Y-72050000D01*
X190110000Y-71400000D02*
X190110000Y-69600000D01*
%TO.C,U12*%
X186790000Y-82600000D02*
X186790000Y-85050000D01*
X190010000Y-84400000D02*
X190010000Y-82600000D01*
%TO.C,U11*%
X186890000Y-94600000D02*
X186890000Y-97050000D01*
X190110000Y-96400000D02*
X190110000Y-94600000D01*
%TO.C,U10*%
X195100000Y-102110000D02*
X197550000Y-102110000D01*
X196900000Y-98890000D02*
X195100000Y-98890000D01*
%TO.C,U9*%
X207100000Y-102110000D02*
X209550000Y-102110000D01*
X208900000Y-98890000D02*
X207100000Y-98890000D01*
%TO.C,U8*%
X219960000Y-102110000D02*
X222410000Y-102110000D01*
X221760000Y-98890000D02*
X219960000Y-98890000D01*
%TO.C,U7*%
X231600000Y-102110000D02*
X234050000Y-102110000D01*
X233400000Y-98890000D02*
X231600000Y-98890000D01*
%TO.C,U6*%
X239110000Y-93400000D02*
X239110000Y-90950000D01*
X235890000Y-91600000D02*
X235890000Y-93400000D01*
%TO.C,U5*%
X239110000Y-80400000D02*
X239110000Y-77950000D01*
X235890000Y-78600000D02*
X235890000Y-80400000D01*
%TO.C,U4*%
X239110000Y-63900000D02*
X239110000Y-61450000D01*
X235890000Y-62100000D02*
X235890000Y-63900000D01*
%TO.C,U3*%
X212880000Y-58555000D02*
X212500000Y-58555000D01*
X212880000Y-52135000D02*
X212880000Y-58555000D01*
X231120000Y-52135000D02*
X231120000Y-58555000D01*
X212880000Y-52135000D02*
X231120000Y-52135000D01*
X231120000Y-77880000D02*
X230120000Y-77880000D01*
X231120000Y-77100000D02*
X231120000Y-77880000D01*
X212880000Y-77880000D02*
X213880000Y-77880000D01*
X212880000Y-77100000D02*
X212880000Y-77880000D01*
%TO.C,U1*%
X207910000Y-66900000D02*
X207910000Y-72910000D01*
X201090000Y-69150000D02*
X201090000Y-72910000D01*
X207910000Y-72910000D02*
X206650000Y-72910000D01*
X201090000Y-72910000D02*
X202350000Y-72910000D01*
D10*
%TO.C,SW1*%
X198500000Y-64900000D02*
X198500000Y-69700000D01*
X197300000Y-69900000D02*
X194500000Y-69900000D01*
X193300000Y-69700000D02*
X193300000Y-64900000D01*
X194500000Y-64700000D02*
X197300000Y-64700000D01*
D13*
%TO.C,R13*%
X188397936Y-67410000D02*
X189602064Y-67410000D01*
X188397936Y-65590000D02*
X189602064Y-65590000D01*
%TO.C,R12*%
X188397936Y-80410000D02*
X189602064Y-80410000D01*
X188397936Y-78590000D02*
X189602064Y-78590000D01*
%TO.C,R11*%
X188397936Y-92410000D02*
X189602064Y-92410000D01*
X188397936Y-90590000D02*
X189602064Y-90590000D01*
%TO.C,R10*%
X192910000Y-100602064D02*
X192910000Y-99397936D01*
X191090000Y-100602064D02*
X191090000Y-99397936D01*
%TO.C,R9*%
X204910000Y-100602064D02*
X204910000Y-99397936D01*
X203090000Y-100602064D02*
X203090000Y-99397936D01*
%TO.C,R8*%
X217910000Y-100602064D02*
X217910000Y-99397936D01*
X216090000Y-100602064D02*
X216090000Y-99397936D01*
%TO.C,R7*%
X229610000Y-100602064D02*
X229610000Y-99397936D01*
X227790000Y-100602064D02*
X227790000Y-99397936D01*
%TO.C,R6*%
X237602064Y-95090000D02*
X236397936Y-95090000D01*
X237602064Y-96910000D02*
X236397936Y-96910000D01*
%TO.C,R5*%
X237602064Y-82050000D02*
X236397936Y-82050000D01*
X237602064Y-83870000D02*
X236397936Y-83870000D01*
%TO.C,R4*%
X237602064Y-67090000D02*
X236397936Y-67090000D01*
X237602064Y-68910000D02*
X236397936Y-68910000D01*
%TO.C,Q2*%
X195740000Y-76920000D02*
X197200000Y-76920000D01*
X195740000Y-80080000D02*
X197900000Y-80080000D01*
X195740000Y-80080000D02*
X195740000Y-79150000D01*
X195740000Y-76920000D02*
X195740000Y-77850000D01*
%TO.C,Q1*%
X202260000Y-80080000D02*
X200800000Y-80080000D01*
X202260000Y-76920000D02*
X200100000Y-76920000D01*
X202260000Y-76920000D02*
X202260000Y-77850000D01*
X202260000Y-80080000D02*
X202260000Y-79150000D01*
D10*
%TO.C,J12*%
X182000000Y-64250000D02*
X177750000Y-64250000D01*
X177750000Y-64250000D02*
X177750000Y-74750000D01*
X177750000Y-74750000D02*
X185750000Y-74750000D01*
X185750000Y-74750000D02*
X185750000Y-64250000D01*
X185750000Y-64250000D02*
X182000000Y-64250000D01*
%TO.C,J11*%
X182000000Y-77250000D02*
X177750000Y-77250000D01*
X177750000Y-77250000D02*
X177750000Y-87750000D01*
X177750000Y-87750000D02*
X185750000Y-87750000D01*
X185750000Y-87750000D02*
X185750000Y-77250000D01*
X185750000Y-77250000D02*
X182000000Y-77250000D01*
%TO.C,J10*%
X182000000Y-90250000D02*
X177750000Y-90250000D01*
X177750000Y-90250000D02*
X177750000Y-100750000D01*
X177750000Y-100750000D02*
X185750000Y-100750000D01*
X185750000Y-100750000D02*
X185750000Y-90250000D01*
X185750000Y-90250000D02*
X182000000Y-90250000D01*
%TO.C,J9*%
X188250000Y-107000000D02*
X188250000Y-111250000D01*
X188250000Y-111250000D02*
X198750000Y-111250000D01*
X198750000Y-111250000D02*
X198750000Y-103250000D01*
X198750000Y-103250000D02*
X188250000Y-103250000D01*
X188250000Y-103250000D02*
X188250000Y-107000000D01*
%TO.C,J8*%
X201250000Y-107000000D02*
X201250000Y-111250000D01*
X201250000Y-111250000D02*
X211750000Y-111250000D01*
X211750000Y-111250000D02*
X211750000Y-103250000D01*
X211750000Y-103250000D02*
X201250000Y-103250000D01*
X201250000Y-103250000D02*
X201250000Y-107000000D01*
%TO.C,J7*%
X214250000Y-107000000D02*
X214250000Y-111250000D01*
X214250000Y-111250000D02*
X224750000Y-111250000D01*
X224750000Y-111250000D02*
X224750000Y-103250000D01*
X224750000Y-103250000D02*
X214250000Y-103250000D01*
X214250000Y-103250000D02*
X214250000Y-107000000D01*
%TO.C,J6*%
X227250000Y-107000000D02*
X227250000Y-111250000D01*
X227250000Y-111250000D02*
X237750000Y-111250000D01*
X237750000Y-111250000D02*
X237750000Y-103250000D01*
X237750000Y-103250000D02*
X227250000Y-103250000D01*
X227250000Y-103250000D02*
X227250000Y-107000000D01*
%TO.C,J5*%
X244000000Y-100750000D02*
X248250000Y-100750000D01*
X248250000Y-100750000D02*
X248250000Y-90250000D01*
X248250000Y-90250000D02*
X240250000Y-90250000D01*
X240250000Y-90250000D02*
X240250000Y-100750000D01*
X240250000Y-100750000D02*
X244000000Y-100750000D01*
%TO.C,J4*%
X244000000Y-87750000D02*
X248250000Y-87750000D01*
X248250000Y-87750000D02*
X248250000Y-77250000D01*
X248250000Y-77250000D02*
X240250000Y-77250000D01*
X240250000Y-77250000D02*
X240250000Y-87750000D01*
X240250000Y-87750000D02*
X244000000Y-87750000D01*
%TO.C,J3*%
X244000000Y-74750000D02*
X248250000Y-74750000D01*
X248250000Y-74750000D02*
X248250000Y-64250000D01*
X248250000Y-64250000D02*
X240250000Y-64250000D01*
X240250000Y-64250000D02*
X240250000Y-74750000D01*
X240250000Y-74750000D02*
X244000000Y-74750000D01*
D13*
%TO.C,J2*%
X201670000Y-52670000D02*
X203000000Y-52670000D01*
X201670000Y-54000000D02*
X201670000Y-52670000D01*
X201670000Y-55270000D02*
X204330000Y-55270000D01*
X204330000Y-55270000D02*
X204330000Y-65490000D01*
X201670000Y-55270000D02*
X201670000Y-65490000D01*
X201670000Y-65490000D02*
X204330000Y-65490000D01*
D12*
%TO.C,J1*%
X197500000Y-52150000D02*
X197500000Y-51300000D01*
X197500000Y-51300000D02*
X197500000Y-51250000D01*
X190500000Y-52150000D02*
X190500000Y-51250000D01*
X199250000Y-51950000D02*
X189500000Y-51950000D01*
X197100000Y-51300000D02*
X197100000Y-51600000D01*
X197100000Y-51600000D02*
X196800000Y-51600000D01*
X190500000Y-52150000D02*
X190500000Y-51300000D01*
X190500000Y-51300000D02*
X190500000Y-51250000D01*
X190900000Y-51300000D02*
X190900000Y-51600000D01*
X190900000Y-51600000D02*
X191200000Y-51600000D01*
X196400000Y-51200000D02*
X191700000Y-51200000D01*
X191200000Y-51600000D02*
G75*
G02X191600000Y-51200000I400000J0D01*
G01*
X190100000Y-50500000D02*
G75*
G02X190900000Y-51300000I0J-800000D01*
G01*
X190500000Y-51300000D02*
G75*
G03X190000000Y-50800000I-500000J0D01*
G01*
X196800000Y-51600000D02*
G75*
G03X196400000Y-51200000I-400000J0D01*
G01*
X197900000Y-50500000D02*
G75*
G03X197100000Y-51300000I0J-800000D01*
G01*
X197500000Y-51300000D02*
G75*
G02X198000000Y-50800000I500000J0D01*
G01*
D14*
%TO.C,H4*%
X247962214Y-108500000D02*
G75*
G03X247962214Y-108500000I-2462214J0D01*
G01*
%TO.C,H3*%
X247962214Y-57000000D02*
G75*
G03X247962214Y-57000000I-2462214J0D01*
G01*
%TO.C,H2*%
X182962214Y-108500000D02*
G75*
G03X182962214Y-108500000I-2462214J0D01*
G01*
%TO.C,H1*%
X182962214Y-57000000D02*
G75*
G03X182962214Y-57000000I-2462214J0D01*
G01*
D13*
%TO.C,D2*%
X222235000Y-85985000D02*
X222235000Y-83700000D01*
X220765000Y-85985000D02*
X222235000Y-85985000D01*
X220765000Y-83700000D02*
X220765000Y-85985000D01*
%TO.C,C6*%
X208510000Y-60662779D02*
X208510000Y-60337221D01*
X207490000Y-60662779D02*
X207490000Y-60337221D01*
%TO.C,C5*%
X191910000Y-63662779D02*
X191910000Y-63337221D01*
X190890000Y-63662779D02*
X190890000Y-63337221D01*
%TO.C,C4*%
X206337221Y-66010000D02*
X206662779Y-66010000D01*
X206337221Y-64990000D02*
X206662779Y-64990000D01*
%TD*%
M02*
