M48
; DRILL file {KiCad 5.1.6-c6e7f7d~87~ubuntu18.04.1} date Sun Sep 13 15:34:15 2020
; FORMAT={-:-/ absolute / inch / decimal}
; #@! TF.CreationDate,2020-09-13T15:34:15-06:00
; #@! TF.GenerationSoftware,Kicad,Pcbnew,5.1.6-c6e7f7d~87~ubuntu18.04.1
; #@! TF.FileFunction,Plated,1,4,PTH
FMAT,2
INCH
T1C0.0118
T2C0.0157
T3C0.0354
T4C0.0394
T5C0.0472
T6C0.0512
%
G90
G05
T1
X7.6339Y-2.2717
X7.6654Y-2.2717
X7.689Y-2.311
X7.7362Y-3.122
X7.7402Y-3.2087
X7.8307Y-3.2825
X7.8346Y-3.0551
X7.8543Y-3.126
X7.874Y-3.3622
X7.8858Y-3.2087
X7.9016Y-3.3425
X7.906Y-3.3113
X8.0118Y-3.0512
X8.0433Y-3.1526
X8.0748Y-3.1654
X8.0945Y-3.0512
X8.1607Y-2.4457
X8.3071Y-2.4567
X8.4055Y-3.248
X8.4843Y-2.4311
X8.7205Y-3.248
X8.7835Y-3.2874
X8.9252Y-2.5787
X8.9961Y-2.5512
X9.0669Y-3.0748
T2
X7.4943Y-3.7761
X7.4951Y-3.7283
X7.4959Y-3.2998
X7.4967Y-3.2528
X7.5512Y-2.2638
X7.6535Y-2.1565
X7.7047Y-3.874
X7.7283Y-2.4921
X7.748Y-3.874
X7.9974Y-3.4715
X8.0984Y-2.5354
X8.1364Y-2.7356
X8.1672Y-2.5325
X8.1772Y-3.8701
X8.2236Y-3.874
X8.2913Y-2.3583
X8.5157Y-2.9724
X8.6733Y-3.8829
X8.7008Y-2.7835
X8.7126Y-3.874
X9.0079Y-2.3504
X9.1339Y-3.878
X9.1732Y-3.878
X9.2018Y-3.6417
X9.2087Y-3.5866
X9.2638Y-3.0709
X9.311Y-2.5642
X9.3504Y-2.4791
X9.3504Y-2.563
X9.3627Y-3.1311
T3
X7.5394Y-2.2087
X7.7362Y-2.2087
T4
X7.9921Y-2.126
X7.9921Y-2.226
X7.9921Y-2.326
X7.9921Y-2.426
X7.9921Y-2.526
T5
X7.5Y-2.1024
X7.7756Y-2.1024
T6
X9.6063Y-3.6614
X9.6063Y-3.8583
X9.6063Y-3.1496
X9.6063Y-3.3465
X7.1654Y-3.1496
X7.1654Y-3.3465
X7.5197Y-4.2126
X7.7165Y-4.2126
X7.1654Y-3.6614
X7.1654Y-3.8583
X9.6063Y-2.6378
X9.6063Y-2.8346
X8.5433Y-4.2126
X8.7402Y-4.2126
X8.0315Y-4.2126
X8.2283Y-4.2126
X7.1654Y-2.5787
X7.1654Y-2.7756
X9.0551Y-4.2126
X9.252Y-4.2126
T0
M30
