%TF.GenerationSoftware,KiCad,Pcbnew,5.1.6-c6e7f7d~87~ubuntu18.04.1*%
%TF.CreationDate,2020-09-13T15:34:11-06:00*%
%TF.ProjectId,twinkle-led-controller,7477696e-6b6c-4652-9d6c-65642d636f6e,rev?*%
%TF.SameCoordinates,Original*%
%TF.FileFunction,Copper,L1,Top*%
%TF.FilePolarity,Positive*%
%FSLAX46Y46*%
G04 Gerber Fmt 4.6, Leading zero omitted, Abs format (unit mm)*
G04 Created by KiCad (PCBNEW 5.1.6-c6e7f7d~87~ubuntu18.04.1) date 2020-09-13 15:34:11*
%MOMM*%
%LPD*%
G01*
G04 APERTURE LIST*
%TA.AperFunction,ComponentPad*%
%ADD10C,2.100000*%
%TD*%
%TA.AperFunction,SMDPad,CuDef*%
%ADD11R,3.100000X3.100000*%
%TD*%
%TA.AperFunction,SMDPad,CuDef*%
%ADD12R,0.254000X0.900000*%
%TD*%
%TA.AperFunction,SMDPad,CuDef*%
%ADD13R,0.900000X0.254000*%
%TD*%
%TA.AperFunction,SMDPad,CuDef*%
%ADD14R,2.300000X2.500000*%
%TD*%
%TA.AperFunction,SMDPad,CuDef*%
%ADD15R,0.650000X1.060000*%
%TD*%
%TA.AperFunction,SMDPad,CuDef*%
%ADD16R,1.060000X0.650000*%
%TD*%
%TA.AperFunction,SMDPad,CuDef*%
%ADD17R,2.000000X0.900000*%
%TD*%
%TA.AperFunction,SMDPad,CuDef*%
%ADD18R,0.900000X2.000000*%
%TD*%
%TA.AperFunction,SMDPad,CuDef*%
%ADD19R,5.000000X5.000000*%
%TD*%
%TA.AperFunction,SMDPad,CuDef*%
%ADD20R,1.500000X2.000000*%
%TD*%
%TA.AperFunction,SMDPad,CuDef*%
%ADD21R,3.800000X2.000000*%
%TD*%
%TA.AperFunction,SMDPad,CuDef*%
%ADD22R,0.900000X0.800000*%
%TD*%
%TA.AperFunction,ComponentPad*%
%ADD23O,1.700000X1.700000*%
%TD*%
%TA.AperFunction,ComponentPad*%
%ADD24R,1.700000X1.700000*%
%TD*%
%TA.AperFunction,SMDPad,CuDef*%
%ADD25R,1.500000X1.550000*%
%TD*%
%TA.AperFunction,ComponentPad*%
%ADD26C,1.800000*%
%TD*%
%TA.AperFunction,ComponentPad*%
%ADD27C,1.408000*%
%TD*%
%TA.AperFunction,SMDPad,CuDef*%
%ADD28R,0.400000X1.350000*%
%TD*%
%TA.AperFunction,ViaPad*%
%ADD29C,0.600000*%
%TD*%
%TA.AperFunction,ViaPad*%
%ADD30C,0.800000*%
%TD*%
%TA.AperFunction,Conductor*%
%ADD31C,0.250000*%
%TD*%
%TA.AperFunction,Conductor*%
%ADD32C,0.500000*%
%TD*%
%TA.AperFunction,Conductor*%
%ADD33C,2.000000*%
%TD*%
G04 APERTURE END LIST*
D10*
%TO.P,J12,2*%
%TO.N,GND*%
X182000000Y-70500000D03*
%TO.P,J12,1*%
%TO.N,+5V*%
X182000000Y-65500000D03*
%TD*%
%TO.P,J11,2*%
%TO.N,Net-(J11-Pad2)*%
X182000000Y-85000000D03*
%TO.P,J11,1*%
%TO.N,Net-(J11-Pad1)*%
X182000000Y-80000000D03*
%TD*%
%TO.P,J10,2*%
%TO.N,Net-(J10-Pad2)*%
X182000000Y-98000000D03*
%TO.P,J10,1*%
%TO.N,Net-(J10-Pad1)*%
X182000000Y-93000000D03*
%TD*%
%TO.P,J9,2*%
%TO.N,Net-(J9-Pad2)*%
X196000000Y-107000000D03*
%TO.P,J9,1*%
%TO.N,Net-(J9-Pad1)*%
X191000000Y-107000000D03*
%TD*%
%TO.P,J8,2*%
%TO.N,Net-(J8-Pad2)*%
X209000000Y-107000000D03*
%TO.P,J8,1*%
%TO.N,Net-(J8-Pad1)*%
X204000000Y-107000000D03*
%TD*%
%TO.P,J7,2*%
%TO.N,Net-(J7-Pad2)*%
X222000000Y-107000000D03*
%TO.P,J7,1*%
%TO.N,Net-(J7-Pad1)*%
X217000000Y-107000000D03*
%TD*%
%TO.P,J6,2*%
%TO.N,Net-(J6-Pad2)*%
X235000000Y-107000000D03*
%TO.P,J6,1*%
%TO.N,Net-(J6-Pad1)*%
X230000000Y-107000000D03*
%TD*%
%TO.P,J5,2*%
%TO.N,Net-(J5-Pad2)*%
X244000000Y-93000000D03*
%TO.P,J5,1*%
%TO.N,Net-(J5-Pad1)*%
X244000000Y-98000000D03*
%TD*%
%TO.P,J4,2*%
%TO.N,Net-(J4-Pad2)*%
X244000000Y-80000000D03*
%TO.P,J4,1*%
%TO.N,Net-(J4-Pad1)*%
X244000000Y-85000000D03*
%TD*%
%TO.P,J3,2*%
%TO.N,Net-(J3-Pad2)*%
X244000000Y-67000000D03*
%TO.P,J3,1*%
%TO.N,Net-(J3-Pad1)*%
X244000000Y-72000000D03*
%TD*%
D11*
%TO.P,U2,29*%
%TO.N,GND*%
X204800000Y-84600000D03*
D12*
%TO.P,U2,28*%
%TO.N,/USB_DTR*%
X203300000Y-82010000D03*
%TO.P,U2,27*%
%TO.N,N/C*%
X203800000Y-82010000D03*
%TO.P,U2,26*%
%TO.N,/USB_TX*%
X204300000Y-82010000D03*
%TO.P,U2,25*%
%TO.N,/USB_RX*%
X204800000Y-82010000D03*
%TO.P,U2,24*%
%TO.N,/USB_RTS*%
X205300000Y-82010000D03*
%TO.P,U2,23*%
%TO.N,N/C*%
X205800000Y-82010000D03*
%TO.P,U2,22*%
X206300000Y-82010000D03*
D13*
%TO.P,U2,21*%
X207390000Y-83100000D03*
%TO.P,U2,20*%
X207390000Y-83600000D03*
%TO.P,U2,19*%
X207390000Y-84100000D03*
%TO.P,U2,18*%
X207390000Y-84600000D03*
%TO.P,U2,17*%
X207390000Y-85100000D03*
%TO.P,U2,16*%
X207390000Y-85600000D03*
%TO.P,U2,15*%
X207390000Y-86100000D03*
D12*
%TO.P,U2,14*%
X206300000Y-87190000D03*
%TO.P,U2,13*%
X205800000Y-87190000D03*
%TO.P,U2,12*%
X205300000Y-87190000D03*
%TO.P,U2,11*%
X204800000Y-87190000D03*
%TO.P,U2,10*%
X204300000Y-87190000D03*
%TO.P,U2,9*%
%TO.N,Net-(R15-Pad2)*%
X203800000Y-87190000D03*
%TO.P,U2,8*%
%TO.N,+5V*%
X203300000Y-87190000D03*
D13*
%TO.P,U2,7*%
%TO.N,+3V3*%
X202210000Y-86100000D03*
%TO.P,U2,6*%
X202210000Y-85600000D03*
%TO.P,U2,5*%
%TO.N,/USB_D-*%
X202210000Y-85100000D03*
%TO.P,U2,4*%
%TO.N,/USB_D+*%
X202210000Y-84600000D03*
%TO.P,U2,3*%
%TO.N,GND*%
X202210000Y-84100000D03*
%TO.P,U2,2*%
%TO.N,N/C*%
X202210000Y-83600000D03*
%TO.P,U2,1*%
X202210000Y-83100000D03*
%TD*%
%TO.P,R15,2*%
%TO.N,Net-(R15-Pad2)*%
%TA.AperFunction,SMDPad,CuDef*%
G36*
G01*
X201190000Y-88472500D02*
X201190000Y-88127500D01*
G75*
G02*
X201337500Y-87980000I147500J0D01*
G01*
X201632500Y-87980000D01*
G75*
G02*
X201780000Y-88127500I0J-147500D01*
G01*
X201780000Y-88472500D01*
G75*
G02*
X201632500Y-88620000I-147500J0D01*
G01*
X201337500Y-88620000D01*
G75*
G02*
X201190000Y-88472500I0J147500D01*
G01*
G37*
%TD.AperFunction*%
%TO.P,R15,1*%
%TO.N,+3V3*%
%TA.AperFunction,SMDPad,CuDef*%
G36*
G01*
X200220000Y-88472500D02*
X200220000Y-88127500D01*
G75*
G02*
X200367500Y-87980000I147500J0D01*
G01*
X200662500Y-87980000D01*
G75*
G02*
X200810000Y-88127500I0J-147500D01*
G01*
X200810000Y-88472500D01*
G75*
G02*
X200662500Y-88620000I-147500J0D01*
G01*
X200367500Y-88620000D01*
G75*
G02*
X200220000Y-88472500I0J147500D01*
G01*
G37*
%TD.AperFunction*%
%TD*%
D14*
%TO.P,D1,2*%
%TO.N,GND*%
X188200000Y-63450000D03*
%TO.P,D1,1*%
%TO.N,+5V*%
X188200000Y-59150000D03*
%TD*%
%TO.P,R14,2*%
%TO.N,Net-(D2-Pad1)*%
%TA.AperFunction,SMDPad,CuDef*%
G36*
G01*
X222927500Y-85190000D02*
X223272500Y-85190000D01*
G75*
G02*
X223420000Y-85337500I0J-147500D01*
G01*
X223420000Y-85632500D01*
G75*
G02*
X223272500Y-85780000I-147500J0D01*
G01*
X222927500Y-85780000D01*
G75*
G02*
X222780000Y-85632500I0J147500D01*
G01*
X222780000Y-85337500D01*
G75*
G02*
X222927500Y-85190000I147500J0D01*
G01*
G37*
%TD.AperFunction*%
%TO.P,R14,1*%
%TO.N,GND*%
%TA.AperFunction,SMDPad,CuDef*%
G36*
G01*
X222927500Y-84220000D02*
X223272500Y-84220000D01*
G75*
G02*
X223420000Y-84367500I0J-147500D01*
G01*
X223420000Y-84662500D01*
G75*
G02*
X223272500Y-84810000I-147500J0D01*
G01*
X222927500Y-84810000D01*
G75*
G02*
X222780000Y-84662500I0J147500D01*
G01*
X222780000Y-84367500D01*
G75*
G02*
X222927500Y-84220000I147500J0D01*
G01*
G37*
%TD.AperFunction*%
%TD*%
D15*
%TO.P,U12,5*%
%TO.N,+5V*%
X188400000Y-82400000D03*
%TO.P,U12,6*%
%TO.N,Net-(R12-Pad2)*%
X187450000Y-82400000D03*
%TO.P,U12,4*%
%TO.N,/LED8_A*%
X189350000Y-82400000D03*
%TO.P,U12,3*%
%TO.N,/LED8_B*%
X189350000Y-84600000D03*
%TO.P,U12,2*%
%TO.N,GND*%
X188400000Y-84600000D03*
%TO.P,U12,1*%
%TO.N,Net-(J11-Pad2)*%
X187450000Y-84600000D03*
%TD*%
%TO.P,U11,5*%
%TO.N,+5V*%
X188500000Y-94400000D03*
%TO.P,U11,6*%
%TO.N,Net-(R11-Pad2)*%
X187550000Y-94400000D03*
%TO.P,U11,4*%
%TO.N,/LED7_A*%
X189450000Y-94400000D03*
%TO.P,U11,3*%
%TO.N,/LED7_B*%
X189450000Y-96600000D03*
%TO.P,U11,2*%
%TO.N,GND*%
X188500000Y-96600000D03*
%TO.P,U11,1*%
%TO.N,Net-(J10-Pad2)*%
X187550000Y-96600000D03*
%TD*%
D16*
%TO.P,U10,5*%
%TO.N,+5V*%
X194900000Y-100500000D03*
%TO.P,U10,6*%
%TO.N,Net-(R10-Pad2)*%
X194900000Y-101450000D03*
%TO.P,U10,4*%
%TO.N,/LED6_A*%
X194900000Y-99550000D03*
%TO.P,U10,3*%
%TO.N,/LED6_B*%
X197100000Y-99550000D03*
%TO.P,U10,2*%
%TO.N,GND*%
X197100000Y-100500000D03*
%TO.P,U10,1*%
%TO.N,Net-(J9-Pad2)*%
X197100000Y-101450000D03*
%TD*%
%TO.P,U9,5*%
%TO.N,+5V*%
X206900000Y-100500000D03*
%TO.P,U9,6*%
%TO.N,Net-(R9-Pad2)*%
X206900000Y-101450000D03*
%TO.P,U9,4*%
%TO.N,/LED5_A*%
X206900000Y-99550000D03*
%TO.P,U9,3*%
%TO.N,/LED5_B*%
X209100000Y-99550000D03*
%TO.P,U9,2*%
%TO.N,GND*%
X209100000Y-100500000D03*
%TO.P,U9,1*%
%TO.N,Net-(J8-Pad2)*%
X209100000Y-101450000D03*
%TD*%
%TO.P,U8,5*%
%TO.N,+5V*%
X219760000Y-100500000D03*
%TO.P,U8,6*%
%TO.N,Net-(R8-Pad2)*%
X219760000Y-101450000D03*
%TO.P,U8,4*%
%TO.N,/LED4_A*%
X219760000Y-99550000D03*
%TO.P,U8,3*%
%TO.N,/LED4_B*%
X221960000Y-99550000D03*
%TO.P,U8,2*%
%TO.N,GND*%
X221960000Y-100500000D03*
%TO.P,U8,1*%
%TO.N,Net-(J7-Pad2)*%
X221960000Y-101450000D03*
%TD*%
%TO.P,U7,5*%
%TO.N,+5V*%
X231400000Y-100500000D03*
%TO.P,U7,6*%
%TO.N,Net-(R7-Pad2)*%
X231400000Y-101450000D03*
%TO.P,U7,4*%
%TO.N,/LED3_A*%
X231400000Y-99550000D03*
%TO.P,U7,3*%
%TO.N,/LED3_B*%
X233600000Y-99550000D03*
%TO.P,U7,2*%
%TO.N,GND*%
X233600000Y-100500000D03*
%TO.P,U7,1*%
%TO.N,Net-(J6-Pad2)*%
X233600000Y-101450000D03*
%TD*%
D15*
%TO.P,U6,5*%
%TO.N,+5V*%
X237500000Y-93600000D03*
%TO.P,U6,6*%
%TO.N,Net-(R6-Pad2)*%
X238450000Y-93600000D03*
%TO.P,U6,4*%
%TO.N,/LED2_A*%
X236550000Y-93600000D03*
%TO.P,U6,3*%
%TO.N,/LED2_B*%
X236550000Y-91400000D03*
%TO.P,U6,2*%
%TO.N,GND*%
X237500000Y-91400000D03*
%TO.P,U6,1*%
%TO.N,Net-(J5-Pad2)*%
X238450000Y-91400000D03*
%TD*%
%TO.P,U5,5*%
%TO.N,+5V*%
X237500000Y-80600000D03*
%TO.P,U5,6*%
%TO.N,Net-(R5-Pad2)*%
X238450000Y-80600000D03*
%TO.P,U5,4*%
%TO.N,/LED1_A*%
X236550000Y-80600000D03*
%TO.P,U5,3*%
%TO.N,/LED1_B*%
X236550000Y-78400000D03*
%TO.P,U5,2*%
%TO.N,GND*%
X237500000Y-78400000D03*
%TO.P,U5,1*%
%TO.N,Net-(J4-Pad2)*%
X238450000Y-78400000D03*
%TD*%
%TO.P,U4,5*%
%TO.N,+5V*%
X237500000Y-64100000D03*
%TO.P,U4,6*%
%TO.N,Net-(R4-Pad2)*%
X238450000Y-64100000D03*
%TO.P,U4,4*%
%TO.N,/LED0_A*%
X236550000Y-64100000D03*
%TO.P,U4,3*%
%TO.N,/LED0_B*%
X236550000Y-61900000D03*
%TO.P,U4,2*%
%TO.N,GND*%
X237500000Y-61900000D03*
%TO.P,U4,1*%
%TO.N,Net-(J3-Pad2)*%
X238450000Y-61900000D03*
%TD*%
D17*
%TO.P,U3,38*%
%TO.N,GND*%
X230500000Y-59745000D03*
%TO.P,U3,37*%
%TO.N,/LED0_B*%
X230500000Y-61015000D03*
%TO.P,U3,36*%
%TO.N,/LED0_A*%
X230500000Y-62285000D03*
%TO.P,U3,35*%
%TO.N,/USB_RX*%
X230500000Y-63555000D03*
%TO.P,U3,34*%
%TO.N,/USB_TX*%
X230500000Y-64825000D03*
%TO.P,U3,33*%
%TO.N,/LED1_B*%
X230500000Y-66095000D03*
%TO.P,U3,32*%
%TO.N,N/C*%
X230500000Y-67365000D03*
%TO.P,U3,31*%
%TO.N,/LED1_A*%
X230500000Y-68635000D03*
%TO.P,U3,30*%
%TO.N,/LED2_B*%
X230500000Y-69905000D03*
%TO.P,U3,29*%
%TO.N,/LED2_A*%
X230500000Y-71175000D03*
%TO.P,U3,28*%
%TO.N,/LED3_B*%
X230500000Y-72445000D03*
%TO.P,U3,27*%
%TO.N,/LED3_A*%
X230500000Y-73715000D03*
%TO.P,U3,26*%
%TO.N,/LED4_B*%
X230500000Y-74985000D03*
%TO.P,U3,25*%
%TO.N,/IO0*%
X230500000Y-76255000D03*
D18*
%TO.P,U3,24*%
%TO.N,/LED4_A*%
X227715000Y-77255000D03*
%TO.P,U3,23*%
%TO.N,/LED5_B*%
X226445000Y-77255000D03*
%TO.P,U3,22*%
%TO.N,N/C*%
X225175000Y-77255000D03*
%TO.P,U3,21*%
X223905000Y-77255000D03*
%TO.P,U3,20*%
X222635000Y-77255000D03*
%TO.P,U3,19*%
X221365000Y-77255000D03*
%TO.P,U3,18*%
X220095000Y-77255000D03*
%TO.P,U3,17*%
X218825000Y-77255000D03*
%TO.P,U3,16*%
%TO.N,/LED5_A*%
X217555000Y-77255000D03*
%TO.P,U3,15*%
%TO.N,GND*%
X216285000Y-77255000D03*
D17*
%TO.P,U3,14*%
%TO.N,/AUX_OUT*%
X213500000Y-76255000D03*
%TO.P,U3,13*%
%TO.N,/LED6_B*%
X213500000Y-74985000D03*
%TO.P,U3,12*%
%TO.N,/LED6_A*%
X213500000Y-73715000D03*
%TO.P,U3,11*%
%TO.N,/LED7_B*%
X213500000Y-72445000D03*
%TO.P,U3,10*%
%TO.N,/LED7_A*%
X213500000Y-71175000D03*
%TO.P,U3,9*%
%TO.N,/LED8_B*%
X213500000Y-69905000D03*
%TO.P,U3,8*%
%TO.N,/LED8_A*%
X213500000Y-68635000D03*
%TO.P,U3,7*%
%TO.N,N/C*%
X213500000Y-67365000D03*
%TO.P,U3,6*%
X213500000Y-66095000D03*
%TO.P,U3,5*%
X213500000Y-64825000D03*
%TO.P,U3,4*%
%TO.N,/AUX_IN*%
X213500000Y-63555000D03*
%TO.P,U3,3*%
%TO.N,/EN*%
X213500000Y-62285000D03*
%TO.P,U3,2*%
%TO.N,+3V3*%
X213500000Y-61015000D03*
%TO.P,U3,1*%
%TO.N,GND*%
X213500000Y-59745000D03*
D19*
%TO.P,U3,39*%
X221000000Y-67245000D03*
%TD*%
D20*
%TO.P,U1,1*%
%TO.N,GND*%
X206800000Y-67850000D03*
%TO.P,U1,3*%
%TO.N,+5V*%
X202200000Y-67850000D03*
%TO.P,U1,2*%
%TO.N,+3V3*%
X204500000Y-67850000D03*
D21*
%TO.P,U1,4*%
%TO.N,N/C*%
X204500000Y-74150000D03*
%TD*%
D20*
%TO.P,SW1,~*%
%TO.N,N/C*%
X193650000Y-70800000D03*
%TO.P,SW1,2*%
%TO.N,/EN*%
X193650000Y-63800000D03*
%TO.P,SW1,~*%
%TO.N,N/C*%
X198150000Y-70800000D03*
%TO.P,SW1,1*%
%TO.N,GND*%
X198150000Y-63800000D03*
%TD*%
%TO.P,R12,2*%
%TO.N,Net-(R12-Pad2)*%
%TA.AperFunction,SMDPad,CuDef*%
G36*
G01*
X189775000Y-80125000D02*
X189775000Y-78875000D01*
G75*
G02*
X190025000Y-78625000I250000J0D01*
G01*
X190775000Y-78625000D01*
G75*
G02*
X191025000Y-78875000I0J-250000D01*
G01*
X191025000Y-80125000D01*
G75*
G02*
X190775000Y-80375000I-250000J0D01*
G01*
X190025000Y-80375000D01*
G75*
G02*
X189775000Y-80125000I0J250000D01*
G01*
G37*
%TD.AperFunction*%
%TO.P,R12,1*%
%TO.N,Net-(J11-Pad1)*%
%TA.AperFunction,SMDPad,CuDef*%
G36*
G01*
X186975000Y-80125000D02*
X186975000Y-78875000D01*
G75*
G02*
X187225000Y-78625000I250000J0D01*
G01*
X187975000Y-78625000D01*
G75*
G02*
X188225000Y-78875000I0J-250000D01*
G01*
X188225000Y-80125000D01*
G75*
G02*
X187975000Y-80375000I-250000J0D01*
G01*
X187225000Y-80375000D01*
G75*
G02*
X186975000Y-80125000I0J250000D01*
G01*
G37*
%TD.AperFunction*%
%TD*%
%TO.P,R11,2*%
%TO.N,Net-(R11-Pad2)*%
%TA.AperFunction,SMDPad,CuDef*%
G36*
G01*
X189775000Y-92125000D02*
X189775000Y-90875000D01*
G75*
G02*
X190025000Y-90625000I250000J0D01*
G01*
X190775000Y-90625000D01*
G75*
G02*
X191025000Y-90875000I0J-250000D01*
G01*
X191025000Y-92125000D01*
G75*
G02*
X190775000Y-92375000I-250000J0D01*
G01*
X190025000Y-92375000D01*
G75*
G02*
X189775000Y-92125000I0J250000D01*
G01*
G37*
%TD.AperFunction*%
%TO.P,R11,1*%
%TO.N,Net-(J10-Pad1)*%
%TA.AperFunction,SMDPad,CuDef*%
G36*
G01*
X186975000Y-92125000D02*
X186975000Y-90875000D01*
G75*
G02*
X187225000Y-90625000I250000J0D01*
G01*
X187975000Y-90625000D01*
G75*
G02*
X188225000Y-90875000I0J-250000D01*
G01*
X188225000Y-92125000D01*
G75*
G02*
X187975000Y-92375000I-250000J0D01*
G01*
X187225000Y-92375000D01*
G75*
G02*
X186975000Y-92125000I0J250000D01*
G01*
G37*
%TD.AperFunction*%
%TD*%
%TO.P,R10,2*%
%TO.N,Net-(R10-Pad2)*%
%TA.AperFunction,SMDPad,CuDef*%
G36*
G01*
X192625000Y-99225000D02*
X191375000Y-99225000D01*
G75*
G02*
X191125000Y-98975000I0J250000D01*
G01*
X191125000Y-98225000D01*
G75*
G02*
X191375000Y-97975000I250000J0D01*
G01*
X192625000Y-97975000D01*
G75*
G02*
X192875000Y-98225000I0J-250000D01*
G01*
X192875000Y-98975000D01*
G75*
G02*
X192625000Y-99225000I-250000J0D01*
G01*
G37*
%TD.AperFunction*%
%TO.P,R10,1*%
%TO.N,Net-(J9-Pad1)*%
%TA.AperFunction,SMDPad,CuDef*%
G36*
G01*
X192625000Y-102025000D02*
X191375000Y-102025000D01*
G75*
G02*
X191125000Y-101775000I0J250000D01*
G01*
X191125000Y-101025000D01*
G75*
G02*
X191375000Y-100775000I250000J0D01*
G01*
X192625000Y-100775000D01*
G75*
G02*
X192875000Y-101025000I0J-250000D01*
G01*
X192875000Y-101775000D01*
G75*
G02*
X192625000Y-102025000I-250000J0D01*
G01*
G37*
%TD.AperFunction*%
%TD*%
%TO.P,R9,2*%
%TO.N,Net-(R9-Pad2)*%
%TA.AperFunction,SMDPad,CuDef*%
G36*
G01*
X204625000Y-99225000D02*
X203375000Y-99225000D01*
G75*
G02*
X203125000Y-98975000I0J250000D01*
G01*
X203125000Y-98225000D01*
G75*
G02*
X203375000Y-97975000I250000J0D01*
G01*
X204625000Y-97975000D01*
G75*
G02*
X204875000Y-98225000I0J-250000D01*
G01*
X204875000Y-98975000D01*
G75*
G02*
X204625000Y-99225000I-250000J0D01*
G01*
G37*
%TD.AperFunction*%
%TO.P,R9,1*%
%TO.N,Net-(J8-Pad1)*%
%TA.AperFunction,SMDPad,CuDef*%
G36*
G01*
X204625000Y-102025000D02*
X203375000Y-102025000D01*
G75*
G02*
X203125000Y-101775000I0J250000D01*
G01*
X203125000Y-101025000D01*
G75*
G02*
X203375000Y-100775000I250000J0D01*
G01*
X204625000Y-100775000D01*
G75*
G02*
X204875000Y-101025000I0J-250000D01*
G01*
X204875000Y-101775000D01*
G75*
G02*
X204625000Y-102025000I-250000J0D01*
G01*
G37*
%TD.AperFunction*%
%TD*%
%TO.P,R8,2*%
%TO.N,Net-(R8-Pad2)*%
%TA.AperFunction,SMDPad,CuDef*%
G36*
G01*
X217625000Y-99225000D02*
X216375000Y-99225000D01*
G75*
G02*
X216125000Y-98975000I0J250000D01*
G01*
X216125000Y-98225000D01*
G75*
G02*
X216375000Y-97975000I250000J0D01*
G01*
X217625000Y-97975000D01*
G75*
G02*
X217875000Y-98225000I0J-250000D01*
G01*
X217875000Y-98975000D01*
G75*
G02*
X217625000Y-99225000I-250000J0D01*
G01*
G37*
%TD.AperFunction*%
%TO.P,R8,1*%
%TO.N,Net-(J7-Pad1)*%
%TA.AperFunction,SMDPad,CuDef*%
G36*
G01*
X217625000Y-102025000D02*
X216375000Y-102025000D01*
G75*
G02*
X216125000Y-101775000I0J250000D01*
G01*
X216125000Y-101025000D01*
G75*
G02*
X216375000Y-100775000I250000J0D01*
G01*
X217625000Y-100775000D01*
G75*
G02*
X217875000Y-101025000I0J-250000D01*
G01*
X217875000Y-101775000D01*
G75*
G02*
X217625000Y-102025000I-250000J0D01*
G01*
G37*
%TD.AperFunction*%
%TD*%
%TO.P,R7,2*%
%TO.N,Net-(R7-Pad2)*%
%TA.AperFunction,SMDPad,CuDef*%
G36*
G01*
X229325000Y-99225000D02*
X228075000Y-99225000D01*
G75*
G02*
X227825000Y-98975000I0J250000D01*
G01*
X227825000Y-98225000D01*
G75*
G02*
X228075000Y-97975000I250000J0D01*
G01*
X229325000Y-97975000D01*
G75*
G02*
X229575000Y-98225000I0J-250000D01*
G01*
X229575000Y-98975000D01*
G75*
G02*
X229325000Y-99225000I-250000J0D01*
G01*
G37*
%TD.AperFunction*%
%TO.P,R7,1*%
%TO.N,Net-(J6-Pad1)*%
%TA.AperFunction,SMDPad,CuDef*%
G36*
G01*
X229325000Y-102025000D02*
X228075000Y-102025000D01*
G75*
G02*
X227825000Y-101775000I0J250000D01*
G01*
X227825000Y-101025000D01*
G75*
G02*
X228075000Y-100775000I250000J0D01*
G01*
X229325000Y-100775000D01*
G75*
G02*
X229575000Y-101025000I0J-250000D01*
G01*
X229575000Y-101775000D01*
G75*
G02*
X229325000Y-102025000I-250000J0D01*
G01*
G37*
%TD.AperFunction*%
%TD*%
%TO.P,R6,2*%
%TO.N,Net-(R6-Pad2)*%
%TA.AperFunction,SMDPad,CuDef*%
G36*
G01*
X236225000Y-95375000D02*
X236225000Y-96625000D01*
G75*
G02*
X235975000Y-96875000I-250000J0D01*
G01*
X235225000Y-96875000D01*
G75*
G02*
X234975000Y-96625000I0J250000D01*
G01*
X234975000Y-95375000D01*
G75*
G02*
X235225000Y-95125000I250000J0D01*
G01*
X235975000Y-95125000D01*
G75*
G02*
X236225000Y-95375000I0J-250000D01*
G01*
G37*
%TD.AperFunction*%
%TO.P,R6,1*%
%TO.N,Net-(J5-Pad1)*%
%TA.AperFunction,SMDPad,CuDef*%
G36*
G01*
X239025000Y-95375000D02*
X239025000Y-96625000D01*
G75*
G02*
X238775000Y-96875000I-250000J0D01*
G01*
X238025000Y-96875000D01*
G75*
G02*
X237775000Y-96625000I0J250000D01*
G01*
X237775000Y-95375000D01*
G75*
G02*
X238025000Y-95125000I250000J0D01*
G01*
X238775000Y-95125000D01*
G75*
G02*
X239025000Y-95375000I0J-250000D01*
G01*
G37*
%TD.AperFunction*%
%TD*%
%TO.P,R5,2*%
%TO.N,Net-(R5-Pad2)*%
%TA.AperFunction,SMDPad,CuDef*%
G36*
G01*
X236225000Y-82335000D02*
X236225000Y-83585000D01*
G75*
G02*
X235975000Y-83835000I-250000J0D01*
G01*
X235225000Y-83835000D01*
G75*
G02*
X234975000Y-83585000I0J250000D01*
G01*
X234975000Y-82335000D01*
G75*
G02*
X235225000Y-82085000I250000J0D01*
G01*
X235975000Y-82085000D01*
G75*
G02*
X236225000Y-82335000I0J-250000D01*
G01*
G37*
%TD.AperFunction*%
%TO.P,R5,1*%
%TO.N,Net-(J4-Pad1)*%
%TA.AperFunction,SMDPad,CuDef*%
G36*
G01*
X239025000Y-82335000D02*
X239025000Y-83585000D01*
G75*
G02*
X238775000Y-83835000I-250000J0D01*
G01*
X238025000Y-83835000D01*
G75*
G02*
X237775000Y-83585000I0J250000D01*
G01*
X237775000Y-82335000D01*
G75*
G02*
X238025000Y-82085000I250000J0D01*
G01*
X238775000Y-82085000D01*
G75*
G02*
X239025000Y-82335000I0J-250000D01*
G01*
G37*
%TD.AperFunction*%
%TD*%
%TO.P,R4,2*%
%TO.N,Net-(R4-Pad2)*%
%TA.AperFunction,SMDPad,CuDef*%
G36*
G01*
X236225000Y-67375000D02*
X236225000Y-68625000D01*
G75*
G02*
X235975000Y-68875000I-250000J0D01*
G01*
X235225000Y-68875000D01*
G75*
G02*
X234975000Y-68625000I0J250000D01*
G01*
X234975000Y-67375000D01*
G75*
G02*
X235225000Y-67125000I250000J0D01*
G01*
X235975000Y-67125000D01*
G75*
G02*
X236225000Y-67375000I0J-250000D01*
G01*
G37*
%TD.AperFunction*%
%TO.P,R4,1*%
%TO.N,Net-(J3-Pad1)*%
%TA.AperFunction,SMDPad,CuDef*%
G36*
G01*
X239025000Y-67375000D02*
X239025000Y-68625000D01*
G75*
G02*
X238775000Y-68875000I-250000J0D01*
G01*
X238025000Y-68875000D01*
G75*
G02*
X237775000Y-68625000I0J250000D01*
G01*
X237775000Y-67375000D01*
G75*
G02*
X238025000Y-67125000I250000J0D01*
G01*
X238775000Y-67125000D01*
G75*
G02*
X239025000Y-67375000I0J-250000D01*
G01*
G37*
%TD.AperFunction*%
%TD*%
%TO.P,R3,2*%
%TO.N,/EN*%
%TA.AperFunction,SMDPad,CuDef*%
G36*
G01*
X204327500Y-78190000D02*
X204672500Y-78190000D01*
G75*
G02*
X204820000Y-78337500I0J-147500D01*
G01*
X204820000Y-78632500D01*
G75*
G02*
X204672500Y-78780000I-147500J0D01*
G01*
X204327500Y-78780000D01*
G75*
G02*
X204180000Y-78632500I0J147500D01*
G01*
X204180000Y-78337500D01*
G75*
G02*
X204327500Y-78190000I147500J0D01*
G01*
G37*
%TD.AperFunction*%
%TO.P,R3,1*%
%TO.N,+3V3*%
%TA.AperFunction,SMDPad,CuDef*%
G36*
G01*
X204327500Y-77220000D02*
X204672500Y-77220000D01*
G75*
G02*
X204820000Y-77367500I0J-147500D01*
G01*
X204820000Y-77662500D01*
G75*
G02*
X204672500Y-77810000I-147500J0D01*
G01*
X204327500Y-77810000D01*
G75*
G02*
X204180000Y-77662500I0J147500D01*
G01*
X204180000Y-77367500D01*
G75*
G02*
X204327500Y-77220000I147500J0D01*
G01*
G37*
%TD.AperFunction*%
%TD*%
%TO.P,R2,2*%
%TO.N,/USB_RTS*%
%TA.AperFunction,SMDPad,CuDef*%
G36*
G01*
X199190000Y-81672500D02*
X199190000Y-81327500D01*
G75*
G02*
X199337500Y-81180000I147500J0D01*
G01*
X199632500Y-81180000D01*
G75*
G02*
X199780000Y-81327500I0J-147500D01*
G01*
X199780000Y-81672500D01*
G75*
G02*
X199632500Y-81820000I-147500J0D01*
G01*
X199337500Y-81820000D01*
G75*
G02*
X199190000Y-81672500I0J147500D01*
G01*
G37*
%TD.AperFunction*%
%TO.P,R2,1*%
%TO.N,Net-(Q2-Pad1)*%
%TA.AperFunction,SMDPad,CuDef*%
G36*
G01*
X198220000Y-81672500D02*
X198220000Y-81327500D01*
G75*
G02*
X198367500Y-81180000I147500J0D01*
G01*
X198662500Y-81180000D01*
G75*
G02*
X198810000Y-81327500I0J-147500D01*
G01*
X198810000Y-81672500D01*
G75*
G02*
X198662500Y-81820000I-147500J0D01*
G01*
X198367500Y-81820000D01*
G75*
G02*
X198220000Y-81672500I0J147500D01*
G01*
G37*
%TD.AperFunction*%
%TD*%
%TO.P,R1,2*%
%TO.N,/USB_DTR*%
%TA.AperFunction,SMDPad,CuDef*%
G36*
G01*
X195810000Y-75327500D02*
X195810000Y-75672500D01*
G75*
G02*
X195662500Y-75820000I-147500J0D01*
G01*
X195367500Y-75820000D01*
G75*
G02*
X195220000Y-75672500I0J147500D01*
G01*
X195220000Y-75327500D01*
G75*
G02*
X195367500Y-75180000I147500J0D01*
G01*
X195662500Y-75180000D01*
G75*
G02*
X195810000Y-75327500I0J-147500D01*
G01*
G37*
%TD.AperFunction*%
%TO.P,R1,1*%
%TO.N,Net-(Q1-Pad1)*%
%TA.AperFunction,SMDPad,CuDef*%
G36*
G01*
X196780000Y-75327500D02*
X196780000Y-75672500D01*
G75*
G02*
X196632500Y-75820000I-147500J0D01*
G01*
X196337500Y-75820000D01*
G75*
G02*
X196190000Y-75672500I0J147500D01*
G01*
X196190000Y-75327500D01*
G75*
G02*
X196337500Y-75180000I147500J0D01*
G01*
X196632500Y-75180000D01*
G75*
G02*
X196780000Y-75327500I0J-147500D01*
G01*
G37*
%TD.AperFunction*%
%TD*%
D22*
%TO.P,Q2,3*%
%TO.N,/USB_DTR*%
X195500000Y-78500000D03*
%TO.P,Q2,2*%
%TO.N,/IO0*%
X197500000Y-77550000D03*
%TO.P,Q2,1*%
%TO.N,Net-(Q2-Pad1)*%
X197500000Y-79450000D03*
%TD*%
%TO.P,Q1,3*%
%TO.N,/EN*%
X202500000Y-78500000D03*
%TO.P,Q1,2*%
%TO.N,/USB_RTS*%
X200500000Y-79450000D03*
%TO.P,Q1,1*%
%TO.N,Net-(Q1-Pad1)*%
X200500000Y-77550000D03*
%TD*%
D23*
%TO.P,J2,5*%
%TO.N,+5V*%
X203000000Y-64160000D03*
%TO.P,J2,4*%
%TO.N,+3V3*%
X203000000Y-61620000D03*
%TO.P,J2,3*%
%TO.N,/AUX_OUT*%
X203000000Y-59080000D03*
%TO.P,J2,2*%
%TO.N,/AUX_IN*%
X203000000Y-56540000D03*
D24*
%TO.P,J2,1*%
%TO.N,GND*%
X203000000Y-54000000D03*
%TD*%
D25*
%TO.P,J1,P$13*%
%TO.N,N/C*%
X190950000Y-53400000D03*
%TO.P,J1,P$12*%
X197050000Y-53400000D03*
%TO.P,J1,P$11*%
X193000000Y-53400000D03*
%TO.P,J1,P$10*%
X195000000Y-53400000D03*
D26*
%TO.P,J1,P$9*%
X190500000Y-53400000D03*
%TO.P,J1,P$8*%
X197500000Y-53400000D03*
D27*
%TO.P,J1,P$7*%
X191500000Y-56100000D03*
%TO.P,J1,P$6*%
X196500000Y-56100000D03*
D28*
%TO.P,J1,5*%
%TO.N,GND*%
X192700000Y-56075000D03*
%TO.P,J1,4*%
%TO.N,N/C*%
X193350000Y-56075000D03*
%TO.P,J1,3*%
%TO.N,/USB_D+*%
X194000000Y-56075000D03*
%TO.P,J1,2*%
%TO.N,/USB_D-*%
X194650000Y-56075000D03*
%TO.P,J1,1*%
%TO.N,+5V*%
X195300000Y-56075000D03*
%TD*%
%TO.P,D2,2*%
%TO.N,/AUX_OUT*%
%TA.AperFunction,SMDPad,CuDef*%
G36*
G01*
X221756250Y-84150000D02*
X221243750Y-84150000D01*
G75*
G02*
X221025000Y-83931250I0J218750D01*
G01*
X221025000Y-83493750D01*
G75*
G02*
X221243750Y-83275000I218750J0D01*
G01*
X221756250Y-83275000D01*
G75*
G02*
X221975000Y-83493750I0J-218750D01*
G01*
X221975000Y-83931250D01*
G75*
G02*
X221756250Y-84150000I-218750J0D01*
G01*
G37*
%TD.AperFunction*%
%TO.P,D2,1*%
%TO.N,Net-(D2-Pad1)*%
%TA.AperFunction,SMDPad,CuDef*%
G36*
G01*
X221756250Y-85725000D02*
X221243750Y-85725000D01*
G75*
G02*
X221025000Y-85506250I0J218750D01*
G01*
X221025000Y-85068750D01*
G75*
G02*
X221243750Y-84850000I218750J0D01*
G01*
X221756250Y-84850000D01*
G75*
G02*
X221975000Y-85068750I0J-218750D01*
G01*
X221975000Y-85506250D01*
G75*
G02*
X221756250Y-85725000I-218750J0D01*
G01*
G37*
%TD.AperFunction*%
%TD*%
%TO.P,C16,2*%
%TO.N,GND*%
%TA.AperFunction,SMDPad,CuDef*%
G36*
G01*
X191327500Y-83190000D02*
X191672500Y-83190000D01*
G75*
G02*
X191820000Y-83337500I0J-147500D01*
G01*
X191820000Y-83632500D01*
G75*
G02*
X191672500Y-83780000I-147500J0D01*
G01*
X191327500Y-83780000D01*
G75*
G02*
X191180000Y-83632500I0J147500D01*
G01*
X191180000Y-83337500D01*
G75*
G02*
X191327500Y-83190000I147500J0D01*
G01*
G37*
%TD.AperFunction*%
%TO.P,C16,1*%
%TO.N,+5V*%
%TA.AperFunction,SMDPad,CuDef*%
G36*
G01*
X191327500Y-82220000D02*
X191672500Y-82220000D01*
G75*
G02*
X191820000Y-82367500I0J-147500D01*
G01*
X191820000Y-82662500D01*
G75*
G02*
X191672500Y-82810000I-147500J0D01*
G01*
X191327500Y-82810000D01*
G75*
G02*
X191180000Y-82662500I0J147500D01*
G01*
X191180000Y-82367500D01*
G75*
G02*
X191327500Y-82220000I147500J0D01*
G01*
G37*
%TD.AperFunction*%
%TD*%
%TO.P,C15,2*%
%TO.N,GND*%
%TA.AperFunction,SMDPad,CuDef*%
G36*
G01*
X191327500Y-95175000D02*
X191672500Y-95175000D01*
G75*
G02*
X191820000Y-95322500I0J-147500D01*
G01*
X191820000Y-95617500D01*
G75*
G02*
X191672500Y-95765000I-147500J0D01*
G01*
X191327500Y-95765000D01*
G75*
G02*
X191180000Y-95617500I0J147500D01*
G01*
X191180000Y-95322500D01*
G75*
G02*
X191327500Y-95175000I147500J0D01*
G01*
G37*
%TD.AperFunction*%
%TO.P,C15,1*%
%TO.N,+5V*%
%TA.AperFunction,SMDPad,CuDef*%
G36*
G01*
X191327500Y-94205000D02*
X191672500Y-94205000D01*
G75*
G02*
X191820000Y-94352500I0J-147500D01*
G01*
X191820000Y-94647500D01*
G75*
G02*
X191672500Y-94795000I-147500J0D01*
G01*
X191327500Y-94795000D01*
G75*
G02*
X191180000Y-94647500I0J147500D01*
G01*
X191180000Y-94352500D01*
G75*
G02*
X191327500Y-94205000I147500J0D01*
G01*
G37*
%TD.AperFunction*%
%TD*%
%TO.P,C14,2*%
%TO.N,GND*%
%TA.AperFunction,SMDPad,CuDef*%
G36*
G01*
X196690000Y-97672500D02*
X196690000Y-97327500D01*
G75*
G02*
X196837500Y-97180000I147500J0D01*
G01*
X197132500Y-97180000D01*
G75*
G02*
X197280000Y-97327500I0J-147500D01*
G01*
X197280000Y-97672500D01*
G75*
G02*
X197132500Y-97820000I-147500J0D01*
G01*
X196837500Y-97820000D01*
G75*
G02*
X196690000Y-97672500I0J147500D01*
G01*
G37*
%TD.AperFunction*%
%TO.P,C14,1*%
%TO.N,+5V*%
%TA.AperFunction,SMDPad,CuDef*%
G36*
G01*
X195720000Y-97672500D02*
X195720000Y-97327500D01*
G75*
G02*
X195867500Y-97180000I147500J0D01*
G01*
X196162500Y-97180000D01*
G75*
G02*
X196310000Y-97327500I0J-147500D01*
G01*
X196310000Y-97672500D01*
G75*
G02*
X196162500Y-97820000I-147500J0D01*
G01*
X195867500Y-97820000D01*
G75*
G02*
X195720000Y-97672500I0J147500D01*
G01*
G37*
%TD.AperFunction*%
%TD*%
%TO.P,C13,2*%
%TO.N,GND*%
%TA.AperFunction,SMDPad,CuDef*%
G36*
G01*
X208690000Y-97672500D02*
X208690000Y-97327500D01*
G75*
G02*
X208837500Y-97180000I147500J0D01*
G01*
X209132500Y-97180000D01*
G75*
G02*
X209280000Y-97327500I0J-147500D01*
G01*
X209280000Y-97672500D01*
G75*
G02*
X209132500Y-97820000I-147500J0D01*
G01*
X208837500Y-97820000D01*
G75*
G02*
X208690000Y-97672500I0J147500D01*
G01*
G37*
%TD.AperFunction*%
%TO.P,C13,1*%
%TO.N,+5V*%
%TA.AperFunction,SMDPad,CuDef*%
G36*
G01*
X207720000Y-97672500D02*
X207720000Y-97327500D01*
G75*
G02*
X207867500Y-97180000I147500J0D01*
G01*
X208162500Y-97180000D01*
G75*
G02*
X208310000Y-97327500I0J-147500D01*
G01*
X208310000Y-97672500D01*
G75*
G02*
X208162500Y-97820000I-147500J0D01*
G01*
X207867500Y-97820000D01*
G75*
G02*
X207720000Y-97672500I0J147500D01*
G01*
G37*
%TD.AperFunction*%
%TD*%
%TO.P,C12,2*%
%TO.N,GND*%
%TA.AperFunction,SMDPad,CuDef*%
G36*
G01*
X221190000Y-97672500D02*
X221190000Y-97327500D01*
G75*
G02*
X221337500Y-97180000I147500J0D01*
G01*
X221632500Y-97180000D01*
G75*
G02*
X221780000Y-97327500I0J-147500D01*
G01*
X221780000Y-97672500D01*
G75*
G02*
X221632500Y-97820000I-147500J0D01*
G01*
X221337500Y-97820000D01*
G75*
G02*
X221190000Y-97672500I0J147500D01*
G01*
G37*
%TD.AperFunction*%
%TO.P,C12,1*%
%TO.N,+5V*%
%TA.AperFunction,SMDPad,CuDef*%
G36*
G01*
X220220000Y-97672500D02*
X220220000Y-97327500D01*
G75*
G02*
X220367500Y-97180000I147500J0D01*
G01*
X220662500Y-97180000D01*
G75*
G02*
X220810000Y-97327500I0J-147500D01*
G01*
X220810000Y-97672500D01*
G75*
G02*
X220662500Y-97820000I-147500J0D01*
G01*
X220367500Y-97820000D01*
G75*
G02*
X220220000Y-97672500I0J147500D01*
G01*
G37*
%TD.AperFunction*%
%TD*%
%TO.P,C11,2*%
%TO.N,GND*%
%TA.AperFunction,SMDPad,CuDef*%
G36*
G01*
X232690000Y-97672500D02*
X232690000Y-97327500D01*
G75*
G02*
X232837500Y-97180000I147500J0D01*
G01*
X233132500Y-97180000D01*
G75*
G02*
X233280000Y-97327500I0J-147500D01*
G01*
X233280000Y-97672500D01*
G75*
G02*
X233132500Y-97820000I-147500J0D01*
G01*
X232837500Y-97820000D01*
G75*
G02*
X232690000Y-97672500I0J147500D01*
G01*
G37*
%TD.AperFunction*%
%TO.P,C11,1*%
%TO.N,+5V*%
%TA.AperFunction,SMDPad,CuDef*%
G36*
G01*
X231720000Y-97672500D02*
X231720000Y-97327500D01*
G75*
G02*
X231867500Y-97180000I147500J0D01*
G01*
X232162500Y-97180000D01*
G75*
G02*
X232310000Y-97327500I0J-147500D01*
G01*
X232310000Y-97672500D01*
G75*
G02*
X232162500Y-97820000I-147500J0D01*
G01*
X231867500Y-97820000D01*
G75*
G02*
X231720000Y-97672500I0J147500D01*
G01*
G37*
%TD.AperFunction*%
%TD*%
%TO.P,C10,2*%
%TO.N,GND*%
%TA.AperFunction,SMDPad,CuDef*%
G36*
G01*
X234872500Y-92310000D02*
X234527500Y-92310000D01*
G75*
G02*
X234380000Y-92162500I0J147500D01*
G01*
X234380000Y-91867500D01*
G75*
G02*
X234527500Y-91720000I147500J0D01*
G01*
X234872500Y-91720000D01*
G75*
G02*
X235020000Y-91867500I0J-147500D01*
G01*
X235020000Y-92162500D01*
G75*
G02*
X234872500Y-92310000I-147500J0D01*
G01*
G37*
%TD.AperFunction*%
%TO.P,C10,1*%
%TO.N,+5V*%
%TA.AperFunction,SMDPad,CuDef*%
G36*
G01*
X234872500Y-93280000D02*
X234527500Y-93280000D01*
G75*
G02*
X234380000Y-93132500I0J147500D01*
G01*
X234380000Y-92837500D01*
G75*
G02*
X234527500Y-92690000I147500J0D01*
G01*
X234872500Y-92690000D01*
G75*
G02*
X235020000Y-92837500I0J-147500D01*
G01*
X235020000Y-93132500D01*
G75*
G02*
X234872500Y-93280000I-147500J0D01*
G01*
G37*
%TD.AperFunction*%
%TD*%
%TO.P,C9,2*%
%TO.N,GND*%
%TA.AperFunction,SMDPad,CuDef*%
G36*
G01*
X234872500Y-79310000D02*
X234527500Y-79310000D01*
G75*
G02*
X234380000Y-79162500I0J147500D01*
G01*
X234380000Y-78867500D01*
G75*
G02*
X234527500Y-78720000I147500J0D01*
G01*
X234872500Y-78720000D01*
G75*
G02*
X235020000Y-78867500I0J-147500D01*
G01*
X235020000Y-79162500D01*
G75*
G02*
X234872500Y-79310000I-147500J0D01*
G01*
G37*
%TD.AperFunction*%
%TO.P,C9,1*%
%TO.N,+5V*%
%TA.AperFunction,SMDPad,CuDef*%
G36*
G01*
X234872500Y-80280000D02*
X234527500Y-80280000D01*
G75*
G02*
X234380000Y-80132500I0J147500D01*
G01*
X234380000Y-79837500D01*
G75*
G02*
X234527500Y-79690000I147500J0D01*
G01*
X234872500Y-79690000D01*
G75*
G02*
X235020000Y-79837500I0J-147500D01*
G01*
X235020000Y-80132500D01*
G75*
G02*
X234872500Y-80280000I-147500J0D01*
G01*
G37*
%TD.AperFunction*%
%TD*%
%TO.P,C8,2*%
%TO.N,GND*%
%TA.AperFunction,SMDPad,CuDef*%
G36*
G01*
X236810000Y-65827500D02*
X236810000Y-66172500D01*
G75*
G02*
X236662500Y-66320000I-147500J0D01*
G01*
X236367500Y-66320000D01*
G75*
G02*
X236220000Y-66172500I0J147500D01*
G01*
X236220000Y-65827500D01*
G75*
G02*
X236367500Y-65680000I147500J0D01*
G01*
X236662500Y-65680000D01*
G75*
G02*
X236810000Y-65827500I0J-147500D01*
G01*
G37*
%TD.AperFunction*%
%TO.P,C8,1*%
%TO.N,+5V*%
%TA.AperFunction,SMDPad,CuDef*%
G36*
G01*
X237780000Y-65827500D02*
X237780000Y-66172500D01*
G75*
G02*
X237632500Y-66320000I-147500J0D01*
G01*
X237337500Y-66320000D01*
G75*
G02*
X237190000Y-66172500I0J147500D01*
G01*
X237190000Y-65827500D01*
G75*
G02*
X237337500Y-65680000I147500J0D01*
G01*
X237632500Y-65680000D01*
G75*
G02*
X237780000Y-65827500I0J-147500D01*
G01*
G37*
%TD.AperFunction*%
%TD*%
%TO.P,C7,2*%
%TO.N,GND*%
%TA.AperFunction,SMDPad,CuDef*%
G36*
G01*
X206672500Y-60310000D02*
X206327500Y-60310000D01*
G75*
G02*
X206180000Y-60162500I0J147500D01*
G01*
X206180000Y-59867500D01*
G75*
G02*
X206327500Y-59720000I147500J0D01*
G01*
X206672500Y-59720000D01*
G75*
G02*
X206820000Y-59867500I0J-147500D01*
G01*
X206820000Y-60162500D01*
G75*
G02*
X206672500Y-60310000I-147500J0D01*
G01*
G37*
%TD.AperFunction*%
%TO.P,C7,1*%
%TO.N,+3V3*%
%TA.AperFunction,SMDPad,CuDef*%
G36*
G01*
X206672500Y-61280000D02*
X206327500Y-61280000D01*
G75*
G02*
X206180000Y-61132500I0J147500D01*
G01*
X206180000Y-60837500D01*
G75*
G02*
X206327500Y-60690000I147500J0D01*
G01*
X206672500Y-60690000D01*
G75*
G02*
X206820000Y-60837500I0J-147500D01*
G01*
X206820000Y-61132500D01*
G75*
G02*
X206672500Y-61280000I-147500J0D01*
G01*
G37*
%TD.AperFunction*%
%TD*%
%TO.P,C6,2*%
%TO.N,GND*%
%TA.AperFunction,SMDPad,CuDef*%
G36*
G01*
X208256250Y-60150000D02*
X207743750Y-60150000D01*
G75*
G02*
X207525000Y-59931250I0J218750D01*
G01*
X207525000Y-59493750D01*
G75*
G02*
X207743750Y-59275000I218750J0D01*
G01*
X208256250Y-59275000D01*
G75*
G02*
X208475000Y-59493750I0J-218750D01*
G01*
X208475000Y-59931250D01*
G75*
G02*
X208256250Y-60150000I-218750J0D01*
G01*
G37*
%TD.AperFunction*%
%TO.P,C6,1*%
%TO.N,+3V3*%
%TA.AperFunction,SMDPad,CuDef*%
G36*
G01*
X208256250Y-61725000D02*
X207743750Y-61725000D01*
G75*
G02*
X207525000Y-61506250I0J218750D01*
G01*
X207525000Y-61068750D01*
G75*
G02*
X207743750Y-60850000I218750J0D01*
G01*
X208256250Y-60850000D01*
G75*
G02*
X208475000Y-61068750I0J-218750D01*
G01*
X208475000Y-61506250D01*
G75*
G02*
X208256250Y-61725000I-218750J0D01*
G01*
G37*
%TD.AperFunction*%
%TD*%
%TO.P,C5,2*%
%TO.N,GND*%
%TA.AperFunction,SMDPad,CuDef*%
G36*
G01*
X191656250Y-63150000D02*
X191143750Y-63150000D01*
G75*
G02*
X190925000Y-62931250I0J218750D01*
G01*
X190925000Y-62493750D01*
G75*
G02*
X191143750Y-62275000I218750J0D01*
G01*
X191656250Y-62275000D01*
G75*
G02*
X191875000Y-62493750I0J-218750D01*
G01*
X191875000Y-62931250D01*
G75*
G02*
X191656250Y-63150000I-218750J0D01*
G01*
G37*
%TD.AperFunction*%
%TO.P,C5,1*%
%TO.N,/EN*%
%TA.AperFunction,SMDPad,CuDef*%
G36*
G01*
X191656250Y-64725000D02*
X191143750Y-64725000D01*
G75*
G02*
X190925000Y-64506250I0J218750D01*
G01*
X190925000Y-64068750D01*
G75*
G02*
X191143750Y-63850000I218750J0D01*
G01*
X191656250Y-63850000D01*
G75*
G02*
X191875000Y-64068750I0J-218750D01*
G01*
X191875000Y-64506250D01*
G75*
G02*
X191656250Y-64725000I-218750J0D01*
G01*
G37*
%TD.AperFunction*%
%TD*%
%TO.P,C4,2*%
%TO.N,GND*%
%TA.AperFunction,SMDPad,CuDef*%
G36*
G01*
X206850000Y-65756250D02*
X206850000Y-65243750D01*
G75*
G02*
X207068750Y-65025000I218750J0D01*
G01*
X207506250Y-65025000D01*
G75*
G02*
X207725000Y-65243750I0J-218750D01*
G01*
X207725000Y-65756250D01*
G75*
G02*
X207506250Y-65975000I-218750J0D01*
G01*
X207068750Y-65975000D01*
G75*
G02*
X206850000Y-65756250I0J218750D01*
G01*
G37*
%TD.AperFunction*%
%TO.P,C4,1*%
%TO.N,+3V3*%
%TA.AperFunction,SMDPad,CuDef*%
G36*
G01*
X205275000Y-65756250D02*
X205275000Y-65243750D01*
G75*
G02*
X205493750Y-65025000I218750J0D01*
G01*
X205931250Y-65025000D01*
G75*
G02*
X206150000Y-65243750I0J-218750D01*
G01*
X206150000Y-65756250D01*
G75*
G02*
X205931250Y-65975000I-218750J0D01*
G01*
X205493750Y-65975000D01*
G75*
G02*
X205275000Y-65756250I0J218750D01*
G01*
G37*
%TD.AperFunction*%
%TD*%
%TO.P,C2,2*%
%TO.N,GND*%
%TA.AperFunction,SMDPad,CuDef*%
G36*
G01*
X199872500Y-83810000D02*
X199527500Y-83810000D01*
G75*
G02*
X199380000Y-83662500I0J147500D01*
G01*
X199380000Y-83367500D01*
G75*
G02*
X199527500Y-83220000I147500J0D01*
G01*
X199872500Y-83220000D01*
G75*
G02*
X200020000Y-83367500I0J-147500D01*
G01*
X200020000Y-83662500D01*
G75*
G02*
X199872500Y-83810000I-147500J0D01*
G01*
G37*
%TD.AperFunction*%
%TO.P,C2,1*%
%TO.N,+3V3*%
%TA.AperFunction,SMDPad,CuDef*%
G36*
G01*
X199872500Y-84780000D02*
X199527500Y-84780000D01*
G75*
G02*
X199380000Y-84632500I0J147500D01*
G01*
X199380000Y-84337500D01*
G75*
G02*
X199527500Y-84190000I147500J0D01*
G01*
X199872500Y-84190000D01*
G75*
G02*
X200020000Y-84337500I0J-147500D01*
G01*
X200020000Y-84632500D01*
G75*
G02*
X199872500Y-84780000I-147500J0D01*
G01*
G37*
%TD.AperFunction*%
%TD*%
%TO.P,C1,1*%
%TO.N,GND*%
%TA.AperFunction,SMDPad,CuDef*%
G36*
G01*
X200272500Y-69780000D02*
X199927500Y-69780000D01*
G75*
G02*
X199780000Y-69632500I0J147500D01*
G01*
X199780000Y-69337500D01*
G75*
G02*
X199927500Y-69190000I147500J0D01*
G01*
X200272500Y-69190000D01*
G75*
G02*
X200420000Y-69337500I0J-147500D01*
G01*
X200420000Y-69632500D01*
G75*
G02*
X200272500Y-69780000I-147500J0D01*
G01*
G37*
%TD.AperFunction*%
%TO.P,C1,2*%
%TO.N,+5V*%
%TA.AperFunction,SMDPad,CuDef*%
G36*
G01*
X200272500Y-68810000D02*
X199927500Y-68810000D01*
G75*
G02*
X199780000Y-68662500I0J147500D01*
G01*
X199780000Y-68367500D01*
G75*
G02*
X199927500Y-68220000I147500J0D01*
G01*
X200272500Y-68220000D01*
G75*
G02*
X200420000Y-68367500I0J-147500D01*
G01*
X200420000Y-68662500D01*
G75*
G02*
X200272500Y-68810000I-147500J0D01*
G01*
G37*
%TD.AperFunction*%
%TD*%
D29*
%TO.N,+5V*%
X237500000Y-65100000D03*
D30*
X194400000Y-54775002D03*
X237813251Y-79530002D03*
X232000000Y-98500000D03*
X220301426Y-98625107D03*
X207700000Y-98300000D03*
X190375002Y-94700000D03*
X195700000Y-98400000D03*
X203133446Y-88175213D03*
X190416500Y-82620000D03*
X233725010Y-92500000D03*
D29*
%TO.N,GND*%
X236500000Y-65130002D03*
D30*
X237500000Y-62969998D03*
X228800000Y-59700000D03*
X210600000Y-59900000D03*
X206665000Y-69485000D03*
D29*
X223100000Y-83500000D03*
D30*
X207447135Y-64325010D03*
X196800000Y-98400000D03*
X233900000Y-91100000D03*
X235300000Y-78000000D03*
X233000000Y-98500000D03*
X221300000Y-98400000D03*
X190354346Y-95913881D03*
X216300000Y-75500000D03*
X221000000Y-70700000D03*
X190394792Y-83815568D03*
X191800000Y-57500000D03*
D29*
X198900000Y-83374990D03*
D30*
X208880000Y-98400000D03*
%TO.N,+3V3*%
X205700000Y-64400000D03*
D29*
X203500000Y-77500000D03*
X200000000Y-85400000D03*
%TO.N,/EN*%
X211000000Y-62400000D03*
X205600000Y-77500000D03*
D30*
X196300000Y-63300000D03*
D29*
%TO.N,/AUX_OUT*%
X213500000Y-82500000D03*
X221500000Y-82500000D03*
%TO.N,/USB_D+*%
X193900000Y-57700000D03*
X195300000Y-58700000D03*
X200813138Y-84108028D03*
%TO.N,/USB_D-*%
X194700000Y-57700000D03*
X200700000Y-84900000D03*
%TO.N,/USB_RTS*%
X199500000Y-79400000D03*
X200300000Y-81500000D03*
%TO.N,/IO0*%
X230300000Y-78100000D03*
X199000000Y-77600000D03*
%TO.N,Net-(Q2-Pad1)*%
X196500000Y-79300000D03*
X196600000Y-81500000D03*
%TO.N,/USB_TX*%
X228500000Y-64800000D03*
X204300000Y-80075010D03*
%TO.N,/USB_RX*%
X226700000Y-65500000D03*
X205100000Y-80400000D03*
%TO.N,/AUX_OUT*%
X215500000Y-61750000D03*
%TO.N,/AUX_IN*%
X207281927Y-62119724D03*
%TD*%
D31*
%TO.N,+5V*%
X237485000Y-64115000D02*
X237500000Y-64100000D01*
X237485000Y-65085000D02*
X237500000Y-65100000D01*
X237485000Y-64985000D02*
X237485000Y-65085000D01*
X237500000Y-65100000D02*
X237485000Y-64115000D01*
X237485000Y-64985000D02*
X237500000Y-65100000D01*
X237485000Y-66000000D02*
X237485000Y-64985000D01*
D32*
X202200000Y-67850000D02*
X202200000Y-67700000D01*
X202200000Y-64960000D02*
X203000000Y-64160000D01*
X202200000Y-67850000D02*
X202200000Y-64960000D01*
X202200000Y-66350000D02*
X202200000Y-67850000D01*
X201699999Y-65849999D02*
X202200000Y-66350000D01*
X197860001Y-58049999D02*
X201699999Y-61889997D01*
X196099999Y-58049999D02*
X197860001Y-58049999D01*
X201699999Y-61889997D02*
X201699999Y-65849999D01*
X195300000Y-57250000D02*
X196099999Y-58049999D01*
X195300000Y-56075000D02*
X195300000Y-57250000D01*
X201565000Y-68485000D02*
X200000000Y-68485000D01*
X202200000Y-67850000D02*
X201565000Y-68485000D01*
X197860001Y-58049999D02*
X197950001Y-58139999D01*
X195175002Y-54775002D02*
X194400000Y-54775002D01*
X195300000Y-54900000D02*
X195175002Y-54775002D01*
X195300000Y-56075000D02*
X195300000Y-54900000D01*
D31*
X208015000Y-97500000D02*
X208015000Y-98385000D01*
X207680000Y-100500000D02*
X206900000Y-100500000D01*
X207755001Y-100424999D02*
X207680000Y-100500000D01*
X207755001Y-98644999D02*
X207755001Y-100424999D01*
X208015000Y-98385000D02*
X207755001Y-98644999D01*
X232015000Y-97820000D02*
X232015000Y-97500000D01*
X232255001Y-98060001D02*
X232015000Y-97820000D01*
X232180000Y-100500000D02*
X232255001Y-100424999D01*
X231400000Y-100500000D02*
X232180000Y-100500000D01*
X235020000Y-92985000D02*
X234700000Y-92985000D01*
X235260001Y-92744999D02*
X235020000Y-92985000D01*
X237424999Y-92744999D02*
X235260001Y-92744999D01*
X237500000Y-92820000D02*
X237424999Y-92744999D01*
X237500000Y-93600000D02*
X237500000Y-92820000D01*
X235020000Y-79985000D02*
X234700000Y-79985000D01*
X235260001Y-79744999D02*
X235020000Y-79985000D01*
X237424999Y-79744999D02*
X235260001Y-79744999D01*
X237500000Y-79820000D02*
X237424999Y-79744999D01*
X237500000Y-80600000D02*
X237500000Y-79820000D01*
X237500000Y-79843253D02*
X237813251Y-79530002D01*
X237500000Y-80600000D02*
X237500000Y-79843253D01*
X232244999Y-98255001D02*
X232000000Y-98500000D01*
X232255001Y-98255001D02*
X232244999Y-98255001D01*
X232255001Y-100424999D02*
X232255001Y-98255001D01*
X232255001Y-98255001D02*
X232255001Y-98060001D01*
X220615001Y-98788005D02*
X220615001Y-100424999D01*
X220515000Y-98688004D02*
X220615001Y-98788005D01*
X220615001Y-100424999D02*
X220540000Y-100500000D01*
X220540000Y-100500000D02*
X219760000Y-100500000D01*
X220515000Y-98385000D02*
X220515000Y-98411533D01*
X220515000Y-97500000D02*
X220515000Y-98385000D01*
X220515000Y-98385000D02*
X220515000Y-98688004D01*
X220515000Y-98411533D02*
X220301426Y-98625107D01*
X207785000Y-98385000D02*
X207700000Y-98300000D01*
X208015000Y-98385000D02*
X207785000Y-98385000D01*
X188500000Y-95180000D02*
X188500000Y-94400000D01*
X188575001Y-95255001D02*
X188500000Y-95180000D01*
X190790002Y-94500000D02*
X190035001Y-95255001D01*
X190035001Y-95255001D02*
X188575001Y-95255001D01*
X191500000Y-94500000D02*
X190790002Y-94500000D01*
X190575002Y-94500000D02*
X190375002Y-94700000D01*
X191500000Y-94500000D02*
X190575002Y-94500000D01*
X196015000Y-98085000D02*
X195700000Y-98400000D01*
X196015000Y-97500000D02*
X196015000Y-98085000D01*
X195680000Y-100500000D02*
X194900000Y-100500000D01*
X195755001Y-100424999D02*
X195680000Y-100500000D01*
X195755001Y-99020686D02*
X195755001Y-100424999D01*
X195700000Y-98965685D02*
X195755001Y-99020686D01*
X195700000Y-98400000D02*
X195700000Y-98965685D01*
D32*
X190824998Y-54775002D02*
X193834315Y-54775002D01*
X193834315Y-54775002D02*
X194400000Y-54775002D01*
X188200000Y-57400000D02*
X190824998Y-54775002D01*
X188200000Y-59150000D02*
X188200000Y-57400000D01*
D31*
X203300000Y-88008659D02*
X203133446Y-88175213D01*
X203300000Y-87190000D02*
X203300000Y-88008659D01*
X188400000Y-82400000D02*
X188400000Y-83180000D01*
X188400000Y-83180000D02*
X188475001Y-83255001D01*
X190416500Y-82710496D02*
X190416500Y-82620000D01*
X191500000Y-82515000D02*
X190521500Y-82515000D01*
X189871995Y-83255001D02*
X190416500Y-82710496D01*
X188475001Y-83255001D02*
X189871995Y-83255001D01*
X190521500Y-82515000D02*
X190416500Y-82620000D01*
X234700000Y-92985000D02*
X234210010Y-92985000D01*
X234210010Y-92985000D02*
X233725010Y-92500000D01*
D33*
X182000000Y-65350000D02*
X188200000Y-59150000D01*
X182000000Y-65500000D02*
X182000000Y-65350000D01*
D31*
%TO.N,GND*%
X236515000Y-65145002D02*
X236500000Y-65130002D01*
X236515000Y-66000000D02*
X236515000Y-65145002D01*
D32*
X237500000Y-61900000D02*
X237500000Y-62969998D01*
X228845000Y-59745000D02*
X228800000Y-59700000D01*
X230500000Y-59745000D02*
X228845000Y-59745000D01*
X208032500Y-59745000D02*
X208000000Y-59712500D01*
X206802500Y-59712500D02*
X206500000Y-60015000D01*
X208000000Y-59712500D02*
X206802500Y-59712500D01*
X208187500Y-59900000D02*
X208000000Y-59712500D01*
X210600000Y-59900000D02*
X208187500Y-59900000D01*
X213500000Y-59745000D02*
X210755000Y-59745000D01*
X210755000Y-59745000D02*
X210600000Y-59900000D01*
X206800000Y-65987500D02*
X207287500Y-65500000D01*
X206800000Y-67850000D02*
X206800000Y-65987500D01*
X206800000Y-69350000D02*
X206800000Y-67850000D01*
X206665000Y-69485000D02*
X206800000Y-69350000D01*
X200100000Y-69485000D02*
X206665000Y-69485000D01*
D31*
X223100000Y-84515000D02*
X223100000Y-83500000D01*
D32*
X207287500Y-64484645D02*
X207447135Y-64325010D01*
X207287500Y-65500000D02*
X207287500Y-64484645D01*
D31*
X188500000Y-95820000D02*
X188500000Y-96600000D01*
X188614988Y-95705012D02*
X188500000Y-95820000D01*
X190221401Y-95705012D02*
X188614988Y-95705012D01*
X190456413Y-95470000D02*
X190221401Y-95705012D01*
X191500000Y-95470000D02*
X190456413Y-95470000D01*
X196320000Y-100500000D02*
X197100000Y-100500000D01*
X196244999Y-98964999D02*
X196244999Y-100424999D01*
X196244999Y-100424999D02*
X196320000Y-100500000D01*
X196985000Y-97500000D02*
X196985000Y-98224998D01*
X196985000Y-98224998D02*
X196754999Y-98454999D01*
X208244999Y-98791412D02*
X208244999Y-100424999D01*
X208985000Y-97500000D02*
X208985000Y-98051411D01*
X208244999Y-100424999D02*
X208320000Y-100500000D01*
X208320000Y-100500000D02*
X209100000Y-100500000D01*
X221180000Y-100500000D02*
X221960000Y-100500000D01*
X221104999Y-100424999D02*
X221180000Y-100500000D01*
X221485000Y-97820000D02*
X221104999Y-98200001D01*
X221485000Y-97500000D02*
X221485000Y-97820000D01*
X232820000Y-100500000D02*
X233600000Y-100500000D01*
X232744999Y-100424999D02*
X232820000Y-100500000D01*
X232985000Y-97820000D02*
X232744999Y-98060001D01*
X232985000Y-97500000D02*
X232985000Y-97820000D01*
X235020000Y-92015000D02*
X234700000Y-92015000D01*
X235260001Y-92255001D02*
X235020000Y-92015000D01*
X237424999Y-92255001D02*
X235260001Y-92255001D01*
X237500000Y-92180000D02*
X237424999Y-92255001D01*
X237500000Y-91400000D02*
X237500000Y-92180000D01*
X234700000Y-91900000D02*
X233900000Y-91100000D01*
X234700000Y-92015000D02*
X234700000Y-91900000D01*
X237500000Y-78805000D02*
X237500000Y-78400000D01*
X234700000Y-79015000D02*
X235020000Y-79015000D01*
X235020000Y-79015000D02*
X235260001Y-79255001D01*
X237049999Y-79255001D02*
X237500000Y-78805000D01*
X235260001Y-79255001D02*
X237049999Y-79255001D01*
X234700000Y-78600000D02*
X235300000Y-78000000D01*
X234700000Y-79015000D02*
X234700000Y-78600000D01*
X232944999Y-98444999D02*
X233000000Y-98500000D01*
X232744999Y-98444999D02*
X232944999Y-98444999D01*
X232744999Y-98060001D02*
X232744999Y-98444999D01*
X232744999Y-98444999D02*
X232744999Y-100424999D01*
X221295001Y-98404999D02*
X221300000Y-98400000D01*
X221104999Y-98404999D02*
X221104999Y-100424999D01*
X221104999Y-98200001D02*
X221104999Y-98404999D01*
X221104999Y-98404999D02*
X221295001Y-98404999D01*
X208985000Y-98051411D02*
X208718205Y-98318205D01*
X208718205Y-98318205D02*
X208244999Y-98791412D01*
X196754999Y-98445001D02*
X196800000Y-98400000D01*
X196754999Y-98454999D02*
X196754999Y-98445001D01*
X196800000Y-98400000D02*
X196244999Y-98964999D01*
X196754999Y-98454999D02*
X196800000Y-98400000D01*
X191500000Y-95470000D02*
X190798227Y-95470000D01*
X190798227Y-95470000D02*
X190354346Y-95913881D01*
X216285000Y-75515000D02*
X216300000Y-75500000D01*
X216285000Y-77255000D02*
X216285000Y-75515000D01*
X221000000Y-67245000D02*
X221000000Y-70700000D01*
X191500000Y-83485000D02*
X190725360Y-83485000D01*
X190725360Y-83485000D02*
X190394792Y-83815568D01*
X188400000Y-83820000D02*
X188400000Y-84600000D01*
X188475001Y-83744999D02*
X188400000Y-83820000D01*
X190324223Y-83744999D02*
X188475001Y-83744999D01*
X190394792Y-83815568D02*
X190324223Y-83744999D01*
X198150000Y-62550000D02*
X198150000Y-63800000D01*
X198074999Y-62474999D02*
X198150000Y-62550000D01*
X192112501Y-62474999D02*
X198074999Y-62474999D01*
X191875000Y-62712500D02*
X192112501Y-62474999D01*
X191400000Y-62712500D02*
X191875000Y-62712500D01*
X191800000Y-62312500D02*
X191400000Y-62712500D01*
D32*
X189950000Y-63450000D02*
X191700000Y-61700000D01*
X188200000Y-63450000D02*
X189950000Y-63450000D01*
D31*
X191700000Y-61700000D02*
X191800000Y-62312500D01*
D32*
X192700000Y-56600000D02*
X191800000Y-57500000D01*
X192700000Y-56075000D02*
X192700000Y-56600000D01*
X191800000Y-61600000D02*
X191800000Y-57500000D01*
X191700000Y-61700000D02*
X191800000Y-61600000D01*
D31*
X199040010Y-83515000D02*
X198900000Y-83374990D01*
X204300000Y-84100000D02*
X202210000Y-84100000D01*
X204800000Y-84600000D02*
X204300000Y-84100000D01*
X199700000Y-83515000D02*
X199040010Y-83515000D01*
X201113139Y-83483027D02*
X200051973Y-83483027D01*
X200020000Y-83515000D02*
X199700000Y-83515000D01*
X200051973Y-83483027D02*
X200020000Y-83515000D01*
X201438139Y-83808027D02*
X201113139Y-83483027D01*
X201510000Y-84100000D02*
X201438139Y-84028139D01*
X202210000Y-84100000D02*
X201510000Y-84100000D01*
X201438139Y-84028139D02*
X201438139Y-83808027D01*
X208798205Y-98318205D02*
X208880000Y-98400000D01*
X208718205Y-98318205D02*
X208798205Y-98318205D01*
D33*
X182000000Y-69650000D02*
X188200000Y-63450000D01*
X182000000Y-70500000D02*
X182000000Y-69650000D01*
D32*
%TO.N,+3V3*%
X208272500Y-61015000D02*
X208000000Y-61287500D01*
X213500000Y-61015000D02*
X208272500Y-61015000D01*
X206500000Y-64712500D02*
X205712500Y-65500000D01*
X206500000Y-60985000D02*
X206500000Y-64712500D01*
X204500000Y-66712500D02*
X205712500Y-65500000D01*
X204500000Y-67850000D02*
X204500000Y-66712500D01*
X207697500Y-60985000D02*
X208000000Y-61287500D01*
X206500000Y-60985000D02*
X207697500Y-60985000D01*
X205712500Y-64412500D02*
X205700000Y-64400000D01*
X205712500Y-65500000D02*
X205712500Y-64412500D01*
X205700000Y-64320000D02*
X203000000Y-61620000D01*
X205700000Y-64400000D02*
X205700000Y-64320000D01*
D31*
X203515000Y-77515000D02*
X203500000Y-77500000D01*
X204500000Y-77515000D02*
X203515000Y-77515000D01*
X200000000Y-84485000D02*
X200000000Y-85400000D01*
X200000000Y-85400000D02*
X200200000Y-85600000D01*
X201500000Y-86100000D02*
X202210000Y-86100000D01*
X201000000Y-85600000D02*
X201500000Y-86100000D01*
X200200000Y-85600000D02*
X201000000Y-85600000D01*
X201000000Y-85600000D02*
X202210000Y-85600000D01*
X200515000Y-85915000D02*
X200000000Y-85400000D01*
X200515000Y-88300000D02*
X200515000Y-85915000D01*
%TO.N,/EN*%
X204485000Y-78500000D02*
X204500000Y-78485000D01*
X202500000Y-78500000D02*
X204485000Y-78500000D01*
X213385000Y-62400000D02*
X213500000Y-62285000D01*
X211000000Y-62400000D02*
X213385000Y-62400000D01*
X204615000Y-78485000D02*
X205600000Y-77500000D01*
X204500000Y-78485000D02*
X204615000Y-78485000D01*
X193162500Y-64287500D02*
X193650000Y-63800000D01*
X191400000Y-64287500D02*
X193162500Y-64287500D01*
X195800000Y-63800000D02*
X196300000Y-63300000D01*
X193650000Y-63800000D02*
X195800000Y-63800000D01*
%TO.N,/AUX_OUT*%
X213500000Y-76255000D02*
X213500000Y-82500000D01*
X221500000Y-82500000D02*
X221500000Y-83712500D01*
%TO.N,/USB_D+*%
X194000000Y-56075000D02*
X194000000Y-57600000D01*
X194000000Y-57600000D02*
X193900000Y-57700000D01*
X193900000Y-58124264D02*
X193900000Y-57700000D01*
X194475736Y-58700000D02*
X193900000Y-58124264D01*
X195300000Y-58700000D02*
X194475736Y-58700000D01*
X201305110Y-84600000D02*
X200813138Y-84108028D01*
X202210000Y-84600000D02*
X201305110Y-84600000D01*
%TO.N,/USB_D-*%
X194650000Y-57650000D02*
X194700000Y-57700000D01*
X194650000Y-56075000D02*
X194650000Y-57650000D01*
X200900000Y-85100000D02*
X200700000Y-84900000D01*
X202210000Y-85100000D02*
X200900000Y-85100000D01*
D33*
%TO.N,Net-(J3-Pad2)*%
X244000000Y-67000000D02*
X239025001Y-62025001D01*
%TO.N,Net-(J3-Pad1)*%
X242400000Y-72000000D02*
X238400000Y-68000000D01*
X244000000Y-72000000D02*
X242400000Y-72000000D01*
%TO.N,Net-(J4-Pad2)*%
X244000000Y-80000000D02*
X241000000Y-80000000D01*
X241000000Y-80000000D02*
X239100000Y-78100000D01*
%TO.N,Net-(J4-Pad1)*%
X238470011Y-83030011D02*
X238400000Y-83030011D01*
X240440000Y-85000000D02*
X238470011Y-83030011D01*
X244000000Y-85000000D02*
X240440000Y-85000000D01*
%TO.N,Net-(J5-Pad2)*%
X243238001Y-92238001D02*
X239838001Y-92238001D01*
X244000000Y-93000000D02*
X243238001Y-92238001D01*
X239838001Y-92238001D02*
X239025001Y-91425001D01*
%TO.N,Net-(J5-Pad1)*%
X240400000Y-98000000D02*
X238525000Y-96125000D01*
X244000000Y-98000000D02*
X240400000Y-98000000D01*
%TO.N,Net-(J6-Pad2)*%
X234238001Y-106238001D02*
X234238001Y-102738001D01*
X235000000Y-107000000D02*
X234238001Y-106238001D01*
X233600000Y-102100000D02*
X233600000Y-102025001D01*
X234238001Y-102738001D02*
X233600000Y-102100000D01*
%TO.N,Net-(J6-Pad1)*%
X230000000Y-102700000D02*
X228700000Y-101400000D01*
X230000000Y-107000000D02*
X230000000Y-102700000D01*
%TO.N,Net-(J7-Pad2)*%
X222000000Y-107000000D02*
X222000000Y-102100000D01*
%TO.N,Net-(J7-Pad1)*%
X217000000Y-107000000D02*
X217000000Y-101400000D01*
%TO.N,Net-(J8-Pad2)*%
X209100000Y-105822370D02*
X209100000Y-102025001D01*
X209000000Y-105922370D02*
X209100000Y-105822370D01*
X209000000Y-107000000D02*
X209000000Y-105922370D01*
%TO.N,Net-(J8-Pad1)*%
X204000000Y-107000000D02*
X204000000Y-101400000D01*
%TO.N,Net-(J9-Pad2)*%
X196000000Y-107000000D02*
X196000000Y-103600000D01*
X196000000Y-103600000D02*
X197574999Y-102025001D01*
%TO.N,Net-(J9-Pad1)*%
X191000000Y-102400000D02*
X192000000Y-101400000D01*
X191000000Y-107000000D02*
X191000000Y-102400000D01*
%TO.N,Net-(J10-Pad2)*%
X184477630Y-96600000D02*
X186974999Y-96600000D01*
X183077630Y-98000000D02*
X184477630Y-96600000D01*
X182000000Y-98000000D02*
X183077630Y-98000000D01*
%TO.N,Net-(J10-Pad1)*%
X186100000Y-93000000D02*
X187600000Y-91500000D01*
X182000000Y-93000000D02*
X186100000Y-93000000D01*
%TO.N,Net-(J11-Pad2)*%
X182000000Y-85000000D02*
X186300000Y-85000000D01*
X186300000Y-85000000D02*
X186700000Y-85000000D01*
%TO.N,Net-(J11-Pad1)*%
X187100000Y-80000000D02*
X187600000Y-79500000D01*
X182000000Y-80000000D02*
X187100000Y-80000000D01*
D31*
%TO.N,/USB_RTS*%
X199550000Y-79450000D02*
X199500000Y-79400000D01*
X200500000Y-79450000D02*
X199550000Y-79450000D01*
X200300000Y-81500000D02*
X199485000Y-81500000D01*
X206300000Y-80512500D02*
X206300000Y-79700000D01*
X206300000Y-79700000D02*
X206050000Y-79450000D01*
X206050000Y-79450000D02*
X200500000Y-79450000D01*
X205300000Y-81310000D02*
X205300000Y-82010000D01*
X206097500Y-80512500D02*
X205300000Y-81310000D01*
X206300000Y-80512500D02*
X206097500Y-80512500D01*
%TO.N,Net-(Q1-Pad1)*%
X200500000Y-76900000D02*
X200500000Y-77550000D01*
X199100000Y-75500000D02*
X200500000Y-76900000D01*
X196485000Y-75500000D02*
X199100000Y-75500000D01*
%TO.N,/USB_DTR*%
X195500000Y-75515000D02*
X195515000Y-75500000D01*
X195500000Y-78500000D02*
X195500000Y-75515000D01*
X202323023Y-80175001D02*
X203300000Y-81151978D01*
X203300000Y-81151978D02*
X203300000Y-82010000D01*
X196449997Y-80175001D02*
X202323023Y-80175001D01*
X195500000Y-79225004D02*
X196449997Y-80175001D01*
X195500000Y-78500000D02*
X195500000Y-79225004D01*
%TO.N,/IO0*%
X230500000Y-77900000D02*
X230300000Y-78100000D01*
X230500000Y-76255000D02*
X230500000Y-77900000D01*
X197550000Y-77600000D02*
X197500000Y-77550000D01*
X199000000Y-77600000D02*
X197550000Y-77600000D01*
%TO.N,Net-(Q2-Pad1)*%
X196650000Y-79450000D02*
X196500000Y-79300000D01*
X197500000Y-79450000D02*
X196650000Y-79450000D01*
X196600000Y-81500000D02*
X198515000Y-81500000D01*
%TO.N,Net-(R4-Pad2)*%
X238450000Y-64880000D02*
X238450000Y-64100000D01*
X238450000Y-66023232D02*
X238450000Y-64880000D01*
X235925010Y-66799990D02*
X237673242Y-66799990D01*
X237673242Y-66799990D02*
X238450000Y-66023232D01*
X235600000Y-67125000D02*
X235925010Y-66799990D01*
X235600000Y-68000000D02*
X235600000Y-67125000D01*
D32*
%TO.N,Net-(R5-Pad2)*%
X235600000Y-82085000D02*
X235600000Y-82960000D01*
X236104999Y-81580001D02*
X235600000Y-82085000D01*
X238185001Y-81580001D02*
X236104999Y-81580001D01*
X238450000Y-81315002D02*
X238185001Y-81580001D01*
X238450000Y-80600000D02*
X238450000Y-81315002D01*
%TO.N,Net-(R6-Pad2)*%
X235600000Y-95125000D02*
X235600000Y-96000000D01*
X236050010Y-94674990D02*
X235600000Y-95125000D01*
X238090012Y-94674990D02*
X236050010Y-94674990D01*
X238450000Y-94315002D02*
X238090012Y-94674990D01*
X238450000Y-93600000D02*
X238450000Y-94315002D01*
%TO.N,Net-(R7-Pad2)*%
X231400000Y-101450000D02*
X230800625Y-101450000D01*
X230800625Y-101450000D02*
X228700000Y-99349375D01*
X228700000Y-99349375D02*
X228700000Y-99225000D01*
X228700000Y-99225000D02*
X228700000Y-98600000D01*
%TO.N,Net-(R8-Pad2)*%
X218730000Y-101450000D02*
X218700000Y-101420000D01*
X219760000Y-101450000D02*
X218730000Y-101450000D01*
X218700000Y-101420000D02*
X218700000Y-99100000D01*
X218200000Y-98600000D02*
X217000000Y-98600000D01*
X218700000Y-99100000D02*
X218200000Y-98600000D01*
%TO.N,Net-(R9-Pad2)*%
X206184998Y-101450000D02*
X205800000Y-101065002D01*
X206900000Y-101450000D02*
X206184998Y-101450000D01*
X205800000Y-101065002D02*
X205800000Y-98900000D01*
X205500000Y-98600000D02*
X204000000Y-98600000D01*
X205800000Y-98900000D02*
X205500000Y-98600000D01*
%TO.N,Net-(R10-Pad2)*%
X194184998Y-101450000D02*
X193800000Y-101065002D01*
X194900000Y-101450000D02*
X194184998Y-101450000D01*
X193800000Y-101065002D02*
X193800000Y-99000000D01*
X193400000Y-98600000D02*
X192000000Y-98600000D01*
X193800000Y-99000000D02*
X193400000Y-98600000D01*
%TO.N,Net-(R11-Pad2)*%
X187550000Y-94400000D02*
X187550000Y-93684998D01*
X187550000Y-93684998D02*
X188134998Y-93100000D01*
X188134998Y-93100000D02*
X190000000Y-93100000D01*
X190400000Y-92700000D02*
X190400000Y-91500000D01*
X190000000Y-93100000D02*
X190400000Y-92700000D01*
%TO.N,Net-(R12-Pad2)*%
X187450000Y-81684998D02*
X187834998Y-81300000D01*
X187450000Y-82400000D02*
X187450000Y-81684998D01*
X187834998Y-81300000D02*
X189700000Y-81300000D01*
X190400000Y-80600000D02*
X190400000Y-78900000D01*
X189700000Y-81300000D02*
X190400000Y-80600000D01*
D31*
%TO.N,/USB_TX*%
X230475000Y-64800000D02*
X230500000Y-64825000D01*
X228500000Y-64800000D02*
X230475000Y-64800000D01*
X204250000Y-80125010D02*
X204300000Y-80075010D01*
X204300000Y-80075010D02*
X204300000Y-82010000D01*
%TO.N,/USB_RX*%
X228645000Y-63555000D02*
X226700000Y-65500000D01*
X230500000Y-63555000D02*
X228645000Y-63555000D01*
X204800000Y-80800000D02*
X204800000Y-82010000D01*
X204800000Y-80700000D02*
X204800000Y-80800000D01*
X205100000Y-80400000D02*
X204800000Y-80700000D01*
%TO.N,/LED4_B*%
X229174999Y-75060001D02*
X229250000Y-74985000D01*
X229174999Y-92335001D02*
X229174999Y-75060001D01*
X229250000Y-74985000D02*
X230500000Y-74985000D01*
X221960000Y-99550000D02*
X229174999Y-92335001D01*
%TO.N,/LED4_A*%
X219576425Y-98973108D02*
X219576425Y-96923575D01*
X220164991Y-99350108D02*
X219953425Y-99350108D01*
X219953425Y-99350108D02*
X219576425Y-98973108D01*
X219760000Y-99550000D02*
X220164991Y-99550000D01*
X220164991Y-99550000D02*
X220164991Y-99350108D01*
X227715000Y-88785000D02*
X227715000Y-77255000D01*
X219576425Y-96923575D02*
X227715000Y-88785000D01*
%TO.N,/LED3_B*%
X234380000Y-98975000D02*
X233805000Y-99550000D01*
X232275012Y-72970012D02*
X232275012Y-77088577D01*
X231750000Y-72445000D02*
X232275012Y-72970012D01*
X233805000Y-99550000D02*
X233600000Y-99550000D01*
X230500000Y-72445000D02*
X231750000Y-72445000D01*
X232049989Y-95576757D02*
X234380000Y-97906768D01*
X232049989Y-77313600D02*
X232049989Y-95576757D01*
X234380000Y-97906768D02*
X234380000Y-98975000D01*
X232275012Y-77088577D02*
X232049989Y-77313600D01*
%TO.N,/LED3_A*%
X231599978Y-77127200D02*
X231825001Y-76902177D01*
X231750000Y-73715000D02*
X230500000Y-73715000D01*
X231195000Y-99550000D02*
X230620000Y-98975000D01*
X231825001Y-76902177D02*
X231825001Y-73790001D01*
X231400000Y-99550000D02*
X231195000Y-99550000D01*
X230620000Y-98975000D02*
X230620000Y-79107178D01*
X231825001Y-73790001D02*
X231750000Y-73715000D01*
X231599978Y-78127201D02*
X231599978Y-77127200D01*
X230620000Y-79107178D02*
X231599978Y-78127201D01*
%TO.N,/LED2_B*%
X230855011Y-69549989D02*
X230500000Y-69905000D01*
X233450011Y-88300011D02*
X233450011Y-69813600D01*
X236550000Y-91400000D02*
X233450011Y-88300011D01*
X233450011Y-69813600D02*
X233186400Y-69549989D01*
X233186400Y-69549989D02*
X230855011Y-69549989D01*
%TO.N,/LED2_A*%
X231750000Y-71175000D02*
X230500000Y-71175000D01*
X232725023Y-72150023D02*
X231750000Y-71175000D01*
X236550000Y-93600000D02*
X235975000Y-93600000D01*
X232500000Y-77562824D02*
X232725023Y-77337801D01*
X232725023Y-77337801D02*
X232725023Y-72150023D01*
X232500000Y-93000000D02*
X232500000Y-77562824D01*
X235975000Y-93600000D02*
X235969990Y-93605010D01*
X235969990Y-93605010D02*
X233105010Y-93605010D01*
X233105010Y-93605010D02*
X232500000Y-93000000D01*
%TO.N,/LED1_B*%
X231750000Y-66095000D02*
X230500000Y-66095000D01*
X231881810Y-66095000D02*
X231750000Y-66095000D01*
X236550000Y-70763190D02*
X231881810Y-66095000D01*
X236550000Y-78400000D02*
X236550000Y-70763190D01*
%TO.N,/LED0_A*%
X236550000Y-63320000D02*
X236550000Y-64100000D01*
X235515000Y-62285000D02*
X236550000Y-63320000D01*
X230500000Y-62285000D02*
X235515000Y-62285000D01*
%TO.N,/LED8_A*%
X189350000Y-82400000D02*
X189855010Y-81894990D01*
X189855010Y-81894990D02*
X190605010Y-81894990D01*
X190605010Y-81894990D02*
X194000000Y-78500000D01*
X194000000Y-78500000D02*
X194000000Y-73500000D01*
X212250000Y-68635000D02*
X213500000Y-68635000D01*
X195374999Y-72125001D02*
X208759999Y-72125001D01*
X208759999Y-72125001D02*
X212250000Y-68635000D01*
X194000000Y-73500000D02*
X195374999Y-72125001D01*
%TO.N,/LED7_B*%
X212250000Y-72445000D02*
X209000000Y-75695000D01*
X213500000Y-72445000D02*
X212250000Y-72445000D01*
X208950011Y-86049989D02*
X208950011Y-75549989D01*
X208950011Y-85701991D02*
X208950011Y-86049989D01*
X195035368Y-96854990D02*
X189704990Y-96854990D01*
X208950011Y-86338402D02*
X198883434Y-96404979D01*
X189704990Y-96854990D02*
X189450000Y-96600000D01*
X208950011Y-86049989D02*
X208950011Y-86338402D01*
X195485378Y-96404979D02*
X195035368Y-96854990D01*
X198883434Y-96404979D02*
X195485378Y-96404979D01*
%TO.N,/LED8_B*%
X209330001Y-72824999D02*
X195675001Y-72824999D01*
X213500000Y-69905000D02*
X212250000Y-69905000D01*
X212250000Y-69905000D02*
X209330001Y-72824999D01*
X194724999Y-73775001D02*
X194724999Y-84275001D01*
X195675001Y-72824999D02*
X194724999Y-73775001D01*
X194400000Y-84600000D02*
X189350000Y-84600000D01*
X194724999Y-84275001D02*
X194400000Y-84600000D01*
%TO.N,/LED0_B*%
X236550000Y-61120000D02*
X236550000Y-61900000D01*
X236445000Y-61015000D02*
X236550000Y-61120000D01*
X230500000Y-61015000D02*
X236445000Y-61015000D01*
%TO.N,/LED1_A*%
X234105010Y-80605010D02*
X233900022Y-80400022D01*
X233900022Y-80400022D02*
X233900022Y-69627200D01*
X232907822Y-68635000D02*
X230500000Y-68635000D01*
X233900022Y-69627200D02*
X232907822Y-68635000D01*
X236550000Y-80600000D02*
X236544990Y-80605010D01*
X236544990Y-80605010D02*
X234105010Y-80605010D01*
%TO.N,/LED6_A*%
X212148589Y-73715000D02*
X210049989Y-75813600D01*
X195671778Y-96854990D02*
X194900000Y-97626768D01*
X194900000Y-97626768D02*
X194900000Y-99550000D01*
X210049989Y-75813600D02*
X210049989Y-85950011D01*
X210049989Y-85950011D02*
X199145010Y-96854990D01*
X199145010Y-96854990D02*
X195671778Y-96854990D01*
X213500000Y-73715000D02*
X212148589Y-73715000D01*
%TO.N,/LED5_B*%
X226445000Y-80055000D02*
X226445000Y-77255000D01*
X225500000Y-81000000D02*
X226445000Y-80055000D01*
X209100000Y-99550000D02*
X209605010Y-99044990D01*
X218500000Y-87000000D02*
X218500000Y-82500000D01*
X209605010Y-95894990D02*
X218500000Y-87000000D01*
X218500000Y-82500000D02*
X220000000Y-81000000D01*
X209605010Y-99044990D02*
X209605010Y-95894990D01*
X220000000Y-81000000D02*
X225500000Y-81000000D01*
%TO.N,/LED5_A*%
X206900000Y-97626768D02*
X206900000Y-99550000D01*
X217555000Y-86971768D02*
X206900000Y-97626768D01*
X217555000Y-77255000D02*
X217555000Y-86971768D01*
%TO.N,/LED7_A*%
X200772012Y-93879990D02*
X189970010Y-93879990D01*
X208165001Y-86487001D02*
X200772012Y-93879990D01*
X208165001Y-75259999D02*
X208165001Y-86487001D01*
X213500000Y-71175000D02*
X212250000Y-71175000D01*
X212250000Y-71175000D02*
X208165001Y-75259999D01*
X189970010Y-93879990D02*
X189450000Y-94400000D01*
%TO.N,/LED6_B*%
X197880000Y-99550000D02*
X210500000Y-86930000D01*
X197100000Y-99550000D02*
X197880000Y-99550000D01*
X212250000Y-74985000D02*
X213500000Y-74985000D01*
X210500000Y-76735000D02*
X212250000Y-74985000D01*
X210500000Y-86930000D02*
X210500000Y-76735000D01*
%TO.N,Net-(D2-Pad1)*%
X222902500Y-85287500D02*
X223100000Y-85485000D01*
X221500000Y-85287500D02*
X222902500Y-85287500D01*
%TO.N,Net-(R15-Pad2)*%
X203800000Y-87890000D02*
X204000000Y-88090000D01*
X203800000Y-87190000D02*
X203800000Y-87890000D01*
X204000000Y-88090000D02*
X204000000Y-88900000D01*
X204000000Y-88900000D02*
X203700000Y-89200000D01*
X201485000Y-88620000D02*
X201485000Y-88300000D01*
X202065000Y-89200000D02*
X201485000Y-88620000D01*
X203700000Y-89200000D02*
X202065000Y-89200000D01*
%TO.N,/AUX_OUT*%
X214750000Y-76255000D02*
X213500000Y-76255000D01*
X215500000Y-75505000D02*
X214750000Y-76255000D01*
X215500000Y-61750000D02*
X215500000Y-75505000D01*
%TO.N,/AUX_IN*%
X208717203Y-63555000D02*
X207281927Y-62119724D01*
X213500000Y-63555000D02*
X208717203Y-63555000D01*
%TD*%
M02*
