%TF.GenerationSoftware,KiCad,Pcbnew,5.1.6-c6e7f7d~87~ubuntu18.04.1*%
%TF.CreationDate,2020-09-13T15:34:11-06:00*%
%TF.ProjectId,twinkle-led-controller,7477696e-6b6c-4652-9d6c-65642d636f6e,rev?*%
%TF.SameCoordinates,Original*%
%TF.FileFunction,Soldermask,Top*%
%TF.FilePolarity,Negative*%
%FSLAX46Y46*%
G04 Gerber Fmt 4.6, Leading zero omitted, Abs format (unit mm)*
G04 Created by KiCad (PCBNEW 5.1.6-c6e7f7d~87~ubuntu18.04.1) date 2020-09-13 15:34:11*
%MOMM*%
%LPD*%
G01*
G04 APERTURE LIST*
%ADD10C,2.200000*%
%ADD11R,3.200000X3.200000*%
%ADD12R,0.354000X1.000000*%
%ADD13R,1.000000X0.354000*%
%ADD14R,2.400000X2.600000*%
%ADD15R,0.750000X1.160000*%
%ADD16R,1.160000X0.750000*%
%ADD17R,2.100000X1.000000*%
%ADD18R,1.000000X2.100000*%
%ADD19R,5.100000X5.100000*%
%ADD20R,1.600000X2.100000*%
%ADD21R,3.900000X2.100000*%
%ADD22R,1.000000X0.900000*%
%ADD23O,1.800000X1.800000*%
%ADD24R,1.800000X1.800000*%
%ADD25R,1.600000X1.650000*%
%ADD26C,1.900000*%
%ADD27C,1.508000*%
%ADD28R,0.500000X1.450000*%
%ADD29C,4.600000*%
G04 APERTURE END LIST*
D10*
%TO.C,J12*%
X182000000Y-70500000D03*
X182000000Y-65500000D03*
%TD*%
%TO.C,J11*%
X182000000Y-85000000D03*
X182000000Y-80000000D03*
%TD*%
%TO.C,J10*%
X182000000Y-98000000D03*
X182000000Y-93000000D03*
%TD*%
%TO.C,J9*%
X196000000Y-107000000D03*
X191000000Y-107000000D03*
%TD*%
%TO.C,J8*%
X209000000Y-107000000D03*
X204000000Y-107000000D03*
%TD*%
%TO.C,J7*%
X222000000Y-107000000D03*
X217000000Y-107000000D03*
%TD*%
%TO.C,J6*%
X235000000Y-107000000D03*
X230000000Y-107000000D03*
%TD*%
%TO.C,J5*%
X244000000Y-93000000D03*
X244000000Y-98000000D03*
%TD*%
%TO.C,J4*%
X244000000Y-80000000D03*
X244000000Y-85000000D03*
%TD*%
%TO.C,J3*%
X244000000Y-67000000D03*
X244000000Y-72000000D03*
%TD*%
D11*
%TO.C,U2*%
X204800000Y-84600000D03*
D12*
X203300000Y-82010000D03*
X203800000Y-82010000D03*
X204300000Y-82010000D03*
X204800000Y-82010000D03*
X205300000Y-82010000D03*
X205800000Y-82010000D03*
X206300000Y-82010000D03*
D13*
X207390000Y-83100000D03*
X207390000Y-83600000D03*
X207390000Y-84100000D03*
X207390000Y-84600000D03*
X207390000Y-85100000D03*
X207390000Y-85600000D03*
X207390000Y-86100000D03*
D12*
X206300000Y-87190000D03*
X205800000Y-87190000D03*
X205300000Y-87190000D03*
X204800000Y-87190000D03*
X204300000Y-87190000D03*
X203800000Y-87190000D03*
X203300000Y-87190000D03*
D13*
X202210000Y-86100000D03*
X202210000Y-85600000D03*
X202210000Y-85100000D03*
X202210000Y-84600000D03*
X202210000Y-84100000D03*
X202210000Y-83600000D03*
X202210000Y-83100000D03*
%TD*%
%TO.C,R15*%
G36*
G01*
X201140000Y-88497500D02*
X201140000Y-88102500D01*
G75*
G02*
X201312500Y-87930000I172500J0D01*
G01*
X201657500Y-87930000D01*
G75*
G02*
X201830000Y-88102500I0J-172500D01*
G01*
X201830000Y-88497500D01*
G75*
G02*
X201657500Y-88670000I-172500J0D01*
G01*
X201312500Y-88670000D01*
G75*
G02*
X201140000Y-88497500I0J172500D01*
G01*
G37*
G36*
G01*
X200170000Y-88497500D02*
X200170000Y-88102500D01*
G75*
G02*
X200342500Y-87930000I172500J0D01*
G01*
X200687500Y-87930000D01*
G75*
G02*
X200860000Y-88102500I0J-172500D01*
G01*
X200860000Y-88497500D01*
G75*
G02*
X200687500Y-88670000I-172500J0D01*
G01*
X200342500Y-88670000D01*
G75*
G02*
X200170000Y-88497500I0J172500D01*
G01*
G37*
%TD*%
D14*
%TO.C,D1*%
X188200000Y-63450000D03*
X188200000Y-59150000D03*
%TD*%
%TO.C,R14*%
G36*
G01*
X222902500Y-85140000D02*
X223297500Y-85140000D01*
G75*
G02*
X223470000Y-85312500I0J-172500D01*
G01*
X223470000Y-85657500D01*
G75*
G02*
X223297500Y-85830000I-172500J0D01*
G01*
X222902500Y-85830000D01*
G75*
G02*
X222730000Y-85657500I0J172500D01*
G01*
X222730000Y-85312500D01*
G75*
G02*
X222902500Y-85140000I172500J0D01*
G01*
G37*
G36*
G01*
X222902500Y-84170000D02*
X223297500Y-84170000D01*
G75*
G02*
X223470000Y-84342500I0J-172500D01*
G01*
X223470000Y-84687500D01*
G75*
G02*
X223297500Y-84860000I-172500J0D01*
G01*
X222902500Y-84860000D01*
G75*
G02*
X222730000Y-84687500I0J172500D01*
G01*
X222730000Y-84342500D01*
G75*
G02*
X222902500Y-84170000I172500J0D01*
G01*
G37*
%TD*%
D15*
%TO.C,U12*%
X188400000Y-82400000D03*
X187450000Y-82400000D03*
X189350000Y-82400000D03*
X189350000Y-84600000D03*
X188400000Y-84600000D03*
X187450000Y-84600000D03*
%TD*%
%TO.C,U11*%
X188500000Y-94400000D03*
X187550000Y-94400000D03*
X189450000Y-94400000D03*
X189450000Y-96600000D03*
X188500000Y-96600000D03*
X187550000Y-96600000D03*
%TD*%
D16*
%TO.C,U10*%
X194900000Y-100500000D03*
X194900000Y-101450000D03*
X194900000Y-99550000D03*
X197100000Y-99550000D03*
X197100000Y-100500000D03*
X197100000Y-101450000D03*
%TD*%
%TO.C,U9*%
X206900000Y-100500000D03*
X206900000Y-101450000D03*
X206900000Y-99550000D03*
X209100000Y-99550000D03*
X209100000Y-100500000D03*
X209100000Y-101450000D03*
%TD*%
%TO.C,U8*%
X219760000Y-100500000D03*
X219760000Y-101450000D03*
X219760000Y-99550000D03*
X221960000Y-99550000D03*
X221960000Y-100500000D03*
X221960000Y-101450000D03*
%TD*%
%TO.C,U7*%
X231400000Y-100500000D03*
X231400000Y-101450000D03*
X231400000Y-99550000D03*
X233600000Y-99550000D03*
X233600000Y-100500000D03*
X233600000Y-101450000D03*
%TD*%
D15*
%TO.C,U6*%
X237500000Y-93600000D03*
X238450000Y-93600000D03*
X236550000Y-93600000D03*
X236550000Y-91400000D03*
X237500000Y-91400000D03*
X238450000Y-91400000D03*
%TD*%
%TO.C,U5*%
X237500000Y-80600000D03*
X238450000Y-80600000D03*
X236550000Y-80600000D03*
X236550000Y-78400000D03*
X237500000Y-78400000D03*
X238450000Y-78400000D03*
%TD*%
%TO.C,U4*%
X237500000Y-64100000D03*
X238450000Y-64100000D03*
X236550000Y-64100000D03*
X236550000Y-61900000D03*
X237500000Y-61900000D03*
X238450000Y-61900000D03*
%TD*%
D17*
%TO.C,U3*%
X230500000Y-59745000D03*
X230500000Y-61015000D03*
X230500000Y-62285000D03*
X230500000Y-63555000D03*
X230500000Y-64825000D03*
X230500000Y-66095000D03*
X230500000Y-67365000D03*
X230500000Y-68635000D03*
X230500000Y-69905000D03*
X230500000Y-71175000D03*
X230500000Y-72445000D03*
X230500000Y-73715000D03*
X230500000Y-74985000D03*
X230500000Y-76255000D03*
D18*
X227715000Y-77255000D03*
X226445000Y-77255000D03*
X225175000Y-77255000D03*
X223905000Y-77255000D03*
X222635000Y-77255000D03*
X221365000Y-77255000D03*
X220095000Y-77255000D03*
X218825000Y-77255000D03*
X217555000Y-77255000D03*
X216285000Y-77255000D03*
D17*
X213500000Y-76255000D03*
X213500000Y-74985000D03*
X213500000Y-73715000D03*
X213500000Y-72445000D03*
X213500000Y-71175000D03*
X213500000Y-69905000D03*
X213500000Y-68635000D03*
X213500000Y-67365000D03*
X213500000Y-66095000D03*
X213500000Y-64825000D03*
X213500000Y-63555000D03*
X213500000Y-62285000D03*
X213500000Y-61015000D03*
X213500000Y-59745000D03*
D19*
X221000000Y-67245000D03*
%TD*%
D20*
%TO.C,U1*%
X206800000Y-67850000D03*
X202200000Y-67850000D03*
X204500000Y-67850000D03*
D21*
X204500000Y-74150000D03*
%TD*%
D20*
%TO.C,SW1*%
X193650000Y-70800000D03*
X193650000Y-63800000D03*
X198150000Y-70800000D03*
X198150000Y-63800000D03*
%TD*%
%TO.C,R12*%
G36*
G01*
X189725000Y-80155000D02*
X189725000Y-78845000D01*
G75*
G02*
X189995000Y-78575000I270000J0D01*
G01*
X190805000Y-78575000D01*
G75*
G02*
X191075000Y-78845000I0J-270000D01*
G01*
X191075000Y-80155000D01*
G75*
G02*
X190805000Y-80425000I-270000J0D01*
G01*
X189995000Y-80425000D01*
G75*
G02*
X189725000Y-80155000I0J270000D01*
G01*
G37*
G36*
G01*
X186925000Y-80155000D02*
X186925000Y-78845000D01*
G75*
G02*
X187195000Y-78575000I270000J0D01*
G01*
X188005000Y-78575000D01*
G75*
G02*
X188275000Y-78845000I0J-270000D01*
G01*
X188275000Y-80155000D01*
G75*
G02*
X188005000Y-80425000I-270000J0D01*
G01*
X187195000Y-80425000D01*
G75*
G02*
X186925000Y-80155000I0J270000D01*
G01*
G37*
%TD*%
%TO.C,R11*%
G36*
G01*
X189725000Y-92155000D02*
X189725000Y-90845000D01*
G75*
G02*
X189995000Y-90575000I270000J0D01*
G01*
X190805000Y-90575000D01*
G75*
G02*
X191075000Y-90845000I0J-270000D01*
G01*
X191075000Y-92155000D01*
G75*
G02*
X190805000Y-92425000I-270000J0D01*
G01*
X189995000Y-92425000D01*
G75*
G02*
X189725000Y-92155000I0J270000D01*
G01*
G37*
G36*
G01*
X186925000Y-92155000D02*
X186925000Y-90845000D01*
G75*
G02*
X187195000Y-90575000I270000J0D01*
G01*
X188005000Y-90575000D01*
G75*
G02*
X188275000Y-90845000I0J-270000D01*
G01*
X188275000Y-92155000D01*
G75*
G02*
X188005000Y-92425000I-270000J0D01*
G01*
X187195000Y-92425000D01*
G75*
G02*
X186925000Y-92155000I0J270000D01*
G01*
G37*
%TD*%
%TO.C,R10*%
G36*
G01*
X192655000Y-99275000D02*
X191345000Y-99275000D01*
G75*
G02*
X191075000Y-99005000I0J270000D01*
G01*
X191075000Y-98195000D01*
G75*
G02*
X191345000Y-97925000I270000J0D01*
G01*
X192655000Y-97925000D01*
G75*
G02*
X192925000Y-98195000I0J-270000D01*
G01*
X192925000Y-99005000D01*
G75*
G02*
X192655000Y-99275000I-270000J0D01*
G01*
G37*
G36*
G01*
X192655000Y-102075000D02*
X191345000Y-102075000D01*
G75*
G02*
X191075000Y-101805000I0J270000D01*
G01*
X191075000Y-100995000D01*
G75*
G02*
X191345000Y-100725000I270000J0D01*
G01*
X192655000Y-100725000D01*
G75*
G02*
X192925000Y-100995000I0J-270000D01*
G01*
X192925000Y-101805000D01*
G75*
G02*
X192655000Y-102075000I-270000J0D01*
G01*
G37*
%TD*%
%TO.C,R9*%
G36*
G01*
X204655000Y-99275000D02*
X203345000Y-99275000D01*
G75*
G02*
X203075000Y-99005000I0J270000D01*
G01*
X203075000Y-98195000D01*
G75*
G02*
X203345000Y-97925000I270000J0D01*
G01*
X204655000Y-97925000D01*
G75*
G02*
X204925000Y-98195000I0J-270000D01*
G01*
X204925000Y-99005000D01*
G75*
G02*
X204655000Y-99275000I-270000J0D01*
G01*
G37*
G36*
G01*
X204655000Y-102075000D02*
X203345000Y-102075000D01*
G75*
G02*
X203075000Y-101805000I0J270000D01*
G01*
X203075000Y-100995000D01*
G75*
G02*
X203345000Y-100725000I270000J0D01*
G01*
X204655000Y-100725000D01*
G75*
G02*
X204925000Y-100995000I0J-270000D01*
G01*
X204925000Y-101805000D01*
G75*
G02*
X204655000Y-102075000I-270000J0D01*
G01*
G37*
%TD*%
%TO.C,R8*%
G36*
G01*
X217655000Y-99275000D02*
X216345000Y-99275000D01*
G75*
G02*
X216075000Y-99005000I0J270000D01*
G01*
X216075000Y-98195000D01*
G75*
G02*
X216345000Y-97925000I270000J0D01*
G01*
X217655000Y-97925000D01*
G75*
G02*
X217925000Y-98195000I0J-270000D01*
G01*
X217925000Y-99005000D01*
G75*
G02*
X217655000Y-99275000I-270000J0D01*
G01*
G37*
G36*
G01*
X217655000Y-102075000D02*
X216345000Y-102075000D01*
G75*
G02*
X216075000Y-101805000I0J270000D01*
G01*
X216075000Y-100995000D01*
G75*
G02*
X216345000Y-100725000I270000J0D01*
G01*
X217655000Y-100725000D01*
G75*
G02*
X217925000Y-100995000I0J-270000D01*
G01*
X217925000Y-101805000D01*
G75*
G02*
X217655000Y-102075000I-270000J0D01*
G01*
G37*
%TD*%
%TO.C,R7*%
G36*
G01*
X229355000Y-99275000D02*
X228045000Y-99275000D01*
G75*
G02*
X227775000Y-99005000I0J270000D01*
G01*
X227775000Y-98195000D01*
G75*
G02*
X228045000Y-97925000I270000J0D01*
G01*
X229355000Y-97925000D01*
G75*
G02*
X229625000Y-98195000I0J-270000D01*
G01*
X229625000Y-99005000D01*
G75*
G02*
X229355000Y-99275000I-270000J0D01*
G01*
G37*
G36*
G01*
X229355000Y-102075000D02*
X228045000Y-102075000D01*
G75*
G02*
X227775000Y-101805000I0J270000D01*
G01*
X227775000Y-100995000D01*
G75*
G02*
X228045000Y-100725000I270000J0D01*
G01*
X229355000Y-100725000D01*
G75*
G02*
X229625000Y-100995000I0J-270000D01*
G01*
X229625000Y-101805000D01*
G75*
G02*
X229355000Y-102075000I-270000J0D01*
G01*
G37*
%TD*%
%TO.C,R6*%
G36*
G01*
X236275000Y-95345000D02*
X236275000Y-96655000D01*
G75*
G02*
X236005000Y-96925000I-270000J0D01*
G01*
X235195000Y-96925000D01*
G75*
G02*
X234925000Y-96655000I0J270000D01*
G01*
X234925000Y-95345000D01*
G75*
G02*
X235195000Y-95075000I270000J0D01*
G01*
X236005000Y-95075000D01*
G75*
G02*
X236275000Y-95345000I0J-270000D01*
G01*
G37*
G36*
G01*
X239075000Y-95345000D02*
X239075000Y-96655000D01*
G75*
G02*
X238805000Y-96925000I-270000J0D01*
G01*
X237995000Y-96925000D01*
G75*
G02*
X237725000Y-96655000I0J270000D01*
G01*
X237725000Y-95345000D01*
G75*
G02*
X237995000Y-95075000I270000J0D01*
G01*
X238805000Y-95075000D01*
G75*
G02*
X239075000Y-95345000I0J-270000D01*
G01*
G37*
%TD*%
%TO.C,R5*%
G36*
G01*
X236275000Y-82305000D02*
X236275000Y-83615000D01*
G75*
G02*
X236005000Y-83885000I-270000J0D01*
G01*
X235195000Y-83885000D01*
G75*
G02*
X234925000Y-83615000I0J270000D01*
G01*
X234925000Y-82305000D01*
G75*
G02*
X235195000Y-82035000I270000J0D01*
G01*
X236005000Y-82035000D01*
G75*
G02*
X236275000Y-82305000I0J-270000D01*
G01*
G37*
G36*
G01*
X239075000Y-82305000D02*
X239075000Y-83615000D01*
G75*
G02*
X238805000Y-83885000I-270000J0D01*
G01*
X237995000Y-83885000D01*
G75*
G02*
X237725000Y-83615000I0J270000D01*
G01*
X237725000Y-82305000D01*
G75*
G02*
X237995000Y-82035000I270000J0D01*
G01*
X238805000Y-82035000D01*
G75*
G02*
X239075000Y-82305000I0J-270000D01*
G01*
G37*
%TD*%
%TO.C,R4*%
G36*
G01*
X236275000Y-67345000D02*
X236275000Y-68655000D01*
G75*
G02*
X236005000Y-68925000I-270000J0D01*
G01*
X235195000Y-68925000D01*
G75*
G02*
X234925000Y-68655000I0J270000D01*
G01*
X234925000Y-67345000D01*
G75*
G02*
X235195000Y-67075000I270000J0D01*
G01*
X236005000Y-67075000D01*
G75*
G02*
X236275000Y-67345000I0J-270000D01*
G01*
G37*
G36*
G01*
X239075000Y-67345000D02*
X239075000Y-68655000D01*
G75*
G02*
X238805000Y-68925000I-270000J0D01*
G01*
X237995000Y-68925000D01*
G75*
G02*
X237725000Y-68655000I0J270000D01*
G01*
X237725000Y-67345000D01*
G75*
G02*
X237995000Y-67075000I270000J0D01*
G01*
X238805000Y-67075000D01*
G75*
G02*
X239075000Y-67345000I0J-270000D01*
G01*
G37*
%TD*%
%TO.C,R3*%
G36*
G01*
X204302500Y-78140000D02*
X204697500Y-78140000D01*
G75*
G02*
X204870000Y-78312500I0J-172500D01*
G01*
X204870000Y-78657500D01*
G75*
G02*
X204697500Y-78830000I-172500J0D01*
G01*
X204302500Y-78830000D01*
G75*
G02*
X204130000Y-78657500I0J172500D01*
G01*
X204130000Y-78312500D01*
G75*
G02*
X204302500Y-78140000I172500J0D01*
G01*
G37*
G36*
G01*
X204302500Y-77170000D02*
X204697500Y-77170000D01*
G75*
G02*
X204870000Y-77342500I0J-172500D01*
G01*
X204870000Y-77687500D01*
G75*
G02*
X204697500Y-77860000I-172500J0D01*
G01*
X204302500Y-77860000D01*
G75*
G02*
X204130000Y-77687500I0J172500D01*
G01*
X204130000Y-77342500D01*
G75*
G02*
X204302500Y-77170000I172500J0D01*
G01*
G37*
%TD*%
%TO.C,R2*%
G36*
G01*
X199140000Y-81697500D02*
X199140000Y-81302500D01*
G75*
G02*
X199312500Y-81130000I172500J0D01*
G01*
X199657500Y-81130000D01*
G75*
G02*
X199830000Y-81302500I0J-172500D01*
G01*
X199830000Y-81697500D01*
G75*
G02*
X199657500Y-81870000I-172500J0D01*
G01*
X199312500Y-81870000D01*
G75*
G02*
X199140000Y-81697500I0J172500D01*
G01*
G37*
G36*
G01*
X198170000Y-81697500D02*
X198170000Y-81302500D01*
G75*
G02*
X198342500Y-81130000I172500J0D01*
G01*
X198687500Y-81130000D01*
G75*
G02*
X198860000Y-81302500I0J-172500D01*
G01*
X198860000Y-81697500D01*
G75*
G02*
X198687500Y-81870000I-172500J0D01*
G01*
X198342500Y-81870000D01*
G75*
G02*
X198170000Y-81697500I0J172500D01*
G01*
G37*
%TD*%
%TO.C,R1*%
G36*
G01*
X195860000Y-75302500D02*
X195860000Y-75697500D01*
G75*
G02*
X195687500Y-75870000I-172500J0D01*
G01*
X195342500Y-75870000D01*
G75*
G02*
X195170000Y-75697500I0J172500D01*
G01*
X195170000Y-75302500D01*
G75*
G02*
X195342500Y-75130000I172500J0D01*
G01*
X195687500Y-75130000D01*
G75*
G02*
X195860000Y-75302500I0J-172500D01*
G01*
G37*
G36*
G01*
X196830000Y-75302500D02*
X196830000Y-75697500D01*
G75*
G02*
X196657500Y-75870000I-172500J0D01*
G01*
X196312500Y-75870000D01*
G75*
G02*
X196140000Y-75697500I0J172500D01*
G01*
X196140000Y-75302500D01*
G75*
G02*
X196312500Y-75130000I172500J0D01*
G01*
X196657500Y-75130000D01*
G75*
G02*
X196830000Y-75302500I0J-172500D01*
G01*
G37*
%TD*%
D22*
%TO.C,Q2*%
X195500000Y-78500000D03*
X197500000Y-77550000D03*
X197500000Y-79450000D03*
%TD*%
%TO.C,Q1*%
X202500000Y-78500000D03*
X200500000Y-79450000D03*
X200500000Y-77550000D03*
%TD*%
D23*
%TO.C,J2*%
X203000000Y-64160000D03*
X203000000Y-61620000D03*
X203000000Y-59080000D03*
X203000000Y-56540000D03*
D24*
X203000000Y-54000000D03*
%TD*%
D25*
%TO.C,J1*%
X190950000Y-53400000D03*
X197050000Y-53400000D03*
X193000000Y-53400000D03*
X195000000Y-53400000D03*
D26*
X190500000Y-53400000D03*
X197500000Y-53400000D03*
D27*
X191500000Y-56100000D03*
X196500000Y-56100000D03*
D28*
X192700000Y-56075000D03*
X193350000Y-56075000D03*
X194000000Y-56075000D03*
X194650000Y-56075000D03*
X195300000Y-56075000D03*
%TD*%
D29*
%TO.C,H4*%
X245500000Y-108500000D03*
%TD*%
%TO.C,H3*%
X245500000Y-57000000D03*
%TD*%
%TO.C,H2*%
X180500000Y-108500000D03*
%TD*%
%TO.C,H1*%
X180500000Y-57000000D03*
%TD*%
%TO.C,D2*%
G36*
G01*
X221781250Y-84200000D02*
X221218750Y-84200000D01*
G75*
G02*
X220975000Y-83956250I0J243750D01*
G01*
X220975000Y-83468750D01*
G75*
G02*
X221218750Y-83225000I243750J0D01*
G01*
X221781250Y-83225000D01*
G75*
G02*
X222025000Y-83468750I0J-243750D01*
G01*
X222025000Y-83956250D01*
G75*
G02*
X221781250Y-84200000I-243750J0D01*
G01*
G37*
G36*
G01*
X221781250Y-85775000D02*
X221218750Y-85775000D01*
G75*
G02*
X220975000Y-85531250I0J243750D01*
G01*
X220975000Y-85043750D01*
G75*
G02*
X221218750Y-84800000I243750J0D01*
G01*
X221781250Y-84800000D01*
G75*
G02*
X222025000Y-85043750I0J-243750D01*
G01*
X222025000Y-85531250D01*
G75*
G02*
X221781250Y-85775000I-243750J0D01*
G01*
G37*
%TD*%
%TO.C,C16*%
G36*
G01*
X191302500Y-83140000D02*
X191697500Y-83140000D01*
G75*
G02*
X191870000Y-83312500I0J-172500D01*
G01*
X191870000Y-83657500D01*
G75*
G02*
X191697500Y-83830000I-172500J0D01*
G01*
X191302500Y-83830000D01*
G75*
G02*
X191130000Y-83657500I0J172500D01*
G01*
X191130000Y-83312500D01*
G75*
G02*
X191302500Y-83140000I172500J0D01*
G01*
G37*
G36*
G01*
X191302500Y-82170000D02*
X191697500Y-82170000D01*
G75*
G02*
X191870000Y-82342500I0J-172500D01*
G01*
X191870000Y-82687500D01*
G75*
G02*
X191697500Y-82860000I-172500J0D01*
G01*
X191302500Y-82860000D01*
G75*
G02*
X191130000Y-82687500I0J172500D01*
G01*
X191130000Y-82342500D01*
G75*
G02*
X191302500Y-82170000I172500J0D01*
G01*
G37*
%TD*%
%TO.C,C15*%
G36*
G01*
X191302500Y-95125000D02*
X191697500Y-95125000D01*
G75*
G02*
X191870000Y-95297500I0J-172500D01*
G01*
X191870000Y-95642500D01*
G75*
G02*
X191697500Y-95815000I-172500J0D01*
G01*
X191302500Y-95815000D01*
G75*
G02*
X191130000Y-95642500I0J172500D01*
G01*
X191130000Y-95297500D01*
G75*
G02*
X191302500Y-95125000I172500J0D01*
G01*
G37*
G36*
G01*
X191302500Y-94155000D02*
X191697500Y-94155000D01*
G75*
G02*
X191870000Y-94327500I0J-172500D01*
G01*
X191870000Y-94672500D01*
G75*
G02*
X191697500Y-94845000I-172500J0D01*
G01*
X191302500Y-94845000D01*
G75*
G02*
X191130000Y-94672500I0J172500D01*
G01*
X191130000Y-94327500D01*
G75*
G02*
X191302500Y-94155000I172500J0D01*
G01*
G37*
%TD*%
%TO.C,C14*%
G36*
G01*
X196640000Y-97697500D02*
X196640000Y-97302500D01*
G75*
G02*
X196812500Y-97130000I172500J0D01*
G01*
X197157500Y-97130000D01*
G75*
G02*
X197330000Y-97302500I0J-172500D01*
G01*
X197330000Y-97697500D01*
G75*
G02*
X197157500Y-97870000I-172500J0D01*
G01*
X196812500Y-97870000D01*
G75*
G02*
X196640000Y-97697500I0J172500D01*
G01*
G37*
G36*
G01*
X195670000Y-97697500D02*
X195670000Y-97302500D01*
G75*
G02*
X195842500Y-97130000I172500J0D01*
G01*
X196187500Y-97130000D01*
G75*
G02*
X196360000Y-97302500I0J-172500D01*
G01*
X196360000Y-97697500D01*
G75*
G02*
X196187500Y-97870000I-172500J0D01*
G01*
X195842500Y-97870000D01*
G75*
G02*
X195670000Y-97697500I0J172500D01*
G01*
G37*
%TD*%
%TO.C,C13*%
G36*
G01*
X208640000Y-97697500D02*
X208640000Y-97302500D01*
G75*
G02*
X208812500Y-97130000I172500J0D01*
G01*
X209157500Y-97130000D01*
G75*
G02*
X209330000Y-97302500I0J-172500D01*
G01*
X209330000Y-97697500D01*
G75*
G02*
X209157500Y-97870000I-172500J0D01*
G01*
X208812500Y-97870000D01*
G75*
G02*
X208640000Y-97697500I0J172500D01*
G01*
G37*
G36*
G01*
X207670000Y-97697500D02*
X207670000Y-97302500D01*
G75*
G02*
X207842500Y-97130000I172500J0D01*
G01*
X208187500Y-97130000D01*
G75*
G02*
X208360000Y-97302500I0J-172500D01*
G01*
X208360000Y-97697500D01*
G75*
G02*
X208187500Y-97870000I-172500J0D01*
G01*
X207842500Y-97870000D01*
G75*
G02*
X207670000Y-97697500I0J172500D01*
G01*
G37*
%TD*%
%TO.C,C12*%
G36*
G01*
X221140000Y-97697500D02*
X221140000Y-97302500D01*
G75*
G02*
X221312500Y-97130000I172500J0D01*
G01*
X221657500Y-97130000D01*
G75*
G02*
X221830000Y-97302500I0J-172500D01*
G01*
X221830000Y-97697500D01*
G75*
G02*
X221657500Y-97870000I-172500J0D01*
G01*
X221312500Y-97870000D01*
G75*
G02*
X221140000Y-97697500I0J172500D01*
G01*
G37*
G36*
G01*
X220170000Y-97697500D02*
X220170000Y-97302500D01*
G75*
G02*
X220342500Y-97130000I172500J0D01*
G01*
X220687500Y-97130000D01*
G75*
G02*
X220860000Y-97302500I0J-172500D01*
G01*
X220860000Y-97697500D01*
G75*
G02*
X220687500Y-97870000I-172500J0D01*
G01*
X220342500Y-97870000D01*
G75*
G02*
X220170000Y-97697500I0J172500D01*
G01*
G37*
%TD*%
%TO.C,C11*%
G36*
G01*
X232640000Y-97697500D02*
X232640000Y-97302500D01*
G75*
G02*
X232812500Y-97130000I172500J0D01*
G01*
X233157500Y-97130000D01*
G75*
G02*
X233330000Y-97302500I0J-172500D01*
G01*
X233330000Y-97697500D01*
G75*
G02*
X233157500Y-97870000I-172500J0D01*
G01*
X232812500Y-97870000D01*
G75*
G02*
X232640000Y-97697500I0J172500D01*
G01*
G37*
G36*
G01*
X231670000Y-97697500D02*
X231670000Y-97302500D01*
G75*
G02*
X231842500Y-97130000I172500J0D01*
G01*
X232187500Y-97130000D01*
G75*
G02*
X232360000Y-97302500I0J-172500D01*
G01*
X232360000Y-97697500D01*
G75*
G02*
X232187500Y-97870000I-172500J0D01*
G01*
X231842500Y-97870000D01*
G75*
G02*
X231670000Y-97697500I0J172500D01*
G01*
G37*
%TD*%
%TO.C,C10*%
G36*
G01*
X234897500Y-92360000D02*
X234502500Y-92360000D01*
G75*
G02*
X234330000Y-92187500I0J172500D01*
G01*
X234330000Y-91842500D01*
G75*
G02*
X234502500Y-91670000I172500J0D01*
G01*
X234897500Y-91670000D01*
G75*
G02*
X235070000Y-91842500I0J-172500D01*
G01*
X235070000Y-92187500D01*
G75*
G02*
X234897500Y-92360000I-172500J0D01*
G01*
G37*
G36*
G01*
X234897500Y-93330000D02*
X234502500Y-93330000D01*
G75*
G02*
X234330000Y-93157500I0J172500D01*
G01*
X234330000Y-92812500D01*
G75*
G02*
X234502500Y-92640000I172500J0D01*
G01*
X234897500Y-92640000D01*
G75*
G02*
X235070000Y-92812500I0J-172500D01*
G01*
X235070000Y-93157500D01*
G75*
G02*
X234897500Y-93330000I-172500J0D01*
G01*
G37*
%TD*%
%TO.C,C9*%
G36*
G01*
X234897500Y-79360000D02*
X234502500Y-79360000D01*
G75*
G02*
X234330000Y-79187500I0J172500D01*
G01*
X234330000Y-78842500D01*
G75*
G02*
X234502500Y-78670000I172500J0D01*
G01*
X234897500Y-78670000D01*
G75*
G02*
X235070000Y-78842500I0J-172500D01*
G01*
X235070000Y-79187500D01*
G75*
G02*
X234897500Y-79360000I-172500J0D01*
G01*
G37*
G36*
G01*
X234897500Y-80330000D02*
X234502500Y-80330000D01*
G75*
G02*
X234330000Y-80157500I0J172500D01*
G01*
X234330000Y-79812500D01*
G75*
G02*
X234502500Y-79640000I172500J0D01*
G01*
X234897500Y-79640000D01*
G75*
G02*
X235070000Y-79812500I0J-172500D01*
G01*
X235070000Y-80157500D01*
G75*
G02*
X234897500Y-80330000I-172500J0D01*
G01*
G37*
%TD*%
%TO.C,C8*%
G36*
G01*
X236860000Y-65802500D02*
X236860000Y-66197500D01*
G75*
G02*
X236687500Y-66370000I-172500J0D01*
G01*
X236342500Y-66370000D01*
G75*
G02*
X236170000Y-66197500I0J172500D01*
G01*
X236170000Y-65802500D01*
G75*
G02*
X236342500Y-65630000I172500J0D01*
G01*
X236687500Y-65630000D01*
G75*
G02*
X236860000Y-65802500I0J-172500D01*
G01*
G37*
G36*
G01*
X237830000Y-65802500D02*
X237830000Y-66197500D01*
G75*
G02*
X237657500Y-66370000I-172500J0D01*
G01*
X237312500Y-66370000D01*
G75*
G02*
X237140000Y-66197500I0J172500D01*
G01*
X237140000Y-65802500D01*
G75*
G02*
X237312500Y-65630000I172500J0D01*
G01*
X237657500Y-65630000D01*
G75*
G02*
X237830000Y-65802500I0J-172500D01*
G01*
G37*
%TD*%
%TO.C,C7*%
G36*
G01*
X206697500Y-60360000D02*
X206302500Y-60360000D01*
G75*
G02*
X206130000Y-60187500I0J172500D01*
G01*
X206130000Y-59842500D01*
G75*
G02*
X206302500Y-59670000I172500J0D01*
G01*
X206697500Y-59670000D01*
G75*
G02*
X206870000Y-59842500I0J-172500D01*
G01*
X206870000Y-60187500D01*
G75*
G02*
X206697500Y-60360000I-172500J0D01*
G01*
G37*
G36*
G01*
X206697500Y-61330000D02*
X206302500Y-61330000D01*
G75*
G02*
X206130000Y-61157500I0J172500D01*
G01*
X206130000Y-60812500D01*
G75*
G02*
X206302500Y-60640000I172500J0D01*
G01*
X206697500Y-60640000D01*
G75*
G02*
X206870000Y-60812500I0J-172500D01*
G01*
X206870000Y-61157500D01*
G75*
G02*
X206697500Y-61330000I-172500J0D01*
G01*
G37*
%TD*%
%TO.C,C6*%
G36*
G01*
X208281250Y-60200000D02*
X207718750Y-60200000D01*
G75*
G02*
X207475000Y-59956250I0J243750D01*
G01*
X207475000Y-59468750D01*
G75*
G02*
X207718750Y-59225000I243750J0D01*
G01*
X208281250Y-59225000D01*
G75*
G02*
X208525000Y-59468750I0J-243750D01*
G01*
X208525000Y-59956250D01*
G75*
G02*
X208281250Y-60200000I-243750J0D01*
G01*
G37*
G36*
G01*
X208281250Y-61775000D02*
X207718750Y-61775000D01*
G75*
G02*
X207475000Y-61531250I0J243750D01*
G01*
X207475000Y-61043750D01*
G75*
G02*
X207718750Y-60800000I243750J0D01*
G01*
X208281250Y-60800000D01*
G75*
G02*
X208525000Y-61043750I0J-243750D01*
G01*
X208525000Y-61531250D01*
G75*
G02*
X208281250Y-61775000I-243750J0D01*
G01*
G37*
%TD*%
%TO.C,C5*%
G36*
G01*
X191681250Y-63200000D02*
X191118750Y-63200000D01*
G75*
G02*
X190875000Y-62956250I0J243750D01*
G01*
X190875000Y-62468750D01*
G75*
G02*
X191118750Y-62225000I243750J0D01*
G01*
X191681250Y-62225000D01*
G75*
G02*
X191925000Y-62468750I0J-243750D01*
G01*
X191925000Y-62956250D01*
G75*
G02*
X191681250Y-63200000I-243750J0D01*
G01*
G37*
G36*
G01*
X191681250Y-64775000D02*
X191118750Y-64775000D01*
G75*
G02*
X190875000Y-64531250I0J243750D01*
G01*
X190875000Y-64043750D01*
G75*
G02*
X191118750Y-63800000I243750J0D01*
G01*
X191681250Y-63800000D01*
G75*
G02*
X191925000Y-64043750I0J-243750D01*
G01*
X191925000Y-64531250D01*
G75*
G02*
X191681250Y-64775000I-243750J0D01*
G01*
G37*
%TD*%
%TO.C,C4*%
G36*
G01*
X206800000Y-65781250D02*
X206800000Y-65218750D01*
G75*
G02*
X207043750Y-64975000I243750J0D01*
G01*
X207531250Y-64975000D01*
G75*
G02*
X207775000Y-65218750I0J-243750D01*
G01*
X207775000Y-65781250D01*
G75*
G02*
X207531250Y-66025000I-243750J0D01*
G01*
X207043750Y-66025000D01*
G75*
G02*
X206800000Y-65781250I0J243750D01*
G01*
G37*
G36*
G01*
X205225000Y-65781250D02*
X205225000Y-65218750D01*
G75*
G02*
X205468750Y-64975000I243750J0D01*
G01*
X205956250Y-64975000D01*
G75*
G02*
X206200000Y-65218750I0J-243750D01*
G01*
X206200000Y-65781250D01*
G75*
G02*
X205956250Y-66025000I-243750J0D01*
G01*
X205468750Y-66025000D01*
G75*
G02*
X205225000Y-65781250I0J243750D01*
G01*
G37*
%TD*%
%TO.C,C2*%
G36*
G01*
X199897500Y-83860000D02*
X199502500Y-83860000D01*
G75*
G02*
X199330000Y-83687500I0J172500D01*
G01*
X199330000Y-83342500D01*
G75*
G02*
X199502500Y-83170000I172500J0D01*
G01*
X199897500Y-83170000D01*
G75*
G02*
X200070000Y-83342500I0J-172500D01*
G01*
X200070000Y-83687500D01*
G75*
G02*
X199897500Y-83860000I-172500J0D01*
G01*
G37*
G36*
G01*
X199897500Y-84830000D02*
X199502500Y-84830000D01*
G75*
G02*
X199330000Y-84657500I0J172500D01*
G01*
X199330000Y-84312500D01*
G75*
G02*
X199502500Y-84140000I172500J0D01*
G01*
X199897500Y-84140000D01*
G75*
G02*
X200070000Y-84312500I0J-172500D01*
G01*
X200070000Y-84657500D01*
G75*
G02*
X199897500Y-84830000I-172500J0D01*
G01*
G37*
%TD*%
%TO.C,C1*%
G36*
G01*
X200297500Y-69830000D02*
X199902500Y-69830000D01*
G75*
G02*
X199730000Y-69657500I0J172500D01*
G01*
X199730000Y-69312500D01*
G75*
G02*
X199902500Y-69140000I172500J0D01*
G01*
X200297500Y-69140000D01*
G75*
G02*
X200470000Y-69312500I0J-172500D01*
G01*
X200470000Y-69657500D01*
G75*
G02*
X200297500Y-69830000I-172500J0D01*
G01*
G37*
G36*
G01*
X200297500Y-68860000D02*
X199902500Y-68860000D01*
G75*
G02*
X199730000Y-68687500I0J172500D01*
G01*
X199730000Y-68342500D01*
G75*
G02*
X199902500Y-68170000I172500J0D01*
G01*
X200297500Y-68170000D01*
G75*
G02*
X200470000Y-68342500I0J-172500D01*
G01*
X200470000Y-68687500D01*
G75*
G02*
X200297500Y-68860000I-172500J0D01*
G01*
G37*
%TD*%
M02*
